<svg width="23" height="23" viewBox="0 0 23 23" fill="none" xmlns="http://www.w3.org/2000/svg">
<path d="M21.125 11.9014C21.1252 11.9917 21.1075 12.0811 21.073 12.1646C21.0384 12.248 20.9876 12.3238 20.9235 12.3874L14.0485 19.2624C13.9189 19.3877 13.7452 19.457 13.5649 19.4554C13.3847 19.4538 13.2123 19.3815 13.0848 19.2541C12.9573 19.1266 12.885 18.9542 12.8834 18.7739C12.8819 18.5936 12.9512 18.42 13.0764 18.2903L19.4654 11.9014L13.0764 5.51243C12.9512 5.38277 12.8819 5.2091 12.8834 5.02884C12.885 4.84858 12.9573 4.67615 13.0848 4.54868C13.2123 4.42121 13.3847 4.34891 13.5649 4.34734C13.7452 4.34577 13.9189 4.41507 14.0485 4.5403L20.9235 11.4153C20.9876 11.479 21.0384 11.5547 21.073 11.6382C21.1075 11.7216 21.1252 11.8111 21.125 11.9014ZM17.6875 11.9014C17.6877 11.8111 17.67 11.7216 17.6355 11.6382C17.6009 11.5547 17.5501 11.479 17.486 11.4153L10.611 4.5403C10.4821 4.41136 10.3073 4.33891 10.125 4.33887H2.56248C2.42652 4.3389 2.29363 4.37923 2.1806 4.45478C2.06757 4.53032 1.97947 4.63769 1.92745 4.76329C1.87542 4.8889 1.86181 5.02711 1.88832 5.16045C1.91484 5.29379 1.98029 5.41628 2.07641 5.51243L8.46535 11.9014L2.07641 18.2903C1.98029 18.3865 1.91484 18.5089 1.88832 18.6423C1.86181 18.7756 1.87542 18.9138 1.92745 19.0394C1.97947 19.165 2.06757 19.2724 2.1806 19.348C2.29363 19.4235 2.42652 19.4638 2.56248 19.4639H10.125C10.3073 19.4638 10.4821 19.3914 10.611 19.2624L17.486 12.3874C17.5501 12.3238 17.6009 12.248 17.6355 12.1646C17.67 12.0811 17.6877 11.9917 17.6875 11.9014Z" fill="#9486D9"/>
</svg>
