<svg width="686" height="718" viewBox="0 0 686 718" fill="none" xmlns="http://www.w3.org/2000/svg">
<path opacity="0.3" d="M651.889 480.689C584.554 645.672 406.813 716.537 267.55 704.454C229.526 701.155 153.02 694.518 93.2831 635.3C-21.4367 521.576 -3.76857 283.861 106.051 143.908C120.194 125.884 218.086 5.1318 370.633 6.74801C482.32 7.93147 560.712 74.0673 570.244 82.3066C582.286 92.7151 608.845 117.449 632.781 156.687C689.022 248.883 693.966 377.59 651.889 480.689Z" fill="#D5B1FF"/>
<path d="M8.01701 3.57645C7.37835 0.726053 11.2032 -1.16866 13.5455 0.822384C37.3304 21.0406 94.4782 81.5847 80.2358 187.39C62.3667 320.139 92.9161 368.577 130.943 398.124C130.943 398.124 78.7197 384.229 45.8632 335.078C-34.8065 214.399 19.3746 54.2581 8.01701 3.57645Z" fill="url(#paint0_linear_88_1128)"/>
<path d="M26.1179 45.04C29.0934 59.8182 31.7453 74.6415 33.7948 89.5317C35.9302 104.409 37.5663 119.339 38.6863 134.293C39.7426 149.25 40.4886 164.222 40.5311 179.201C40.648 194.179 40.0538 209.145 39.3995 224.169C38.8381 239.188 38.1781 254.314 39.2269 269.548C40.2581 284.752 43.3111 300.087 49.369 314.464C50.8834 318.046 52.4758 321.618 54.2847 325.07C56.024 328.553 57.9338 331.967 59.9107 335.349C63.9022 342.097 68.3953 348.617 73.4025 354.805C83.4531 367.16 95.5745 378.12 108.928 387.395C110.333 388.372 112.347 388.132 113.426 386.859C114.485 385.61 114.248 383.83 112.909 382.842L112.899 382.835C109.722 380.496 106.578 378.127 103.562 375.638C102.031 374.416 100.564 373.135 99.0704 371.879C97.6315 370.574 96.1359 369.318 94.7432 367.974C89.073 362.684 83.82 357.039 79.0544 351.071C69.4683 339.191 61.7944 325.952 55.9802 312.227C53.1579 305.333 50.902 298.263 49.2546 291.06C47.6133 283.855 46.5809 276.525 46.01 269.136C44.8666 254.349 45.383 239.372 45.8252 224.351C46.2458 209.326 46.5545 194.224 46.1764 179.135C46.0097 171.59 45.6934 164.05 45.2281 156.518C45.0193 152.752 44.7302 148.989 44.4484 145.226C44.1267 141.467 43.7821 137.709 43.404 133.954C41.86 118.938 39.8106 103.971 37.2418 89.0844C34.594 74.2088 31.5112 59.4016 27.8031 44.7271C27.6971 44.3074 27.2356 44.0453 26.7724 44.1414C26.3224 44.2342 26.0367 44.6331 26.1179 45.04Z" fill="white"/>
<path d="M69.6313 321.322C66.715 324.566 61.5863 323.633 59.8322 319.573C50.1518 297.171 28.2467 231.236 64.4243 155.276C94.9746 91.1316 105.725 53.3065 109.471 35.7807C110.263 32.0748 115.108 31.5826 116.57 35.0574C132.704 73.393 175.306 203.79 69.6313 321.322Z" fill="url(#paint1_linear_88_1128)"/>
<path d="M64.3336 318.959C64.2299 318.979 64.1231 318.988 64.0136 318.986C63.0971 318.972 62.3653 318.181 62.3792 317.22C62.3951 316.13 64.4177 207.24 103.052 116.039C103.424 115.162 104.405 114.766 105.244 115.155C106.081 115.546 106.459 116.574 106.087 117.452C67.7332 207.989 65.7145 316.191 65.6986 317.273C65.6867 318.12 65.0998 318.815 64.3336 318.959Z" fill="white"/>
<path d="M54.5589 165.76L615.893 155.816C638.492 155.416 656.632 175.735 655.289 199.946L635.967 548.256C634.91 567.318 620.283 582.251 602.488 582.435L62.9099 588.029C49.5821 588.167 38.5709 576.903 38.0635 562.611L25.1539 199.085C24.5149 181.095 37.7836 166.057 54.5589 165.76Z" fill="url(#paint2_linear_88_1128)"/>
<path d="M63.1627 174.633L609.846 165.173C631.856 164.792 649.522 184.123 648.214 207.158L629.396 538.54C628.367 556.677 614.122 570.884 596.791 571.059L71.2956 576.381C58.3159 576.513 47.5921 565.795 47.0976 552.198L34.5248 206.338C33.9028 189.223 46.8254 174.916 63.1627 174.633Z" fill="url(#paint3_linear_88_1128)"/>
<path opacity="0.5" d="M73.3881 186.054L593.96 177.045C614.919 176.682 631.741 195.091 630.495 217.025L612.577 532.58C611.596 549.85 598.032 563.378 581.529 563.546L81.1329 568.613C68.773 568.738 58.5613 558.533 58.0908 545.585L46.1183 216.245C45.5258 199.946 57.8312 186.323 73.3881 186.054Z" fill="white"/>
<path d="M611.11 164.897L62.1362 174.397C45.7302 174.681 32.7536 189.048 33.3783 206.235L34.2646 230.616H648.301L649.638 207.058C650.952 183.927 633.212 164.515 611.11 164.897Z" fill="url(#paint4_linear_88_1128)"/>
<g opacity="0.85">
<path d="M79.3985 186.183C79.3985 189.042 77.188 191.359 74.461 191.359C71.7341 191.359 69.5233 189.042 69.5233 186.183C69.5233 183.325 71.7341 181.007 74.461 181.007C77.188 181.007 79.3985 183.325 79.3985 186.183Z" fill="white"/>
<path d="M79.3986 201.351C79.3986 204.209 77.1881 206.526 74.4611 206.526C71.7342 206.526 69.5234 204.209 69.5234 201.351C69.5234 198.492 71.7342 196.175 74.4611 196.175C77.1881 196.175 79.3986 198.492 79.3986 201.351Z" fill="white"/>
<path d="M79.3986 216.515C79.3986 219.374 77.1881 221.691 74.4611 221.691C71.7342 221.691 69.5234 219.374 69.5234 216.515C69.5234 213.657 71.7342 211.339 74.4611 211.339C77.1881 211.339 79.3986 213.657 79.3986 216.515Z" fill="white"/>
</g>
<g opacity="0.8">
<path d="M267.479 534.298L223.377 536.711V465.92L267.479 464.263V534.298Z" fill="white"/>
<path d="M338.925 530.387L296.359 532.717V440.279L338.925 438.919V530.387Z" fill="white"/>
<path d="M407.917 526.615L366.809 528.864V408.123L407.917 407.118V526.615Z" fill="white"/>
<path d="M474.578 522.966L434.854 525.139V367.381L474.578 366.806V522.966Z" fill="white"/>
<path d="M458.381 272.179C455.148 270.225 450.914 271.178 448.947 274.338C446.83 277.715 444.644 281.02 442.378 284.251C400.074 344.529 330.55 380.24 232.769 389.888C229.582 390.202 227.063 390.443 225.199 390.696C223.979 390.864 222.242 391.106 220.551 391.817C218.848 392.529 217.215 393.735 216.26 395.846C214.603 399.512 216.455 403.648 220.379 405.096C221.356 405.457 222.38 405.615 223.369 405.591C224.497 405.567 225.613 405.301 226.614 404.854C228.041 404.625 231.113 404.312 234.081 404.011C251.983 402.177 293.286 397.968 337.58 380.685C387.223 361.317 425.995 331.54 453.595 292.115C456.046 288.63 458.404 285.06 460.671 281.417C462.638 278.27 461.614 274.133 458.381 272.179Z" fill="white"/>
<path d="M461.419 313.329C457.838 313.332 454.821 310.604 454.585 307.049L452.631 277.624L423.818 296.245C420.613 298.312 416.269 297.465 414.117 294.343C411.962 291.216 412.825 287.001 416.042 284.936L464.764 253.65L468.242 306.193C468.486 309.883 465.636 313.072 461.869 313.314C461.719 313.324 461.568 313.329 461.419 313.329Z" fill="white"/>
</g>
<path d="M515.35 619.979H508.904V693.053H515.35V619.979Z" fill="url(#paint5_linear_88_1128)"/>
<path d="M540.355 694.462H483.898C483.898 692.033 485.777 690.063 488.094 690.063H536.16C538.477 690.063 540.355 692.033 540.355 694.462Z" fill="url(#paint6_linear_88_1128)"/>
<path d="M548.734 617.443C548.734 621.439 545.615 624.709 541.802 624.709H484.682C480.87 624.709 477.75 621.439 477.75 617.443V610.872C477.75 606.876 480.869 603.605 484.682 603.605H541.802C545.615 603.605 548.734 606.875 548.734 610.872V617.443Z" fill="url(#paint7_linear_88_1128)"/>
<path d="M464.54 571.254C464.54 571.254 454.962 572.81 444.192 580.357C442.498 581.545 441.568 583.615 441.823 585.735C443.113 596.443 448.415 631.1 465.899 664.95C466.821 666.735 467.086 668.813 466.679 670.797L463.641 685.615L458.008 691.152H472.517L482.178 663.747L478.047 662.377C474.844 661.316 472.647 658.227 472.589 654.706L472.104 625.308C472.517 612.21 464.443 603.173 464.443 603.173L487.615 601.992L464.54 571.254Z" fill="url(#paint8_linear_88_1128)"/>
<path d="M452.341 693.825C451.02 695.638 466.563 698.03 474.416 694.065C474.416 694.065 485.302 674.211 485.302 663.989C485.302 663.989 484.438 661.904 478.046 662.377C478.046 662.377 474.391 685.885 470.532 688.518C466.672 691.152 459.734 688.785 459.734 688.785C459.734 688.785 454.291 691.15 452.341 693.825Z" fill="url(#paint9_linear_88_1128)"/>
<path d="M484.683 603.604C484.56 603.38 459.735 600.475 459.735 600.475C459.735 600.475 460.548 608.388 458.009 619.279C455.47 630.171 419.021 677.362 419.021 677.362L422.843 690.062C411.027 694.377 399.403 695.067 387.966 692.261L411.651 677.362C411.651 677.362 433.816 598.178 447.394 584.052L472.278 575.027L484.683 603.604Z" fill="url(#paint10_linear_88_1128)"/>
<path d="M540.356 557.529C540.356 557.529 554.659 579.83 555.832 590.002C557.006 600.175 551.915 604.308 536.907 604.99C521.9 605.671 481.837 605.66 481.837 605.66L447.644 575.027C447.644 575.027 472.562 565.706 479.041 563.07C485.52 560.435 540.356 557.529 540.356 557.529Z" fill="url(#paint11_linear_88_1128)"/>
<path d="M421.399 685.786C421.399 685.786 425.513 689.963 422.734 694.611C422.734 694.611 390.14 700.667 381.291 697.92C381.291 697.92 383.128 693.523 393.093 688.519L392.357 689.111C391.427 689.859 391.973 691.419 393.144 691.349C399.71 690.957 413.299 689.696 421.399 685.786Z" fill="url(#paint12_linear_88_1128)"/>
<path d="M475.467 451.866C475.467 453.946 493.319 530.882 493.319 530.882L544.182 546.564C553.991 549.588 564.522 545.415 569.97 536.345C583.505 513.81 577.039 484.039 555.532 469.867L548.328 465.12C532.971 455.001 519.713 441.746 509.344 426.145L506.631 422.063L475.467 451.866Z" fill="url(#paint13_linear_88_1128)"/>
<path d="M562.104 526.203C562.033 526.203 561.965 526.165 561.926 526.097C561.867 525.994 561.899 525.861 561.997 525.799C568.012 522.01 568.589 513.404 568.558 509.88C568.496 502.888 566.724 495.98 563.432 489.899C557.514 478.966 547.272 471.531 537.367 464.339L535.316 462.847C525.191 455.464 514.008 446.5 509.455 433.513C509.415 433.4 509.471 433.275 509.578 433.234C509.687 433.193 509.805 433.25 509.845 433.363C514.356 446.231 525.48 455.145 535.553 462.49L537.604 463.981C547.547 471.201 557.828 478.666 563.793 489.684C567.119 495.829 568.911 502.811 568.973 509.876C569.005 513.475 568.41 522.267 562.211 526.172C562.177 526.193 562.14 526.203 562.104 526.203Z" fill="white"/>
<path d="M557.979 514.759C557.966 514.759 557.952 514.758 557.938 514.755C557.826 514.731 557.753 514.617 557.775 514.499C559.113 507.365 558.913 500.995 557.182 495.567C554.048 485.743 545.726 478.592 538.826 473.459C537.437 472.426 536.003 471.391 534.617 470.391C528.215 465.773 521.595 460.998 516.789 454.487C516.718 454.392 516.735 454.255 516.826 454.181C516.916 454.108 517.046 454.125 517.117 454.221C521.883 460.678 528.476 465.433 534.852 470.033C536.24 471.034 537.675 472.069 539.066 473.104C546.018 478.275 554.404 485.486 557.576 495.429C559.33 500.929 559.534 507.374 558.182 514.583C558.163 514.687 558.076 514.759 557.979 514.759Z" fill="white"/>
<path d="M501.677 554.577C501.677 554.577 485.021 537.952 476.822 526.941C472.391 520.988 470.999 513.153 473.049 505.914C476.792 492.695 483.444 479.003 484.05 476.872C484.98 473.606 503.655 473.742 503.655 473.742C503.655 473.742 540.404 498.743 554.843 541.095L538.627 546.386C538.627 546.386 529.032 529.512 519.552 518.783C519.552 518.783 535.957 541.5 536.534 550.801L501.677 554.577Z" fill="url(#paint14_linear_88_1128)"/>
<path d="M479.03 454.133C479.225 454.813 486.86 476.237 487.241 476.588C487.622 476.94 497.931 477.521 502.783 474.044L490.747 449.366L479.03 454.133Z" fill="url(#paint15_linear_88_1128)"/>
<path d="M467.744 555.812L479.981 543.448L496.91 550.944C496.91 550.944 513.76 553.681 523.404 550.944C533.049 548.207 533.049 548.207 533.049 548.207L554.843 541.095L558.265 551.235C559.134 553.81 558.261 556.668 556.137 558.25C554.252 559.655 552.042 561.198 550.633 561.844C547.763 563.16 479.884 560.933 479.884 560.933L467.744 555.812Z" fill="url(#paint16_linear_88_1128)"/>
<path d="M481.012 418.699C481.012 418.699 472.183 423.241 466.774 437.31C461.366 451.378 466.302 457.432 472.118 457.957C477.935 458.482 486.555 457.836 495.203 448.441C503.849 439.047 492.513 413.253 481.012 418.699Z" fill="url(#paint17_linear_88_1128)"/>
<path d="M488.672 441.492C488.672 441.492 494.411 421.039 477.442 421.811L473.611 424.972C473.611 424.972 466.788 414.227 476.711 408.314C486.634 402.401 502.126 406.218 507.253 420.379C512.379 434.541 510.34 444.004 503.485 451.334C496.629 458.664 493.226 451.018 493.226 451.018C493.226 451.018 496.814 444.33 495.024 440.974C493.234 437.616 489.764 442.003 489.764 442.003L488.672 441.492Z" fill="url(#paint18_linear_88_1128)"/>
<path d="M488.731 445.068C488.731 445.068 496.632 436.259 499.522 442.576C502.413 448.892 491.665 450.453 487.615 450.693L488.731 445.068Z" fill="url(#paint19_linear_88_1128)"/>
<path d="M514.053 561.642C513.998 561.645 513.944 561.646 513.889 561.646L442.904 561.564C441.149 561.563 439.728 560.07 439.73 558.231C439.732 556.39 441.161 554.87 442.911 554.903L513.896 554.985C515.651 554.986 517.072 556.479 517.07 558.318C517.069 560.101 515.732 561.555 514.053 561.642Z" fill="url(#paint20_linear_88_1128)"/>
<path d="M379.092 494.079H438.209C442.57 494.079 446.54 496.717 448.4 500.852L475.73 561.601H402.263C399.452 561.601 396.927 559.801 395.894 557.061L374.701 500.847C373.477 497.599 375.76 494.079 379.092 494.079Z" fill="url(#paint21_linear_88_1128)"/>
<path d="M420.74 525.227C422.021 529.399 421.075 533.451 418.626 534.277C416.177 535.103 413.154 532.391 411.873 528.219C410.592 524.046 411.538 519.994 413.987 519.168C416.435 518.342 419.459 521.055 420.74 525.227Z" fill="url(#paint22_linear_88_1128)"/>
<path d="M594.981 685.25C594.981 685.25 595.726 689.586 596.021 694.734C596.146 696.928 594.595 698.834 592.509 699.046C585.243 699.785 568.704 701.149 558.144 699.551C556.664 699.328 556.077 697.423 557.17 696.355C561.525 692.102 572.041 683.83 589.349 682.021L594.981 685.25Z" fill="url(#paint23_linear_88_1128)"/>
<path d="M598.594 675.474L594.92 684.913C594.417 686.207 593.165 687.011 591.839 686.865C590.94 686.767 589.875 686.586 588.838 686.256C586.765 685.596 585.596 683.293 586.217 681.117L588.989 671.395L598.594 675.474Z" fill="url(#paint24_linear_88_1128)"/>
<path d="M661.4 692.767C661.4 692.767 654.044 699.219 651.178 707.495C650.389 709.771 652.056 712.169 654.366 712.169H669.504C671.719 712.169 673.418 710.08 673.032 707.793C672.068 702.078 669.287 692.791 661.4 692.767Z" fill="url(#paint25_linear_88_1128)"/>
<path d="M670.512 684.371C670.512 684.371 669.026 691.265 667.884 695.821C667.677 696.648 666.835 697.102 666.067 696.814C663.775 695.956 661.911 695.576 660.556 695.767C659.93 695.855 659.383 695.308 659.375 694.646L659.232 683.195L670.512 684.371Z" fill="url(#paint26_linear_88_1128)"/>
<path d="M631.39 529.238L586.646 672.33C586.646 672.33 595.228 678.222 599.317 677.976L652.463 562.979C652.463 562.979 661.763 633.836 657.256 684.707L672.478 685.924C672.478 685.924 697.23 555.925 678.483 511.399L631.39 529.238Z" fill="url(#paint27_linear_88_1128)"/>
<path d="M652.174 561.742C652.192 561.742 652.211 561.741 652.229 561.739C652.466 561.707 652.635 561.48 652.605 561.231L650.868 546.784C650.839 546.535 650.624 546.362 650.384 546.39C650.147 546.422 649.978 546.649 650.008 546.897L651.745 561.345C651.773 561.574 651.959 561.742 652.174 561.742Z" fill="url(#paint28_linear_88_1128)"/>
<path d="M623 403.324C623 403.324 659.251 406.699 654.123 433.775C654.123 433.775 674.162 473.306 683.53 519.873C683.835 521.388 682.867 522.867 681.411 523.128L621.041 533.963C619.375 534.262 617.769 533.173 617.346 531.459L602.922 473.02L597.301 500.19L579.441 495.312L594.476 415.473C594.476 415.473 596.573 403.825 623 403.324Z" fill="url(#paint29_linear_88_1128)"/>
<path d="M602.614 470.407C602.645 470.407 602.678 470.404 602.71 470.396C602.952 470.341 603.106 470.09 603.054 469.836L598.021 445.614C597.968 445.36 597.732 445.2 597.486 445.254C597.244 445.309 597.09 445.56 597.143 445.814L602.175 470.036C602.221 470.257 602.407 470.407 602.614 470.407Z" fill="url(#paint30_linear_88_1128)"/>
<path d="M606.259 542.485C608.161 541.389 610.387 541.086 612.493 541.635L616.693 542.731C617.586 542.964 618.471 542.32 618.573 541.361L622.92 500.806C628.355 503.511 636.196 503.188 638.781 502.99L628.777 550.802H593.769L606.259 542.485Z" fill="url(#paint31_linear_88_1128)"/>
<path d="M513.241 454.516L514.299 450.829C514.908 448.708 516.404 446.992 518.365 446.165L537.503 438.098C537.503 438.098 537.792 435.525 533.459 433.776C529.127 432.028 530.14 426.941 530.14 426.941C530.14 426.941 536.059 429.772 544.724 434.261C549.68 436.829 552.46 441.361 553.935 444.773L597.3 500.191L592.209 503.858C585.514 508.681 576.306 506.312 572.501 498.788L549.008 451.565C537.213 455.279 525.278 455.989 513.241 454.516Z" fill="url(#paint32_linear_88_1128)"/>
<path d="M611.256 377.471L622.406 410.183C622.406 410.183 612.533 418.275 605.328 415.539L599.709 396.788C599.709 396.788 604 373.87 611.256 377.471Z" fill="url(#paint33_linear_88_1128)"/>
<path d="M577.979 365.724C577.979 366.228 588.719 397.596 588.719 397.596L605.675 390.787L599.709 359.471C599.709 359.471 577.979 357.285 577.979 365.724Z" fill="url(#paint34_linear_88_1128)"/>
<path d="M596.735 367.099L601.107 383.327C601.163 383.535 601.192 383.745 601.192 383.961C601.194 385.285 600.881 389.839 596.456 389.219C592.44 388.657 588.768 388.207 586.433 389.36C585.384 389.877 584.882 391.142 585.274 392.286C586.251 395.136 588.565 401.515 591.381 406.735C591.953 407.795 593.207 408.206 594.264 407.702C597.448 406.184 604.079 402.783 608.802 398.738C609.442 398.19 609.749 397.328 609.597 396.477C608.854 392.325 606.641 379.7 606.543 376.082C606.451 372.685 610.087 370.093 611.687 369.118C612.212 368.799 612.585 368.272 612.727 367.654C613.229 365.468 613.656 360.521 607.636 359.431C606.376 359.202 605.555 357.938 605.811 356.625C606.32 354.011 606.157 350.164 601.421 348.747C596.607 347.307 593.578 350.344 592.038 352.673C591.415 353.615 590.249 353.92 589.252 353.453C588.683 353.186 587.997 353.175 587.259 353.827C586.265 354.705 584.752 354.438 584.021 353.31C582.618 351.145 580.068 348.983 575.751 350.447C568.09 353.045 568.456 362.304 571.264 367.337C574.072 372.37 582.225 369.058 586.084 365.723C589.019 363.187 593.487 364.704 595.46 365.577C596.085 365.853 596.551 366.415 596.735 367.099Z" fill="url(#paint35_linear_88_1128)"/>
<path d="M608.079 382.008C608.079 382.008 603.545 373.017 606.543 370.194C609.541 367.371 614.62 367.833 614.484 374.864C614.314 383.608 608.079 382.008 608.079 382.008Z" fill="url(#paint36_linear_88_1128)"/>
<path d="M635.263 503.598C637.738 503.598 639.504 503.401 639.695 503.379L640.016 503.341L653.216 438.827C653.269 438.572 653.114 438.321 652.871 438.267C652.626 438.21 652.39 438.375 652.337 438.629L639.274 502.474C637.31 502.655 626.819 503.385 621.282 499.272L632.716 443.222L630.33 438.507C630.214 438.277 629.941 438.19 629.722 438.311C629.502 438.434 629.419 438.718 629.535 438.949L631.769 443.361L620.282 499.669L620.511 499.85C624.513 503.001 630.959 503.598 635.263 503.598Z" fill="url(#paint37_linear_88_1128)"/>
<path d="M559.9 560.135H629.762V552.577H559.9C561.396 552.577 561.396 560.135 559.9 560.135Z" fill="url(#paint38_linear_88_1128)"/>
<path d="M629.518 560.135C629.652 560.135 629.762 560.019 629.762 559.878V552.833C629.762 552.692 629.652 552.577 629.518 552.577H558.014C557.88 552.577 557.77 552.462 557.77 552.321V551.124C557.77 550.983 557.88 550.868 558.014 550.868H633.762C635.429 550.868 636.779 552.284 636.779 554.031V558.861C636.779 560.508 635.506 561.843 633.934 561.843H558.014C557.88 561.843 557.77 561.728 557.77 561.587V560.391C557.77 560.25 557.88 560.135 558.014 560.135H629.518Z" fill="url(#paint39_linear_88_1128)"/>
<path d="M337.529 703.979C337.226 703.979 336.918 703.91 336.622 703.764C335.455 703.19 334.916 701.642 335.418 700.307L383.653 572.011C384.155 570.676 385.507 570.06 386.675 570.633C387.842 571.208 388.38 572.756 387.879 574.09L339.644 702.387C339.269 703.383 338.421 703.979 337.529 703.979Z" fill="url(#paint40_linear_88_1128)"/>
<path d="M391.871 703.979C390.979 703.979 390.131 703.383 389.757 702.386L341.521 574.09C341.02 572.755 341.559 571.207 342.725 570.633C343.892 570.058 345.245 570.675 345.747 572.01L393.982 700.307C394.484 701.642 393.945 703.19 392.779 703.764C392.482 703.909 392.174 703.979 391.871 703.979Z" fill="url(#paint41_linear_88_1128)"/>
<path d="M566.898 701.166C566.595 701.166 566.287 701.096 565.99 700.951C564.824 700.376 564.285 698.829 564.787 697.493L613.022 569.197C613.524 567.862 614.875 567.246 616.044 567.819C617.21 568.394 617.749 569.942 617.247 571.276L569.012 699.573C568.638 700.569 567.789 701.166 566.898 701.166Z" fill="url(#paint42_linear_88_1128)"/>
<path d="M621.238 701.165C620.346 701.165 619.498 700.569 619.124 699.572L570.888 571.276C570.386 569.941 570.926 568.393 572.092 567.819C573.258 567.245 574.611 567.861 575.114 569.196L623.349 697.493C623.851 698.828 623.312 700.376 622.145 700.95C621.849 701.096 621.541 701.165 621.238 701.165Z" fill="url(#paint43_linear_88_1128)"/>
<path d="M639.905 565.229C640.084 564.386 639.841 563.513 639.241 562.851C638.641 562.188 637.748 561.804 636.806 561.804H317.574C316.335 561.804 315.181 562.38 314.513 563.332C313.845 564.284 313.756 565.48 314.275 566.506L317.735 573.333C318.527 574.897 320.243 575.897 322.132 575.897H634.615C636.372 575.897 637.882 574.761 638.216 573.188L639.905 565.229Z" fill="url(#paint44_linear_88_1128)"/>
<g opacity="0.3">
<path d="M576.341 243.27C575.94 242.652 576.041 241.804 576.597 241.311C577.814 240.233 579.093 239.195 580.399 238.224C581.034 237.752 581.915 237.909 582.365 238.575C582.37 238.583 582.375 238.591 582.38 238.599C582.811 239.263 582.658 240.17 582.03 240.636C580.788 241.558 579.574 242.544 578.418 243.568C577.824 244.095 576.934 244.017 576.431 243.394C576.399 243.354 576.369 243.312 576.341 243.27ZM586.548 236.105C586.517 236.057 586.489 236.007 586.463 235.954C586.103 235.23 586.372 234.337 587.063 233.96C588.482 233.187 589.946 232.469 591.416 231.827C592.135 231.513 592.957 231.868 593.26 232.623C593.56 233.377 593.219 234.242 592.501 234.556C591.104 235.166 589.713 235.848 588.364 236.584C587.723 236.932 586.945 236.715 586.548 236.105ZM598.007 231.474C597.918 231.338 597.85 231.184 597.808 231.015C597.612 230.225 598.063 229.418 598.817 229.212C600.361 228.789 601.943 228.432 603.517 228.149C604.285 228.012 605.012 228.554 605.144 229.357C605.275 230.162 604.76 230.926 603.992 231.064C602.497 231.331 600.996 231.671 599.529 232.072C598.936 232.234 598.332 231.976 598.007 231.474ZM610.167 229.644C610.021 229.419 609.933 229.15 609.925 228.858C609.901 228.042 610.514 227.361 611.292 227.336C612.889 227.287 614.507 227.309 616.101 227.402C616.877 227.448 617.473 228.145 617.43 228.96C617.387 229.775 616.721 230.399 615.943 230.354C614.429 230.265 612.893 230.244 611.375 230.292C610.876 230.307 610.429 230.048 610.167 229.644ZM622.412 230.704C622.207 230.388 622.118 229.991 622.194 229.587C622.344 228.786 623.085 228.264 623.849 228.422C625.413 228.744 626.985 229.141 628.522 229.602C629.271 229.826 629.705 230.644 629.491 231.429C629.277 232.214 628.496 232.668 627.747 232.444C626.286 232.005 624.791 231.628 623.306 231.322C622.927 231.244 622.613 231.014 622.412 230.704ZM634.127 234.576C633.862 234.167 633.797 233.629 634.002 233.145C634.318 232.398 635.151 232.061 635.863 232.392C637.322 233.069 638.772 233.821 640.171 234.626C640.854 235.019 641.104 235.918 640.729 236.633C640.355 237.349 639.497 237.61 638.814 237.218C637.484 236.453 636.107 235.738 634.721 235.094C634.471 234.979 634.27 234.796 634.127 234.576ZM665.969 277.377C665.86 277.208 665.782 277.012 665.746 276.797C665.489 275.232 665.162 273.658 664.776 272.119C664.578 271.329 665.028 270.521 665.781 270.313C666.534 270.105 667.305 270.577 667.503 271.367C667.91 272.988 668.254 274.646 668.526 276.294C668.658 277.099 668.143 277.863 667.376 278.002C666.813 278.104 666.271 277.841 665.969 277.377ZM644.725 241.069C644.396 240.562 644.392 239.872 644.761 239.353C645.227 238.699 646.111 238.564 646.735 239.053C648.014 240.053 649.267 241.125 650.459 242.237C651.039 242.782 651.094 243.714 650.575 244.324C650.058 244.934 649.166 244.988 648.584 244.445C647.452 243.389 646.262 242.372 645.048 241.421C644.919 241.32 644.811 241.201 644.725 241.069ZM662.528 265.016C662.476 264.935 662.43 264.848 662.392 264.755C661.807 263.289 661.153 261.83 660.449 260.419C660.089 259.696 660.356 258.803 661.046 258.425C661.736 258.047 662.591 258.324 662.949 259.05C663.689 260.535 664.377 262.07 664.994 263.612C665.294 264.365 664.956 265.231 664.238 265.546C663.609 265.823 662.897 265.585 662.528 265.016ZM653.674 249.881C653.274 249.264 653.374 248.417 653.928 247.924C654.522 247.396 655.412 247.472 655.916 248.094C656.948 249.368 657.941 250.707 658.867 252.072C658.873 252.08 658.879 252.089 658.885 252.098C659.315 252.761 659.162 253.666 658.536 254.133C657.901 254.606 657.021 254.451 656.57 253.786C655.69 252.489 654.746 251.218 653.766 250.007C653.733 249.966 653.702 249.924 653.674 249.881Z" fill="url(#paint45_linear_88_1128)"/>
<path d="M666.763 287.722C666.607 287.481 666.517 287.19 666.52 286.877C666.527 286.115 666.519 285.34 666.497 284.573C666.473 283.758 667.085 283.076 667.864 283.051C668.642 283.026 669.293 283.667 669.316 284.484C669.339 285.29 669.347 286.105 669.34 286.907C669.332 287.723 668.694 288.378 667.916 288.37C667.436 288.365 667.014 288.109 666.763 287.722Z" fill="url(#paint46_linear_88_1128)"/>
</g>
<g opacity="0.3">
<path d="M649.573 329.027C649.191 328.437 649.261 327.627 649.772 327.122C650.301 326.599 650.828 326.055 651.339 325.507C651.883 324.922 652.776 324.911 653.333 325.481C653.892 326.054 653.901 326.988 653.357 327.572C652.819 328.149 652.264 328.721 651.708 329.272C651.141 329.832 650.249 329.805 649.714 329.212C649.662 329.153 649.615 329.091 649.573 329.027Z" fill="url(#paint47_linear_88_1128)"/>
<path d="M566.482 319.619C566.117 319.056 565.76 318.486 565.41 317.906C564.994 317.216 565.19 316.303 565.849 315.867C566.507 315.43 567.382 315.638 567.794 316.326C568.601 317.663 569.457 318.963 570.35 320.203C570.819 320.857 570.696 321.782 570.074 322.274C569.453 322.766 568.568 322.636 568.099 321.984C567.547 321.217 567.003 320.421 566.482 319.619ZM561.871 311.04C561.827 310.972 561.787 310.899 561.753 310.821C561.1 309.321 560.5 307.775 559.971 306.226C559.708 305.458 560.089 304.611 560.822 304.336C561.555 304.061 562.365 304.46 562.625 305.229C563.128 306.7 563.698 308.168 564.319 309.594C564.642 310.337 564.33 311.213 563.622 311.552C562.987 311.855 562.251 311.625 561.871 311.04ZM572.969 327.853C572.596 327.277 572.653 326.486 573.141 325.976C573.693 325.399 574.586 325.402 575.135 325.98C576.186 327.086 577.297 328.16 578.438 329.172C579.031 329.701 579.106 330.633 578.603 331.256C578.1 331.879 577.21 331.956 576.615 331.428C575.415 330.363 574.245 329.231 573.137 328.066C573.074 328 573.018 327.928 572.969 327.853ZM558.093 299C557.992 298.845 557.919 298.667 557.879 298.472C557.557 296.86 557.296 295.213 557.105 293.579C557.01 292.768 557.559 292.031 558.332 291.932C559.105 291.832 559.809 292.407 559.903 293.218C560.085 294.77 560.333 296.334 560.639 297.865C560.799 298.664 560.311 299.448 559.549 299.615C558.973 299.742 558.405 299.481 558.093 299ZM582.392 335.78C582.085 335.307 582.056 334.669 582.367 334.155C582.784 333.466 583.655 333.262 584.313 333.699C585.57 334.535 586.879 335.327 588.204 336.052C588.894 336.43 589.162 337.323 588.801 338.047C588.441 338.77 587.589 339.05 586.899 338.672C585.504 337.909 584.126 337.076 582.802 336.195C582.634 336.084 582.497 335.941 582.392 335.78ZM593.245 341.347C593 340.969 592.925 340.477 593.083 340.015C593.346 339.246 594.154 338.847 594.887 339.124C596.293 339.653 597.736 340.126 599.176 340.531C599.929 340.741 600.375 341.551 600.174 342.341C599.972 343.13 599.2 343.597 598.447 343.387C596.931 342.961 595.412 342.463 593.933 341.905C593.642 341.796 593.407 341.596 593.245 341.347ZM604.998 344.302C604.812 344.014 604.72 343.657 604.765 343.285C604.863 342.475 605.568 341.902 606.341 342.004C607.824 342.2 609.331 342.334 610.82 342.399C611.598 342.433 612.202 343.121 612.17 343.938C612.137 344.753 611.48 345.387 610.702 345.352C609.134 345.283 607.548 345.144 605.988 344.937C605.57 344.882 605.218 344.64 604.998 344.302ZM617.085 344.499C616.956 344.299 616.872 344.065 616.848 343.808C616.775 342.995 617.343 342.274 618.118 342.197C619.606 342.049 621.103 341.832 622.571 341.553C623.337 341.408 624.071 341.942 624.21 342.743C624.349 343.547 623.84 344.316 623.074 344.462C621.529 344.756 619.951 344.984 618.386 345.14C617.855 345.192 617.365 344.93 617.085 344.499ZM628.924 341.908C628.851 341.796 628.792 341.672 628.75 341.537C628.507 340.761 628.91 339.926 629.65 339.672C631.066 339.185 632.48 338.628 633.855 338.016C634.572 337.697 635.4 338.05 635.704 338.799C636.008 339.551 635.674 340.419 634.957 340.738C633.51 341.382 632.02 341.968 630.529 342.481C629.918 342.691 629.268 342.439 628.924 341.908ZM639.922 336.659C639.906 336.634 639.89 336.608 639.876 336.581C639.478 335.88 639.697 334.973 640.367 334.556C641.312 333.967 642.25 333.34 643.157 332.693C643.486 332.459 643.811 332.221 644.133 331.981C644.767 331.507 645.648 331.662 646.099 332.327C646.569 332.991 646.403 333.915 645.77 334.388C645.431 334.641 645.089 334.891 644.744 335.137C643.79 335.818 642.802 336.477 641.808 337.096C641.164 337.498 640.338 337.3 639.922 336.659Z" fill="url(#paint48_linear_88_1128)"/>
<path d="M556.937 286.349C556.779 286.106 556.689 285.812 556.693 285.496C556.705 284.696 556.733 283.881 556.776 283.074C556.82 282.258 557.486 281.635 558.263 281.681C559.041 281.727 559.636 282.424 559.592 283.24C559.55 284.007 559.524 284.781 559.513 285.541C559.501 286.357 558.861 287.009 558.082 286.997C557.605 286.989 557.186 286.733 556.937 286.349Z" fill="url(#paint49_linear_88_1128)"/>
</g>
<path d="M571.529 278.353C571.448 278.635 571.548 278.94 571.777 279.112L578.301 284.004C578.08 287.924 578.455 291.908 579.47 295.807L574.052 302C573.862 302.217 573.824 302.537 573.958 302.796L578.541 311.664C578.675 311.923 578.951 312.064 579.228 312.016L587.136 310.641C589.697 313.661 592.677 316.166 595.93 318.114L596.276 326.514C596.288 326.809 596.477 327.062 596.747 327.147L605.969 330.02C606.239 330.104 606.529 329.999 606.693 329.759L611.359 322.921C615.099 323.152 618.9 322.759 622.619 321.695L628.527 327.375C628.734 327.574 629.039 327.614 629.286 327.473L637.745 322.669C637.993 322.528 638.128 322.239 638.082 321.948L636.769 313.659C639.651 310.974 642.041 307.85 643.898 304.441L651.912 304.078C652.193 304.065 652.435 303.867 652.515 303.584L655.256 293.917C655.336 293.634 655.237 293.329 655.008 293.158L648.484 288.266C648.704 284.346 648.33 280.361 647.315 276.463L652.733 270.27C652.923 270.053 652.961 269.733 652.827 269.474L648.243 260.606C648.109 260.347 647.834 260.205 647.556 260.254L639.648 261.629C637.087 258.609 634.108 256.104 630.855 254.156L630.509 245.756C630.497 245.462 630.307 245.208 630.038 245.124L620.815 242.25C620.546 242.166 620.255 242.271 620.091 242.511L615.425 249.349C611.686 249.118 607.884 249.511 604.165 250.575L598.258 244.895C598.05 244.696 597.745 244.657 597.498 244.797L589.039 249.601C588.791 249.742 588.656 250.031 588.702 250.322L590.015 258.612C587.133 261.296 584.744 264.42 582.886 267.829L574.872 268.192C574.591 268.205 574.349 268.403 574.269 268.686L571.529 278.353Z" fill="url(#paint50_linear_88_1128)"/>
<path opacity="0.56" d="M605.394 291.833C602.742 287.747 603.275 282.118 606.845 278.674C610.77 274.889 616.9 275.157 620.511 279.27C622.261 281.263 623.164 283.851 623.057 286.556C622.949 289.261 621.843 291.761 619.942 293.595C616.017 297.38 609.888 297.112 606.277 292.998C605.951 292.628 605.657 292.238 605.394 291.833ZM619.534 281.775C619.329 281.459 619.101 281.158 618.85 280.872C616.082 277.718 611.382 277.513 608.373 280.414C605.364 283.317 605.167 288.244 607.937 291.398C610.705 294.552 615.405 294.757 618.414 291.855C619.872 290.449 620.72 288.533 620.802 286.458C620.869 284.772 620.423 283.145 619.534 281.775Z" fill="white"/>
<path opacity="0.56" d="M593.956 300.24C593.501 299.538 593.076 298.808 592.685 298.052C592.562 297.814 592.443 297.574 592.327 297.332C591.756 296.138 591.277 294.898 590.897 293.631C590.892 293.614 590.887 293.597 590.881 293.58C590.867 293.531 590.853 293.481 590.838 293.432C590.81 293.337 590.783 293.241 590.756 293.145C590.686 292.893 590.783 292.631 590.98 292.491C591.028 292.457 591.082 292.43 591.14 292.412C591.439 292.32 591.751 292.501 591.839 292.813C592.289 294.426 592.907 295.999 593.677 297.488C597.5 304.887 604.555 309.302 612.023 309.858C616.177 310.168 620.459 309.284 624.384 307.055C625.073 306.664 625.737 306.239 626.375 305.784C630.672 302.718 633.806 298.235 635.307 292.942C637.03 286.862 636.392 280.442 633.51 274.866C627.557 263.35 613.785 259.062 602.803 265.299C602.126 265.684 601.47 266.103 600.838 266.554C598.097 268.51 595.795 271.072 594.105 274.066C594.062 274.144 594.004 274.207 593.937 274.254C593.763 274.379 593.527 274.394 593.333 274.274C593.065 274.106 592.975 273.745 593.135 273.464C594.908 270.32 597.325 267.63 600.202 265.577C600.866 265.103 601.555 264.663 602.265 264.259C613.795 257.711 628.257 262.22 634.502 274.302C637.528 280.156 638.197 286.895 636.388 293.278C634.813 298.835 631.522 303.542 627.012 306.76C626.342 307.238 625.644 307.684 624.922 308.094C619.337 311.266 612.908 311.968 606.819 310.071C601.517 308.42 597.026 304.969 593.956 300.24Z" fill="white"/>
<g opacity="0.3">
<path d="M518.549 223.479C518.337 223.153 518.345 222.707 518.597 222.386C519.066 221.787 519.559 221.195 520.062 220.626C520.389 220.257 520.94 220.235 521.293 220.578C521.648 220.92 521.666 221.498 521.339 221.868C520.86 222.41 520.39 222.974 519.942 223.546C519.637 223.935 519.088 223.991 518.716 223.672C518.65 223.615 518.595 223.55 518.549 223.479Z" fill="url(#paint51_linear_88_1128)"/>
<path d="M523.258 218.487C523.01 218.104 523.074 217.579 523.419 217.275C524.393 216.416 525.421 215.6 526.472 214.85C526.694 214.692 526.918 214.536 527.144 214.382C527.548 214.107 528.086 214.26 528.349 214.649C528.612 215.072 528.497 215.638 528.094 215.912C527.878 216.06 527.664 216.209 527.452 216.36C526.449 217.075 525.469 217.854 524.539 218.672C524.171 218.997 523.622 218.947 523.312 218.562C523.293 218.537 523.275 218.512 523.258 218.487ZM530.841 213.321C530.818 213.285 530.796 213.247 530.777 213.208C530.566 212.754 530.746 212.208 531.178 211.986C532.564 211.276 534.005 210.649 535.459 210.124C535.915 209.96 536.41 210.216 536.566 210.69C536.723 211.167 536.482 211.686 536.027 211.851C534.639 212.351 533.265 212.949 531.942 213.627C531.548 213.828 531.08 213.69 530.841 213.321ZM539.391 210.237C539.329 210.141 539.284 210.032 539.259 209.912C539.16 209.418 539.462 208.934 539.933 208.83C541.44 208.499 542.985 208.262 544.523 208.128C545.003 208.086 545.422 208.459 545.462 208.963C545.502 209.465 545.146 209.906 544.667 209.948C543.201 210.076 541.728 210.301 540.29 210.618C539.935 210.696 539.584 210.534 539.391 210.237ZM548.404 209.451C548.302 209.295 548.247 209.105 548.254 208.902C548.273 208.398 548.679 208.006 549.159 208.026C550.702 208.092 552.254 208.259 553.772 208.522C554.247 208.605 554.567 209.076 554.489 209.572C554.411 210.07 553.962 210.406 553.487 210.324C552.04 210.073 550.559 209.913 549.089 209.851C548.802 209.838 548.554 209.682 548.404 209.451ZM557.326 210.997C557.184 210.778 557.134 210.498 557.21 210.225C557.346 209.741 557.83 209.465 558.292 209.607C559.771 210.064 561.237 210.621 562.649 211.262C563.091 211.462 563.293 212 563.102 212.463C562.911 212.926 562.398 213.138 561.957 212.938C560.609 212.326 559.211 211.795 557.8 211.359C557.599 211.297 557.435 211.165 557.326 210.997ZM565.619 214.765C565.435 214.482 565.412 214.102 565.588 213.787C565.832 213.353 566.366 213.208 566.78 213.464C568.109 214.284 569.401 215.198 570.62 216.183C571.001 216.492 571.072 217.064 570.778 217.463C570.485 217.863 569.938 217.937 569.557 217.63C568.395 216.691 567.163 215.819 565.897 215.037C565.782 214.967 565.689 214.873 565.619 214.765ZM572.779 220.542C572.55 220.188 572.583 219.703 572.88 219.388C573.219 219.029 573.77 219.026 574.112 219.381C575.205 220.514 576.243 221.733 577.2 223.006C577.492 223.408 577.432 223.977 577.054 224.288C576.676 224.6 576.129 224.532 575.831 224.136C574.919 222.922 573.928 221.759 572.887 220.679C572.846 220.636 572.81 220.59 572.779 220.542ZM580.477 232.196C580.449 232.152 580.424 232.105 580.402 232.055C579.882 230.841 579.29 229.635 578.641 228.471C578.544 228.294 578.446 228.121 578.347 227.951C578.098 227.519 578.228 226.958 578.64 226.697C579.051 226.434 579.6 226.566 579.836 227.003C579.942 227.185 580.046 227.368 580.148 227.554C580.825 228.77 581.446 230.034 581.991 231.308C582.188 231.768 581.992 232.308 581.553 232.514C581.162 232.698 580.71 232.555 580.477 232.196Z" fill="url(#paint52_linear_88_1128)"/>
</g>
<g opacity="0.3">
<path d="M516.855 270.052C516.587 269.64 516.685 269.077 517.076 268.791C517.47 268.502 518.013 268.602 518.289 269.015C519.119 270.259 520.028 271.461 520.992 272.586C521.308 272.962 521.284 273.538 520.926 273.875C520.567 274.213 520.017 274.181 519.696 273.806C518.685 272.625 517.731 271.366 516.862 270.063C516.86 270.059 516.857 270.055 516.855 270.052ZM514.525 266.071C514.507 266.044 514.491 266.016 514.476 265.986C513.762 264.584 513.121 263.123 512.573 261.642C512.399 261.171 512.621 260.643 513.069 260.461C513.518 260.278 514.022 260.514 514.197 260.981C514.72 262.394 515.331 263.788 516.012 265.126C516.239 265.571 516.078 266.124 515.654 266.361C515.258 266.583 514.772 266.451 514.525 266.071ZM522.797 276.987C522.579 276.653 522.595 276.194 522.86 275.874C523.176 275.495 523.725 275.454 524.088 275.785C525.182 276.782 526.341 277.718 527.537 278.565C527.935 278.85 528.039 279.416 527.769 279.833C527.5 280.25 526.958 280.36 526.56 280.078C525.307 279.189 524.091 278.208 522.946 277.162C522.887 277.11 522.838 277.051 522.797 276.987ZM511.31 257.374C511.254 257.288 511.211 257.191 511.185 257.085C510.813 255.543 510.528 253.961 510.339 252.384C510.278 251.884 510.617 251.427 511.094 251.364C511.57 251.302 512.006 251.656 512.067 252.156C512.247 253.659 512.519 255.167 512.874 256.637C512.991 257.126 512.709 257.622 512.243 257.746C511.879 257.842 511.51 257.682 511.31 257.374ZM530.161 282.211C529.988 281.944 529.955 281.588 530.105 281.28C530.325 280.831 530.85 280.654 531.278 280.884C532.564 281.575 533.903 282.19 535.261 282.713C535.713 282.887 535.944 283.412 535.778 283.885C535.612 284.358 535.111 284.601 534.66 284.427C533.237 283.878 531.832 283.233 530.483 282.509C530.349 282.437 530.24 282.333 530.161 282.211ZM538.506 285.43C538.373 285.225 538.32 284.966 538.378 284.707C538.488 284.216 538.958 283.912 539.426 284.027C540.836 284.376 542.278 284.638 543.712 284.806C544.191 284.862 544.535 285.314 544.481 285.814C544.428 286.316 543.998 286.676 543.52 286.62C542.016 286.444 540.504 286.17 539.026 285.805C538.806 285.75 538.624 285.612 538.506 285.43ZM547.347 286.461C547.254 286.317 547.198 286.144 547.197 285.957C547.192 285.453 547.578 285.04 548.059 285.035C549.508 285.02 550.968 284.912 552.399 284.712C552.875 284.646 553.313 284.997 553.376 285.497C553.44 285.997 553.105 286.456 552.627 286.522C551.127 286.731 549.595 286.845 548.076 286.861C547.774 286.864 547.506 286.705 547.347 286.461Z" fill="url(#paint53_linear_88_1128)"/>
<path d="M510.194 248.079C510.1 247.933 510.045 247.758 510.044 247.568C510.042 246.787 510.062 246.002 510.104 245.235C510.131 244.732 510.542 244.346 511.022 244.374C511.501 244.404 511.869 244.834 511.843 245.338C511.803 246.069 511.784 246.818 511.786 247.564C511.787 248.068 511.398 248.478 510.917 248.479C510.617 248.48 510.352 248.321 510.194 248.079Z" fill="url(#paint54_linear_88_1128)"/>
</g>
<path d="M519.904 242.072C519.851 242.261 519.917 242.465 520.07 242.58L524.436 245.853C524.288 248.476 524.539 251.143 525.218 253.751L521.593 257.895C521.465 258.04 521.44 258.254 521.53 258.428L524.597 264.362C524.686 264.535 524.871 264.63 525.057 264.598L530.348 263.677C532.062 265.698 534.056 267.374 536.232 268.678L536.464 274.299C536.472 274.496 536.599 274.666 536.779 274.722L542.95 276.645C543.131 276.701 543.325 276.631 543.435 276.471L546.557 271.895C549.059 272.049 551.603 271.786 554.092 271.074L558.045 274.875C558.183 275.008 558.387 275.035 558.553 274.941L564.214 271.726C564.379 271.632 564.47 271.438 564.438 271.244L563.56 265.697C565.488 263.9 567.087 261.81 568.331 259.529L573.693 259.286C573.881 259.277 574.043 259.145 574.097 258.956L575.931 252.486C575.984 252.297 575.917 252.094 575.764 251.979L571.399 248.705C571.547 246.082 571.296 243.416 570.617 240.807L574.242 236.663C574.369 236.518 574.395 236.304 574.305 236.131L571.238 230.197C571.148 230.023 570.964 229.929 570.778 229.961L565.487 230.882C563.773 228.86 561.779 227.184 559.602 225.881L559.371 220.26C559.363 220.063 559.236 219.892 559.056 219.836L552.884 217.914C552.704 217.858 552.509 217.927 552.4 218.088L549.278 222.664C546.775 222.509 544.232 222.772 541.743 223.484L537.79 219.684C537.652 219.55 537.447 219.524 537.282 219.618L531.621 222.833C531.456 222.927 531.365 223.12 531.396 223.315L532.274 228.862C530.346 230.658 528.747 232.749 527.504 235.03L522.142 235.273C521.954 235.281 521.792 235.414 521.738 235.603L519.904 242.072Z" fill="url(#paint55_linear_88_1128)"/>
<path opacity="0.56" d="M542.462 251.153C541.672 249.936 541.276 248.49 541.335 246.992C541.408 245.149 542.162 243.447 543.457 242.198C546.129 239.62 550.305 239.802 552.765 242.604C555.223 245.414 555.05 249.784 552.377 252.362C551.082 253.611 549.401 254.257 547.643 254.18C545.885 254.103 544.26 253.313 543.069 251.955C542.847 251.701 542.644 251.433 542.462 251.153ZM551.926 244.425C551.794 244.221 551.646 244.026 551.483 243.84C549.674 241.779 546.603 241.646 544.636 243.542C543.684 244.461 543.129 245.713 543.076 247.069C543.022 248.425 543.476 249.72 544.351 250.72C545.228 251.718 546.423 252.299 547.715 252.356C549.009 252.412 550.246 251.937 551.199 251.018C552.987 249.293 553.254 246.472 551.926 244.425Z" fill="white"/>
<path opacity="0.56" d="M534.494 256.995C534.184 256.517 533.895 256.019 533.626 255.501C533.094 254.472 532.661 253.385 532.339 252.267C532.324 252.217 532.31 252.167 532.296 252.116C532.188 251.727 532.338 251.323 532.641 251.106C532.715 251.053 532.798 251.012 532.888 250.984C533.35 250.843 533.832 251.122 533.968 251.605C534.259 252.651 534.66 253.669 535.157 254.631L535.157 254.631C535.185 254.684 535.213 254.737 535.24 254.789C536.438 257.054 538.129 258.92 540.159 260.273C541.262 261.008 542.465 261.591 543.746 262.004C543.756 262.007 543.767 262.01 543.778 262.014C543.81 262.024 543.841 262.034 543.873 262.044C547.628 263.213 551.592 262.78 555.036 260.824C555.482 260.571 555.912 260.297 556.325 260.002C559.107 258.017 561.136 255.114 562.107 251.688C563.223 247.752 562.81 243.596 560.944 239.987C559.078 236.38 555.982 233.744 552.228 232.574C548.474 231.404 544.509 231.837 541.065 233.793C540.627 234.042 540.202 234.313 539.793 234.605C538.019 235.871 536.528 237.53 535.435 239.468C535.367 239.587 535.278 239.685 535.176 239.758C534.905 239.95 534.542 239.975 534.242 239.789C533.829 239.531 533.691 238.973 533.936 238.538C535.16 236.369 536.827 234.513 538.812 233.097C539.27 232.77 539.745 232.466 540.235 232.188C544.088 229.999 548.524 229.515 552.725 230.824C556.925 232.133 560.389 235.074 562.475 239.117C564.563 243.156 565.025 247.805 563.776 252.209C562.69 256.042 560.42 259.29 557.308 261.51C556.846 261.839 556.365 262.147 555.866 262.43C548.407 266.666 539.168 264.196 534.494 256.995Z" fill="white"/>
<path d="M109.531 237.286C109.531 204.132 148.962 177.255 197.603 177.255C246.244 177.255 285.675 204.132 285.675 237.286C285.675 270.44 246.244 297.317 197.603 297.317C191.466 297.317 185.477 296.888 179.694 296.074C172.19 295.016 165.668 301.602 166.325 309.51C166.938 316.874 168.977 323.34 170.727 327.738C171.569 329.854 169.394 331.913 167.48 330.805C149.798 320.569 143.304 301.362 140.922 288.169C140.308 284.772 138.391 281.803 135.619 279.931C119.51 269.052 109.531 253.964 109.531 237.286Z" fill="url(#paint56_linear_88_1128)"/>
<path d="M137.807 694.202C137.807 694.202 136.398 702.125 135.671 709.975C135.386 713.043 137.62 715.731 140.557 715.889C150.533 716.425 171.875 717.486 179.538 717.204C180.691 717.161 181.455 715.933 181.039 714.806C180.69 713.862 180.008 713.094 179.134 712.662L144.025 695.32L137.807 694.202Z" fill="url(#paint57_linear_88_1128)"/>
<path d="M136.755 689.528L137.742 699.032C137.742 699.032 143.892 702.108 148.142 698.756L145.68 688.151L136.755 689.528Z" fill="url(#paint58_linear_88_1128)"/>
<path d="M139.186 511.062C138.7 513.537 135.569 634.749 147.437 689.202C147.63 690.09 147.193 691 146.386 691.336C144.482 692.129 140.754 693.268 136.298 693.38C134.918 693.415 133.69 692.463 133.313 691.071C129.894 678.43 113.536 615.106 111.877 554.754C110.022 487.316 111.898 552.459 111.898 552.459L113.724 510.803L139.186 511.062Z" fill="url(#paint59_linear_88_1128)"/>
<path d="M97.2043 697.936C97.2043 697.936 95.039 701.921 92.8811 712.547C92.4915 714.466 93.7563 716.319 95.6171 716.53C98.9096 716.903 103.979 717.39 108.043 717.402C109.917 717.407 111.394 715.712 111.186 713.76C110.772 709.869 109.427 703.479 105.14 698.466L97.2043 697.936Z" fill="url(#paint60_linear_88_1128)"/>
<path d="M95.4469 685.707L97.8268 700.088C97.8268 700.088 100.292 702.049 105.215 700.695L104.157 685.236L95.4469 685.707Z" fill="url(#paint61_linear_88_1128)"/>
<path d="M90.2222 514.291C79.5297 578.154 90.9767 672.404 94.9585 690.869C95.2022 692 96.0628 692.872 97.1516 693.073C99.0009 693.413 102.048 693.706 105.063 692.821C106.101 692.516 106.838 691.544 106.89 690.414C107.583 675.525 107.413 584.078 117.163 548.035C117.656 546.209 118.738 544.622 120.224 543.537L138.633 530.094L140.235 508.082L90.2222 514.291Z" fill="url(#paint62_linear_88_1128)"/>
<path d="M155.75 393.737C125.456 392.909 91.9429 401.44 91.9429 401.44C82.4085 456.592 89.281 520.386 89.281 520.386C112.679 527.069 139.235 516.943 139.235 516.943C143.344 493.891 162.126 429.09 162.126 429.09C176.947 427.312 189.184 422.956 199.281 417.137C191.705 407.752 188.201 395.871 186.696 388.854C175.951 392.236 165.094 393.992 155.75 393.737Z" fill="url(#paint63_linear_88_1128)"/>
<path d="M245.676 347.849C242.734 344.051 238.95 345.796 238.95 345.796C234.312 365.495 210.787 381.27 186.697 388.854C188.201 395.872 191.705 407.752 199.281 417.138C239.357 394.042 245.676 347.849 245.676 347.849Z" fill="url(#paint64_linear_88_1128)"/>
<path d="M244.945 348.8C245.247 349.841 241.626 351.385 239.541 347.119C239.486 345.084 238.384 336.357 239.559 334.711C245.816 325.946 257.891 315 257.891 315C259.896 317.114 258.21 319.153 258.21 319.153L252.343 325.439C253.537 327.753 255.002 329.711 255.671 332.502C256.178 334.615 255.836 336.865 254.802 338.774C253.765 340.689 252.351 343.179 251.018 345.124C248.495 348.808 244.945 348.8 244.945 348.8Z" fill="url(#paint65_linear_88_1128)"/>
<path d="M249.765 329.53L244.429 334.182L242.724 338.849L247.394 344.385C247.394 344.385 249.066 335.107 250.263 333.108C251.461 331.108 250.858 330.129 249.765 329.53Z" fill="url(#paint66_linear_88_1128)"/>
<path d="M103.285 432.311L91.9438 401.44C91.9438 401.44 63.4588 421.315 58.5719 446.826C63.9158 447.292 73.6333 448.848 83.1121 453.985C85.3147 441.937 103.285 432.311 103.285 432.311Z" fill="url(#paint67_linear_88_1128)"/>
<path d="M127.754 461.499C127.754 461.499 95.8072 480.006 85.2318 463.825C83.0364 460.465 82.5341 457.143 83.1114 453.986C73.6327 448.849 63.915 447.293 58.5713 446.827C57.0979 454.518 57.7652 462.72 62.0088 471.045C80.4615 507.246 131.884 469.754 131.884 469.754L127.754 461.499Z" fill="url(#paint68_linear_88_1128)"/>
<path d="M125.294 367.645L115.387 396.775C115.223 397.258 115.408 397.796 115.834 398.048C118.448 399.597 127.876 404.095 139.355 396.626C140.551 395.847 141.372 394.567 141.565 393.106L144.917 367.842L125.294 367.645Z" fill="url(#paint69_linear_88_1128)"/>
<path d="M146.518 340.79C146.518 340.79 156.914 361.786 155.481 370.211C154.047 378.636 140.932 377.899 129.537 370.931L121.736 348.294L146.518 340.79Z" fill="url(#paint70_linear_88_1128)"/>
<path d="M130.144 359.859C130.612 359.647 130.789 359.051 130.515 358.602C129.679 357.235 128.114 354.448 127.629 352.017C127.629 352.017 125.737 350.72 132.5 349.095C139.262 347.469 149.348 344.942 151.517 338.943C153.633 333.094 148.349 318.279 139.599 329.954C139.266 330.398 138.622 330.402 138.297 329.95C136.898 328.003 133.21 323.953 128.015 326.334C123.155 328.562 122.576 332.274 122.625 334.149C122.64 334.7 122.166 335.124 121.65 335.016C119.207 334.502 113.339 334.023 110.541 340.31C108.236 345.489 109.676 348.448 111 349.901C111.428 350.372 111.231 351.139 110.636 351.323C109.023 351.823 106.934 353.232 107.105 357.184C107.343 362.647 113.171 362.224 114.832 361.992C115.104 361.954 115.377 362.054 115.558 362.27C116.965 363.933 123.307 371 130.232 371.913C130.832 371.992 131.303 371.376 131.111 370.775L128.194 361.602C128.059 361.177 128.257 360.713 128.65 360.535L130.144 359.859Z" fill="url(#paint71_linear_88_1128)"/>
<path d="M131.338 361.168C131.338 361.168 123.849 355.671 123.257 360.231C122.665 364.791 129.984 366.912 133.635 365.246L131.338 361.168Z" fill="url(#paint72_linear_88_1128)"/>
<path d="M121.225 490.748L138.627 427.04C138.825 426.316 139.413 425.789 140.126 425.702C143.279 425.316 152.416 424.234 162.965 423.298C175.671 422.171 190.427 421.259 199.245 422.035C200.498 422.145 201.256 423.535 200.698 424.718C195.684 435.352 175.058 478.609 164.73 492.78C164.388 493.25 163.858 493.524 163.295 493.518L122.918 493.124C121.743 493.113 120.901 491.932 121.225 490.748Z" fill="url(#paint73_linear_88_1128)"/>
<path d="M125.429 475.356C125.429 475.356 123.005 464.906 123.983 461.199C124.96 457.492 126.855 452.725 133.17 453.784C139.486 454.844 146.935 457.632 146.935 457.632C146.935 457.632 146.559 462.461 141.759 460.903L144.735 463.318C144.735 463.318 144.31 467.184 140.256 465.118L143.024 468.32C143.024 468.32 141.283 471.495 138.3 469.459C135.318 467.422 133.888 476.614 125.429 475.356Z" fill="url(#paint74_linear_88_1128)"/>
<path d="M161.804 442.316C161.804 445.273 164.091 447.671 166.913 447.671C169.734 447.671 172.021 445.273 172.021 442.316C172.021 439.358 169.734 436.96 166.913 436.96C164.091 436.96 161.804 439.358 161.804 442.316Z" fill="url(#paint75_linear_88_1128)"/>
<path d="M140.342 445.766L139.546 445.52L143.09 432.92C143.639 430.967 145.143 429.499 147.013 429.091C158.218 426.639 188.719 426.122 189.026 426.117L189.039 426.987C188.733 426.992 158.311 427.508 147.182 429.942C145.612 430.286 144.348 431.522 143.886 433.167L140.342 445.766Z" fill="white"/>
<defs>
<linearGradient id="paint0_linear_88_1128" x1="-49.1869" y1="147.218" x2="192.345" y2="242.538" gradientUnits="userSpaceOnUse">
<stop stop-color="#A737D5"/>
<stop offset="1" stop-color="#EF497A"/>
</linearGradient>
<linearGradient id="paint1_linear_88_1128" x1="11.6" y1="279.298" x2="176.678" y2="85.7452" gradientUnits="userSpaceOnUse">
<stop stop-color="#CE1567"/>
<stop offset="1" stop-color="#7A1DBC"/>
</linearGradient>
<linearGradient id="paint2_linear_88_1128" x1="589.462" y1="166.412" x2="75.8824" y2="539.448" gradientUnits="userSpaceOnUse">
<stop stop-color="#53D8FF"/>
<stop offset="1" stop-color="#3840F7"/>
</linearGradient>
<linearGradient id="paint3_linear_88_1128" x1="87.3958" y1="677.642" x2="685.136" y2="-3.08003" gradientUnits="userSpaceOnUse">
<stop stop-color="#53D8FF"/>
<stop offset="1" stop-color="#3840F7"/>
</linearGradient>
<linearGradient id="paint4_linear_88_1128" x1="294.772" y1="387.829" x2="452.237" y2="-147.666" gradientUnits="userSpaceOnUse">
<stop stop-color="#53D8FF"/>
<stop offset="1" stop-color="#3840F7"/>
</linearGradient>
<linearGradient id="paint5_linear_88_1128" x1="507.095" y1="689.696" x2="522.368" y2="598.052" gradientUnits="userSpaceOnUse">
<stop stop-color="#A737D5"/>
<stop offset="1" stop-color="#EF497A"/>
</linearGradient>
<linearGradient id="paint6_linear_88_1128" x1="512.682" y1="690.627" x2="527.954" y2="598.981" gradientUnits="userSpaceOnUse">
<stop stop-color="#A737D5"/>
<stop offset="1" stop-color="#EF497A"/>
</linearGradient>
<linearGradient id="paint7_linear_88_1128" x1="501.917" y1="688.834" x2="517.19" y2="597.189" gradientUnits="userSpaceOnUse">
<stop stop-color="#A737D5"/>
<stop offset="1" stop-color="#EF497A"/>
</linearGradient>
<linearGradient id="paint8_linear_88_1128" x1="441.781" y1="631.203" x2="487.615" y2="631.203" gradientUnits="userSpaceOnUse">
<stop stop-color="#F9B776"/>
<stop offset="1" stop-color="#F47960"/>
</linearGradient>
<linearGradient id="paint9_linear_88_1128" x1="469.824" y1="662.509" x2="462.419" y2="770.82" gradientUnits="userSpaceOnUse">
<stop stop-color="#CB236D"/>
<stop offset="1" stop-color="#4C246D"/>
</linearGradient>
<linearGradient id="paint10_linear_88_1128" x1="387.966" y1="634.485" x2="484.683" y2="634.485" gradientUnits="userSpaceOnUse">
<stop stop-color="#F9B776"/>
<stop offset="1" stop-color="#F47960"/>
</linearGradient>
<linearGradient id="paint11_linear_88_1128" x1="447.644" y1="581.595" x2="555.994" y2="581.595" gradientUnits="userSpaceOnUse">
<stop stop-color="#CB236D"/>
<stop offset="1" stop-color="#4C246D"/>
</linearGradient>
<linearGradient id="paint12_linear_88_1128" x1="404.772" y1="658.062" x2="397.367" y2="766.374" gradientUnits="userSpaceOnUse">
<stop stop-color="#CB236D"/>
<stop offset="1" stop-color="#4C246D"/>
</linearGradient>
<linearGradient id="paint13_linear_88_1128" x1="453.666" y1="409.651" x2="577.594" y2="551.297" gradientUnits="userSpaceOnUse">
<stop stop-color="#2B3582"/>
<stop offset="1" stop-color="#150E42"/>
</linearGradient>
<linearGradient id="paint14_linear_88_1128" x1="495.361" y1="487.548" x2="550.878" y2="602.813" gradientUnits="userSpaceOnUse">
<stop stop-color="#FDF53F"/>
<stop offset="0.6645" stop-color="#E57A58"/>
<stop offset="1" stop-color="#D93C65"/>
</linearGradient>
<linearGradient id="paint15_linear_88_1128" x1="496.54" y1="501.984" x2="489.383" y2="458.172" gradientUnits="userSpaceOnUse">
<stop stop-color="#F9B776"/>
<stop offset="1" stop-color="#F47960"/>
</linearGradient>
<linearGradient id="paint16_linear_88_1128" x1="524.371" y1="551.678" x2="615.226" y2="551.678" gradientUnits="userSpaceOnUse">
<stop stop-color="#F9B776"/>
<stop offset="1" stop-color="#F47960"/>
</linearGradient>
<linearGradient id="paint17_linear_88_1128" x1="467.12" y1="430.841" x2="513.854" y2="457.56" gradientUnits="userSpaceOnUse">
<stop stop-color="#F9B776"/>
<stop offset="1" stop-color="#F47960"/>
</linearGradient>
<linearGradient id="paint18_linear_88_1128" x1="463.937" y1="393.966" x2="597.586" y2="530.211" gradientUnits="userSpaceOnUse">
<stop stop-color="#2B3582"/>
<stop offset="1" stop-color="#150E42"/>
</linearGradient>
<linearGradient id="paint19_linear_88_1128" x1="476.132" y1="417.217" x2="509.275" y2="468.043" gradientUnits="userSpaceOnUse">
<stop stop-color="#F9B776"/>
<stop offset="1" stop-color="#F47960"/>
</linearGradient>
<linearGradient id="paint20_linear_88_1128" x1="526.096" y1="541.871" x2="469.249" y2="559.656" gradientUnits="userSpaceOnUse">
<stop stop-color="#2B3582"/>
<stop offset="1" stop-color="#150E42"/>
</linearGradient>
<linearGradient id="paint21_linear_88_1128" x1="448.689" y1="503.139" x2="406.085" y2="546.095" gradientUnits="userSpaceOnUse">
<stop stop-color="#2B3582"/>
<stop offset="1" stop-color="#150E42"/>
</linearGradient>
<linearGradient id="paint22_linear_88_1128" x1="424.154" y1="514.334" x2="404.515" y2="542.547" gradientUnits="userSpaceOnUse">
<stop stop-color="#53D8FF"/>
<stop offset="1" stop-color="#3840F7"/>
</linearGradient>
<linearGradient id="paint23_linear_88_1128" x1="575.71" y1="763.778" x2="575.052" y2="830.362" gradientUnits="userSpaceOnUse">
<stop stop-color="#2B3582"/>
<stop offset="1" stop-color="#150E42"/>
</linearGradient>
<linearGradient id="paint24_linear_88_1128" x1="591.021" y1="689.419" x2="594.637" y2="662.452" gradientUnits="userSpaceOnUse">
<stop stop-color="#F9B776"/>
<stop offset="1" stop-color="#F47960"/>
</linearGradient>
<linearGradient id="paint25_linear_88_1128" x1="661.529" y1="764.626" x2="660.87" y2="831.21" gradientUnits="userSpaceOnUse">
<stop stop-color="#2B3582"/>
<stop offset="1" stop-color="#150E42"/>
</linearGradient>
<linearGradient id="paint26_linear_88_1128" x1="663.055" y1="698.678" x2="666.578" y2="672.398" gradientUnits="userSpaceOnUse">
<stop stop-color="#F9B776"/>
<stop offset="1" stop-color="#F47960"/>
</linearGradient>
<linearGradient id="paint27_linear_88_1128" x1="685.5" y1="598.662" x2="586.646" y2="598.662" gradientUnits="userSpaceOnUse">
<stop stop-color="#2B3582"/>
<stop offset="1" stop-color="#150E42"/>
</linearGradient>
<linearGradient id="paint28_linear_88_1128" x1="664.995" y1="582.763" x2="661.12" y2="575.371" gradientUnits="userSpaceOnUse">
<stop stop-color="#53D8FF"/>
<stop offset="1" stop-color="#3840F7"/>
</linearGradient>
<linearGradient id="paint29_linear_88_1128" x1="605.829" y1="424.428" x2="672.976" y2="614.729" gradientUnits="userSpaceOnUse">
<stop stop-color="#A737D5"/>
<stop offset="1" stop-color="#EF497A"/>
</linearGradient>
<linearGradient id="paint30_linear_88_1128" x1="-514.276" y1="-1633.47" x2="-224.82" y2="-1139.14" gradientUnits="userSpaceOnUse">
<stop stop-color="#CB236D"/>
<stop offset="1" stop-color="#4C246D"/>
</linearGradient>
<linearGradient id="paint31_linear_88_1128" x1="638.782" y1="525.803" x2="593.769" y2="525.803" gradientUnits="userSpaceOnUse">
<stop stop-color="#F9B776"/>
<stop offset="1" stop-color="#F47960"/>
</linearGradient>
<linearGradient id="paint32_linear_88_1128" x1="597.3" y1="466.654" x2="513.241" y2="466.654" gradientUnits="userSpaceOnUse">
<stop stop-color="#F9B776"/>
<stop offset="1" stop-color="#F47960"/>
</linearGradient>
<linearGradient id="paint33_linear_88_1128" x1="627.563" y1="417.231" x2="596.894" y2="387.214" gradientUnits="userSpaceOnUse">
<stop stop-color="#F9B776"/>
<stop offset="1" stop-color="#F47960"/>
</linearGradient>
<linearGradient id="paint34_linear_88_1128" x1="585.137" y1="365.945" x2="623.825" y2="414.77" gradientUnits="userSpaceOnUse">
<stop stop-color="#F9B776"/>
<stop offset="1" stop-color="#F47960"/>
</linearGradient>
<linearGradient id="paint35_linear_88_1128" x1="612.992" y1="378.145" x2="569.424" y2="378.145" gradientUnits="userSpaceOnUse">
<stop stop-color="#2B3582"/>
<stop offset="1" stop-color="#150E42"/>
</linearGradient>
<linearGradient id="paint36_linear_88_1128" x1="638.556" y1="406.001" x2="607.886" y2="375.984" gradientUnits="userSpaceOnUse">
<stop stop-color="#F9B776"/>
<stop offset="1" stop-color="#F47960"/>
</linearGradient>
<linearGradient id="paint37_linear_88_1128" x1="-490.928" y1="-1647.14" x2="-201.473" y2="-1152.81" gradientUnits="userSpaceOnUse">
<stop stop-color="#CB236D"/>
<stop offset="1" stop-color="#4C246D"/>
</linearGradient>
<linearGradient id="paint38_linear_88_1128" x1="585.595" y1="550.079" x2="648.273" y2="588.839" gradientUnits="userSpaceOnUse">
<stop stop-color="#53D8FF"/>
<stop offset="1" stop-color="#3840F7"/>
</linearGradient>
<linearGradient id="paint39_linear_88_1128" x1="596.59" y1="598.065" x2="596.919" y2="579.228" gradientUnits="userSpaceOnUse">
<stop stop-color="#FDF53F"/>
<stop offset="0.6645" stop-color="#E57A58"/>
<stop offset="1" stop-color="#D93C65"/>
</linearGradient>
<linearGradient id="paint40_linear_88_1128" x1="335.23" y1="637.199" x2="388.066" y2="637.199" gradientUnits="userSpaceOnUse">
<stop stop-color="#9CFFFB"/>
<stop offset="1" stop-color="#9BFFFA"/>
</linearGradient>
<linearGradient id="paint41_linear_88_1128" x1="341.334" y1="637.198" x2="394.17" y2="637.198" gradientUnits="userSpaceOnUse">
<stop stop-color="#9CFFFB"/>
<stop offset="1" stop-color="#9BFFFA"/>
</linearGradient>
<linearGradient id="paint42_linear_88_1128" x1="564.599" y1="634.385" x2="617.435" y2="634.385" gradientUnits="userSpaceOnUse">
<stop stop-color="#9CFFFB"/>
<stop offset="1" stop-color="#9BFFFA"/>
</linearGradient>
<linearGradient id="paint43_linear_88_1128" x1="570.701" y1="634.384" x2="623.537" y2="634.384" gradientUnits="userSpaceOnUse">
<stop stop-color="#9CFFFB"/>
<stop offset="1" stop-color="#9BFFFA"/>
</linearGradient>
<linearGradient id="paint44_linear_88_1128" x1="313.94" y1="568.851" x2="639.963" y2="568.851" gradientUnits="userSpaceOnUse">
<stop stop-color="#9CFFFB"/>
<stop offset="1" stop-color="#9BFFFA"/>
</linearGradient>
<linearGradient id="paint45_linear_88_1128" x1="601.638" y1="223.074" x2="649.85" y2="290.664" gradientUnits="userSpaceOnUse">
<stop stop-color="#B37CFF"/>
<stop offset="1" stop-color="#F895E7"/>
</linearGradient>
<linearGradient id="paint46_linear_88_1128" x1="666.597" y1="283.675" x2="669.413" y2="287.622" gradientUnits="userSpaceOnUse">
<stop stop-color="#B37CFF"/>
<stop offset="1" stop-color="#F895E7"/>
</linearGradient>
<linearGradient id="paint47_linear_88_1128" x1="650.638" y1="325.971" x2="652.57" y2="328.68" gradientUnits="userSpaceOnUse">
<stop stop-color="#B37CFF"/>
<stop offset="1" stop-color="#F895E7"/>
</linearGradient>
<linearGradient id="paint48_linear_88_1128" x1="575.921" y1="279.187" x2="625.581" y2="348.806" gradientUnits="userSpaceOnUse">
<stop stop-color="#B37CFF"/>
<stop offset="1" stop-color="#F895E7"/>
</linearGradient>
<linearGradient id="paint49_linear_88_1128" x1="556.839" y1="282.328" x2="559.619" y2="286.225" gradientUnits="userSpaceOnUse">
<stop stop-color="#B37CFF"/>
<stop offset="1" stop-color="#F895E7"/>
</linearGradient>
<linearGradient id="paint50_linear_88_1128" x1="644.164" y1="270.652" x2="529.171" y2="323.306" gradientUnits="userSpaceOnUse">
<stop stop-color="#A737D5"/>
<stop offset="1" stop-color="#EF497A"/>
</linearGradient>
<linearGradient id="paint51_linear_88_1128" x1="519.34" y1="221.113" x2="520.715" y2="223.04" gradientUnits="userSpaceOnUse">
<stop stop-color="#B37CFF"/>
<stop offset="1" stop-color="#F895E7"/>
</linearGradient>
<linearGradient id="paint52_linear_88_1128" x1="540.11" y1="205.122" x2="567.044" y2="242.881" gradientUnits="userSpaceOnUse">
<stop stop-color="#B37CFF"/>
<stop offset="1" stop-color="#F895E7"/>
</linearGradient>
<linearGradient id="paint53_linear_88_1128" x1="515.78" y1="247.901" x2="546.52" y2="290.996" gradientUnits="userSpaceOnUse">
<stop stop-color="#B37CFF"/>
<stop offset="1" stop-color="#F895E7"/>
</linearGradient>
<linearGradient id="paint54_linear_88_1128" x1="509.957" y1="244.907" x2="512.06" y2="247.854" gradientUnits="userSpaceOnUse">
<stop stop-color="#B37CFF"/>
<stop offset="1" stop-color="#F895E7"/>
</linearGradient>
<linearGradient id="paint55_linear_88_1128" x1="574.589" y1="227.321" x2="511.407" y2="270.345" gradientUnits="userSpaceOnUse">
<stop stop-color="#A737D5"/>
<stop offset="1" stop-color="#EF497A"/>
</linearGradient>
<linearGradient id="paint56_linear_88_1128" x1="226.181" y1="212.384" x2="27.5113" y2="369.923" gradientUnits="userSpaceOnUse">
<stop stop-color="#FDF53F"/>
<stop offset="0.6645" stop-color="#E57A58"/>
<stop offset="1" stop-color="#D93C65"/>
</linearGradient>
<linearGradient id="paint57_linear_88_1128" x1="178.726" y1="683.642" x2="41.6946" y2="823.146" gradientUnits="userSpaceOnUse">
<stop stop-color="#2B3582"/>
<stop offset="1" stop-color="#150E42"/>
</linearGradient>
<linearGradient id="paint58_linear_88_1128" x1="136.713" y1="694.159" x2="148.183" y2="694.263" gradientUnits="userSpaceOnUse">
<stop stop-color="#F9B776"/>
<stop offset="1" stop-color="#F47960"/>
</linearGradient>
<linearGradient id="paint59_linear_88_1128" x1="190.409" y1="517.221" x2="72.3257" y2="666.901" gradientUnits="userSpaceOnUse">
<stop stop-color="#FF928E"/>
<stop offset="1" stop-color="#FE7062"/>
</linearGradient>
<linearGradient id="paint60_linear_88_1128" x1="150.01" y1="655.43" x2="12.9732" y2="794.94" gradientUnits="userSpaceOnUse">
<stop stop-color="#2B3582"/>
<stop offset="1" stop-color="#150E42"/>
</linearGradient>
<linearGradient id="paint61_linear_88_1128" x1="95.3798" y1="693.128" x2="105.283" y2="693.218" gradientUnits="userSpaceOnUse">
<stop stop-color="#F9B776"/>
<stop offset="1" stop-color="#F47960"/>
</linearGradient>
<linearGradient id="paint62_linear_88_1128" x1="170.962" y1="501.877" x2="52.8793" y2="651.556" gradientUnits="userSpaceOnUse">
<stop stop-color="#FF928E"/>
<stop offset="1" stop-color="#FE7062"/>
</linearGradient>
<linearGradient id="paint63_linear_88_1128" x1="124.641" y1="389.499" x2="198.791" y2="661.832" gradientUnits="userSpaceOnUse">
<stop stop-color="#CB236D"/>
<stop offset="1" stop-color="#4C246D"/>
</linearGradient>
<linearGradient id="paint64_linear_88_1128" x1="186.769" y1="380.934" x2="245.371" y2="381.465" gradientUnits="userSpaceOnUse">
<stop stop-color="#F9B776"/>
<stop offset="1" stop-color="#F47960"/>
</linearGradient>
<linearGradient id="paint65_linear_88_1128" x1="232.41" y1="371.092" x2="188.991" y2="462.952" gradientUnits="userSpaceOnUse">
<stop stop-color="#F9B776"/>
<stop offset="1" stop-color="#F47960"/>
</linearGradient>
<linearGradient id="paint66_linear_88_1128" x1="245.467" y1="339.985" x2="263.223" y2="314.475" gradientUnits="userSpaceOnUse">
<stop stop-color="#F9B776"/>
<stop offset="1" stop-color="#F47960"/>
</linearGradient>
<linearGradient id="paint67_linear_88_1128" x1="72.0694" y1="403.814" x2="146.22" y2="676.146" gradientUnits="userSpaceOnUse">
<stop stop-color="#CB236D"/>
<stop offset="1" stop-color="#4C246D"/>
</linearGradient>
<linearGradient id="paint68_linear_88_1128" x1="57.746" y1="466.665" x2="131.906" y2="467.337" gradientUnits="userSpaceOnUse">
<stop stop-color="#F9B776"/>
<stop offset="1" stop-color="#F47960"/>
</linearGradient>
<linearGradient id="paint69_linear_88_1128" x1="115.446" y1="384.125" x2="144.767" y2="384.391" gradientUnits="userSpaceOnUse">
<stop stop-color="#F9B776"/>
<stop offset="1" stop-color="#F47960"/>
</linearGradient>
<linearGradient id="paint70_linear_88_1128" x1="151.919" y1="364.933" x2="119.04" y2="345.392" gradientUnits="userSpaceOnUse">
<stop stop-color="#F9B776"/>
<stop offset="1" stop-color="#F47960"/>
</linearGradient>
<linearGradient id="paint71_linear_88_1128" x1="103.001" y1="322.103" x2="145.852" y2="355.025" gradientUnits="userSpaceOnUse">
<stop stop-color="#2B3582"/>
<stop offset="1" stop-color="#150E42"/>
</linearGradient>
<linearGradient id="paint72_linear_88_1128" x1="143.381" y1="372.535" x2="113.8" y2="354.954" gradientUnits="userSpaceOnUse">
<stop stop-color="#F9B776"/>
<stop offset="1" stop-color="#F47960"/>
</linearGradient>
<linearGradient id="paint73_linear_88_1128" x1="151.791" y1="417.27" x2="196.517" y2="595.048" gradientUnits="userSpaceOnUse">
<stop stop-color="#2B3582"/>
<stop offset="1" stop-color="#150E42"/>
</linearGradient>
<linearGradient id="paint74_linear_88_1128" x1="123.75" y1="464.554" x2="146.935" y2="464.554" gradientUnits="userSpaceOnUse">
<stop stop-color="#F9B776"/>
<stop offset="1" stop-color="#F47960"/>
</linearGradient>
<linearGradient id="paint75_linear_88_1128" x1="168.283" y1="436.332" x2="161.598" y2="462.901" gradientUnits="userSpaceOnUse">
<stop stop-color="#53D8FF"/>
<stop offset="1" stop-color="#3840F7"/>
</linearGradient>
</defs>
</svg>
