<svg width="32" height="32" viewBox="0 0 32 32" fill="none" xmlns="http://www.w3.org/2000/svg">
  <rect width="32" height="32" rx="6" fill="#DBEAFE"/>
  <path d="M16 6V26M12 10C12 8.89543 12.8954 8 14 8H18C19.1046 8 20 8.89543 20 10C20 11.1046 19.1046 12 18 12H14C12.8954 12 12 12.8954 12 14C12 15.1046 12.8954 16 14 16H18C19.1046 16 20 16.8954 20 18C20 19.1046 19.1046 20 18 20H14C12.8954 20 12 19.1046 12 18" stroke="#2563EB" stroke-width="2" stroke-linecap="round"/>
  <path d="M8 22L10 20L12 22L14 18L16 20L18 18L20 20L22 18L24 20" stroke="#2563EB" stroke-width="1.5" stroke-linecap="round" stroke-linejoin="round"/>
</svg>
