<svg width="32" height="32" viewBox="0 0 32 32" fill="none" xmlns="http://www.w3.org/2000/svg">
  <rect width="32" height="32" rx="6" fill="#E0E7FF"/>
  <path d="M8 18C8 14.6863 10.6863 12 14 12C15.5913 12 17.0214 12.6319 18.0013 13.6319C18.9812 12.6319 20.4113 12 22.0026 12C25.3163 12 28.0026 14.6863 28.0026 18C28.0026 21.3137 25.3163 24 22.0026 24H14C10.6863 24 8 21.3137 8 18Z" fill="#6366F1"/>
  <path d="M12 16H20M12 18H18M12 20H16" stroke="white" stroke-width="1.5" stroke-linecap="round"/>
  <circle cx="24" cy="16" r="1" fill="white"/>
  <circle cx="26" cy="18" r="1" fill="white"/>
  <circle cx="24" cy="20" r="1" fill="white"/>
</svg>
