<svg xmlns="http://www.w3.org/2000/svg" xmlns:xlink="http://www.w3.org/1999/xlink" width="250" zoomAndPan="magnify" viewBox="0 0 187.5 149.999998" height="200" preserveAspectRatio="xMidYMid meet" version="1.0"><defs><g/><clipPath id="2bc5e3a10e"><path d="M 0 0.199219 L 187 0.199219 L 187 149.800781 L 0 149.800781 Z M 0 0.199219 " clip-rule="nonzero"/></clipPath><clipPath id="d234bc9b97"><path d="M 18.921875 26.082031 L 33.480469 26.082031 L 33.480469 123.910156 L 18.921875 123.910156 Z M 18.921875 26.082031 " clip-rule="nonzero"/></clipPath></defs><g clip-path="url(#2bc5e3a10e)"><path fill="#ffffff" d="M 0 0.199219 L 187 0.199219 L 187 149.800781 L 0 149.800781 Z M 0 0.199219 " fill-opacity="1" fill-rule="nonzero"/><path fill="#1e1e1e" d="M 0 0.199219 L 187 0.199219 L 187 149.800781 L 0 149.800781 Z M 0 0.199219 " fill-opacity="1" fill-rule="nonzero"/></g><g fill="#ffffff" fill-opacity="1"><g transform="translate(0.000756907, 109.408241)"><g><path d="M 44.828125 -69.578125 C 45.128906 -67.097656 45.28125 -65.671875 45.28125 -65.296875 L 45.046875 -60.265625 C 44.972656 -58.128906 44.878906 -56.757812 44.765625 -56.15625 C 44.429688 -56.007812 44.148438 -55.9375 43.921875 -55.9375 L 43.40625 -56.046875 C 42.207031 -61.304688 40.171875 -65.140625 37.296875 -67.546875 C 34.421875 -69.953125 30.914062 -71.15625 26.78125 -71.15625 C 22.5 -71.15625 18.984375 -69.953125 16.234375 -67.546875 C 13.492188 -65.140625 12.125 -62.335938 12.125 -59.140625 C 12.125 -56.703125 13.082031 -54.46875 15 -52.4375 C 16.914062 -50.40625 21.820312 -47.359375 29.71875 -43.296875 C 35.726562 -40.179688 40.03125 -37.632812 42.625 -35.65625 C 45.21875 -33.6875 47.171875 -31.40625 48.484375 -28.8125 C 49.804688 -26.21875 50.46875 -23.320312 50.46875 -20.125 C 50.46875 -16.101562 49.421875 -12.328125 47.328125 -8.796875 C 45.242188 -5.265625 42.4375 -2.601562 38.90625 -0.8125 C 35.375 0.96875 30.691406 1.859375 24.859375 1.859375 C 19.785156 1.859375 14.921875 1.050781 10.265625 -0.5625 C 7.515625 -1.539062 5.835938 -2.328125 5.234375 -2.921875 C 4.640625 -3.523438 4.34375 -4.164062 4.34375 -4.84375 C 4.34375 -5.257812 4.378906 -5.785156 4.453125 -6.421875 C 4.984375 -10.859375 5.265625 -14.503906 5.296875 -17.359375 C 5.367188 -19.128906 5.5 -20.164062 5.6875 -20.46875 C 5.84375 -20.726562 6.128906 -20.859375 6.546875 -20.859375 C 6.878906 -20.859375 7.148438 -20.734375 7.359375 -20.484375 C 7.566406 -20.242188 7.707031 -19.785156 7.78125 -19.109375 C 8.195312 -14.484375 10.335938 -10.347656 14.203125 -6.703125 C 18.035156 -3.054688 22.378906 -1.234375 27.234375 -1.234375 C 30.203125 -1.234375 32.9375 -1.851562 35.4375 -3.09375 C 37.9375 -4.34375 39.890625 -6.140625 41.296875 -8.484375 C 42.703125 -10.835938 43.40625 -13.117188 43.40625 -15.328125 C 43.40625 -18.378906 42.335938 -21.164062 40.203125 -23.6875 C 38.054688 -26.195312 33.75 -29.132812 27.28125 -32.5 C 20.820312 -35.863281 16.613281 -38.316406 14.65625 -39.859375 C 11.5 -42.378906 9.132812 -45.050781 7.5625 -47.875 C 6.394531 -50.050781 5.8125 -52.585938 5.8125 -55.484375 C 5.8125 -60.703125 7.878906 -65.125 12.015625 -68.75 C 16.148438 -72.382812 21.691406 -74.203125 28.640625 -74.203125 C 32.472656 -74.203125 35.78125 -73.769531 38.5625 -72.90625 C 40.59375 -72.226562 42.679688 -71.117188 44.828125 -69.578125 Z M 44.828125 -69.578125 "/></g></g></g><g clip-path="url(#d234bc9b97)"><path fill="#1e1e1e" d="M 33.480469 26.082031 L 33.480469 123.902344 L 18.921875 123.902344 L 18.921875 26.082031 Z M 33.480469 26.082031 " fill-opacity="1" fill-rule="nonzero"/></g><g fill="#ffffff" fill-opacity="1"><g transform="translate(24.504909, 39.68768)"><g><path d="M 1.203125 3.1875 C 0.941406 3.1875 0.710938 3.117188 0.515625 2.984375 C 0.328125 2.859375 0.179688 2.671875 0.078125 2.421875 C -0.015625 2.179688 -0.0625 1.898438 -0.0625 1.578125 C -0.0625 1.398438 -0.0507812 1.234375 -0.03125 1.078125 C -0.0195312 0.929688 0 0.789062 0.03125 0.65625 C 0.0625 0.53125 0.101562 0.421875 0.15625 0.328125 L 0.65625 0.328125 C 0.59375 0.484375 0.53125 0.671875 0.46875 0.890625 C 0.414062 1.117188 0.390625 1.351562 0.390625 1.59375 C 0.390625 1.820312 0.421875 2.015625 0.484375 2.171875 C 0.546875 2.335938 0.632812 2.457031 0.75 2.53125 C 0.863281 2.613281 1.003906 2.65625 1.171875 2.65625 C 1.328125 2.65625 1.457031 2.617188 1.5625 2.546875 C 1.664062 2.484375 1.757812 2.375 1.84375 2.21875 C 1.925781 2.0625 2.019531 1.84375 2.125 1.5625 C 2.1875 1.375 2.257812 1.207031 2.34375 1.0625 C 2.425781 0.914062 2.519531 0.789062 2.625 0.6875 C 2.726562 0.582031 2.847656 0.503906 2.984375 0.453125 C 3.117188 0.410156 3.273438 0.390625 3.453125 0.390625 C 3.691406 0.390625 3.898438 0.445312 4.078125 0.5625 C 4.253906 0.6875 4.382812 0.859375 4.46875 1.078125 C 4.5625 1.296875 4.609375 1.550781 4.609375 1.84375 C 4.609375 2.082031 4.585938 2.304688 4.546875 2.515625 C 4.503906 2.722656 4.441406 2.910156 4.359375 3.078125 L 3.90625 2.921875 C 3.976562 2.753906 4.035156 2.578125 4.078125 2.390625 C 4.128906 2.210938 4.15625 2.023438 4.15625 1.828125 C 4.15625 1.628906 4.125 1.460938 4.0625 1.328125 C 4.007812 1.203125 3.929688 1.101562 3.828125 1.03125 C 3.722656 0.957031 3.597656 0.921875 3.453125 0.921875 C 3.296875 0.921875 3.160156 0.953125 3.046875 1.015625 C 2.941406 1.085938 2.847656 1.195312 2.765625 1.34375 C 2.691406 1.488281 2.609375 1.6875 2.515625 1.9375 C 2.421875 2.207031 2.316406 2.429688 2.203125 2.609375 C 2.097656 2.796875 1.96875 2.9375 1.8125 3.03125 C 1.65625 3.132812 1.453125 3.1875 1.203125 3.1875 Z M 1.203125 3.1875 "/></g></g></g><g fill="#ffffff" fill-opacity="1"><g transform="translate(24.504909, 43.182267)"><g/></g></g><g fill="#ffffff" fill-opacity="1"><g transform="translate(24.504909, 44.836904)"><g/></g></g><g fill="#ffffff" fill-opacity="1"><g transform="translate(24.504909, 46.491542)"><g/></g></g><g fill="#ffffff" fill-opacity="1"><g transform="translate(24.504909, 48.149489)"><g><path d="M 4.15625 2.5625 C 4.15625 2.3125 4.109375 2.085938 4.015625 1.890625 C 3.929688 1.691406 3.804688 1.519531 3.640625 1.375 C 3.484375 1.238281 3.289062 1.132812 3.0625 1.0625 C 2.832031 0.988281 2.570312 0.953125 2.28125 0.953125 C 1.894531 0.953125 1.5625 1.007812 1.28125 1.125 C 1 1.238281 0.78125 1.414062 0.625 1.65625 C 0.476562 1.894531 0.40625 2.191406 0.40625 2.546875 C 0.40625 2.753906 0.421875 2.945312 0.453125 3.125 C 0.484375 3.300781 0.523438 3.476562 0.578125 3.65625 L 0.125 3.65625 C 0.0625 3.488281 0.015625 3.3125 -0.015625 3.125 C -0.046875 2.945312 -0.0625 2.734375 -0.0625 2.484375 C -0.0625 2.015625 0.03125 1.625 0.21875 1.3125 C 0.414062 1.007812 0.6875 0.78125 1.03125 0.625 C 1.382812 0.46875 1.800781 0.390625 2.28125 0.390625 C 2.625 0.390625 2.9375 0.4375 3.21875 0.53125 C 3.507812 0.625 3.757812 0.765625 3.96875 0.953125 C 4.175781 1.140625 4.332031 1.367188 4.4375 1.640625 C 4.550781 1.910156 4.609375 2.222656 4.609375 2.578125 C 4.609375 2.804688 4.585938 3.023438 4.546875 3.234375 C 4.503906 3.453125 4.441406 3.644531 4.359375 3.8125 L 3.90625 3.609375 C 3.96875 3.460938 4.023438 3.300781 4.078125 3.125 C 4.128906 2.957031 4.15625 2.769531 4.15625 2.5625 Z M 4.15625 2.5625 "/></g></g></g><g fill="#ffffff" fill-opacity="1"><g transform="translate(24.504909, 52.170018)"><g/></g></g><g fill="#ffffff" fill-opacity="1"><g transform="translate(24.504909, 53.824655)"><g/></g></g><g fill="#ffffff" fill-opacity="1"><g transform="translate(24.504909, 55.479293)"><g/></g></g><g fill="#ffffff" fill-opacity="1"><g transform="translate(24.504909, 57.137241)"><g><path d="M 0 3.484375 L 1.4375 2.921875 L 1.4375 1.09375 L 0 0.53125 L 0 0 L 4.5625 1.78125 L 4.5625 2.25 L 0 4.03125 Z M 1.921875 2.765625 L 3.34375 2.21875 C 3.382812 2.207031 3.445312 2.1875 3.53125 2.15625 C 3.613281 2.132812 3.703125 2.109375 3.796875 2.078125 C 3.890625 2.046875 3.960938 2.019531 4.015625 2 C 3.929688 1.988281 3.847656 1.96875 3.765625 1.9375 C 3.679688 1.914062 3.601562 1.894531 3.53125 1.875 C 3.457031 1.851562 3.394531 1.832031 3.34375 1.8125 L 1.921875 1.265625 Z M 1.921875 2.765625 "/></g></g></g><g fill="#ffffff" fill-opacity="1"><g transform="translate(24.504909, 61.169457)"><g/></g></g><g fill="#ffffff" fill-opacity="1"><g transform="translate(24.504909, 62.824094)"><g/></g></g><g fill="#ffffff" fill-opacity="1"><g transform="translate(24.504909, 64.478732)"><g/></g></g><g fill="#ffffff" fill-opacity="1"><g transform="translate(24.504909, 66.136679)"><g><path d="M 0 0.625 L 4.546875 0.625 L 4.546875 1.15625 L 0.46875 1.15625 L 0.46875 3.171875 L 0 3.171875 Z M 0 0.625 "/></g></g></g><g fill="#ffffff" fill-opacity="1"><g transform="translate(24.504909, 69.46764)"><g/></g></g><g fill="#ffffff" fill-opacity="1"><g transform="translate(24.504909, 71.122278)"><g/></g></g><g fill="#ffffff" fill-opacity="1"><g transform="translate(24.504909, 72.776915)"><g/></g></g><g fill="#ffffff" fill-opacity="1"><g transform="translate(24.504909, 74.434863)"><g><path d="M 0 0.625 L 4.546875 0.625 L 4.546875 1.15625 L 0 1.15625 Z M 0 0.625 "/></g></g></g><g fill="#ffffff" fill-opacity="1"><g transform="translate(24.504909, 76.223063)"><g/></g></g><g fill="#ffffff" fill-opacity="1"><g transform="translate(24.504909, 77.877701)"><g/></g></g><g fill="#ffffff" fill-opacity="1"><g transform="translate(24.504909, 79.532338)"><g/></g></g><g fill="#ffffff" fill-opacity="1"><g transform="translate(24.504909, 81.190286)"><g><path d="M 0 3.65625 L 0 3.0625 L 2 1.828125 L 0 0.578125 L 0 0.015625 L 2.375 1.53125 L 4.546875 0.125 L 4.546875 0.71875 L 2.734375 1.84375 L 4.546875 2.984375 L 4.546875 3.546875 L 2.375 2.140625 Z M 0 3.65625 "/></g></g></g><g fill="#ffffff" fill-opacity="1"><g transform="translate(24.504909, 84.871874)"><g/></g></g><g fill="#ffffff" fill-opacity="1"><g transform="translate(24.504909, 86.526512)"><g/></g></g><g fill="#ffffff" fill-opacity="1"><g transform="translate(24.504909, 88.181149)"><g/></g></g><g fill="#ffffff" fill-opacity="1"><g transform="translate(24.504909, 89.839097)"><g><path d="M 0 0.625 L 4.546875 0.625 L 4.546875 1.15625 L 0 1.15625 Z M 0 0.625 "/></g></g></g><g fill="#ffffff" fill-opacity="1"><g transform="translate(24.504909, 91.627297)"><g/></g></g><g fill="#ffffff" fill-opacity="1"><g transform="translate(24.504909, 93.281934)"><g/></g></g><g fill="#ffffff" fill-opacity="1"><g transform="translate(24.504909, 94.936572)"><g/></g></g><g fill="#ffffff" fill-opacity="1"><g transform="translate(24.504909, 96.594519)"><g><path d="M 0 2.015625 L 0 1.484375 L 4.078125 1.484375 L 4.078125 0.0625 L 4.546875 0.0625 L 4.546875 3.453125 L 4.078125 3.453125 L 4.078125 2.015625 Z M 0 2.015625 "/></g></g></g><g fill="#ffffff" fill-opacity="1"><g transform="translate(24.504909, 100.112482)"><g/></g></g><g fill="#ffffff" fill-opacity="1"><g transform="translate(24.504909, 101.767119)"><g/></g></g><g fill="#ffffff" fill-opacity="1"><g transform="translate(24.504909, 103.421757)"><g/></g></g><g fill="#ffffff" fill-opacity="1"><g transform="translate(24.504909, 105.079704)"><g><path d="M 2.265625 1.78125 L 4.546875 3 L 4.546875 3.5625 L 1.765625 2.046875 L 0 2.046875 L 0 1.515625 L 1.734375 1.515625 L 4.546875 0 L 4.546875 0.578125 Z M 2.265625 1.78125 "/></g></g></g><g fill="#ffffff" fill-opacity="1"><g transform="translate(24.504909, 108.644417)"><g/></g></g><g fill="#ffffff" fill-opacity="1"><g transform="translate(55.318088, 80.700365)"><g><path d="M 14.125 -5 C 14.125 -4.101562 13.914062 -3.257812 13.5 -2.46875 C 13.082031 -1.675781 12.4375 -1.03125 11.5625 -0.53125 C 10.6875 -0.0390625 9.597656 0.203125 8.296875 0.203125 C 7.023438 0.203125 5.894531 -0.03125 4.90625 -0.5 C 3.925781 -0.96875 3.140625 -1.601562 2.546875 -2.40625 C 1.960938 -3.21875 1.625 -4.128906 1.53125 -5.140625 L 3.609375 -5.140625 C 3.679688 -4.554688 3.894531 -3.976562 4.25 -3.40625 C 4.601562 -2.832031 5.113281 -2.351562 5.78125 -1.96875 C 6.445312 -1.582031 7.253906 -1.390625 8.203125 -1.390625 C 9.453125 -1.390625 10.40625 -1.722656 11.0625 -2.390625 C 11.726562 -3.066406 12.0625 -3.914062 12.0625 -4.9375 C 12.0625 -5.8125 11.84375 -6.523438 11.40625 -7.078125 C 10.96875 -7.628906 10.425781 -8.050781 9.78125 -8.34375 C 9.144531 -8.644531 8.265625 -8.972656 7.140625 -9.328125 C 5.921875 -9.710938 4.929688 -10.085938 4.171875 -10.453125 C 3.421875 -10.816406 2.785156 -11.351562 2.265625 -12.0625 C 1.742188 -12.769531 1.484375 -13.707031 1.484375 -14.875 C 1.484375 -16.363281 2.003906 -17.570312 3.046875 -18.5 C 4.085938 -19.4375 5.519531 -19.90625 7.34375 -19.90625 C 9.207031 -19.90625 10.679688 -19.445312 11.765625 -18.53125 C 12.859375 -17.625 13.503906 -16.492188 13.703125 -15.140625 L 11.609375 -15.140625 C 11.441406 -15.972656 11 -16.710938 10.28125 -17.359375 C 9.570312 -18.015625 8.59375 -18.34375 7.34375 -18.34375 C 6.1875 -18.34375 5.265625 -18.046875 4.578125 -17.453125 C 3.890625 -16.859375 3.546875 -16.03125 3.546875 -14.96875 C 3.546875 -14.125 3.757812 -13.441406 4.1875 -12.921875 C 4.613281 -12.398438 5.140625 -12 5.765625 -11.71875 C 6.390625 -11.445312 7.242188 -11.132812 8.328125 -10.78125 C 9.566406 -10.382812 10.570312 -10 11.34375 -9.625 C 12.125 -9.257812 12.78125 -8.703125 13.3125 -7.953125 C 13.851562 -7.210938 14.125 -6.226562 14.125 -5 Z M 14.125 -5 "/></g></g></g><g fill="#ffffff" fill-opacity="1"><g transform="translate(70.898412, 80.700365)"><g><path d="M 10.78125 -19.875 C 13.144531 -19.875 15.097656 -19.300781 16.640625 -18.15625 C 18.179688 -17.019531 19.269531 -15.445312 19.90625 -13.4375 L 17.84375 -13.4375 C 17.320312 -14.84375 16.457031 -15.960938 15.25 -16.796875 C 14.039062 -17.640625 12.539062 -18.0625 10.75 -18.0625 C 9.394531 -18.0625 8.160156 -17.726562 7.046875 -17.0625 C 5.941406 -16.394531 5.070312 -15.4375 4.4375 -14.1875 C 3.800781 -12.9375 3.484375 -11.484375 3.484375 -9.828125 C 3.484375 -8.171875 3.800781 -6.722656 4.4375 -5.484375 C 5.070312 -4.242188 5.941406 -3.289062 7.046875 -2.625 C 8.160156 -1.957031 9.394531 -1.625 10.75 -1.625 C 12.539062 -1.625 14.039062 -2.039062 15.25 -2.875 C 16.457031 -3.707031 17.320312 -4.832031 17.84375 -6.25 L 19.90625 -6.25 C 19.269531 -4.238281 18.179688 -2.660156 16.640625 -1.515625 C 15.097656 -0.367188 13.144531 0.203125 10.78125 0.203125 C 8.96875 0.203125 7.351562 -0.222656 5.9375 -1.078125 C 4.53125 -1.941406 3.4375 -3.128906 2.65625 -4.640625 C 1.875 -6.160156 1.484375 -7.890625 1.484375 -9.828125 C 1.484375 -11.785156 1.875 -13.523438 2.65625 -15.046875 C 3.4375 -16.578125 4.53125 -17.765625 5.9375 -18.609375 C 7.351562 -19.453125 8.96875 -19.875 10.78125 -19.875 Z M 10.78125 -19.875 "/></g></g></g><g fill="#ffffff" fill-opacity="1"><g transform="translate(92.258531, 80.700365)"><g><path d="M 13.484375 -4.796875 L 4.515625 -4.796875 L 2.734375 0 L 0.640625 0 L 7.90625 -19.234375 L 10.109375 -19.234375 L 17.375 0 L 15.25 0 Z M 12.90625 -6.359375 L 9.015625 -16.96875 L 5.078125 -6.359375 Z M 12.90625 -6.359375 "/></g></g></g><g fill="#ffffff" fill-opacity="1"><g transform="translate(110.240117, 80.700365)"><g><path d="M 4.109375 -1.5625 L 11.25 -1.5625 L 11.25 0 L 2.125 0 L 2.125 -19.6875 L 4.109375 -19.6875 Z M 4.109375 -1.5625 "/></g></g></g><g fill="#ffffff" fill-opacity="1"><g transform="translate(122.051001, 80.700365)"><g><path d="M 4.109375 -19.6875 L 4.109375 0 L 2.125 0 L 2.125 -19.6875 Z M 4.109375 -19.6875 "/></g></g></g><g fill="#ffffff" fill-opacity="1"><g transform="translate(128.27755, 80.700365)"><g><path d="M 12.875 0 L 7.734375 -8.296875 L 2.953125 0 L 0.703125 0 L 6.640625 -10.03125 L 0.640625 -19.6875 L 2.953125 -19.6875 L 8.015625 -11.5625 L 12.78125 -19.6875 L 15.046875 -19.6875 L 9.078125 -9.828125 L 15.1875 0 Z M 12.875 0 "/></g></g></g><g fill="#ffffff" fill-opacity="1"><g transform="translate(144.08125, 80.700365)"><g><path d="M 4.109375 -19.6875 L 4.109375 0 L 2.125 0 L 2.125 -19.6875 Z M 4.109375 -19.6875 "/></g></g></g><g fill="#ffffff" fill-opacity="1"><g transform="translate(150.307798, 80.700365)"><g><path d="M 13.65625 -19.6875 L 13.65625 -18.09375 L 8.046875 -18.09375 L 8.046875 0 L 6.09375 0 L 6.09375 -18.09375 L 0.5 -18.09375 L 0.5 -19.6875 Z M 13.65625 -19.6875 "/></g></g></g><g fill="#ffffff" fill-opacity="1"><g transform="translate(164.464109, 80.700365)"><g><path d="M 15.328125 -19.6875 L 8.984375 -7.671875 L 8.984375 0 L 7.015625 0 L 7.015625 -7.671875 L 0.640625 -19.6875 L 2.90625 -19.6875 L 7.984375 -9.765625 L 13.0625 -19.6875 Z M 15.328125 -19.6875 "/></g></g></g></svg>