<?xml version="1.0" standalone="no"?>
<!DOCTYPE svg PUBLIC "-//W3C//DTD SVG 20010904//EN"
 "http://www.w3.org/TR/2001/REC-SVG-20010904/DTD/svg10.dtd">
<svg version="1.0" xmlns="http://www.w3.org/2000/svg"
 width="1024.000000pt" height="1024.000000pt" viewBox="0 0 1024.000000 1024.000000"
 preserveAspectRatio="xMidYMid meet">

<g transform="translate(0.000000,1024.000000) scale(0.100000,-0.100000)"
fill="#000000" stroke="none">
<path d="M0 9069 c0 -1112 1 -1171 18 -1158 9 8 19 16 22 19 8 9 335 269 460
365 63 49 122 96 130 104 8 8 57 46 109 84 52 39 131 102 177 141 45 39 155
125 245 191 89 66 202 152 250 190 49 39 107 84 130 100 23 17 83 63 133 104
50 40 98 76 106 79 8 3 78 58 155 122 77 64 240 192 363 283 253 189 326 246
329 256 2 3 -25 25 -60 48 -182 123 -304 207 -323 224 -17 16 -36 19 -114 19
l-93 0 -55 -47 c-31 -27 -70 -59 -88 -73 -17 -14 -62 -50 -100 -81 -38 -30
-153 -119 -255 -196 -102 -77 -198 -152 -214 -167 -15 -14 -32 -26 -36 -26
-28 0 2 -31 69 -73 42 -26 147 -95 232 -153 85 -58 161 -109 169 -114 9 -5 12
-12 8 -16 -4 -4 -99 55 -212 132 -113 76 -227 152 -255 167 -57 32 -62 31
-140 -38 -28 -25 -58 -45 -67 -45 -15 0 -14 2 2 15 93 69 125 97 125 105 0 10
-45 41 -220 156 -63 41 -122 82 -130 91 -11 13 -8 12 15 -2 17 -10 42 -25 57
-33 15 -7 30 -17 33 -22 3 -4 24 -18 47 -30 50 -25 176 -109 184 -121 3 -5 18
-9 33 -9 20 0 56 22 122 74 141 112 359 280 496 381 66 50 126 98 132 108 11
16 -31 17 -826 17 -705 0 -834 -2 -818 -13 11 -8 43 -27 70 -42 75 -42 242
-155 262 -178 16 -17 13 -16 -22 4 -62 35 -330 213 -333 222 -2 4 -75 7 -163
7 l-159 0 0 -1171z m812 985 c21 -15 36 -29 34 -31 -5 -5 -86 44 -86 52 0 10
15 4 52 -21z m29 -151 c13 -16 12 -17 -3 -4 -17 13 -22 21 -14 21 2 0 10 -8
17 -17z m-714 -55 c15 -7 51 -29 78 -49 28 -20 82 -55 120 -79 192 -116 440
-288 490 -340 16 -16 32 -30 37 -30 5 0 27 12 51 27 l42 26 -28 -36 c-15 -19
-27 -39 -27 -44 0 -4 40 -34 88 -65 123 -81 250 -188 221 -188 -14 0 -35 14
-247 159 -56 39 -106 71 -111 71 -5 0 -11 7 -14 14 -3 8 -50 45 -104 81 -54
36 -156 106 -228 156 -72 49 -186 128 -255 174 -150 101 -160 109 -160 124 0
14 12 14 47 -1z m678 -128 c3 -6 -1 -7 -9 -4 -18 7 -21 14 -7 14 6 0 13 -4 16
-10z m84 -57 c2 -2 -3 -3 -12 -3 -9 0 -22 10 -28 23 l-12 22 24 -20 c13 -11
26 -21 28 -22z m101 -66 c0 -5 -7 -6 -16 -3 -9 3 -18 6 -20 6 -2 0 -4 7 -4 15
0 13 3 13 20 3 11 -7 20 -17 20 -21z m1025 7 c-16 -14 -45 -39 -63 -55 -35
-31 -52 -37 -52 -16 1 6 21 26 46 42 89 59 119 71 69 29z m-1095 -88 c-13 -13
-35 7 -25 24 5 8 11 8 21 -1 10 -8 12 -15 4 -23z m110 -50 c0 -3 -4 -8 -10
-11 -5 -3 -10 -1 -10 4 0 6 5 11 10 11 6 0 10 -2 10 -4z m340 -108 c0 -6 -6
-5 -15 2 -8 7 -15 14 -15 16 0 2 7 1 15 -2 8 -4 15 -11 15 -16z m86 -49 c3 -5
14 -9 24 -9 10 0 26 -7 34 -15 14 -14 8 -22 -56 -83 -39 -37 -104 -93 -145
-124 -113 -87 -152 -122 -123 -113 15 5 20 4 16 -4 -4 -6 -13 -11 -19 -11 -7
0 -43 -27 -82 -60 -38 -32 -122 -99 -185 -147 -63 -48 -137 -108 -165 -131
-53 -46 -142 -102 -162 -102 -22 0 -2 29 35 52 21 12 78 54 127 93 50 39 122
93 160 120 88 61 178 136 171 142 -3 3 -18 -5 -33 -17 -15 -12 -64 -44 -108
-71 -84 -52 -203 -138 -277 -201 -50 -42 -168 -111 -168 -98 0 12 66 67 173
144 46 34 139 103 206 154 68 50 130 92 137 92 18 0 64 32 117 80 21 19 64 52
95 73 49 33 157 116 239 182 l25 21 -38 19 c-37 19 -74 49 -74 59 0 7 69 -34
76 -45z m-662 -44 c-52 -42 -106 -76 -110 -72 -6 6 119 96 125 90 3 -2 -4 -10
-15 -18z m-134 -94 c0 -5 -7 -12 -16 -15 -14 -5 -15 -4 -4 9 14 17 20 19 20 6z
m-280 -215 c0 -3 -4 -8 -10 -11 -5 -3 -10 -1 -10 4 0 6 5 11 10 11 6 0 10 -2
10 -4z m-30 -23 c0 -5 -30 -28 -67 -53 -37 -25 -91 -65 -121 -89 -29 -24 -56
-41 -58 -38 -3 3 15 19 40 37 25 17 46 34 46 38 0 4 12 16 28 25 15 10 47 33
72 52 46 34 60 41 60 28z"/>
<path d="M2453 10110 c108 -71 202 -130 211 -130 8 0 50 28 93 63 43 34 103
79 133 100 30 20 71 51 90 67 l34 30 -378 0 -377 0 194 -130z"/>
<path d="M3034 10219 c-10 -12 -77 -66 -149 -120 -178 -135 -189 -144 -182
-156 4 -6 31 -27 59 -46 242 -158 758 -503 863 -576 72 -50 164 -111 205 -136
76 -47 230 -151 350 -236 62 -44 96 -66 183 -112 20 -12 37 -24 37 -29 0 -4 6
-8 13 -8 7 0 23 -9 35 -20 12 -11 23 -20 26 -20 3 0 25 -13 49 -30 46 -31 67
-37 67 -20 0 6 5 10 11 10 9 0 9 -4 0 -13 -12 -15 -1 -28 52 -60 23 -15 27
-15 27 -2 0 8 5 15 11 15 6 0 8 -8 4 -19 -3 -12 0 -21 10 -25 18 -6 18 -5 5
29 -7 17 -7 32 0 43 8 15 9 14 10 -4 0 -25 28 -53 38 -38 4 5 20 16 36 24 26
13 29 13 42 -5 8 -10 17 -16 20 -12 4 3 -1 14 -10 23 -26 25 -9 31 17 6 27
-26 45 -27 72 -6 14 11 16 18 8 21 -7 3 -13 9 -13 14 0 5 9 4 19 -3 15 -9 22
-8 36 5 24 25 29 21 8 -7 -10 -13 -21 -22 -25 -19 -5 2 -8 -3 -8 -12 0 -9 -3
-14 -7 -12 -5 3 -14 -1 -21 -9 -8 -8 -9 -14 -2 -14 16 0 53 23 68 43 7 9 19
17 25 17 9 0 9 -2 0 -8 -9 -6 -7 -12 7 -25 25 -21 37 -22 20 -2 -7 9 -11 18
-8 20 3 3 11 -1 17 -9 11 -13 17 -11 46 15 18 17 41 36 51 44 12 9 14 14 6 15
-7 0 -10 5 -7 10 5 8 11 8 20 0 9 -8 17 -7 28 5 9 8 19 15 22 15 6 0 133 107
155 130 3 3 53 45 112 93 58 48 112 92 120 99 7 7 57 48 112 92 54 43 142 115
195 160 54 44 120 99 147 121 27 22 76 63 109 90 144 120 215 176 215 168 0
-5 -12 -18 -27 -30 -23 -17 -190 -157 -283 -237 -14 -11 -61 -50 -105 -86 -44
-36 -82 -67 -85 -70 -3 -3 -52 -43 -110 -90 -156 -126 -284 -232 -385 -318
-49 -43 -133 -112 -186 -155 -88 -70 -153 -132 -120 -112 8 4 17 2 23 -6 8
-11 9 -10 4 4 -3 9 -1 17 4 17 6 0 10 -5 10 -11 0 -5 5 -7 11 -3 8 4 7 9 -2
15 -27 16 0 20 36 5 45 -19 51 -20 37 -3 -8 9 -3 13 21 14 25 2 28 0 17 -8
-12 -8 -10 -9 9 -7 15 2 28 -4 35 -17 11 -19 33 -38 49 -41 4 -1 8 -2 10 -4 1
-1 14 -3 30 -4 19 -1 26 2 22 11 -3 10 0 11 14 4 10 -6 22 -7 27 -3 5 4 3 -1
-4 -10 -11 -14 -10 -16 7 -11 11 3 26 12 32 19 9 12 9 13 -3 9 -9 -4 -18 0
-20 7 -4 8 3 13 17 13 13 0 22 -2 20 -5 -2 -3 0 -12 6 -20 7 -12 9 -12 9 4 0
16 2 17 16 5 10 -8 12 -15 5 -17 -6 -2 -11 -8 -11 -13 0 -6 5 -7 10 -4 6 3 10
1 10 -5 0 -7 6 -8 19 0 24 12 34 13 27 2 -3 -5 1 -9 9 -9 8 0 11 5 8 10 -4 7
1 8 13 4 18 -7 18 -6 -1 9 -20 16 -20 16 3 9 23 -7 32 9 10 18 -10 4 -10 6 -1
6 21 2 25 -19 8 -45 -16 -24 -16 -26 2 -22 10 2 17 10 15 16 -1 7 5 12 13 12
19 0 19 -5 -2 -29 -9 -11 -20 -18 -25 -15 -4 3 -8 -3 -8 -13 0 -23 38 -25 66
-3 17 14 18 14 6 -2 -8 -9 -9 -19 -4 -22 6 -3 12 1 16 9 3 9 12 12 22 8 14 -5
13 -9 -7 -25 -23 -19 -23 -20 -2 -15 13 3 20 0 19 -7 -2 -6 -1 -8 1 -3 9 14
23 7 23 -13 0 -24 13 -26 30 -5 15 18 40 -2 32 -25 -3 -8 7 -2 21 13 32 33 32
36 10 53 -15 11 -15 13 -3 14 19 0 43 -37 30 -45 -6 -3 -10 -14 -9 -23 0 -11
3 -12 6 -4 6 14 33 16 33 2 0 -5 7 -7 15 -4 8 4 15 1 15 -6 0 -6 -4 -9 -9 -5
-5 3 -12 1 -16 -5 -7 -11 2 -12 50 -12 29 1 29 1 5 -7 -14 -5 -19 -9 -11 -10
7 -1 11 -7 8 -15 -3 -8 -1 -17 6 -20 7 -2 3 -5 -8 -5 -16 -1 -17 -3 -5 -11 9
-5 19 -5 26 1 9 7 12 5 10 -8 -4 -22 20 -46 36 -38 7 4 4 -1 -6 -9 -11 -9 -15
-16 -9 -16 6 0 34 -24 62 -52 52 -52 52 -52 79 -36 60 38 104 59 110 54 8 -9
-51 -79 -78 -93 -23 -11 -23 -12 36 -75 110 -116 219 -312 260 -463 11 -42 20
-61 22 -48 2 12 27 40 60 64 63 48 140 110 217 175 316 267 390 324 417 324
32 0 208 -87 208 -102 0 -27 -31 -52 -395 -318 -108 -80 -221 -163 -249 -186
-68 -55 -103 -72 -164 -80 -41 -5 -52 -4 -52 7 0 8 -9 32 -20 54 l-19 40 5
-40 c12 -89 -10 -81 199 -73 130 5 191 11 203 20 13 11 15 11 9 -4 -5 -16 1
-18 46 -20 90 -3 98 0 174 59 278 216 378 291 448 337 44 29 109 79 145 111
l65 59 -50 -53 c-49 -51 -100 -92 -390 -315 -77 -59 -168 -131 -202 -159 -56
-47 -60 -53 -40 -59 12 -3 27 -6 33 -7 14 -1 68 39 494 367 67 52 150 122 185
155 159 153 185 177 196 177 9 0 8 -4 0 -14 -6 -8 -11 -18 -10 -22 3 -20 -2
-34 -12 -34 -7 0 -33 -19 -59 -42 -136 -125 -400 -340 -500 -408 -69 -47 -214
-172 -215 -185 0 -6 14 -11 31 -13 26 -3 45 8 105 56 41 32 115 88 164 123
224 158 491 399 573 516 38 54 242 247 336 318 49 37 103 79 120 95 221 196
398 347 481 410 18 14 86 70 150 125 64 55 153 128 198 163 45 35 98 78 117
96 19 18 69 59 110 92 41 32 83 67 94 79 38 37 190 156 236 183 25 14 47 30
48 34 2 4 10 8 17 8 7 0 15 7 19 15 3 8 11 15 18 15 18 0 -83 -100 -196 -193
-55 -45 -167 -140 -249 -212 -82 -71 -173 -148 -201 -169 -28 -22 -96 -79
-151 -126 -93 -80 -160 -135 -305 -250 -31 -25 -139 -117 -241 -206 -101 -88
-209 -178 -239 -199 -79 -55 -338 -282 -357 -313 -54 -87 -177 -202 -407 -382
-224 -174 -360 -285 -364 -297 -6 -20 49 -16 85 7 31 18 218 158 373 277 41
32 91 74 110 93 19 20 55 53 80 74 25 22 71 64 104 95 47 44 57 51 51 31 -22
-71 -47 -98 -205 -216 -58 -43 -157 -121 -220 -174 -63 -52 -152 -122 -198
-155 -46 -33 -78 -63 -74 -67 5 -5 45 -22 89 -37 98 -35 258 -118 334 -172 24
-16 27 -17 25 -2 0 9 4 18 10 20 6 2 11 -8 10 -24 -1 -23 13 -40 84 -99 252
-210 419 -469 480 -746 7 -32 16 -58 20 -58 14 0 116 81 330 264 70 59 211
176 255 211 28 21 111 90 186 151 75 62 174 144 222 181 47 37 174 140 283
228 193 157 342 271 417 321 l37 24 0 1335 0 1335 -1263 0 c-1195 0 -1264 -1
-1283 -18 -95 -87 -318 -262 -333 -262 -33 0 22 50 202 184 64 47 117 89 117
91 0 3 -1041 5 -2313 5 l-2314 0 -19 -21z m4306 -272 c0 -7 -199 -179 -305
-264 -60 -48 -183 -148 -272 -220 -89 -73 -195 -159 -236 -190 -41 -32 -197
-157 -347 -278 -307 -248 -328 -264 -285 -215 45 51 46 52 105 100 30 25 71
59 90 77 19 17 62 51 95 76 65 49 199 160 255 210 19 18 71 59 115 92 69 52
205 162 285 231 46 40 153 129 184 153 17 14 74 59 126 101 126 102 190 144
190 127z m-741 -49 c-2 -2 -17 -14 -34 -28 l-30 -25 24 28 c14 15 29 27 34 27
6 0 8 -1 6 -2z m-149 -122 c0 -2 -12 -12 -27 -21 l-28 -18 19 21 c17 20 36 29
36 18z m-1434 -121 c4 -10 14 -13 33 -9 25 5 25 5 7 -10 -17 -14 -22 -13 -47
5 -33 23 -36 29 -14 29 9 0 18 -7 21 -15z m4720 -79 c-44 -41 -93 -81 -110
-91 -26 -14 -24 -10 15 27 57 54 159 138 168 138 3 -1 -30 -34 -73 -74z
m-2516 44 c0 -5 -10 -15 -22 -21 -23 -12 -23 -12 -4 10 21 23 26 26 26 11z
m-2485 -28 c-3 -3 -11 0 -18 7 -9 10 -8 11 6 5 10 -3 15 -9 12 -12z m2434 -15
c-9 -6 -145 -123 -164 -141 -11 -10 -51 -43 -90 -74 -38 -31 -124 -102 -190
-157 -126 -105 -276 -224 -335 -265 -19 -13 -42 -31 -50 -40 -8 -8 -34 -30
-57 -49 -24 -18 -43 -37 -43 -43 0 -5 23 -8 56 -5 36 3 66 0 83 -9 14 -8 31
-14 38 -14 7 0 28 -16 48 -35 46 -46 49 -106 9 -155 -27 -32 -91 -70 -118 -70
-8 0 -20 -8 -25 -17 -8 -14 -10 -15 -11 -3 0 12 -2 13 -9 1 -7 -11 -15 -11
-45 -1 -20 6 -36 16 -36 21 0 5 -6 9 -13 9 -7 0 -27 12 -45 28 -54 45 -60 129
-12 180 11 12 17 22 12 22 -12 0 -52 -47 -53 -63 0 -9 -2 -9 -6 0 -3 9 -18 6
-51 -13 -26 -14 -39 -19 -30 -11 10 7 14 18 10 22 -4 5 -1 5 6 0 9 -5 27 5 50
27 21 20 64 55 97 79 33 24 62 46 65 50 16 17 152 128 255 206 66 50 131 102
145 115 42 38 141 121 204 168 33 25 98 79 145 120 101 88 154 129 160 124 2
-2 2 -5 0 -7z m-3524 -57 c11 -17 -5 -32 -21 -19 -7 6 -11 15 -8 20 7 12 21
11 29 -1z m6497 -41 c-16 -20 -162 -145 -301 -258 -84 -69 -218 -180 -301
-252 -36 -30 -108 -89 -160 -129 -52 -40 -97 -76 -100 -79 -3 -3 -27 -24 -55
-46 -27 -22 -99 -85 -160 -139 -60 -54 -144 -124 -185 -154 -64 -48 -204 -164
-220 -182 -10 -12 -227 -187 -304 -245 -44 -33 -103 -82 -133 -109 -36 -33
-53 -43 -53 -32 0 46 37 83 210 212 31 22 79 61 107 85 109 92 147 124 296
247 209 172 343 285 511 427 78 66 204 169 281 229 77 61 187 151 245 202 137
119 300 243 322 243 17 1 17 0 0 -20z m-592 -59 c0 -5 -7 -10 -15 -10 -8 0
-15 -6 -15 -14 0 -7 -21 -31 -47 -52 -27 -21 -86 -72 -133 -114 -47 -41 -114
-97 -150 -124 -36 -27 -94 -75 -130 -106 -36 -31 -75 -63 -86 -71 -12 -8 -104
-86 -205 -174 -101 -88 -247 -212 -324 -274 -77 -63 -169 -140 -205 -171 -97
-84 -212 -175 -238 -189 -48 -26 -41 -4 12 39 31 25 56 48 56 52 0 5 4 8 9 8
10 0 52 35 141 117 30 29 87 75 125 104 39 28 73 57 77 63 4 6 11 11 16 11 6
0 48 36 95 80 85 80 120 109 292 246 50 40 104 85 120 100 75 69 227 195 370
306 6 4 37 31 70 59 66 56 154 124 161 124 2 0 4 -4 4 -10z m465 -196 c-27
-25 -81 -71 -120 -102 -38 -31 -97 -81 -130 -113 -33 -31 -110 -97 -171 -145
-61 -49 -142 -117 -180 -151 -38 -34 -97 -83 -130 -110 -34 -26 -114 -93 -179
-148 -119 -102 -226 -190 -439 -363 -390 -318 -396 -322 -396 -289 0 18 37 51
155 141 107 80 139 107 317 257 62 52 136 113 164 135 70 53 406 334 419 349
6 7 42 36 80 65 39 29 75 58 80 64 6 6 37 32 70 58 158 125 195 155 261 212
161 137 226 187 244 186 3 -1 -17 -21 -45 -46z m-4945 -284 c0 -10 -11 -25
-24 -33 -22 -15 -26 -15 -46 3 -24 21 -25 18 20 73 14 17 16 17 33 -4 9 -12
17 -29 17 -39z m2150 -182 c41 -13 89 -44 109 -71 8 -11 16 -15 20 -9 14 24 4
-105 -11 -133 -35 -65 -120 -109 -213 -109 -87 -1 -187 40 -211 85 -12 25 -26
144 -15 133 2 -2 15 12 28 31 52 76 181 109 293 73z m-2169 -25 c13 -17 13
-17 -6 -3 -11 8 -22 16 -24 17 -2 2 0 3 6 3 6 0 17 -8 24 -17z m755 -81 c-36
-38 -73 -77 -80 -88 -8 -10 -17 -16 -20 -13 -7 7 156 179 163 173 2 -2 -26
-34 -63 -72z m-1051 58 c3 -5 2 -10 -4 -10 -5 0 -13 5 -16 10 -3 6 -2 10 4 10
5 0 13 -4 16 -10z m146 -1 c11 -5 17 -14 14 -20 -9 -14 -19 -11 -33 11 -14 23
-10 25 19 9z m194 -9 c4 -6 -1 -7 -11 -3 -13 5 -15 3 -9 -7 5 -9 4 -11 -4 -6
-6 4 -9 12 -6 17 8 12 22 12 30 -1z m245 -15 c-7 -9 -15 -13 -18 -10 -3 2 1
11 8 20 7 9 15 13 18 10 3 -2 -1 -11 -8 -20z m-551 -9 c-2 -2 -16 -7 -32 -11
-18 -5 -27 -3 -27 5 0 7 7 10 15 6 9 -3 18 1 22 10 4 11 9 12 16 5 6 -6 9 -13
6 -15z m-94 4 c-3 -5 -10 -10 -16 -10 -5 0 -9 5 -9 10 0 6 7 10 16 10 8 0 12
-4 9 -10z m611 -17 c-10 -10 -19 5 -10 18 6 11 8 11 12 0 2 -7 1 -15 -2 -18z
m2088 -3 c-17 -33 -27 -40 -17 -12 6 17 23 42 28 42 2 0 -3 -13 -11 -30z
m-2734 10 c0 -5 -5 -10 -11 -10 -5 0 -7 5 -4 10 3 6 8 10 11 10 2 0 4 -4 4
-10z m738 -25 c-3 -3 -9 2 -12 12 -6 14 -5 15 5 6 7 -7 10 -15 7 -18z m155 -5
c-3 -12 -8 -19 -11 -16 -5 6 5 36 12 36 2 0 2 -9 -1 -20z m447 9 c0 -5 -4 -7
-10 -4 -5 3 -10 1 -10 -4 0 -6 -5 -11 -11 -11 -8 0 -8 5 1 15 14 17 30 20 30
4z m2470 -14 c-13 -14 -26 -22 -29 -19 -3 3 5 14 19 24 34 27 38 25 10 -5z
m-3080 -27 c0 -5 -4 -8 -10 -8 -5 0 -10 6 -10 13 0 7 -9 13 -19 13 -11 0 -17
-4 -15 -8 3 -4 0 -8 -5 -8 -21 0 -11 29 12 32 20 3 46 -16 47 -34z m3007 -28
c-7 -11 -60 -56 -116 -101 -113 -89 -343 -308 -336 -319 3 -4 -5 -8 -18 -8
-17 0 0 23 88 112 118 119 243 232 303 271 20 13 48 33 62 44 31 26 35 26 17
1z m-2717 -55 c-7 -9 -15 -13 -18 -10 -3 2 1 11 8 20 7 9 15 13 18 10 3 -2 -1
-11 -8 -20z m269 -14 c7 -5 9 -11 5 -14 -5 -3 -15 1 -22 9 -14 16 -5 18 17 5z
m-169 -21 c0 -5 -4 -10 -10 -10 -5 0 -10 5 -10 10 0 6 5 10 10 10 6 0 10 -4
10 -10z m30 0 c0 -5 -5 -10 -11 -10 -5 0 -7 5 -4 10 3 6 8 10 11 10 2 0 4 -4
4 -10z m40 -20 c8 -5 11 -10 5 -10 -5 0 -17 5 -25 10 -8 5 -10 10 -5 10 6 0
17 -5 25 -10z m1861 -6 c39 -12 67 -29 102 -64 40 -40 47 -53 47 -87 0 -108
-150 -204 -294 -187 -107 13 -185 78 -186 155 0 72 66 150 152 180 66 23 109
24 179 3z m-1691 -50 c0 -2 -13 -2 -30 -1 -16 1 -30 7 -30 14 0 9 8 9 30 2 17
-6 30 -13 30 -15z m1132 8 c65 5 68 0 11 -12 -39 -9 -173 6 -173 20 0 4 24 3
53 -2 28 -6 78 -8 109 -6z m-1132 -52 c-29 -8 -40 -3 -21 10 8 4 21 5 30 2 12
-5 10 -8 -9 -12z m20 -60 c0 -5 -4 -10 -10 -10 -5 0 -10 5 -10 10 0 6 5 10 10
10 6 0 10 -4 10 -10z m1106 -122 c4 -7 -2 -18 -17 -27 -13 -9 -44 -34 -69 -57
-25 -22 -92 -76 -150 -119 -58 -44 -144 -114 -193 -157 -48 -42 -116 -97 -152
-122 -55 -39 -65 -43 -76 -29 -19 22 -5 38 102 121 52 41 143 113 203 160 295
235 333 260 352 230z m502 -85 c-16 -2 -40 -2 -55 0 -16 2 -3 4 27 4 30 0 43
-2 28 -4z m492 -133 c0 -5 -5 -10 -11 -10 -5 0 -7 5 -4 10 3 6 8 10 11 10 2 0
4 -4 4 -10z m1190 -112 c-63 -57 -122 -100 -128 -93 -4 4 4 15 17 24 14 9 45
33 70 53 50 40 82 53 41 16z m-926 -118 c75 -32 119 -66 108 -84 -3 -6 -8 -21
-10 -34 -11 -86 -126 -178 -255 -207 -56 -12 -194 -7 -232 9 -47 20 -45 20
-45 -5 0 -28 44 -101 71 -118 40 -24 162 -61 203 -61 23 0 75 7 116 14 42 8
98 18 125 21 l50 6 -25 -20 c-14 -11 -29 -21 -33 -21 -5 0 -5 -4 -2 -10 8 -13
-87 -59 -139 -66 -24 -4 -74 -1 -111 5 -121 21 -196 74 -238 169 -119 264 145
518 417 402z m778 -5 c-8 -16 -9 -16 -15 -1 -4 10 -3 15 3 11 6 -3 10 -1 10 6
0 7 3 10 6 6 3 -3 2 -13 -4 -22z m-32 -10 c0 -9 -63 -65 -73 -65 -5 0 -6 -7
-3 -16 3 -9 2 -12 -5 -8 -6 3 -26 -10 -45 -30 -19 -20 -41 -36 -51 -36 -12 0
-11 4 8 20 13 11 44 38 69 60 82 73 100 87 100 75z m381 -66 c40 -44 43 -56
19 -77 -13 -12 -13 -13 0 -7 8 4 4 -2 -10 -13 -14 -12 -27 -19 -29 -16 -2 2
-13 -7 -25 -20 -12 -12 -39 -36 -61 -52 -22 -16 -42 -31 -45 -34 -3 -3 -33
-26 -67 -52 l-62 -48 -66 41 c-36 23 -65 45 -65 49 0 13 74 76 136 115 51 33
149 108 164 126 9 11 45 28 59 29 8 0 31 -19 52 -41z m-1711 -497 c0 -4 -42 8
-49 14 -1 1 0 7 3 13 4 6 14 4 26 -7 11 -9 20 -18 20 -20z"/>
<path d="M6255 8684 c-15 -15 -15 -18 0 -34 33 -36 107 -32 122 6 15 39 -88
62 -122 28z"/>
<path d="M7074 8665 c-33 -14 -44 -32 -44 -71 0 -32 41 -57 96 -58 39 -1 50 4
70 28 30 34 28 63 -6 86 -35 25 -80 31 -116 15z"/>
<path d="M7570 8370 c-33 -13 -64 -64 -56 -94 7 -29 61 -56 109 -56 42 0 83
32 92 71 14 58 -75 106 -145 79z"/>
<path d="M2610 9887 c-31 -23 -78 -57 -105 -76 -28 -19 -113 -83 -190 -142
-77 -59 -189 -145 -250 -190 -140 -105 -243 -191 -244 -204 0 -5 70 -57 157
-115 86 -58 200 -135 252 -172 119 -85 159 -112 291 -197 58 -38 117 -81 131
-95 13 -15 34 -28 46 -31 26 -5 123 -62 185 -109 23 -17 98 -68 167 -112 69
-44 233 -151 365 -237 248 -161 305 -192 305 -169 0 10 -115 88 -300 205 -69
43 -147 96 -175 117 -27 21 -94 64 -148 95 -54 31 -126 76 -160 101 -34 24
-96 68 -137 96 -90 61 -103 73 -73 63 25 -7 187 -107 215 -131 9 -9 22 -13 30
-8 7 4 10 4 6 -1 -10 -11 83 -75 163 -113 37 -18 89 -52 115 -76 27 -24 75
-58 107 -76 31 -17 127 -79 213 -136 86 -57 157 -104 158 -104 0 0 56 54 123
119 68 66 128 121 135 123 6 2 11 18 11 36 0 17 3 29 7 27 4 -2 7 2 7 10 0 8
-7 15 -15 15 -12 0 -12 4 3 20 16 18 16 20 2 15 -11 -5 -15 -1 -14 13 0 12 6
18 14 15 9 -4 11 0 7 11 -6 14 -1 16 37 10 24 -4 45 -11 47 -15 2 -5 13 -4 24
2 19 10 20 12 5 21 -10 5 -22 6 -27 3 -6 -3 -10 4 -9 17 0 13 3 17 6 11 7 -18
23 -16 23 3 0 8 5 12 10 9 6 -4 8 -9 6 -13 -2 -4 2 -16 10 -27 8 -11 14 -13
14 -6 0 7 6 11 14 8 18 -7 36 12 36 37 0 20 0 20 15 0 14 -19 14 -19 15 3 0
21 13 25 37 10 9 -6 11 -3 7 7 -4 11 0 16 11 16 10 0 13 -5 9 -12 -5 -7 -3 -8
7 -2 8 5 23 8 34 6 l20 -2 -20 9 c-18 8 -19 9 -3 16 10 4 15 11 12 16 -5 9 15
13 48 11 10 -1 21 10 26 26 6 15 11 21 11 15 1 -7 8 -13 17 -13 10 0 14 -6 10
-15 -3 -8 -1 -15 4 -15 6 0 10 4 10 9 0 4 14 8 30 7 17 -1 28 -6 26 -11 -8
-22 32 -13 42 10 9 19 6 27 -16 48 -28 26 -233 163 -312 209 -25 15 -250 163
-502 330 -251 166 -543 359 -649 428 -352 228 -394 256 -408 273 -7 9 -16 17
-20 17 -3 0 -31 -19 -61 -43z m843 -1040 c4 3 13 0 21 -6 8 -7 21 -9 27 -5 7
4 9 3 6 -4 -9 -13 2 -43 14 -37 4 3 3 -8 -3 -25 -12 -37 -71 -70 -122 -70 -43
0 -99 48 -94 81 6 40 105 90 134 67 6 -4 14 -5 17 -1z m-613 -88 c0 -5 -7 -6
-15 -3 -8 4 -15 13 -15 21 0 13 3 13 15 3 8 -7 15 -16 15 -21z m-25 -30 c-4
-5 -13 -9 -22 -9 -13 0 -13 3 -3 15 13 15 35 11 25 -6z m475 -9 c0 -5 -2 -10
-4 -10 -3 0 -8 5 -11 10 -3 6 -1 10 4 10 6 0 11 -4 11 -10z m611 -88 c35 -45
20 -119 -35 -171 -14 -13 -23 -28 -20 -32 7 -12 -42 -30 -60 -23 -21 8 -111
95 -125 121 -17 33 -13 77 10 107 11 14 17 30 14 36 -4 6 3 9 17 7 17 -1 22 3
20 16 -2 9 2 17 8 17 6 0 8 -4 5 -10 -4 -6 5 -10 21 -10 24 0 25 2 13 17 -8
10 11 3 49 -17 35 -18 72 -45 83 -58z m454 8 c3 -6 -1 -7 -9 -4 -18 7 -21 14
-7 14 6 0 13 -4 16 -10z m55 0 c0 -5 -5 -10 -11 -10 -5 0 -7 5 -4 10 3 6 8 10
11 10 2 0 4 -4 4 -10z m167 4 c-3 -3 -12 -4 -19 -1 -8 3 -5 6 6 6 11 1 17 -2
13 -5z m-297 -28 c0 -3 -4 -8 -10 -11 -5 -3 -10 -1 -10 4 0 6 5 11 10 11 6 0
10 -2 10 -4z m55 -5 c3 -5 1 -12 -5 -16 -5 -3 -10 1 -10 9 0 18 6 21 15 7z
m-136 -55 c0 -6 -3 -6 -6 2 -2 6 -11 12 -19 12 -8 0 -14 7 -14 17 0 14 2 14
20 -2 11 -10 20 -23 19 -29z m41 25 c0 -5 -7 -11 -15 -15 -15 -5 -20 5 -8 17
9 10 23 9 23 -2z m40 5 c0 -3 -4 -8 -10 -11 -5 -3 -10 -1 -10 4 0 6 5 11 10
11 6 0 10 -2 10 -4z m-1040 -20 c0 -3 -4 -8 -10 -11 -5 -3 -10 -1 -10 4 0 6 5
11 10 11 6 0 10 -2 10 -4z m-187 -21 c-3 -9 -8 -14 -10 -11 -3 3 -2 9 2 15 9
16 15 13 8 -4z m1018 -18 c-10 -9 -11 -8 -5 6 3 10 9 15 12 12 3 -3 0 -11 -7
-18z m-64 -7 c1 -11 -2 -18 -8 -15 -11 7 -12 35 -1 35 4 0 8 -9 9 -20z m43 16
c0 -3 -4 -8 -10 -11 -5 -3 -10 -1 -10 4 0 6 5 11 10 11 6 0 10 -2 10 -4z m110
-17 c0 -11 -4 -18 -10 -14 -5 3 -7 12 -3 20 7 21 13 19 13 -6z m33 -5 c-4 -10
-9 -12 -15 -6 -12 12 -1 35 12 27 5 -3 6 -13 3 -21z m-1072 -12 c-7 -2 -18 1
-23 6 -8 8 -4 9 13 5 13 -4 18 -8 10 -11z m71 -26 c7 4 8 2 4 -5 -9 -13 -26
-5 -25 12 0 9 2 8 6 -1 2 -6 10 -9 15 -6z"/>
<path d="M1690 9187 c-53 -39 -120 -91 -150 -114 -30 -23 -111 -84 -180 -136
-115 -86 -258 -197 -530 -410 -57 -45 -120 -94 -140 -109 -19 -15 -54 -42 -77
-60 -23 -18 -104 -81 -181 -139 -76 -59 -205 -159 -285 -223 l-147 -116 0 -63
c0 -58 2 -63 27 -74 29 -13 69 -39 211 -136 50 -35 93 -57 110 -57 21 0 24 -2
12 -10 -21 -13 -15 -17 180 -149 91 -62 253 -173 360 -247 107 -74 247 -170
310 -213 64 -43 153 -108 200 -145 46 -37 97 -74 114 -83 40 -21 144 -92 152
-104 7 -12 24 -11 24 1 0 38 194 276 305 374 37 32 62 62 58 68 -4 7 0 9 10 5
9 -3 21 1 29 11 12 16 11 16 -6 2 -17 -13 -19 -13 -14 0 3 8 14 15 24 15 11 1
33 10 49 22 17 11 63 38 104 59 41 21 68 40 60 42 -21 7 -71 44 -66 49 3 2 28
-5 56 -16 l52 -20 112 45 c62 25 115 49 120 53 6 6 -513 361 -696 475 -88 54
-171 120 -159 124 6 2 30 -11 54 -28 68 -49 271 -184 571 -379 254 -165 327
-203 327 -172 0 13 -126 115 -231 187 -47 32 -111 78 -142 102 -31 23 -84 59
-118 78 -203 120 -409 267 -394 282 2 2 64 -36 137 -85 180 -121 624 -422 722
-489 77 -53 107 -63 136 -44 13 9 13 11 0 19 -33 21 -124 87 -139 101 -56 52
-135 110 -276 204 -251 166 -503 339 -520 357 -33 34 89 -36 219 -126 83 -58
223 -155 311 -215 88 -60 210 -145 270 -189 129 -93 200 -131 246 -131 l34 0
-25 24 c-14 13 -43 37 -66 53 -22 15 -110 78 -195 138 -236 168 -237 169 -344
240 -55 37 -112 75 -126 85 -14 10 -66 46 -116 79 -89 60 -125 91 -106 91 6 0
30 -14 54 -30 24 -17 116 -79 204 -137 88 -59 192 -130 230 -158 39 -29 113
-80 165 -115 52 -35 151 -105 220 -155 107 -79 132 -93 173 -98 95 -10 91 -6
-258 238 -33 23 -94 66 -135 95 -41 29 -126 86 -188 126 -61 41 -127 87 -145
103 -17 15 -54 41 -82 57 -105 60 -179 123 -163 139 2 2 37 -19 77 -48 40 -29
108 -77 151 -107 43 -30 113 -80 155 -110 43 -30 184 -129 314 -219 130 -90
238 -167 241 -170 3 -4 34 -25 69 -49 54 -35 72 -42 114 -42 44 0 48 2 36 16
-19 24 -117 97 -211 160 -46 30 -88 58 -95 64 -6 5 -141 96 -300 203 -159 106
-307 206 -328 222 -54 39 -124 106 -137 130 -11 19 -11 19 18 1 16 -11 67 -49
114 -86 47 -36 147 -109 223 -161 76 -52 202 -138 280 -192 434 -299 506 -346
544 -353 63 -12 71 -1 23 31 -25 16 -81 57 -126 91 -44 34 -244 171 -445 304
-418 278 -587 406 -566 427 9 9 40 -8 122 -68 39 -28 81 -58 95 -67 14 -9 108
-76 210 -147 102 -72 226 -157 275 -189 50 -31 142 -93 205 -137 63 -44 149
-102 190 -129 41 -27 88 -59 103 -71 23 -17 31 -19 37 -9 4 7 6 19 3 27 -6 16
-160 127 -407 293 -94 64 -196 134 -226 156 -30 23 -111 79 -180 125 -300 203
-356 244 -370 269 -10 18 -9 19 17 9 16 -6 64 -36 108 -68 72 -52 189 -133
460 -321 111 -77 370 -251 511 -344 85 -56 107 -67 115 -55 5 8 9 16 9 19 0
10 -132 102 -437 307 -169 113 -339 230 -378 258 -38 28 -137 96 -219 151
-146 97 -174 133 -59 76 32 -16 121 -73 198 -127 140 -99 679 -462 831 -561
l81 -52 10 33 c11 34 11 34 -56 78 -36 25 -136 93 -221 152 -85 58 -265 180
-400 271 -355 239 -373 252 -395 269 -20 15 -20 15 0 8 19 -7 334 -216 852
-566 127 -86 234 -157 236 -157 3 0 7 9 10 20 3 11 0 20 -6 20 -6 0 -2 6 9 14
19 15 19 15 -1 30 -73 57 -835 566 -846 566 -5 0 -33 20 -63 45 -31 25 -59 45
-64 45 -5 0 -19 11 -32 25 -36 39 -10 30 66 -22 38 -26 179 -120 314 -210 135
-89 265 -177 290 -195 25 -18 116 -79 203 -136 162 -107 177 -112 190 -63 3
13 -8 25 -42 46 -76 47 -246 158 -251 165 -3 4 -53 38 -111 76 -529 343 -645
422 -635 431 7 7 36 -11 333 -206 138 -91 273 -180 300 -197 26 -17 132 -87
235 -156 132 -89 190 -123 196 -115 5 7 15 22 21 34 10 20 8 24 -21 38 -70 32
-358 219 -890 580 -54 36 -98 73 -98 81 0 11 359 -222 577 -375 44 -30 254
-165 293 -188 19 -11 65 -36 101 -56 65 -36 67 -36 84 -17 16 18 15 19 -17 36
-43 22 -277 175 -306 200 -12 10 -42 30 -66 44 -107 62 -320 198 -411 262 -55
38 -131 90 -170 115 -38 25 -90 63 -115 83 -25 21 -99 72 -165 114 -66 42
-160 106 -210 141 -49 36 -115 82 -145 102 -30 20 -93 61 -138 92 -123 82
-137 91 -142 91 -3 0 -48 -33 -100 -73z m265 -385 c-33 -31 -117 -100 -185
-152 -68 -52 -131 -101 -140 -110 -9 -9 -73 -61 -144 -115 -70 -55 -157 -124
-194 -153 -37 -29 -101 -79 -142 -110 -41 -31 -82 -62 -90 -69 -91 -73 -195
-151 -199 -148 -2 3 9 15 25 27 16 13 49 41 74 63 25 23 83 72 130 110 47 38
92 77 101 87 9 10 20 18 23 18 4 0 13 6 20 13 8 7 33 29 57 48 23 18 53 44 66
57 13 12 28 22 33 22 15 0 89 67 82 75 -4 4 0 6 8 3 16 -5 97 53 169 122 9 9
37 31 63 50 26 19 50 43 53 53 4 9 10 15 15 12 9 -6 115 70 140 99 7 9 17 16
22 16 5 0 21 9 35 20 49 38 37 19 -22 -38z m101 -67 c-3 -10 1 -15 14 -15 10
0 22 -4 25 -10 3 -5 -3 -10 -14 -10 -20 0 -34 14 -37 38 -1 6 2 12 8 12 6 0 8
-7 4 -15z m-1039 -537 c-3 -7 -5 -2 -5 12 0 14 2 19 5 13 2 -7 2 -19 0 -25z
m-212 -318 c-3 -5 -12 -10 -18 -10 -7 0 -6 4 3 10 19 12 23 12 15 0z m-35 -20
c0 -5 -5 -10 -11 -10 -5 0 -7 5 -4 10 3 6 8 10 11 10 2 0 4 -4 4 -10z m928
-38 c-3 -30 7 -39 65 -55 97 -28 165 -80 204 -155 37 -72 44 -127 15 -118 -10
3 -57 -14 -112 -41 -90 -45 -100 -48 -175 -48 -44 1 -122 6 -174 12 -62 8
-100 9 -112 3 -35 -20 -51 53 -28 134 8 31 8 41 -3 47 -10 6 -8 9 7 9 13 0 16
3 8 8 -10 6 -8 12 5 23 9 9 24 26 32 37 8 12 20 22 28 22 7 0 10 5 7 10 -3 6
-1 10 4 10 6 0 11 5 11 11 0 6 -7 9 -15 5 -22 -8 -18 2 6 15 15 8 19 8 15 0
-4 -6 0 -11 9 -11 10 0 13 5 9 12 -5 8 -2 9 9 5 10 -3 17 -2 17 2 0 5 8 8 18
6 9 -1 11 0 5 2 -7 3 -13 9 -13 15 0 5 7 8 15 4 8 -3 15 0 15 5 0 6 -9 9 -20
6 -11 -3 -20 -1 -20 4 0 10 21 12 44 3 9 -3 13 -11 9 -17 -3 -6 -1 -7 6 -3 6
4 9 12 6 17 -4 5 3 9 14 9 15 0 19 -5 15 -17 -5 -15 -4 -15 4 -3 8 10 8 18 1
27 -8 9 -5 11 10 10 15 -1 19 -6 16 -18 -3 -10 -1 -20 4 -24 7 -3 8 0 5 9 -3
9 -1 16 5 16 6 0 8 7 5 15 -5 11 -2 13 10 9 8 -3 15 -9 14 -12z m-261 -28 c-3
-3 -12 -4 -19 -1 -8 3 -5 6 6 6 11 1 17 -2 13 -5z m-442 -214 c3 -5 -1 -10 -9
-10 -8 0 -18 5 -21 10 -3 6 1 10 9 10 8 0 18 -4 21 -10z m980 -238 c-8 -38
-84 -110 -150 -142 -65 -32 -190 -35 -245 -5 l-35 18 75 18 c41 10 94 23 118
29 49 12 217 94 227 110 12 19 17 3 10 -28z"/>
<path d="M5250 8630 c0 -5 5 -10 10 -10 6 0 10 5 10 10 0 6 -4 10 -10 10 -5 0
-10 -4 -10 -10z"/>
<path d="M4642 8604 c10 -10 20 -16 22 -13 3 3 -5 11 -17 18 -21 13 -21 12 -5
-5z"/>
<path d="M5558 8543 c7 -3 16 -2 19 1 4 3 -2 6 -13 5 -11 0 -14 -3 -6 -6z"/>
<path d="M5600 8530 c0 -5 5 -10 10 -10 6 0 10 5 10 10 0 6 -4 10 -10 10 -5 0
-10 -4 -10 -10z"/>
<path d="M4260 8519 c0 -5 5 -7 10 -4 6 3 10 8 10 11 0 2 -4 4 -10 4 -5 0 -10
-5 -10 -11z"/>
<path d="M4060 8429 c0 -5 5 -7 10 -4 6 3 10 8 10 11 0 2 -4 4 -10 4 -5 0 -10
-5 -10 -11z"/>
<path d="M5805 8430 c-3 -5 -1 -10 4 -10 6 0 11 5 11 10 0 6 -2 10 -4 10 -3 0
-8 -4 -11 -10z"/>
<path d="M4870 8424 c-353 -43 -544 -128 -815 -363 -196 -170 -319 -404 -345
-656 -7 -60 -15 -126 -19 -145 l-7 -35 -364 -6 c-416 -7 -430 -9 -658 -99
-145 -58 -263 -125 -408 -233 -157 -117 -279 -265 -364 -441 -67 -138 -90
-238 -90 -399 0 -154 17 -247 70 -375 49 -119 85 -178 190 -309 164 -207 405
-354 730 -448 183 -53 243 -58 530 -51 140 4 272 10 292 13 43 6 39 12 83
-130 47 -152 133 -300 242 -417 73 -79 241 -213 341 -272 132 -78 337 -143
534 -169 101 -14 292 -6 408 16 180 35 410 126 537 212 80 55 206 169 272 248
132 157 191 261 230 407 l27 98 424 3 c468 4 472 4 680 73 454 150 755 462
862 892 27 108 29 279 4 397 -29 136 -112 303 -222 445 -154 201 -424 385
-685 468 -224 72 -358 84 -785 68 -277 -9 -248 -20 -259 94 -40 384 -228 673
-595 912 -186 121 -436 194 -695 202 -60 3 -126 2 -145 0z m100 -134 c90 -25
190 -125 190 -191 0 -23 -10 -31 -82 -66 -46 -23 -99 -47 -118 -54 -52 -21
-286 -17 -307 5 -12 12 -14 95 -3 136 14 54 106 150 160 167 45 14 115 16 160
3z m398 -52 c7 -7 12 -24 12 -39 0 -35 -31 -47 -65 -25 -40 27 -27 76 20 76
12 0 26 -5 33 -12z m-854 -44 c21 -21 20 -40 -4 -64 -31 -31 -57 -25 -79 18
-26 49 42 87 83 46z m1105 -94 c50 -25 91 -74 91 -108 0 -26 -5 -29 -82 -50
-46 -12 -112 -27 -148 -33 -36 -6 -69 -15 -74 -19 -5 -5 4 -20 20 -35 28 -26
31 -27 119 -20 49 4 101 12 114 17 29 11 39 3 25 -20 -16 -25 -58 -43 -117
-48 -106 -11 -186 64 -187 172 0 124 127 201 239 144z m-1271 -117 c22 -19 33
-38 34 -60 2 -35 -19 -83 -37 -83 -7 0 -19 -8 -26 -17 -13 -16 -12 -17 3 -5
28 23 45 9 20 -16 -25 -25 -74 -29 -110 -8 -37 20 -62 66 -62 114 0 93 105
137 178 75z m701 -160 c-31 -36 -104 -51 -178 -37 -43 9 -39 24 7 24 20 1 66
7 102 14 36 8 69 14 74 15 5 0 2 -6 -5 -16z m893 -30 c25 -22 23 -65 -3 -81
-25 -16 -78 -7 -86 14 -9 24 6 60 29 72 32 15 39 14 60 -5z m-1312 -13 c28
-28 25 -64 -7 -89 -48 -39 -72 -38 -110 2 -18 20 -33 40 -33 45 0 11 94 58
123 61 4 1 16 -8 27 -19z m596 -38 c6 -4 16 -17 23 -29 10 -19 8 -26 -9 -43
l-21 -21 29 -67 c16 -37 51 -116 77 -177 26 -60 67 -155 91 -209 45 -99 56
-148 14 -59 -12 26 -51 107 -85 178 -35 72 -82 172 -106 223 -37 80 -49 96
-79 110 -44 21 -53 62 -18 86 24 17 65 21 84 8z m-998 -131 c79 -53 158 -105
175 -115 88 -53 246 -163 327 -226 52 -41 94 -70 207 -145 44 -30 84 -59 88
-65 13 -20 -192 115 -432 286 -172 122 -192 136 -273 185 -133 80 -280 180
-280 190 0 14 25 -1 188 -110z m249 63 c6 -16 -19 -44 -39 -44 -15 0 -20 30
-8 45 16 20 39 19 47 -1z m1440 -41 c-3 -10 -5 -2 -5 17 0 19 2 27 5 18 2 -10
2 -26 0 -35z m-173 -238 c14 -244 20 -356 30 -600 7 -153 -11 -42 -29 185 -20
251 -54 619 -61 652 -4 20 -1 27 13 30 10 3 21 2 24 -1 4 -3 14 -123 23 -266z
m-1269 172 c55 -38 111 -79 125 -92 14 -13 57 -47 96 -76 74 -56 420 -330 458
-362 76 -66 -155 96 -272 192 -134 107 -341 263 -444 332 -48 33 -92 68 -98
80 -11 19 -10 20 12 8 13 -7 68 -43 123 -82z m1130 3 c27 -127 95 -611 93
-664 -1 -39 -2 -43 -5 -16 -2 19 -17 112 -34 205 -55 309 -89 516 -89 543 0
46 18 11 35 -68z m-205 66 c0 -3 -4 -8 -10 -11 -5 -3 -10 -1 -10 4 0 6 5 11
10 11 6 0 10 -2 10 -4z m-1357 -36 c34 -27 44 -73 22 -106 -20 -30 -76 -56
-102 -47 -68 24 -84 95 -32 144 37 34 76 37 112 9z m706 -102 c36 -34 109
-103 161 -153 52 -50 148 -137 213 -194 65 -57 115 -106 112 -109 -3 -3 -13 2
-22 10 -227 197 -530 477 -537 493 -10 26 6 16 73 -47z m1224 -3 c-1 -15 -11
-37 -21 -49 -17 -19 -20 -44 -27 -221 -4 -110 -10 -222 -14 -250 -4 -27 -6 64
-3 203 l5 254 -29 23 -28 23 28 41 29 41 31 -18 c24 -15 31 -25 29 -47z m-856
29 c-9 -9 -28 6 -21 18 4 6 10 6 17 -1 6 -6 8 -13 4 -17z m-36 -121 c48 -69
26 -50 -57 50 -67 80 -70 86 -25 42 29 -27 66 -69 82 -92z m387 95 c-2 -18 -7
-33 -13 -33 -5 0 -11 15 -13 33 -3 24 1 32 13 32 12 0 16 -8 13 -32z m-529
-54 c34 -37 61 -72 61 -77 0 -13 -70 53 -112 106 -50 62 -14 42 51 -29z m-572
-37 c19 -14 6 -27 -26 -27 -31 0 -57 23 -46 40 7 11 52 3 72 -13z m-140 -29
c35 -34 43 -65 18 -74 -22 -9 -44 13 -37 38 3 14 1 19 -6 14 -7 -4 -12 -14
-12 -21 0 -17 -26 -10 -52 13 -21 18 -24 48 -5 55 32 13 63 5 94 -25z m1302
-15 c26 -100 50 -202 55 -238 l5 -40 -14 40 c-8 22 -21 66 -30 98 -9 32 -30
73 -46 92 -33 37 -35 47 -13 69 23 24 32 20 43 -21z m-895 -125 c53 -38 40
-35 -32 6 -78 47 -128 90 -57 50 28 -15 68 -40 89 -56z m482 24 c-4 -3 -14 2
-24 12 -16 18 -16 18 6 6 13 -6 21 -14 18 -18z m29 -32 c10 -11 16 -20 13 -20
-3 0 -13 9 -23 20 -10 11 -16 20 -13 20 3 0 13 -9 23 -20z m960 -34 c18 -27
10 -56 -15 -56 -25 0 -31 12 -24 49 8 37 18 39 39 7z m-868 -38 c22 -29 57
-78 78 -108 l38 -55 -54 59 c-76 84 -127 156 -111 156 5 0 27 -24 49 -52z
m768 -69 c-8 -57 -20 -142 -27 -189 -7 -47 -14 -78 -16 -69 -5 28 46 375 54
366 3 -2 -2 -51 -11 -108z m-1705 52 c43 -8 42 -9 -30 -10 -161 -2 -510 12
-510 22 0 12 472 2 540 -12z m223 -28 c-7 -2 -21 -2 -30 0 -10 3 -4 5 12 5 17
0 24 -2 18 -5z m-1405 -15 c33 -33 -7 -102 -56 -96 -34 4 -51 45 -34 83 9 19
19 25 45 25 18 0 38 -5 45 -12z m4147 -23 c123 -31 196 -65 354 -165 244 -154
372 -289 477 -501 38 -77 75 -211 63 -230 -4 -7 -5 -17 -2 -21 2 -5 -2 -20
-11 -33 -12 -18 -28 -25 -72 -31 -41 -5 -62 -13 -77 -30 -11 -13 -24 -21 -29
-18 -4 3 -8 -4 -8 -15 0 -14 -6 -21 -19 -21 -13 0 -21 -8 -23 -22 -2 -15 -9
-22 -21 -22 -9 1 -17 -2 -17 -7 0 -5 -9 -9 -19 -9 -11 0 -21 -6 -24 -12 -3
-10 -9 -9 -23 2 -30 23 -62 40 -79 40 -8 0 -15 4 -15 9 0 4 -10 8 -22 7 -42
-2 -45 -44 -8 -127 17 -41 36 -82 41 -91 5 -10 9 -32 9 -50 0 -33 0 -33 45
-30 58 5 79 -11 70 -52 -3 -17 -9 -53 -13 -81 -7 -48 -9 -50 -42 -55 -33 -5
-38 -11 -92 -115 -31 -60 -54 -114 -51 -119 13 -20 3 -70 -17 -91 -32 -34 -57
-37 -87 -11 l-26 22 -126 -52 c-69 -29 -137 -55 -151 -58 l-25 -6 25 11 c14 7
75 34 137 62 62 27 117 55 124 63 14 18 5 21 -183 69 -106 27 -148 42 -148 53
0 18 6 17 189 -42 79 -26 146 -45 148 -42 6 6 -235 239 -263 254 -21 11 -28
10 -53 -7 -34 -25 -57 -51 -44 -51 20 0 4 -128 -21 -168 -25 -39 -56 -70 -56
-56 0 5 -4 3 -9 -5 -5 -7 -16 -11 -27 -7 -22 7 -89 67 -95 84 -7 21 -359 -35
-359 -57 0 -24 42 -54 127 -91 54 -23 122 -53 150 -66 29 -13 73 -29 98 -35
61 -15 75 -3 75 67 0 71 17 69 25 -2 4 -30 14 -62 23 -71 33 -32 -30 -71 -66
-40 -16 13 -166 76 -308 128 -32 12 -73 32 -91 45 -37 28 -46 29 -63 9 -18
-21 -66 -19 -90 5 -24 24 -26 57 -5 87 8 12 11 23 6 25 -12 4 -105 167 -99
174 6 5 23 -19 75 -105 l33 -55 0 112 c0 91 -3 112 -14 112 -26 0 -29 21 -7
41 29 27 29 94 1 109 -40 21 -63 8 -86 -46 -28 -68 -68 -119 -96 -121 -47 -4
-96 17 -132 57 -20 22 -40 40 -45 40 -16 0 -21 -33 -16 -98 2 -33 0 -64 -5
-67 -5 -3 -7 -12 -4 -19 3 -7 -8 -27 -24 -44 -16 -17 -28 -33 -26 -35 2 -2
-12 -10 -31 -19 -19 -8 -35 -12 -35 -7 0 5 -18 9 -39 9 -22 0 -41 5 -44 13 -3
8 -10 6 -23 -8 -11 -11 -28 -21 -39 -23 -11 -1 -29 -7 -40 -12 -35 -15 -112
-30 -154 -30 -31 0 -41 -4 -41 -16 0 -13 -3 -14 -14 -5 -10 8 -21 8 -40 1 -19
-7 -33 -7 -46 0 -11 6 -24 9 -31 8 -6 -2 -13 4 -15 12 -16 65 -16 71 1 90 20
22 37 49 58 93 7 15 16 25 18 22 3 -3 5 5 4 18 -1 15 21 47 70 101 78 84 144
198 190 326 67 188 283 611 354 692 26 29 68 80 93 113 25 33 84 97 131 142
71 68 102 90 190 132 172 82 275 102 483 96 106 -4 166 -11 239 -30z m-2785
16 c106 -4 -62 -9 -535 -15 -379 -4 -710 -9 -734 -10 -47 -1 -69 19 -29 27 35
7 1123 5 1298 -2z m1597 -68 c-6 -72 -26 -177 -33 -171 -2 2 3 53 11 114 8 60
15 112 15 117 0 4 3 7 6 7 4 0 4 -30 1 -67z m-1394 50 c-7 -2 -21 -2 -30 0
-10 3 -4 5 12 5 17 0 24 -2 18 -5z m-73 -43 c25 -4 -99 -8 -276 -8 -375 -2
-657 -13 -579 -23 29 -4 10 -5 -45 -3 -52 2 -147 5 -210 6 -113 2 -112 2 55 9
94 5 222 12 285 17 134 10 704 12 770 2z m-1241 -26 c2 -2 -35 -4 -82 -4 -48
0 -87 4 -87 9 0 8 159 3 169 -5z m-420 -24 c53 -26 111 -96 111 -132 0 -24 -7
-31 -52 -51 -94 -41 -181 -60 -253 -55 -45 4 -65 2 -65 -6 -1 -6 -7 0 -15 14
-43 75 20 213 109 239 54 16 124 12 165 -9z m1718 14 c-3 -3 -12 -4 -19 -1 -8
3 -5 6 6 6 11 1 17 -2 13 -5z m-92 -14 c-27 -5 -91 -9 -140 -9 -85 -1 -334
-24 -600 -56 -66 -8 -194 -17 -285 -20 -91 -4 -181 -8 -200 -10 -42 -5 -82 4
-78 17 2 5 102 10 228 12 131 2 277 10 350 19 246 32 510 52 720 54 l55 0 -50
-7z m460 -39 c122 -25 275 -90 357 -152 152 -113 248 -231 306 -371 34 -84 43
-260 18 -358 -31 -118 -148 -311 -238 -388 -21 -19 -35 -39 -31 -45 3 -7 3 -9
-2 -5 -5 5 -22 -2 -39 -15 -17 -13 -63 -43 -103 -67 -39 -24 -70 -47 -67 -52
3 -4 -3 -5 -12 -1 -11 4 -15 3 -11 -4 5 -7 -1 -9 -15 -6 -19 4 -20 3 -8 -6 13
-9 12 -11 -5 -9 -37 3 -56 -2 -50 -12 4 -6 -1 -7 -11 -3 -11 4 -15 2 -11 -4 4
-6 -4 -8 -21 -6 -22 4 -24 2 -12 -7 13 -10 12 -11 -3 -6 -10 3 -39 1 -65 -5
-69 -16 -380 -18 -386 -3 -2 6 -28 17 -58 24 -64 15 -193 67 -230 92 -14 10
-29 18 -33 18 -3 0 -22 12 -42 27 -19 15 -41 28 -48 29 -19 3 -92 86 -152 174
-34 49 -68 117 -90 177 -31 85 -36 113 -41 213 -5 141 10 208 73 327 55 105
98 157 186 228 118 96 343 210 444 225 100 15 306 11 400 -9z m-762 -28 c-7
-2 -19 -2 -25 0 -7 3 -2 5 12 5 14 0 19 -2 13 -5z m-156 -23 c-65 -10 -153
-27 -195 -39 -68 -18 -247 -56 -382 -82 -25 -4 -95 -10 -157 -12 -70 -2 -117
-8 -127 -16 -22 -19 -56 -4 -56 24 0 30 8 32 125 34 142 2 314 19 427 42 53
10 106 19 117 19 12 0 29 5 39 10 26 16 178 38 257 38 69 0 68 -1 -48 -18z
m-1729 -108 c25 -32 7 -72 -32 -72 -25 0 -66 38 -66 62 0 37 71 44 98 10z
m1776 4 c-10 -8 -60 -30 -110 -49 -50 -19 -109 -44 -130 -55 -22 -11 -87 -37
-144 -57 -58 -21 -121 -43 -140 -50 -19 -7 -53 -15 -75 -18 -28 -5 -16 2 40
22 213 75 256 91 330 124 44 19 109 45 145 58 36 12 69 26 75 31 5 4 14 8 19
8 6 0 1 -6 -10 -14z m1593 -133 c-2 -16 -4 -3 -4 27 0 30 2 43 4 28 2 -16 2
-40 0 -55z m-40 45 c-3 -8 -6 -5 -6 6 -1 11 2 17 5 13 3 -3 4 -12 1 -19z
m-1842 3 c-12 -10 -152 -60 -285 -100 -52 -16 -160 -52 -239 -80 -79 -28 -149
-50 -155 -48 -25 9 108 59 364 137 58 17 150 47 205 66 104 35 126 40 110 25z
m184 -15 c-2 -2 -60 -28 -129 -56 -124 -52 -250 -94 -258 -85 -2 2 9 7 24 11
16 4 70 25 119 47 135 59 266 104 244 83z m1 -33 c-23 -16 -302 -168 -393
-215 -21 -10 -91 -28 -155 -38 -168 -28 -310 -67 -447 -124 -69 -28 -145 -47
-145 -36 0 8 31 21 95 41 22 6 78 26 125 44 47 18 114 38 150 45 36 6 86 18
111 26 25 8 79 18 120 23 50 6 93 18 134 39 425 218 466 238 405 195z m-1060
-3 c0 -18 -83 -50 -130 -50 -25 0 -64 9 -87 20 -47 21 -59 36 -16 19 30 -11
161 -3 184 12 19 12 49 11 49 -1z m-491 -28 c62 -46 65 -100 7 -158 -46 -46
-75 -51 -132 -24 -49 24 -84 70 -84 110 1 80 136 127 209 72z m659 -34 c15
-15 16 -45 2 -53 -26 -16 -80 30 -65 55 9 14 49 12 63 -2z m776 -49 c-54 -44
-223 -148 -333 -203 -48 -25 -88 -37 -128 -40 -32 -3 -70 -9 -85 -15 -15 -6
-30 -7 -32 -2 -7 11 68 33 129 37 35 3 65 14 105 39 30 20 98 58 150 85 52 27
124 69 160 94 81 56 97 59 34 5z m-400 -16 c-11 -2 -113 -36 -225 -74 -359
-124 -630 -209 -666 -209 -46 0 -13 18 72 39 72 18 334 103 645 210 63 21 133
39 155 39 22 -1 31 -3 19 -5z m86 -34 c-98 -34 -161 -51 -167 -46 -2 2 18 10
44 17 26 8 73 24 103 36 30 13 66 23 80 23 14 0 -13 -14 -60 -30z m-1461 -8
c17 -11 7 -41 -14 -41 -9 0 -15 9 -15 25 0 27 6 30 29 16z m599 -27 c30 -21
28 -47 -7 -86 -27 -30 -31 -32 -67 -22 -36 8 -39 12 -38 42 4 71 58 104 112
66z m1146 -7 c-5 -14 -53 -46 -254 -169 -146 -90 -189 -119 -286 -195 -337
-265 -815 -584 -856 -571 -5 2 46 41 114 86 150 100 197 133 268 187 30 23 73
52 96 63 23 12 86 56 142 99 96 74 255 186 402 283 38 25 95 62 127 83 47 31
242 145 250 147 1 0 0 -6 -3 -13z m-344 -72 c0 -12 -168 -55 -214 -55 -27 0
14 15 96 35 102 25 118 28 118 20z m-980 -14 c0 -19 -260 -28 -335 -11 -29 7
-11 8 65 5 83 -4 199 2 263 14 4 0 7 -3 7 -8z m-516 -21 c24 -9 26 -14 26 -69
0 -85 -42 -119 -90 -71 -25 25 -25 50 0 82 10 14 17 28 13 31 -5 6 14 37 23
37 1 0 14 -4 28 -10z m1755 -8 c-13 -10 -60 -41 -104 -68 -44 -27 -115 -75
-158 -108 -43 -32 -80 -56 -83 -53 -7 7 175 142 270 199 79 48 120 64 75 30z
m-1284 -31 c-14 -13 -267 -26 -301 -15 -21 7 11 10 116 14 80 3 156 7 170 8
15 1 20 -2 15 -7z m775 -21 c0 -5 -8 -10 -18 -10 -10 0 -61 -21 -113 -46 -52
-26 -148 -63 -214 -84 -66 -21 -180 -59 -253 -85 -73 -25 -141 -45 -150 -43
-9 2 8 10 38 17 30 8 84 28 120 46 36 18 126 51 200 75 74 23 158 54 185 68
54 27 172 71 193 72 6 0 12 -4 12 -10z m220 -13 c-99 -52 -247 -148 -325 -212
-82 -66 -490 -322 -619 -387 -131 -66 -50 -3 149 117 98 59 345 220 440 286
219 153 314 209 354 209 l26 0 -25 -13z m-155 -21 c-38 -12 -189 -102 -285
-170 -25 -18 -76 -49 -115 -71 -38 -21 -126 -72 -195 -113 -124 -74 -219 -121
-175 -87 19 15 74 50 275 171 52 32 136 85 185 119 127 88 272 163 315 163
l35 1 -40 -13z m435 9 c0 -3 -26 -24 -58 -48 -32 -23 -74 -58 -93 -77 -19 -19
-124 -102 -234 -185 -190 -143 -243 -181 -421 -304 -44 -30 -112 -79 -153
-109 -40 -30 -127 -91 -193 -135 -66 -45 -128 -88 -138 -95 -24 -17 -36 1 -15
22 9 9 82 61 163 116 81 56 206 143 277 195 72 52 175 125 230 162 184 123
419 295 470 342 80 74 165 134 165 116z m-1275 -15 c-7 -12 -264 -12 -310 0
-18 4 41 8 143 9 113 1 171 -2 167 -9z m331 -24 c-50 -31 -171 -70 -192 -62
-26 10 2 35 39 35 18 -1 64 11 102 24 88 32 100 33 51 3z m-458 -13 c-15 -2
-42 -2 -60 0 -18 2 -6 4 27 4 33 0 48 -2 33 -4z m102 -38 c-11 -13 -36 -15
-143 -13 -93 2 -132 7 -135 16 -3 9 30 12 143 12 131 0 146 -2 135 -15z m525
-44 c-12 -10 -325 -171 -334 -171 -17 0 71 63 123 87 33 16 89 42 125 60 64
30 106 43 86 24z m-515 -10 c0 -13 -65 -21 -177 -21 -93 0 -123 7 -106 24 10
9 283 7 283 -3z m1210 -16 c0 -6 -305 -253 -425 -343 -55 -42 -125 -96 -155
-121 -66 -56 -65 -55 -115 -88 -22 -14 -55 -37 -72 -51 -23 -16 -33 -20 -33
-11 0 14 73 73 271 222 53 40 131 100 175 135 74 59 346 262 352 262 1 0 2 -2
2 -5z m-1222 -27 c-3 -10 -43 -14 -144 -16 -92 -2 -135 1 -129 7 6 6 60 12
120 14 61 1 121 4 133 5 15 1 22 -3 20 -10z m-422 -41 c3 -8 6 -33 7 -57 2
-39 0 -44 -27 -53 -24 -8 -32 -7 -43 9 -14 19 -17 71 -7 98 8 20 62 22 70 3z
m417 -4 c4 -3 3 -11 -2 -17 -13 -16 -263 -5 -269 12 -3 9 28 12 131 12 73 0
137 -3 140 -7z m-47 -67 c-40 -33 -175 -51 -191 -26 -4 6 23 10 74 10 47 0 81
4 81 10 0 6 -17 11 -37 12 -28 1 -23 3 22 8 33 4 65 7 70 8 6 1 -3 -9 -19 -22z
m214 14 c-8 -5 -19 -10 -25 -10 -5 0 -3 5 5 10 8 5 20 10 25 10 6 0 3 -5 -5
-10z m1064 -129 c-26 -70 -52 -88 -40 -27 7 32 54 111 62 103 3 -2 -7 -36 -22
-76z m154 -526 c5 -187 5 -356 0 -375 -4 -19 -8 -79 -8 -132 0 -53 -4 -99 -9
-102 -7 -5 -24 241 -20 299 0 11 3 216 7 455 6 497 15 453 30 -145z m-1780
499 c4 -43 -40 -96 -77 -92 -24 3 -26 7 -29 53 -4 59 14 78 68 73 31 -3 35 -6
38 -34z m1510 -47 c32 -38 21 -97 -18 -97 -9 0 -31 -13 -48 -30 -39 -37 -74
-39 -101 -4 -17 21 -18 29 -8 45 6 10 17 19 24 19 7 0 13 9 13 20 0 33 39 60
86 60 23 0 46 -6 52 -13z m-1170 -113 c33 -22 31 -96 -4 -131 -22 -22 -32 -25
-67 -20 -58 8 -79 36 -75 101 2 36 7 50 16 48 7 -1 23 5 35 13 24 17 57 13 95
-11z m1492 -149 c6 -77 15 -171 20 -210 6 -38 14 -142 20 -230 14 -227 29
-340 50 -387 19 -43 17 -65 -8 -85 -36 -29 -92 -2 -92 44 0 13 11 34 25 47
l25 23 -10 124 c-17 202 -50 712 -50 769 0 89 8 52 20 -95z m-597 65 c38 -30
52 -80 33 -123 -8 -20 -24 -40 -35 -47 -27 -14 -84 -4 -116 22 -22 17 -25 27
-25 83 0 74 10 84 76 85 27 0 50 -7 67 -20z m680 -310 c9 -30 26 -109 37 -175
12 -66 28 -135 36 -154 13 -31 19 -81 10 -81 -2 0 -11 -2 -19 -6 -11 -4 -15
11 -20 78 -3 46 -17 139 -32 208 -34 161 -55 309 -54 385 1 42 5 21 14 -70 7
-71 20 -155 28 -185z m-1864 258 c16 -43 -5 -68 -56 -68 -39 0 -52 29 -29 65
22 34 73 35 85 3z m1549 6 c29 -20 29 -60 1 -67 -41 -11 -68 20 -54 63 8 24
23 25 53 4z m82 -126 c-6 -49 -9 -109 -6 -132 7 -46 -10 -74 -39 -62 -21 8
-19 52 3 68 15 11 20 32 25 116 3 56 9 108 13 114 15 24 16 -15 4 -104z
m-1436 36 c23 -9 20 -39 -8 -70 -23 -27 -24 -28 -50 -11 -25 17 -36 63 -19 80
8 9 56 9 77 1z m1755 -254 l0 -25 -10 25 c-13 31 -59 225 -58 242 1 23 68
-216 68 -242z m-1173 196 c35 -8 64 -35 88 -80 15 -29 14 -31 -16 -58 -35 -31
-76 -45 -160 -54 -51 -6 -58 -4 -82 19 -39 39 -31 110 19 167 14 16 93 19 151
6z m645 -17 c16 -11 29 -27 29 -36 0 -13 -10 -14 -62 -8 -35 4 -65 9 -67 11
-2 2 1 15 7 29 14 31 52 33 93 4z m609 -266 c12 -65 35 -170 51 -234 16 -65
29 -127 29 -138 0 -20 -25 -40 -36 -29 -2 3 -11 51 -20 107 -8 56 -33 157 -54
224 -22 67 -40 129 -39 137 0 8 11 -14 23 -50 12 -36 25 -72 29 -80 15 -33 -5
93 -33 205 -17 66 -30 124 -29 130 1 31 60 -172 79 -272z m-1710 167 c0 -42
-26 -80 -54 -80 -20 0 -46 39 -46 68 0 16 9 27 33 37 56 24 67 20 67 -25z
m1881 23 c13 -16 12 -17 -3 -4 -10 7 -18 15 -18 17 0 8 8 3 21 -13z m183 -263
c39 -41 149 -155 244 -254 98 -101 172 -187 172 -197 0 -29 -15 -23 -43 19
-14 20 -70 82 -124 137 -54 55 -129 134 -168 176 -38 42 -127 137 -197 212
-70 75 -132 147 -138 159 -11 21 79 -68 254 -252z m-8 195 c188 -146 542 -438
624 -514 66 -62 23 -40 -60 30 -30 26 -94 77 -141 115 -114 91 -444 364 -489
404 -56 51 -18 31 66 -35z m-1163 46 c53 -20 89 -123 47 -136 -11 -3 -20 -10
-20 -15 0 -4 -30 -11 -66 -15 -58 -6 -65 -9 -52 -21 21 -21 96 -7 125 22 23
23 28 20 17 -11 -9 -21 -56 -45 -92 -45 -50 0 -111 57 -112 103 -1 86 78 146
153 118z m1151 -116 c50 -44 137 -124 195 -179 58 -54 138 -124 176 -154 39
-31 157 -131 263 -222 275 -234 295 -250 318 -250 56 0 74 -62 19 -68 -22 -3
-35 3 -55 26 -14 16 -63 59 -110 96 -47 37 -105 86 -130 110 -25 24 -106 95
-180 159 -331 285 -630 565 -630 589 0 6 10 3 23 -8 12 -11 62 -56 111 -99z
m247 -18 c68 -51 225 -173 348 -272 238 -191 419 -327 566 -425 157 -105 147
-93 114 -128 l-20 -23 -34 28 c-124 104 -241 197 -305 245 -99 74 -279 219
-424 343 -64 55 -141 118 -170 140 -97 73 -276 218 -276 222 0 10 85 -45 201
-130z m327 -33 c103 -53 192 -101 199 -106 24 -19 254 -141 457 -243 204 -102
226 -115 226 -144 0 -20 -45 -6 -104 34 -28 18 -85 51 -126 72 -41 21 -145 77
-230 124 -85 47 -200 110 -255 139 -111 59 -365 209 -365 216 0 9 18 1 198
-92z m-85 -43 c78 -49 187 -117 242 -153 55 -35 143 -87 195 -115 52 -27 147
-83 210 -123 63 -40 126 -78 140 -85 14 -7 43 -21 65 -31 48 -23 55 -46 20
-62 -53 -24 -77 -12 -89 44 -5 23 -17 35 -44 48 -42 20 -231 127 -342 195
-137 83 -592 381 -615 404 -21 20 82 -38 218 -122z m-577 -46 c30 -44 64 -92
76 -107 24 -30 22 -43 -2 -25 -14 11 -164 229 -184 267 -16 32 58 -59 110
-135z m-651 124 c23 -36 -39 -89 -78 -67 -25 14 -22 57 6 68 31 12 65 12 72
-1z m-803 -18 c-28 -24 -95 -36 -119 -22 -16 9 -14 11 12 11 17 1 48 7 70 15
56 18 63 17 37 -4z m1298 -127 c0 -13 -4 -24 -10 -24 -5 0 -10 14 -10 31 0 17
4 28 10 24 6 -3 10 -17 10 -31z m-1202 -2 c4 -23 -13 -52 -30 -52 -15 0 -26
44 -16 63 13 24 42 17 46 -11z m1332 -81 c16 -32 12 -51 -16 -61 -51 -20 -83
22 -47 62 21 24 50 23 63 -1z m1604 -117 c9 -8 16 -19 16 -24 0 -5 -7 -16 -16
-24 -34 -34 -92 -7 -80 37 5 22 12 27 35 27 16 0 37 -7 45 -16z m-1894 -24 c0
-5 -4 -10 -10 -10 -5 0 -10 5 -10 10 0 6 5 10 10 10 6 0 10 -4 10 -10z m512
-77 c15 -16 34 -48 44 -72 17 -42 17 -44 -1 -57 -15 -12 -25 -7 -76 38 -60 52
-67 65 -49 99 15 27 52 24 82 -8z m-228 -105 c37 -24 76 -76 76 -100 0 -43
-178 -107 -262 -94 -27 5 -38 3 -38 -6 -1 -8 -7 -5 -15 6 -29 38 -14 117 32
174 43 53 142 62 207 20z m630 -132 c31 -15 65 -41 77 -57 29 -41 47 -108 38
-139 -4 -14 -7 -19 -8 -12 -1 18 -44 15 -103 -9 -33 -13 -104 -26 -188 -35
-74 -8 -141 -16 -147 -19 -21 -7 -15 -35 15 -64 32 -33 127 -56 200 -49 54 5
196 69 211 96 15 25 13 7 -3 -31 -17 -43 -85 -101 -135 -115 -95 -29 -211 6
-283 85 -100 111 -56 292 87 360 67 32 159 28 239 -11z m-544 -86 c0 -18 -48
-60 -85 -76 -19 -7 -52 -14 -73 -14 -46 0 -146 48 -150 72 -3 14 2 13 40 -5
60 -30 139 -27 204 7 55 28 64 30 64 16z m928 -192 c20 -20 15 -66 -9 -78 -16
-9 -26 -8 -45 5 -41 27 -27 85 21 85 12 0 26 -5 33 -12z m-908 -48 c0 -23 -6
-33 -22 -39 -30 -11 -38 -6 -38 28 0 34 6 41 37 41 19 0 23 -5 23 -30z"/>
<path d="M7205 6790 c-8 -38 -69 -106 -101 -114 -14 -4 -37 0 -54 9 -41 21
-39 0 3 -25 52 -32 84 -26 134 25 38 40 43 51 43 90 0 51 -15 60 -25 15z"/>
<path d="M6976 6322 c-3 -5 9 -17 27 -27 l32 -18 -24 26 c-27 30 -28 30 -35
19z"/>
<path d="M7460 6095 c7 -9 15 -13 17 -11 7 7 -7 26 -19 26 -6 0 -6 -6 2 -15z"/>
<path d="M7485 6000 c-3 -6 1 -7 9 -4 18 7 21 14 7 14 -6 0 -13 -4 -16 -10z"/>
<path d="M7300 5958 c-14 -3 26 -6 88 -6 61 0 112 4 112 9 0 10 -161 8 -200
-3z"/>
<path d="M7475 5863 c-28 -42 -71 -101 -96 -131 -54 -64 -111 -166 -99 -178
10 -10 256 0 291 11 21 7 22 10 15 128 -4 91 -10 123 -21 129 -8 5 -12 15 -9
23 4 8 1 15 -5 15 -6 0 -11 10 -11 22 0 16 3 19 11 11 12 -12 39 -7 39 8 0 7
-51 39 -62 39 -2 0 -26 -34 -53 -77z"/>
<path d="M7620 5918 c0 -7 -1 -89 -2 -183 l-3 -170 46 -3 c61 -4 80 14 77 73
-1 26 -7 46 -15 49 -7 3 -13 14 -13 25 0 11 -13 53 -30 94 -16 42 -30 87 -30
101 0 16 -6 26 -15 26 -8 0 -15 -6 -15 -12z"/>
<path d="M6450 5874 c0 -14 4 -23 10 -19 6 3 10 15 10 26 0 10 -4 19 -10 19
-5 0 -10 -12 -10 -26z"/>
<path d="M6775 5626 c20 -51 20 -78 -1 -74 -10 2 -19 -3 -21 -9 -6 -18 23 -16
52 3 28 18 33 34 10 34 -8 0 -14 3 -14 8 3 16 -2 28 -22 52 l-20 25 16 -39z"/>
<path d="M7180 5630 c27 -21 40 -25 40 -12 0 4 -15 13 -32 20 l-33 12 25 -20z"/>
<path d="M7025 5621 c-3 -11 -17 -27 -31 -35 -19 -13 -22 -20 -15 -35 6 -10 7
-21 4 -25 -3 -3 1 -6 10 -6 8 0 18 -6 20 -12 11 -27 27 18 27 75 0 59 -4 71
-15 38z"/>
<path d="M7089 5629 c-1 -8 -3 -44 -5 -81 -2 -63 -1 -68 18 -68 26 0 91 64 86
86 -2 9 -18 24 -35 34 -18 10 -40 23 -48 30 -12 10 -15 10 -16 -1z"/>
<path d="M6832 5604 c10 -10 20 -16 22 -13 3 3 -5 11 -17 18 -21 13 -21 12 -5
-5z"/>
<path d="M7485 5539 c-44 -5 -103 -11 -132 -14 l-52 -6 88 -102 c131 -150 128
-148 174 -130 26 11 36 20 33 30 -3 8 -6 64 -6 124 0 81 -3 109 -12 108 -7 -1
-49 -5 -93 -10z"/>
<path d="M6504 5433 c6 -139 4 -133 40 -133 25 0 44 14 103 75 40 41 79 88 88
104 l15 30 -32 5 c-85 14 -179 26 -198 26 -21 0 -22 -3 -16 -107z"/>
<path d="M7610 5446 c0 -95 7 -156 19 -156 13 1 114 218 108 234 -5 12 -20 16
-67 16 l-60 0 0 -94z"/>
<path d="M6862 5519 c2 -7 10 -15 17 -17 8 -3 12 1 9 9 -2 7 -10 15 -17 17 -8
3 -12 -1 -9 -9z"/>
<path d="M6795 5481 c-45 -29 -208 -192 -200 -199 6 -6 131 12 260 37 86 17
90 18 99 49 7 26 4 38 -20 76 -23 36 -33 44 -50 40 -12 -3 -27 1 -35 9 -12 12
-20 10 -54 -12z"/>
<path d="M6920 5505 c0 -5 9 -23 20 -40 13 -20 20 -24 20 -14 0 18 -39 71 -40
54z"/>
<path d="M4651 6755 c-187 -49 -386 -196 -456 -338 -66 -136 -70 -282 -13
-425 70 -172 240 -327 433 -394 84 -30 294 -37 385 -14 257 66 464 278 516
528 36 171 -51 375 -215 506 -184 147 -419 197 -650 137z m314 -121 c125 -31
244 -125 309 -245 26 -46 29 -98 5 -84 -5 4 -9 0 -9 -7 0 -22 -133 -146 -181
-169 -24 -11 -60 -29 -79 -39 -19 -11 -50 -19 -68 -20 -18 0 -40 -4 -50 -10
-54 -30 -165 -70 -194 -70 -28 0 -66 -8 -123 -24 -5 -1 -25 -6 -42 -10 -40 -9
-41 -15 -5 -49 61 -59 185 -79 319 -52 154 31 282 105 426 246 l57 56 0 -32
c0 -48 -28 -135 -61 -187 -45 -70 -121 -135 -205 -175 -65 -31 -88 -37 -167
-41 -189 -9 -291 26 -420 148 -129 121 -175 246 -147 400 23 129 91 225 215
305 126 80 256 98 420 59z"/>
<path d="M4648 5413 c7 -3 16 -2 19 1 4 3 -2 6 -13 5 -11 0 -14 -3 -6 -6z"/>
<path d="M2372 6578 c-21 -21 -15 -76 11 -93 40 -26 85 -30 107 -10 24 22 27
77 4 99 -19 19 -104 22 -122 4z"/>
<path d="M2359 5634 c-15 -18 -1 -72 23 -88 29 -18 51 13 41 54 -10 38 -45 57
-64 34z m42 -31 c10 -28 -1 -50 -20 -39 -14 9 -14 66 -1 66 6 0 15 -12 21 -27z"/>
<path d="M2433 5610 c4 -14 7 -31 7 -38 0 -7 5 -10 10 -7 16 10 12 41 -7 56
-15 13 -16 11 -10 -11z"/>
<path d="M5860 8399 c0 -5 5 -7 10 -4 6 3 10 8 10 11 0 2 -4 4 -10 4 -5 0 -10
-5 -10 -11z"/>
<path d="M0 7666 l0 -44 88 -58 c48 -32 115 -79 149 -104 34 -25 102 -73 150
-108 48 -34 129 -92 178 -127 50 -36 109 -77 133 -92 24 -16 75 -51 115 -79
40 -29 185 -128 322 -220 138 -93 286 -196 330 -229 44 -33 97 -69 118 -80 20
-11 37 -23 37 -27 0 -19 18 -5 32 26 16 33 16 34 -15 64 -18 16 -129 95 -247
174 -411 276 -595 402 -680 463 -47 34 -137 97 -200 140 -146 100 -380 264
-400 280 -8 6 -36 24 -62 39 l-48 27 0 -45z"/>
<path d="M0 7543 l1 -48 82 -58 c45 -31 129 -91 187 -133 58 -41 146 -103 195
-136 50 -33 92 -64 95 -68 4 -6 56 -42 163 -113 10 -7 49 -34 87 -62 38 -27
93 -65 123 -83 30 -18 62 -40 73 -50 10 -10 78 -57 149 -105 254 -172 427
-294 435 -307 6 -9 12 1 21 30 l13 43 -39 31 c-50 41 -111 83 -215 153 -47 30
-149 98 -227 150 -78 51 -177 119 -220 150 -43 31 -118 84 -168 118 -49 34
-142 99 -205 145 -63 46 -162 116 -220 155 -58 39 -156 108 -217 153 l-113 82
0 -47z m523 -367 c4 -10 1 -13 -9 -9 -15 6 -19 23 -5 23 5 0 11 -7 14 -14z
m87 -46 c8 -5 11 -10 5 -10 -5 0 -17 5 -25 10 -8 5 -10 10 -5 10 6 0 17 -5 25
-10z m123 -97 c9 -3 17 -9 17 -14 0 -13 -6 -11 -42 12 -18 12 -24 18 -13 14
11 -4 28 -10 38 -12z m157 -113 c8 -5 11 -10 5 -10 -5 0 -17 5 -25 10 -8 5
-10 10 -5 10 6 0 17 -5 25 -10z m75 -44 c11 -8 15 -16 9 -16 -6 0 -17 7 -24
15 -7 8 -19 15 -26 15 -8 0 -14 5 -14 10 0 12 21 3 55 -24z m250 -174 c-3 -3
-11 0 -18 7 -9 10 -8 11 6 5 10 -3 15 -9 12 -12z m385 -280 c0 -8 -1 -13 -3
-11 -1 2 -9 12 -16 22 -12 15 -12 17 3 11 9 -3 16 -13 16 -22z"/>
<path d="M10100 7451 c-74 -61 -169 -136 -210 -168 -41 -32 -129 -103 -195
-158 -66 -55 -163 -133 -215 -174 -52 -41 -127 -102 -165 -135 -39 -34 -147
-123 -240 -198 -94 -75 -258 -208 -365 -295 l-195 -159 3 -99 c6 -195 -41
-390 -140 -575 -28 -52 -66 -125 -84 -162 -18 -36 -39 -70 -46 -74 -8 -5 -6 3
5 19 29 45 19 42 -14 -4 -18 -24 -84 -96 -148 -159 -64 -63 -106 -108 -95
-100 12 8 37 26 55 39 55 39 10 -2 -79 -73 -164 -130 -435 -251 -677 -302
-124 -26 -729 -47 -761 -26 -7 4 76 7 185 7 108 0 250 3 316 7 197 11 461 76
632 154 80 36 288 158 299 175 3 5 -17 -4 -44 -21 -27 -16 -52 -30 -56 -30 -3
0 -39 -20 -79 -44 -39 -24 -104 -57 -143 -74 -80 -35 -321 -107 -434 -129 -96
-19 -647 -30 -703 -15 -29 8 -39 8 -42 -1 -2 -7 -16 -52 -31 -102 -15 -49 -28
-99 -29 -111 -4 -78 -262 -374 -433 -496 -273 -197 -614 -312 -957 -325 -430
-16 -912 168 -1209 462 -100 98 -188 206 -182 222 3 8 2 11 -3 8 -5 -3 -12 -1
-16 5 -3 5 -1 10 5 10 7 0 -4 22 -24 48 -45 62 -105 186 -113 235 -3 20 -9 40
-14 43 -5 3 -36 2 -69 -2 -43 -5 -60 -10 -56 -19 7 -19 -129 -29 -267 -20
-188 12 -445 70 -601 136 -74 31 -312 165 -322 181 -3 4 19 -6 48 -23 71 -42
277 -145 308 -154 14 -4 44 -16 68 -26 23 -11 63 -24 90 -29 26 -5 90 -19 142
-31 52 -11 115 -22 140 -24 25 -2 34 -2 20 1 -14 3 -88 20 -165 39 -77 18
-155 36 -173 40 -100 21 -387 170 -520 270 -40 30 -72 52 -72 49 0 -3 24 -29
52 -56 43 -40 46 -46 18 -28 -44 29 -264 249 -256 257 3 3 14 0 23 -8 10 -7 3
3 -16 23 -19 21 -38 36 -42 35 -5 -1 -15 8 -22 20 -165 288 -230 468 -241 665
l-5 88 -83 56 c-46 32 -123 84 -173 117 -187 125 -407 284 -413 300 -2 4 -9 7
-16 7 -6 0 -28 21 -47 48 -24 31 -63 63 -117 95 -45 26 -99 62 -121 80 -22 18
-59 46 -83 63 -24 17 -97 71 -163 120 -142 106 -310 224 -319 224 -3 0 -6 -43
-6 -94 l0 -95 33 -25 c17 -13 46 -32 64 -43 18 -10 49 -30 70 -44 21 -14 70
-47 108 -72 39 -26 87 -62 108 -80 45 -40 76 -50 212 -72 54 -9 101 -18 105
-22 9 -10 -195 6 -231 19 -41 14 -96 49 -165 104 -29 23 -94 67 -147 97 -52
31 -109 68 -126 83 l-31 26 1 -91 c0 -50 4 -91 9 -91 11 0 303 -196 570 -383
52 -37 128 -88 168 -114 40 -27 148 -98 240 -160 92 -62 203 -136 247 -166 44
-29 98 -64 120 -77 43 -25 149 -112 177 -145 10 -11 17 -26 18 -34 0 -15 8
-20 -116 74 -44 32 -116 82 -161 110 -90 55 -493 326 -753 506 -148 103 -475
324 -508 343 -10 6 -12 -42 -12 -240 1 -238 2 -248 22 -266 12 -10 27 -18 35
-18 7 0 13 -5 13 -10 0 -6 23 -21 51 -34 28 -13 46 -27 40 -31 -12 -7 -21 -3
-71 35 -19 14 -47 31 -62 37 l-27 12 0 -147 -1 -148 62 -36 c35 -20 86 -48
113 -62 57 -30 55 -29 184 -115 85 -56 115 -81 97 -81 -3 0 -33 20 -68 44 -55
38 -301 188 -366 223 l-22 12 0 -127 c0 -140 -6 -126 74 -172 18 -9 104 -63
193 -119 153 -97 183 -112 183 -92 0 5 26 30 58 56 80 66 212 194 212 205 0 6
5 10 10 10 16 0 11 -27 -6 -34 -10 -4 -14 -14 -11 -26 4 -15 0 -20 -14 -20
-10 0 -19 -5 -19 -11 0 -5 6 -7 13 -3 8 5 8 2 -2 -9 -15 -18 -26 -23 -16 -7 3
6 1 10 -4 10 -10 0 -16 -21 -12 -43 0 -4 -2 -6 -6 -5 -20 4 -54 -21 -125 -91
l-78 -75 -32 18 c-18 10 -82 51 -143 91 -106 70 -262 165 -271 165 -2 0 -4
-29 -4 -65 l0 -64 48 -27 c54 -31 151 -91 234 -145 32 -20 63 -39 70 -42 7 -2
10 -8 6 -12 -8 -8 -28 3 -141 83 -42 28 -78 52 -81 52 -2 0 -32 16 -66 35 -34
19 -64 35 -66 35 -2 0 -4 -34 -4 -75 0 -81 -2 -79 80 -124 176 -99 171 -95
165 -120 -6 -21 -4 -23 9 -12 10 8 16 9 16 3 0 -6 -5 -14 -10 -17 -13 -8 -42
14 -34 26 3 5 -1 9 -9 9 -8 0 -20 6 -26 13 -12 15 -176 127 -185 127 -3 0 -6
-258 -6 -572 l0 -573 69 -43 c78 -49 124 -92 99 -92 -9 0 -48 25 -87 55 -39
30 -73 55 -76 55 -3 0 -5 -31 -5 -69 0 -75 5 -80 75 -81 22 0 26 -3 15 -9 -8
-6 -18 -8 -22 -5 -4 3 -17 0 -29 -7 -17 -9 -23 -8 -30 2 -5 8 -9 -31 -9 -95
l0 -110 37 35 c21 18 40 36 43 39 26 25 300 248 376 307 27 20 55 43 62 50 7
7 18 13 23 13 5 0 9 6 9 14 0 8 6 16 14 19 32 12 196 135 256 191 93 87 161
143 250 206 87 62 237 175 352 265 72 56 158 115 182 124 39 15 -149 -145
-329 -280 -55 -42 -152 -117 -215 -168 -132 -107 -216 -174 -350 -280 -52 -41
-115 -93 -140 -116 -25 -22 -79 -66 -120 -97 -41 -31 -124 -97 -185 -147 -60
-50 -145 -118 -187 -152 l-78 -60 0 -79 c0 -44 4 -80 9 -80 15 0 200 154 301
250 8 8 34 29 57 46 24 17 40 34 36 37 -3 4 3 7 13 7 11 0 38 18 59 40 21 22
43 40 48 40 6 0 31 19 57 43 26 23 62 54 81 69 129 102 157 126 151 133 -4 5
-1 5 6 1 7 -4 34 12 70 43 190 166 296 252 351 286 9 6 32 24 52 40 20 17 60
48 89 70 29 22 67 52 84 66 49 42 257 181 262 176 3 -3 -18 -23 -45 -44 -28
-22 -47 -44 -43 -48 4 -3 2 -5 -5 -3 -6 1 -56 -33 -110 -78 -54 -44 -116 -93
-138 -109 -22 -16 -67 -52 -100 -81 -103 -88 -195 -162 -330 -264 -71 -54
-166 -129 -210 -167 -44 -38 -109 -91 -145 -118 -36 -27 -137 -108 -225 -180
-88 -72 -207 -168 -265 -211 l-105 -80 -3 -82 c-2 -45 0 -82 2 -82 7 0 114 81
198 150 36 30 92 75 123 100 69 55 135 108 195 159 81 69 249 205 318 258 37
29 94 77 127 107 100 91 182 154 313 241 8 6 24 19 36 30 12 11 43 38 71 60
27 22 65 54 84 70 32 28 62 50 109 80 9 6 40 27 70 47 30 20 61 34 69 31 8 -3
-17 -26 -67 -60 -44 -31 -115 -85 -158 -122 -77 -67 -132 -110 -272 -213 -41
-30 -115 -90 -165 -133 -49 -42 -126 -105 -170 -138 -44 -34 -139 -111 -210
-172 -72 -61 -200 -163 -285 -227 -85 -64 -190 -144 -232 -179 -43 -35 -96
-76 -118 -91 -40 -28 -40 -28 -40 -94 0 -52 3 -64 13 -57 87 69 286 228 333
268 34 27 90 73 125 100 35 28 65 53 67 57 2 3 29 26 60 50 31 24 62 48 68 53
6 6 26 21 44 35 37 28 143 114 244 198 37 31 81 66 97 78 63 45 95 70 219 171
8 7 44 35 80 63 36 28 86 69 112 91 26 23 71 58 100 78 29 20 62 44 72 53 11
10 40 25 65 35 25 9 49 22 53 27 5 7 8 7 8 -1 0 -7 -18 -22 -40 -33 -44 -22
-224 -157 -286 -214 -21 -20 -42 -36 -45 -36 -8 0 -97 -70 -204 -160 -49 -41
-129 -108 -179 -148 -50 -40 -99 -79 -109 -87 -9 -8 -21 -15 -26 -15 -5 0 -11
-4 -13 -8 -2 -5 -46 -42 -98 -82 -52 -41 -97 -77 -100 -80 -3 -3 -25 -21 -50
-40 -25 -19 -58 -47 -75 -62 -16 -15 -34 -28 -39 -28 -4 0 -6 -7 -3 -14 4 -9
1 -13 -6 -10 -7 2 -48 -25 -92 -61 -44 -36 -84 -69 -90 -73 -5 -4 -59 -46
-120 -92 -60 -47 -127 -98 -148 -113 -36 -27 -37 -30 -37 -93 0 -35 3 -64 8
-64 4 0 30 22 58 49 27 27 64 56 81 65 18 9 35 22 39 28 5 8 1 8 -12 -2 -12
-9 -10 -5 6 13 14 17 30 25 39 22 9 -3 12 -3 9 1 -4 3 9 18 29 31 30 21 143
113 163 133 3 3 30 25 60 50 30 24 75 61 100 83 25 21 50 42 55 46 74 54 342
268 367 293 10 10 22 18 27 18 4 0 24 15 43 33 50 46 144 125 211 177 32 25
81 64 109 88 29 23 56 42 61 42 5 0 7 7 4 14 -4 9 -1 13 6 10 7 -2 22 5 34 16
12 11 25 20 28 20 4 0 27 20 53 44 57 53 205 166 211 161 7 -8 -20 -33 -122
-117 -55 -46 -137 -115 -181 -154 -75 -65 -488 -400 -665 -539 -42 -33 -146
-117 -231 -186 -85 -69 -175 -139 -200 -156 -25 -17 -83 -64 -130 -105 -47
-40 -124 -104 -172 -142 l-88 -69 0 -1508 0 -1509 2946 0 2946 0 172 158 c138
127 303 274 325 289 3 2 -6 14 -19 28 -28 30 -15 34 16 5 l21 -21 79 73 c209
193 784 686 867 743 32 21 86 65 120 98 113 106 94 82 -38 -49 -139 -138 -298
-281 -650 -584 -44 -38 -136 -119 -205 -180 -69 -61 -231 -202 -360 -314 -129
-112 -246 -213 -259 -225 l-24 -21 2152 0 2151 0 0 1071 0 1070 -44 -35 c-23
-20 -46 -36 -50 -36 -10 0 11 19 56 54 l38 28 0 2279 c0 1310 -4 2279 -9 2279
-5 0 -31 -19 -57 -43 -49 -43 -212 -179 -248 -207 -10 -8 -33 -26 -50 -40 -17
-14 -44 -34 -61 -44 l-30 -19 19 22 c11 12 65 56 121 99 120 91 185 144 235
192 21 20 47 42 59 50 20 14 22 22 19 109 l-3 94 -105 -83 c-58 -46 -107 -87
-110 -91 -3 -5 -40 -34 -81 -66 -42 -32 -132 -103 -200 -158 -67 -55 -146
-118 -175 -140 -45 -35 -461 -381 -474 -395 -3 -3 -21 -17 -42 -32 -20 -15
-42 -33 -50 -40 -52 -48 -121 -110 -168 -148 -30 -25 -84 -74 -119 -110 l-64
-65 61 71 c61 70 82 91 222 214 40 36 78 70 84 75 6 6 29 24 51 40 22 17 45
35 50 41 6 5 42 35 80 66 39 31 79 65 90 75 11 10 38 31 60 47 22 17 69 58
105 91 36 34 88 77 115 95 28 19 52 37 55 40 3 4 55 45 115 93 61 47 167 133
238 189 70 57 150 121 179 143 84 65 88 71 88 120 0 44 -6 53 -26 38 -5 -5 -1
0 8 9 17 15 18 37 16 268 l-3 251 -135 -110z m-20 -300 c-19 -16 -37 -27 -39
-26 -5 5 52 54 64 55 5 0 -6 -13 -25 -29z m-95 -81 c-27 -27 -50 -48 -52 -46
-4 4 88 95 97 96 2 0 -18 -22 -45 -50z m39 -85 c-4 -8 -11 -15 -16 -15 -6 0
-5 6 2 15 7 8 14 15 16 15 2 0 1 -7 -2 -15z m-164 -21 c-8 -8 -23 -20 -34 -25
-13 -7 -9 -1 9 15 34 29 43 33 25 10z m-75 -72 c-6 -5 -53 -41 -105 -80 -52
-39 -117 -92 -145 -118 -27 -25 -66 -58 -85 -72 -19 -15 -37 -29 -40 -32 -3
-4 -42 -36 -88 -73 -46 -37 -104 -84 -130 -106 -26 -22 -99 -82 -162 -132 -63
-51 -119 -98 -125 -104 -19 -24 -228 -186 -259 -202 -17 -9 -50 -29 -73 -45
-24 -16 -43 -24 -43 -19 0 6 19 23 43 38 23 14 60 38 82 52 59 37 206 153 320
251 55 48 134 113 176 146 144 112 316 252 343 279 15 15 48 43 74 63 135 104
213 162 219 162 4 0 3 -4 -2 -8z m14 -68 c-7 -9 -40 -36 -74 -62 -33 -25 -65
-50 -70 -56 -6 -6 -24 -22 -40 -35 -17 -14 -4 0 27 30 50 48 157 136 167 138
2 1 -3 -6 -10 -15z m162 2 c-6 -7 -57 -51 -114 -96 -56 -46 -88 -69 -72 -50
27 29 185 160 194 160 2 0 -2 -6 -8 -14z m-9367 -105 c-2 -3 -12 3 -22 13 -16
17 -16 18 5 5 12 -7 20 -15 17 -18z m8986 -79 c0 -9 -129 -97 -134 -91 -3 2
25 25 62 51 78 53 72 50 72 40z m120 -32 c-8 -5 -77 -58 -153 -119 -76 -61
-140 -111 -144 -111 -11 0 23 34 72 71 27 21 91 69 140 108 50 38 92 67 95 64
3 -2 -2 -8 -10 -13z m210 -34 c0 -3 -15 -15 -32 -27 l-33 -23 24 27 c22 24 41
35 41 23z m-9128 -106 c83 -62 297 -210 353 -243 27 -16 77 -50 110 -75 96
-74 258 -182 272 -182 7 0 13 -11 13 -25 0 -27 -15 -34 -24 -10 -3 8 -15 15
-27 15 -12 0 -20 3 -16 6 5 5 -27 28 -188 133 -22 14 -42 28 -45 31 -3 3 -41
29 -85 58 -44 28 -85 56 -90 61 -6 4 -47 32 -90 62 -44 30 -84 60 -88 67 -4 6
-14 12 -21 12 -7 0 -29 12 -48 28 -46 36 -136 117 -122 109 7 -4 15 3 18 16
l7 22 9 -22 c5 -12 33 -40 62 -63z m8658 49 c-8 -5 -33 -19 -55 -31 -22 -11
-71 -51 -110 -88 -38 -37 -81 -73 -95 -79 -15 -7 -7 3 20 26 25 21 62 54 82
75 45 45 137 108 158 108 13 0 13 -1 0 -11z m345 -49 c-3 -5 -12 -10 -18 -10
-7 0 -6 4 3 10 19 12 23 12 15 0z m-9025 -50 c0 -5 -2 -10 -4 -10 -3 0 -8 5
-11 10 -3 6 -1 10 4 10 6 0 11 -4 11 -10z m8605 -85 c-21 -20 -40 -33 -43 -30
-8 8 51 64 67 65 8 0 -2 -16 -24 -35z m409 17 c3 -5 -9 -19 -27 -31 l-32 -22
27 24 c15 14 24 28 21 31 -4 3 -4 6 0 6 3 0 8 -4 11 -8z m-674 -77 c-19 -14
-36 -25 -39 -25 -10 1 53 50 63 50 6 0 -5 -11 -24 -25z m60 0 c-13 -14 -29
-25 -37 -25 -7 0 -13 -4 -13 -8 0 -4 -35 -32 -77 -61 -43 -28 -97 -66 -120
-83 -24 -18 -45 -29 -48 -27 -6 6 62 57 149 113 34 21 81 56 105 77 49 43 78
53 41 14z m150 17 c0 -4 -13 -16 -30 -25 -16 -10 -30 -22 -30 -28 0 -5 -4 -9
-10 -9 -5 0 -69 -50 -142 -111 -73 -61 -184 -144 -246 -185 -62 -41 -115 -81
-118 -89 -4 -8 -11 -15 -17 -15 -6 0 9 20 33 45 24 25 50 45 57 45 7 0 13 3
13 8 0 4 17 15 38 25 36 17 187 135 278 216 77 69 99 86 127 98 15 7 27 17 27
23 0 5 5 10 10 10 6 0 10 -4 10 -8z m399 -5 c-2 -2 -31 -26 -64 -52 -33 -26
-73 -61 -89 -76 -16 -16 -33 -26 -38 -23 -11 7 -10 24 2 24 6 0 16 4 23 10 96
78 163 127 166 124 2 -2 2 -6 0 -7z m-8884 -28 c11 -16 1 -19 -13 -3 -7 8 -8
14 -3 14 5 0 13 -5 16 -11z m-705 -29 c9 -11 125 -94 208 -150 98 -66 110 -87
15 -25 -132 85 -285 202 -248 189 11 -4 22 -10 25 -14z m9350 16 c0 -2 -8 -10
-17 -17 -16 -13 -17 -12 -4 4 13 16 21 21 21 13z m-9311 -82 c14 -12 -19 -1
-35 12 -18 14 -18 14 6 3 14 -6 27 -13 29 -15z m9201 2 c0 -2 -8 -10 -17 -17
-16 -13 -17 -12 -4 4 13 16 21 21 21 13z m-9310 -32 c0 -2 -7 -4 -15 -4 -8 0
-15 4 -15 10 0 5 7 7 15 4 8 -4 15 -8 15 -10z m1010 -17 c13 -5 13 -6 -1 -6
-8 -1 -24 6 -35 15 -19 15 -19 15 1 6 11 -5 27 -12 35 -15z m-808 -28 c35 -23
75 -49 90 -60 50 -35 99 -59 120 -59 17 0 19 -2 8 -15 -9 -11 -15 -13 -20 -5
-4 7 -10 11 -14 10 -11 -2 -75 31 -87 46 -6 8 -17 14 -24 14 -8 0 -15 4 -17
10 -1 5 -37 25 -78 45 -69 33 -72 36 -22 19 12 -4 10 0 -7 15 -36 32 -19 25
51 -20z m9250 34 c-6 -2 -9 -10 -5 -16 3 -7 3 -9 -1 -5 -4 3 -16 -1 -25 -10
-10 -9 -27 -24 -37 -32 -31 -24 -129 -104 -134 -110 -41 -42 -350 -284 -356
-278 -2 3 35 36 83 74 83 65 255 207 279 229 6 5 30 26 54 45 24 19 48 40 54
45 29 27 82 65 91 64 6 0 4 -3 -3 -6z m-9381 -39 c63 -19 148 -61 240 -121 36
-24 70 -43 75 -43 12 0 117 -72 131 -90 21 -27 5 -23 -44 12 -26 19 -55 38
-63 41 -8 4 -54 31 -103 61 -79 49 -212 119 -277 145 -38 15 -20 13 41 -5z
m8729 -28 c0 -3 -20 -18 -45 -35 -57 -38 -59 -31 -3 9 41 30 48 34 48 26z
m-8716 -41 c15 -14 29 -25 32 -25 11 0 65 -42 61 -47 -7 -7 -58 22 -87 49 -14
14 -34 29 -45 36 -16 9 -17 11 -4 12 9 0 28 -11 43 -25z m9111 15 c-3 -5 -16
-15 -28 -21 -21 -10 -21 -9 2 10 25 23 36 27 26 11z m-8015 -46 c0 -2 -11 2
-25 8 -14 6 -25 15 -25 20 0 5 11 1 25 -8 14 -9 25 -18 25 -20z m-785 16 c3
-6 -1 -7 -9 -4 -18 7 -21 14 -7 14 6 0 13 -4 16 -10z m8315 -35 c0 -2 -10 -10
-22 -16 -21 -11 -22 -11 -9 4 13 16 31 23 31 12z m-7470 -15 c8 -5 11 -10 5
-10 -5 0 -17 5 -25 10 -8 5 -10 10 -5 10 6 0 17 -5 25 -10z m-1140 -37 c27
-21 64 -49 83 -63 19 -14 33 -28 30 -33 -4 -6 -37 16 -96 63 -89 71 -103 98
-17 33z m140 -4 c31 -27 144 -99 155 -99 10 0 106 -63 102 -67 -14 -14 -306
166 -307 190 0 14 15 7 50 -24z m51 12 c13 -10 52 -33 87 -51 60 -31 84 -50
63 -50 -6 0 -33 14 -61 30 -28 17 -54 30 -58 30 -4 0 -23 14 -42 30 -38 32
-28 42 11 11z m149 9 c0 -5 -2 -10 -4 -10 -3 0 -8 5 -11 10 -3 6 -1 10 4 10 6
0 11 -4 11 -10z m8499 -73 c-2 -1 -13 -9 -24 -17 -19 -14 -19 -14 -6 3 7 9 18
17 24 17 6 0 8 -1 6 -3z m-8669 -37 c3 -3 31 -19 62 -35 31 -16 55 -31 53 -33
-5 -5 -95 28 -111 40 -6 5 -19 6 -28 2 -19 -7 -22 11 -3 20 10 5 10 7 0 12 -7
3 -13 10 -13 16 0 9 23 -4 40 -22z m8340 -25 c-18 -19 -35 -33 -38 -31 -4 4
59 65 67 66 3 0 -10 -16 -29 -35z m-8105 5 c3 -5 2 -10 -4 -10 -5 0 -13 5 -16
10 -3 6 -2 10 4 10 5 0 13 -4 16 -10z m8195 -14 c0 -3 -4 -8 -10 -11 -5 -3
-10 -1 -10 4 0 6 5 11 10 11 6 0 10 -2 10 -4z m150 -20 c0 -2 -8 -10 -17 -17
-16 -13 -17 -12 -4 4 13 16 21 21 21 13z m-8457 -42 c59 -30 68 -38 52 -44
-13 -5 -23 -2 -28 6 -4 8 -12 14 -17 14 -5 0 -31 14 -57 30 -65 41 -38 38 50
-6z m8372 -4 c-3 -5 -12 -10 -18 -10 -7 0 -6 4 3 10 19 12 23 12 15 0z m109
-78 c-12 -9 -41 -33 -65 -53 -24 -19 -57 -43 -74 -53 l-30 -17 26 23 c14 13
43 37 64 53 21 17 48 38 59 47 12 10 26 17 31 17 6 1 0 -7 -11 -17z m381 -192
c3 -5 -1 -10 -10 -10 -9 0 -13 5 -10 10 3 6 8 10 10 10 2 0 7 -4 10 -10z
m-149 -42 c4 -6 3 -8 -4 -4 -6 3 -14 2 -17 -4 -4 -6 -36 -29 -71 -51 -35 -23
-67 -46 -72 -52 -10 -17 -82 -70 -87 -65 -9 9 218 185 242 188 1 0 5 -5 9 -12z
m202 -18 c43 -26 57 -63 42 -113 -12 -43 -42 -65 -95 -74 -28 -5 -36 -3 -31 6
6 8 1 10 -18 5 -30 -7 -75 32 -77 68 -3 65 4 78 64 107 52 26 73 26 115 1z
m-8773 0 c-3 -5 -11 -10 -16 -10 -6 0 -7 5 -4 10 3 6 11 10 16 10 6 0 7 -4 4
-10z m9280 -145 c-27 -25 -56 -45 -62 -45 -7 0 -13 -4 -13 -9 0 -5 -7 -11 -15
-15 -25 -9 -17 9 13 26 15 9 36 25 47 35 24 23 68 53 75 53 3 -1 -17 -21 -45
-45z m-825 1 c0 -3 -4 -8 -10 -11 -5 -3 -10 -1 -10 4 0 6 5 11 10 11 6 0 10
-2 10 -4z m-800 -10 c0 -2 -8 -10 -17 -17 -16 -13 -17 -12 -4 4 13 16 21 21
21 13z m650 -14 c0 -5 -15 -19 -32 -31 l-33 -23 30 30 c33 34 35 35 35 24z
m110 -6 c0 -3 -4 -8 -10 -11 -5 -3 -10 -1 -10 4 0 6 5 11 10 11 6 0 10 -2 10
-4z m115 -64 c-33 -31 -77 -72 -99 -90 -36 -31 -37 -34 -20 -47 17 -13 17 -14
2 -15 -9 0 -18 6 -21 13 -4 13 -17 3 -212 -158 -136 -112 -185 -148 -185 -138
0 5 12 17 27 28 27 19 167 147 188 171 6 6 17 15 26 20 9 5 35 26 58 47 35 31
40 41 30 53 -8 10 -8 14 0 14 6 0 11 -4 11 -10 0 -18 14 -10 70 39 30 27 58
47 62 45 5 -3 8 -1 8 4 0 12 90 81 105 82 6 0 -17 -26 -50 -58z m-175 13 c-7
-9 -15 -13 -18 -10 -3 2 1 11 8 20 7 9 15 13 18 10 3 -2 -1 -11 -8 -20z
m-8817 -32 c41 -21 60 -40 47 -48 -5 -3 -10 -1 -10 5 0 7 -6 10 -13 7 -7 -3
-22 2 -32 10 -17 13 -17 15 -2 10 27 -10 20 -1 -18 22 -19 11 -35 25 -35 31 0
6 7 4 16 -5 9 -8 30 -23 47 -32z m8067 44 c0 -2 -12 -14 -27 -28 l-28 -24 24
28 c23 25 31 32 31 24z m1540 -40 c-8 -8 -53 -45 -100 -83 -47 -38 -96 -80
-110 -94 -14 -14 -62 -56 -108 -94 -45 -38 -82 -72 -82 -76 0 -4 11 -13 25
-20 14 -7 23 -15 20 -18 -2 -3 -15 3 -29 11 -24 16 -26 15 -114 -56 -49 -39
-104 -83 -122 -97 -42 -32 -84 -68 -184 -155 -102 -90 -166 -139 -166 -128 1
4 26 28 56 53 30 25 72 60 92 79 20 18 57 50 82 70 25 20 65 55 90 78 25 23
63 55 85 71 22 17 58 46 79 66 22 20 42 36 45 36 3 0 24 16 46 36 22 20 58 53
80 73 22 20 60 52 85 71 24 19 64 53 89 76 77 68 136 114 146 114 5 0 3 -6 -5
-13z m-826 -10 c-2 -7 -14 -18 -25 -25 -18 -12 -19 -11 -10 7 9 16 17 23 38
30 1 1 0 -5 -3 -12z m-54 -27 c0 -5 -5 -10 -11 -10 -5 0 -7 5 -4 10 3 6 8 10
11 10 2 0 4 -4 4 -10z m-8485 -40 c3 -6 -1 -7 -9 -4 -18 7 -21 14 -7 14 6 0
13 -4 16 -10z m8315 -5 c-7 -9 -15 -13 -19 -10 -3 3 1 10 9 15 21 14 24 12 10
-5z m480 -50 c-62 -62 -63 -65 -45 -80 19 -14 18 -15 -7 -4 -16 7 -28 15 -28
18 0 9 126 131 136 131 5 0 -21 -29 -56 -65z m-8685 -15 c18 -14 44 -32 96
-65 56 -35 241 -164 276 -192 23 -19 45 -35 50 -35 4 0 7 -4 6 -9 -2 -4 3 -6
10 -4 6 3 18 -4 25 -15 26 -42 -17 -18 -179 99 -90 66 -212 152 -271 192 -60
40 -108 77 -108 82 0 9 61 -25 95 -53z m8600 41 c-9 -8 -36 -10 -30 -2 2 4 11
8 20 8 8 0 13 -3 10 -6z m150 -30 c-3 -6 -11 -11 -17 -11 -6 0 -6 6 2 15 14
17 26 13 15 -4z m-200 -11 c-3 -5 7 -16 22 -24 15 -8 23 -15 18 -16 -18 0 -56
31 -50 41 4 5 8 9 11 9 3 0 3 -4 -1 -10z m145 -35 c-7 -9 -15 -13 -17 -11 -7
7 7 26 19 26 6 0 6 -6 -2 -15z m-230 -25 c0 -5 -4 -10 -10 -10 -5 0 -10 5 -10
10 0 6 5 10 10 10 6 0 10 -4 10 -10z m-8839 -37 c13 -16 12 -17 -3 -4 -10 7
-18 15 -18 17 0 8 8 3 21 -13z m8970 -16 c-17 -21 -131 -99 -131 -90 1 4 28
26 61 47 34 22 63 46 66 53 3 8 8 12 11 9 3 -3 0 -12 -7 -19z m-219 -9 c-7 -7
-12 -8 -12 -2 0 14 12 26 19 19 2 -3 -1 -11 -7 -17z m-8601 -69 c37 -27 73
-57 80 -66 8 -10 -4 -4 -26 13 -22 17 -73 53 -112 79 -40 26 -73 50 -73 52 0
8 70 -33 131 -78z m8868 45 c-13 -14 -58 -50 -99 -79 -41 -30 -86 -64 -100
-77 -14 -13 -41 -34 -60 -47 -19 -13 -46 -34 -60 -46 -33 -30 -86 -63 -77 -49
3 6 39 38 79 70 40 33 75 62 76 67 2 4 7 5 12 2 5 -3 11 4 15 15 4 11 11 17
17 14 5 -3 16 3 24 15 9 12 41 39 72 60 31 21 70 50 87 65 36 32 47 25 14 -10z
m-153 11 c-8 -8 -18 -15 -22 -15 -3 0 -1 7 6 15 7 8 17 15 22 15 5 0 3 -7 -6
-15z m268 -14 c-2 -3 -12 3 -22 13 -16 17 -16 18 5 5 12 -7 20 -15 17 -18z
m-8633 -54 c-12 -13 -34 -30 -49 -37 -15 -8 -42 -25 -60 -38 -58 -42 -45 -17
15 29 91 70 139 93 94 46z m8259 -11 c0 -2 -8 -10 -17 -17 -16 -13 -17 -12 -4
4 13 16 21 21 21 13z m70 0 c0 -2 -8 -10 -17 -17 -16 -13 -17 -12 -4 4 13 16
21 21 21 13z m-8287 -17 c33 -17 77 -61 77 -77 0 -22 -35 -65 -69 -85 -37 -22
-39 -16 -7 16 31 32 44 93 24 113 -15 16 -42 20 -68 12 -8 -3 -12 -3 -8 -1 4
2 4 11 1 19 -6 17 19 19 50 3z m8247 -19 c0 -5 -4 -10 -10 -10 -5 0 -10 5 -10
10 0 6 5 10 10 10 6 0 10 -4 10 -10z m-30 -20 c0 -5 -5 -10 -11 -10 -5 0 -7 5
-4 10 3 6 8 10 11 10 2 0 4 -4 4 -10z m-100 -59 c-30 -27 -57 -47 -59 -46 -5
5 97 94 109 95 3 0 -20 -22 -50 -49z m-50 -125 c0 -2 -8 -10 -17 -17 -16 -13
-17 -12 -4 4 13 16 21 21 21 13z m-6603 -40 c72 -48 85 -121 31 -173 -58 -53
-79 -63 -139 -63 -46 0 -63 5 -95 29 -67 49 -77 65 -71 116 5 51 30 83 81 110
47 24 141 15 193 -19z m6016 -10 c51 -21 80 -59 80 -104 0 -69 -37 -105 -125
-121 -39 -7 -53 -5 -80 12 -47 28 -70 54 -77 90 -11 53 -2 76 41 107 46 34
106 40 161 16z m617 -181 c-7 -9 -15 -13 -19 -10 -3 3 1 10 9 15 21 14 24 12
10 -5z m-6611 -42 c-20 -23 -73 -43 -111 -42 -30 1 -30 2 10 10 24 4 58 17 75
28 40 24 43 25 26 4z m-1842 1 c-3 -3 -12 -4 -19 -1 -8 3 -5 6 6 6 11 1 17 -2
13 -5z m2980 -8 c-3 -8 -1 -16 5 -18 13 -5 -166 -176 -244 -234 -32 -23 -81
-62 -110 -87 -57 -48 -97 -72 -105 -63 -16 16 16 63 89 128 45 40 117 106 160
147 42 41 105 88 140 106 76 40 71 38 65 21z m3918 -30 c17 7 119 -58 414
-264 146 -101 165 -112 197 -112 72 0 47 57 -53 120 -80 50 -295 206 -332 241
l-24 22 22 9 c29 10 54 -3 221 -117 74 -51 154 -102 178 -114 58 -30 122 -89
122 -113 0 -51 -78 -128 -129 -128 -27 0 -88 31 -127 63 -16 14 -93 68 -172
121 -145 98 -328 232 -392 286 l-35 29 49 -24 c26 -13 54 -21 61 -19z m-4138
16 c8 -5 -11 -31 -55 -78 -77 -81 -110 -104 -123 -83 -21 34 -1 61 91 124 72
48 70 48 87 37z m3901 -28 c29 -13 110 -63 180 -112 70 -49 206 -141 302 -204
96 -64 182 -124 192 -134 9 -11 17 -30 17 -44 0 -14 3 -45 6 -70 18 -142 -166
-220 -294 -125 -71 51 -88 112 -51 173 24 40 25 41 2 35 -17 -4 -66 27 -372
236 -167 113 -297 241 -246 241 11 0 129 -79 322 -215 54 -38 133 -92 174
-119 41 -27 95 -65 120 -85 43 -35 47 -37 80 -25 19 7 45 13 57 13 12 1 24 5
27 9 6 10 -94 85 -184 136 -80 47 -339 231 -400 286 -44 39 -44 40 -15 34 17
-3 54 -17 83 -30z m-4438 11 c89 -31 161 -115 160 -187 -1 -32 -1 -32 -20 16
-25 64 -28 65 -22 7 8 -88 -41 -175 -116 -207 -146 -61 -285 0 -333 146 -7 20
-8 16 -6 -18 2 -37 1 -41 -10 -26 -17 24 -17 108 1 142 16 30 67 80 107 105
61 37 167 47 239 22z m-2337 -62 c-1 -5 7 -10 18 -10 11 -1 17 3 13 9 -4 5 5
2 20 -7 28 -18 34 -35 14 -35 -9 0 -8 -3 2 -10 12 -8 12 -10 -3 -16 -16 -6
-33 3 -82 41 -17 14 -18 17 -5 25 13 8 8 13 -10 12 -3 0 -21 13 -40 30 l-35
30 55 -30 c30 -17 54 -34 53 -39z m3239 35 c2 -17 -17 -41 -77 -99 -163 -155
-333 -289 -398 -314 -30 -11 -73 -42 -115 -82 -37 -35 -77 -66 -89 -69 -32 -9
-78 9 -81 32 -5 33 20 53 78 64 95 18 135 38 170 86 17 25 64 66 103 93 40 27
119 91 177 142 124 111 198 169 216 169 7 0 14 -10 16 -22z m4334 -33 c16 -14
25 -25 21 -25 -13 0 -57 32 -57 41 0 13 4 11 36 -16z m834 12 c0 -2 -15 -16
-32 -33 l-33 -29 29 33 c28 30 36 37 36 29z m641 -39 c22 -12 39 -28 39 -35 0
-7 5 -13 11 -13 5 0 9 -8 8 -17 -1 -10 1 -26 5 -35 11 -25 -6 -69 -35 -90 -79
-60 -208 -6 -215 90 -3 52 14 83 56 104 47 24 84 23 131 -4z m-5711 -33 c0 -8
5 -15 10 -15 22 0 -23 -49 -112 -122 -157 -130 -322 -259 -346 -270 -14 -7
-26 -26 -33 -52 -24 -93 -165 -177 -228 -137 -22 14 -6 37 61 88 34 26 110 91
168 143 109 100 299 265 385 337 51 43 95 56 95 28z m4420 -55 c10 0 20 -7 24
-15 3 -8 1 -15 -4 -15 -16 0 -79 44 -85 58 -3 7 7 4 21 -7 15 -12 35 -21 44
-21z m-1280 -105 c47 -32 87 -59 89 -61 2 -2 -5 -14 -16 -28 l-19 -24 -30 22
c-16 12 -63 43 -105 69 -77 47 -112 77 -90 77 6 0 32 -13 58 -29 26 -17 49
-28 51 -27 7 8 -12 36 -28 41 -10 3 -21 12 -24 21 -7 19 4 13 114 -61z m-3050
27 c0 -30 -7 -44 -32 -68 -29 -26 -177 -145 -303 -241 -57 -43 -99 -63 -135
-63 -65 0 -36 32 200 221 158 126 245 189 261 189 5 0 9 -17 9 -38z m-968 -61
c-22 -36 -51 -60 -112 -92 -36 -19 -60 -24 -122 -24 -43 0 -82 5 -87 10 -6 7
21 10 77 11 72 0 97 5 143 26 54 25 108 78 110 109 0 9 2 10 5 3 3 -7 -3 -26
-14 -43z m-903 3 c-25 -28 -211 -164 -223 -164 -9 0 35 35 99 80 28 18 52 37
55 40 9 11 85 70 89 70 2 0 -6 -12 -20 -26z m-426 -51 c8 -8 -65 -53 -75 -47
-15 10 -8 31 15 42 26 12 51 15 60 5z m5255 -71 c18 -14 31 -27 28 -29 -9 -9
-136 76 -136 91 0 7 65 -31 108 -62z m351 -18 c155 -79 194 -192 97 -282 -62
-57 -100 -74 -166 -75 -64 0 -152 35 -195 77 -21 21 -25 34 -25 87 0 88 23
118 128 171 45 23 82 46 82 50 0 12 2 11 79 -28z m-419 -36 c80 -54 94 -74 79
-116 -6 -18 -16 -32 -21 -32 -13 0 -156 89 -165 103 -4 6 3 8 19 4 26 -7 55
13 41 26 -3 4 0 7 7 7 7 0 0 11 -16 25 -45 39 -14 29 56 -17z m2357 -81 c24
-17 41 -32 38 -35 -6 -6 -104 61 -105 71 0 10 10 4 67 -36z m-5082 0 c58 -33
88 -81 79 -132 -8 -52 -37 -98 -69 -113 -33 -15 -149 -16 -178 -1 -12 6 -37
25 -54 42 -27 25 -33 39 -33 72 0 116 148 193 255 132z m-2054 -58 c-11 -12
-24 -20 -27 -16 -4 4 4 15 17 26 31 25 37 19 10 -10z m7225 -4 c12 -9 14 -14
6 -15 -7 0 -20 7 -28 15 -20 19 -4 20 22 0z m-7286 -46 c-14 -11 -46 -41 -71
-65 -26 -24 -50 -44 -54 -44 -4 0 -15 -10 -26 -22 -10 -13 -18 -18 -19 -12 0
7 19 27 43 47 23 19 62 53 87 76 25 22 49 41 55 41 5 -1 -1 -10 -15 -21z
m7355 -5 c44 -30 144 -103 160 -117 23 -22 -57 28 -134 83 -83 59 -103 85 -26
34z m-7905 -51 c-30 -27 -88 -79 -128 -118 -41 -38 -120 -103 -176 -143 -55
-40 -143 -110 -195 -155 -106 -93 -216 -186 -317 -268 -38 -31 -113 -93 -167
-138 -102 -84 -143 -109 -72 -43 75 68 119 106 205 176 47 38 101 86 121 106
20 20 42 34 49 32 7 -3 10 0 7 6 -4 5 1 16 10 23 12 10 14 10 9 2 -16 -27 9
-10 65 44 32 31 56 60 53 65 -3 5 -1 7 4 6 11 -4 87 64 102 91 6 12 20 21 31
21 12 0 17 4 13 11 -3 6 8 24 25 39 21 20 29 35 25 47 -5 14 -4 15 4 4 9 -12
13 -12 26 -2 9 8 16 18 16 23 0 6 -7 5 -15 -2 -11 -9 -15 -9 -15 -1 0 19 29
24 47 10 13 -11 15 -11 9 -1 -9 15 29 57 43 48 11 -7 44 30 37 42 -3 6 1 12 9
15 9 4 12 1 8 -9 -8 -21 6 -17 43 11 35 27 49 32 38 14 -4 -7 22 11 57 39 81
65 102 68 29 5z m330 43 c0 -2 -8 -10 -17 -17 -16 -13 -17 -12 -4 4 13 16 21
21 21 13z m6045 -71 c22 0 56 3 75 7 30 7 32 6 15 -4 -27 -16 -145 -16 -170 0
-18 11 -17 11 10 5 17 -5 48 -8 70 -8z m-6175 -9 c0 -3 -15 -15 -32 -27 l-33
-23 24 27 c22 24 41 35 41 23z m5436 -36 c69 -23 162 -25 218 -5 33 12 37 12
25 0 -8 -8 -43 -22 -78 -30 -52 -14 -72 -15 -109 -5 -45 11 -122 46 -122 55 0
7 1 7 66 -15z m-3039 -40 c61 -1 74 -3 59 -11 -28 -17 -127 -14 -163 4 -44 23
-51 39 -9 22 21 -9 68 -15 113 -15z m5508 20 c3 -6 -1 -7 -9 -4 -18 7 -21 14
-7 14 6 0 13 -4 16 -10z m-8002 -23 c-53 -42 -68 -50 -28 -14 22 20 44 36 48
37 5 0 -4 -10 -20 -23z m267 18 c0 -2 -32 -29 -70 -60 -39 -31 -78 -64 -88
-74 -9 -9 -39 -35 -67 -56 -48 -38 -217 -178 -241 -200 -130 -118 -205 -181
-359 -299 -60 -47 -130 -103 -155 -125 -46 -41 -60 -49 -60 -31 0 6 3 10 8 10
6 0 37 23 82 62 16 14 105 86 166 133 36 28 95 78 120 100 6 6 37 33 70 60 32
28 65 57 74 65 9 8 40 35 70 60 30 25 61 51 68 58 8 7 30 25 50 40 21 15 39
29 42 32 3 3 21 17 42 32 20 15 42 33 50 40 37 37 185 155 196 157 1 1 2 -1 2
-4z m7865 -79 c11 -8 17 -16 12 -16 -8 0 -87 51 -87 57 0 5 51 -22 75 -41z
m-8730 -26 c0 -16 -6 -25 -15 -25 -8 0 -14 8 -14 18 1 9 -2 17 -8 17 -5 0 -6
5 -3 11 12 19 40 5 40 -21z m8823 -42 c12 -6 22 -15 22 -20 0 -5 -20 5 -45 22
-25 17 -45 34 -45 37 0 3 10 -2 23 -11 12 -9 32 -21 45 -28z m-8378 -2 c0 -2
-8 -10 -17 -17 -16 -13 -17 -12 -4 4 13 16 21 21 21 13z m-40 -35 c0 -5 -7
-12 -16 -15 -14 -5 -15 -4 -4 9 14 17 20 19 20 6z m8500 -21 c0 -5 -2 -10 -4
-10 -3 0 -8 5 -11 10 -3 6 -1 10 4 10 6 0 11 -4 11 -10z m-8689 -130 c-30 -28
-60 -50 -65 -50 -6 0 2 11 19 23 16 12 43 34 60 49 16 15 32 27 35 27 3 0 -19
-22 -49 -49z m-131 -110 c0 -5 -5 -10 -11 -10 -5 0 -7 5 -4 10 3 6 8 10 11 10
2 0 4 -4 4 -10z m980 6 c0 -3 -4 -8 -10 -11 -5 -3 -10 -1 -10 4 0 6 5 11 10
11 6 0 10 -2 10 -4z m-52 -29 c6 -5 17 -5 22 -2 6 3 10 2 10 -3 0 -5 11 -7 25
-4 14 2 22 8 19 13 -3 5 0 9 6 9 7 0 9 -8 5 -21 -7 -20 -7 -20 21 -2 16 10 25
13 22 8 -4 -6 -3 -17 3 -25 6 -10 9 -11 9 -2 0 6 4 12 10 12 5 0 6 -7 3 -17
-4 -11 -3 -14 5 -9 7 4 12 3 12 -3 0 -11 39 -27 55 -22 5 1 7 0 3 -4 -3 -3 14
-25 38 -47 46 -42 54 -58 30 -58 -8 0 -36 -16 -61 -36 l-47 -36 -32 31 c-55
53 -132 66 -217 36 -113 -40 -172 -174 -121 -275 38 -76 166 -127 253 -101 47
14 109 69 109 96 0 15 -11 17 -95 13 l-95 -3 0 68 0 67 123 0 c67 0 146 3 176
7 l54 6 -5 -94 c-8 -152 -46 -212 -168 -268 -153 -71 -316 -43 -433 74 -76 75
-108 203 -78 311 14 51 64 128 103 155 17 13 27 27 24 36 -3 8 -2 12 3 8 14
-8 41 5 41 21 0 8 6 11 17 7 10 -4 14 -2 9 5 -3 6 -2 13 4 17 5 3 10 1 10 -4
0 -6 5 -11 10 -11 6 0 10 8 10 18 0 13 2 14 9 4 7 -11 9 -11 14 2 5 11 15 15
33 12 19 -4 24 -1 21 9 -6 14 9 15 31 2z m-990 -27 c-7 -11 -19 -22 -28 -25
-8 -4 -4 5 9 19 29 31 36 33 19 6z m3297 -317 l0 -332 -41 -7 c-22 -3 -53 -4
-70 -2 l-29 3 0 320 c0 176 3 328 7 338 7 15 18 17 70 15 l63 -3 0 -332z
m2207 -19 l-4 -329 -71 0 -72 0 0 335 0 335 40 5 c22 3 56 1 75 -6 l35 -11 -3
-329z m718 232 l0 -113 38 19 c101 49 206 26 287 -64 89 -99 97 -199 25 -300
-51 -72 -107 -110 -170 -116 -65 -6 -87 1 -135 43 l-40 35 -5 -27 c-3 -18 -13
-29 -30 -34 -42 -12 -98 -10 -107 4 -4 6 -8 159 -9 340 l0 327 73 0 73 0 0
-114z m-1708 93 c71 -15 133 -48 193 -103 l50 -45 -25 -20 c-14 -11 -41 -27
-61 -36 -35 -16 -37 -16 -63 8 -100 93 -270 80 -347 -26 -55 -76 -29 -188 59
-251 36 -25 55 -31 111 -34 71 -4 108 7 190 60 l34 21 43 -22 c23 -13 45 -29
48 -37 9 -23 -69 -91 -149 -130 -48 -24 -92 -37 -132 -41 -139 -13 -282 71
-364 212 -78 136 1 323 173 411 84 43 151 52 240 33z m3066 -11 c44 -13 126
-97 152 -155 40 -92 23 -151 -60 -202 -31 -19 -50 -38 -50 -49 0 -11 27 -56
60 -102 55 -76 72 -121 52 -134 -4 -2 -31 1 -59 7 -50 12 -54 15 -127 115 -42
56 -79 102 -82 102 -4 0 -4 -47 -1 -104 l6 -104 -37 -6 c-87 -14 -88 -13 -95
62 -4 37 -10 183 -13 324 l-7 257 59 3 c79 5 161 -1 202 -14z m-472 -9 c46
-12 126 -69 158 -112 15 -21 22 -47 24 -103 l4 -76 -54 -52 c-61 -59 -107 -76
-207 -76 l-61 0 0 -105 0 -105 -64 0 c-36 0 -67 4 -71 10 -3 5 -10 116 -15
246 -5 130 -12 269 -16 309 -6 66 -5 73 12 77 36 6 250 -3 290 -13z m1014
-150 c82 -24 120 -48 153 -91 54 -72 57 -148 11 -240 -27 -53 -65 -85 -144
-122 -110 -51 -254 -17 -341 81 -109 125 -67 301 88 371 24 10 41 21 39 23
-12 12 138 -5 194 -22z m-5805 -5 c39 -14 75 -25 82 -26 7 -1 11 -4 10 -7 -1
-3 5 -17 13 -31 11 -19 14 -70 13 -220 l0 -195 -59 3 c-33 2 -60 7 -62 10 -13
33 -21 35 -39 14 -22 -27 -113 -48 -164 -38 -76 14 -169 103 -169 161 0 57 26
93 92 127 59 31 69 32 161 32 94 -1 98 -1 95 20 -7 48 -131 65 -246 33 l-54
-14 7 26 c15 62 127 130 215 130 19 0 67 -11 105 -25z m-567 5 c6 -1 12 -6 12
-10 0 -4 8 -10 18 -13 23 -8 100 -83 124 -121 42 -69 14 -188 -61 -258 -75
-70 -123 -91 -206 -91 -83 0 -141 22 -205 80 -54 49 -79 104 -80 172 0 86 40
145 142 210 26 16 45 31 43 34 -5 4 187 2 213 -3z m1125 -19 c55 -35 67 -37
67 -11 0 20 39 31 111 31 l37 0 -2 -257 c-1 -222 -4 -263 -19 -293 -28 -58
-72 -104 -128 -135 -49 -27 -62 -30 -144 -29 -122 1 -166 15 -226 73 -55 53
-63 87 -29 121 27 27 40 25 110 -10 47 -24 72 -30 122 -30 92 0 145 37 164
115 7 27 6 29 -9 17 -25 -21 -138 -52 -191 -52 -119 0 -266 129 -266 235 0 94
73 180 199 231 81 34 145 32 204 -6z m17 20 c0 -5 -4 -10 -10 -10 -5 0 -10 5
-10 10 0 6 5 10 10 10 6 0 10 -4 10 -10z m825 -14 c99 -46 161 -135 153 -219
-4 -41 -18 -44 -220 -46 -123 -1 -158 -4 -158 -14 0 -23 37 -54 86 -73 39 -15
51 -16 78 -5 83 34 91 34 141 12 l49 -21 -35 -30 c-19 -16 -58 -42 -87 -56
-122 -61 -292 0 -356 128 -49 99 -27 191 67 273 86 75 190 94 282 51z m1441
-4 c45 -23 119 -93 138 -131 22 -42 28 -98 16 -143 -14 -53 -102 -143 -175
-178 -131 -64 -289 1 -365 149 -53 106 6 232 143 301 56 29 69 31 132 27 44
-2 85 -12 111 -25z m786 -4 c31 -15 62 -37 69 -50 10 -16 13 -77 14 -218 l0
-195 -44 -3 c-62 -5 -91 4 -91 28 0 25 -12 26 -27 1 -17 -27 -111 -55 -155
-47 -43 8 -119 72 -142 120 -16 35 -21 82 -10 111 16 39 173 95 272 95 59 0
63 1 60 22 -2 13 -18 29 -42 41 -41 21 -52 20 -245 -21 -20 -4 -22 -2 -16 19
9 32 89 107 128 119 56 17 167 6 229 -22z m-4432 18 c0 -2 -7 -7 -16 -10 -8
-3 -12 -2 -9 4 6 10 25 14 25 6z m-1983 -403 c-9 -10 -31 -27 -49 -37 -40 -23
-34 -16 18 24 45 34 54 37 31 13z m2218 -418 c0 -72 -4 -164 -8 -206 l-8 -76
41 -6 c22 -3 48 -11 56 -18 19 -16 11 -55 -19 -87 -19 -21 -28 -23 -72 -18
-27 4 -65 12 -84 18 -38 12 -37 5 -10 173 6 39 11 130 11 202 l0 133 32 9 c61
18 61 18 61 -124z m1386 118 c16 -18 17 -116 5 -365 -7 -126 -11 -158 -23
-162 -20 -8 -43 11 -43 35 0 11 -4 19 -10 19 -5 0 -10 -3 -10 -8 0 -4 -19 -18
-43 -31 -37 -20 -54 -23 -110 -19 -57 3 -71 8 -97 33 -67 64 -79 203 -24 272
81 99 143 121 223 79 28 -14 54 -26 57 -26 4 0 4 20 1 44 -4 24 -4 67 0 95 5
47 8 51 33 51 15 0 34 -7 41 -17z m1521 -24 c88 -9 94 -11 131 -47 49 -47 67
-81 67 -129 0 -32 -8 -46 -45 -84 -45 -47 -53 -50 -155 -64 l-45 -7 4 -84 3
-85 -43 3 -44 3 -7 200 c-3 110 -10 216 -13 237 -6 29 -3 40 14 57 12 12 26
19 31 16 6 -4 52 -11 102 -16z m307 -5 c18 -17 29 -98 30 -219 1 -102 18 -143
71 -170 27 -14 33 -14 60 0 43 22 51 65 43 229 -6 128 -5 140 12 152 10 8 34
14 52 14 l33 0 2 -147 c2 -187 1 -199 -18 -250 -29 -80 -115 -124 -195 -103
-59 16 -124 84 -144 152 -10 33 -18 113 -22 212 l-6 158 34 -7 c19 -4 41 -13
48 -21z m2106 10 c9 -9 15 -28 13 -43 -3 -23 -7 -26 -43 -26 -37 0 -40 2 -43
30 -6 47 40 71 73 39z m-3421 -13 c40 -25 76 -74 76 -103 0 -28 -29 -73 -67
-104 -32 -26 -27 -43 21 -78 28 -21 29 -21 40 -2 6 10 20 30 32 44 50 60 77
-26 29 -95 l-24 -37 39 -36 c43 -40 49 -60 24 -84 -25 -25 -43 -19 -85 26 -22
24 -39 38 -39 31 0 -16 -75 -59 -117 -68 -54 -11 -135 19 -176 64 -64 70 -57
128 23 192 45 37 47 44 20 79 -50 64 -6 145 100 183 31 11 74 6 104 -12z m733
-7 c15 -11 37 -37 48 -57 l20 -37 -21 -21 -21 -21 -42 21 c-126 65 -241 12
-241 -109 1 -119 121 -206 210 -153 23 13 50 50 50 68 0 2 -21 5 -47 7 l-48 3
-3 41 c-4 56 12 68 72 54 26 -6 64 -7 86 -4 l40 7 0 -59 c-1 -101 -48 -171
-145 -215 -87 -40 -185 -7 -254 83 -51 68 -71 116 -71 171 0 85 52 158 153
218 46 27 59 30 119 27 48 -3 75 -9 95 -24z m1318 -3 c44 -20 105 -68 105 -82
0 -5 -20 -19 -44 -31 l-45 -21 -29 31 c-33 35 -65 41 -99 17 -28 -20 -35 -50
-14 -69 9 -8 54 -32 101 -54 102 -47 132 -76 132 -127 0 -44 -40 -108 -85
-135 -50 -31 -122 -27 -180 10 -60 38 -78 72 -52 100 25 27 41 25 77 -10 48
-49 138 -33 138 25 0 20 -11 27 -72 51 -50 18 -87 41 -115 69 -38 37 -43 48
-43 87 0 34 7 55 31 87 49 69 117 87 194 52z m-4199 -7 c58 -28 85 -69 82
-123 -3 -46 -3 -46 -37 -43 -25 2 -43 12 -65 39 -36 40 -70 46 -111 19 -34
-22 -47 -57 -48 -132 -2 -53 2 -68 31 -113 36 -59 39 -73 16 -96 -13 -13 -19
-13 -32 -3 -13 11 -14 11 -8 0 6 -10 1 -10 -21 2 -28 14 -42 36 -58 95 -4 13
-7 73 -7 133 1 138 18 171 117 218 49 24 96 25 141 4z m7889 -24 c-3 -5 -12
-10 -18 -10 -7 0 -6 4 3 10 19 12 23 12 15 0z m-7262 -54 c18 -7 51 -34 75
-58 70 -73 76 -151 18 -236 -50 -72 -97 -105 -158 -110 -51 -4 -56 -2 -108 41
-70 58 -100 109 -100 172 0 60 26 103 88 148 77 56 128 68 185 43z m4558 -120
c30 -64 57 -116 60 -116 4 0 10 12 14 28 3 15 26 69 50 120 32 66 49 92 62 92
32 0 63 -12 63 -24 0 -6 -35 -92 -78 -191 -99 -230 -108 -233 -189 -73 -43 85
-133 277 -133 283 0 8 66 10 81 3 8 -3 40 -59 70 -122z m1512 123 c31 -16 77
-60 77 -74 0 -7 -16 -20 -35 -31 l-35 -19 -23 29 c-21 25 -28 28 -59 22 -73
-13 -47 -58 42 -72 149 -23 187 -128 81 -228 -61 -58 -172 -44 -243 31 -26 27
-27 30 -12 51 19 28 39 27 89 -3 63 -39 125 -30 125 17 0 20 -14 27 -100 53
-76 23 -110 57 -110 110 0 47 19 79 64 106 35 21 105 25 139 8z m-5793 -18 c5
-11 10 -74 10 -140 0 -113 1 -121 22 -135 31 -22 91 -20 119 3 21 17 24 29 30
142 4 68 8 127 8 132 1 4 19 7 41 7 l40 0 -2 -182 -3 -183 -40 0 c-22 -1 -55
-9 -74 -19 -73 -39 -187 -2 -226 74 -16 30 -21 207 -9 283 6 34 9 37 40 37 23
0 37 -6 44 -19z m3711 -4 c57 -30 109 -105 109 -157 l0 -37 -61 -7 c-34 -3
-97 -6 -140 -6 -91 0 -100 -11 -50 -61 33 -33 75 -38 143 -17 34 10 44 9 74
-7 39 -21 34 -34 -26 -65 -83 -43 -179 -38 -236 12 -94 83 -106 218 -26 302
67 69 136 83 213 43z m388 10 c6 -8 14 -28 17 -44 6 -29 4 -31 -33 -38 -63
-12 -103 -32 -113 -60 -6 -16 -6 -58 -1 -114 12 -114 8 -131 -33 -131 -60 0
-60 1 -61 202 l0 183 35 3 c23 3 38 -2 46 -13 11 -15 15 -14 50 4 45 24 77 27
93 8z m940 -1 c15 -8 43 -32 61 -52 l32 -38 -43 -13 c-60 -18 -77 -16 -84 7
-14 44 -85 38 -134 -12 -26 -26 -31 -40 -31 -77 0 -52 19 -81 67 -105 45 -23
77 -20 112 10 25 21 38 25 64 20 73 -14 70 -42 -10 -97 -131 -90 -301 -8 -328
158 -11 67 45 158 120 197 38 20 137 21 174 2z m415 -19 c79 -61 112 -173 56
-188 -14 -4 -73 -7 -132 -8 -98 -1 -108 -3 -108 -19 0 -52 99 -88 158 -58 29
15 34 15 67 -1 47 -23 42 -42 -20 -73 -71 -36 -157 -35 -213 2 -91 61 -120
205 -59 297 42 64 80 83 153 79 48 -3 69 -10 98 -31z m-774 -166 l0 -188 -30
-6 c-60 -13 -60 -13 -60 194 l0 189 45 0 45 0 0 -189z m2080 45 c0 -2 -17 -16
-37 -31 l-38 -28 29 31 c26 28 46 40 46 28z m-113 -102 c-20 -20 -37 -33 -37
-28 0 10 64 72 69 67 3 -2 -12 -20 -32 -39z m-47 -38 c0 -2 -8 -10 -17 -17
-16 -13 -17 -12 -4 4 13 16 21 21 21 13z m-330 -300 c0 -3 -4 -8 -10 -11 -5
-3 -10 -1 -10 4 0 6 5 11 10 11 6 0 10 -2 10 -4z m-1085 -45 c25 -18 42 -37
39 -43 -5 -7 -2 -8 5 -4 7 5 21 0 32 -10 10 -9 28 -22 38 -28 10 -6 61 -40
112 -75 52 -36 108 -74 126 -85 38 -25 41 -36 10 -36 -22 0 -97 47 -247 155
-41 30 -79 58 -85 62 -5 4 -34 26 -62 48 -29 21 -53 42 -53 45 0 16 43 1 85
-29z m-280 20 c3 -5 29 -21 58 -34 28 -14 90 -53 137 -88 47 -35 97 -70 111
-77 15 -8 37 -24 50 -36 13 -12 58 -46 99 -75 41 -30 77 -58 78 -63 2 -4 8 -8
14 -8 5 0 49 -27 98 -61 l88 -61 36 24 c20 12 36 28 36 35 0 12 -96 90 -139
113 -22 11 -22 13 -7 22 16 9 56 -12 160 -85 23 -16 34 -18 55 -10 14 5 25 14
24 20 -1 6 26 36 60 67 34 30 80 71 102 92 39 35 83 59 93 50 5 -6 -31 -40
-123 -113 -81 -64 -165 -144 -165 -155 0 -4 6 -8 13 -8 15 0 200 -129 306
-214 20 -15 62 -46 94 -68 32 -22 56 -42 53 -45 -7 -7 -106 56 -106 68 0 5 -6
9 -14 9 -8 0 -28 11 -44 25 -17 14 -33 25 -37 25 -8 0 -183 116 -210 140 -25
22 -80 50 -97 50 -7 -1 -26 -12 -43 -25 l-30 -25 30 -25 c17 -13 74 -55 127
-92 98 -69 121 -92 52 -52 -22 13 -64 36 -94 53 -30 16 -70 40 -89 53 -19 13
-38 23 -43 23 -5 0 -31 -21 -59 -47 -27 -25 -52 -44 -55 -41 -3 3 18 27 45 53
28 27 51 51 51 55 0 7 -286 200 -296 200 -4 0 -27 16 -51 36 -47 39 -93 72
-213 155 -103 72 -195 149 -176 149 8 0 17 -4 21 -9z m-405 -64 c-30 -29 -86
-79 -124 -112 -38 -33 -112 -98 -165 -145 -53 -47 -125 -110 -161 -139 -36
-30 -98 -84 -139 -120 -152 -136 -199 -177 -252 -221 -29 -25 -72 -61 -94 -80
-22 -20 -56 -48 -76 -62 -20 -15 -80 -69 -134 -120 -53 -51 -105 -97 -114
-101 -31 -15 182 182 319 295 14 11 59 53 100 92 42 39 100 92 130 117 87 74
140 120 200 174 97 87 177 155 217 184 21 15 45 36 53 46 8 10 60 57 114 104
161 139 230 187 126 88z m1716 38 c-11 -8 -22 -12 -25 -9 -6 6 19 24 34 24 6
-1 1 -7 -9 -15z m-41 -35 c-3 -5 -11 -10 -16 -10 -6 0 -7 5 -4 10 3 6 11 10
16 10 6 0 7 -4 4 -10z m-7159 -71 c3 -6 -5 -3 -20 6 -14 10 -26 19 -26 22 0 7
39 -17 46 -28z m84 -66 c0 -2 -8 1 -17 6 -28 17 -53 38 -53 45 0 4 16 -5 35
-20 19 -14 35 -28 35 -31z m6885 37 c3 -5 2 -10 -4 -10 -5 0 -13 5 -16 10 -3
6 -2 10 4 10 5 0 13 -4 16 -10z m749 -29 c40 -45 2 -113 -71 -127 -27 -5 -37
-1 -64 25 l-32 32 23 25 c13 13 28 24 34 24 6 0 22 9 36 20 32 25 52 25 74 1z
m-7531 -74 c32 -22 52 -37 85 -67 10 -8 41 -32 70 -53 28 -21 52 -41 52 -44 0
-3 -8 1 -19 8 -10 8 -61 44 -112 81 -110 79 -166 125 -131 108 12 -6 37 -21
55 -33z m7006 -69 c82 -57 158 -108 168 -114 10 -7 16 -14 13 -17 -7 -7 -350
218 -350 230 0 12 37 -10 169 -99z m-5139 38 c0 -2 -8 -10 -17 -17 -16 -13
-17 -12 -4 4 13 16 21 21 21 13z m1730 -89 c0 -5 -20 8 -45 29 -25 20 -45 38
-45 41 0 7 89 -62 90 -70z m35 -25 c-3 -3 -11 0 -18 7 -9 10 -8 11 6 5 10 -3
15 -9 12 -12z m1410 -1 c-48 -30 -72 -61 -106 -141 -29 -68 -31 -81 -25 -147
7 -85 36 -157 96 -233 l43 -55 -46 44 c-64 62 -105 143 -116 231 -12 91 -8
124 18 180 44 93 57 107 116 128 46 16 53 14 20 -7z m-4750 -71 c3 -6 -1 -7
-9 -4 -18 7 -21 14 -7 14 6 0 13 -4 16 -10z m77 -53 c7 -6 28 -24 46 -40 19
-15 29 -27 24 -27 -6 0 -30 16 -54 36 -55 46 -53 44 -40 44 6 0 17 -6 24 -13z
m4430 -90 c-5 -107 11 -178 60 -267 24 -42 26 -51 10 -37 -36 32 -81 130 -92
202 -11 70 2 195 20 195 4 0 5 -42 2 -93z m233 -40 c0 -110 1 -115 37 -187 20
-41 35 -76 33 -78 -2 -2 -19 25 -39 61 -38 67 -56 138 -56 218 0 40 13 99 22
99 2 0 3 -51 3 -113z m1275 4 c0 -5 -7 -11 -14 -14 -10 -4 -13 -1 -9 9 6 15
23 19 23 5z m-1580 -201 c16 -40 28 -76 26 -78 -3 -2 -16 16 -29 40 -28 47
-52 127 -61 198 -5 41 -4 39 14 -20 12 -36 34 -99 50 -140z m-4115 140 c3 -6
-1 -7 -9 -4 -18 7 -21 14 -7 14 6 0 13 -4 16 -10z m4681 -101 c4 -7 0 -9 -13
-5 -23 7 -59 -16 -49 -33 5 -8 13 -7 29 4 26 18 48 19 71 2 22 -16 13 -38 -21
-54 -38 -18 -56 -16 -87 8 -32 25 -32 33 -1 64 25 26 59 33 71 14z"/>
<path d="M1960 4430 c-45 -45 -11 -100 62 -100 59 0 91 66 50 103 -26 24 -87
22 -112 -3z"/>
<path d="M8012 4434 c-47 -32 -17 -104 44 -104 63 0 99 64 58 104 -20 20 -73
20 -102 0z"/>
<path d="M7407 3662 c-39 -43 0 -112 64 -112 54 0 89 78 51 113 -26 23 -94 22
-115 -1z"/>
<path d="M9218 4103 c7 -3 16 -2 19 1 4 3 -2 6 -13 5 -11 0 -14 -3 -6 -6z"/>
<path d="M9142 4074 c-33 -23 -46 -52 -32 -70 7 -7 10 -21 6 -29 -3 -9 -2 -13
4 -10 6 3 10 1 10 -6 0 -18 72 -3 91 20 21 25 13 77 -14 96 -27 19 -37 19 -65
-1z"/>
<path d="M6805 3661 c-53 -22 -74 -77 -44 -114 17 -23 28 -27 68 -27 55 0 91
29 91 71 0 47 -69 89 -115 70z"/>
<path d="M3658 3573 c-49 -30 -48 -63 2 -63 66 0 101 35 68 68 -16 16 -38 15
-70 -5z"/>
<path d="M6925 2598 c-43 -23 -64 -52 -70 -93 -10 -65 13 -109 74 -139 28 -15
57 -26 66 -26 25 0 94 70 104 106 9 34 3 72 -18 113 -24 43 -109 65 -156 39z"/>
<path d="M8087 2753 c-9 -8 -9 -76 -1 -125 7 -38 7 -38 55 -38 113 0 144 114
42 157 -34 14 -85 17 -96 6z"/>
<path d="M7583 2729 c4 -13 7 -55 7 -93 l0 -68 66 4 c78 5 104 26 104 87 0 58
-34 84 -117 89 -65 4 -66 4 -60 -19z"/>
<path d="M8578 2600 c-57 -31 -81 -68 -75 -114 10 -75 87 -124 173 -111 65 9
105 48 111 107 5 43 3 49 -34 88 -34 37 -46 43 -89 46 -36 3 -59 -1 -86 -16z"/>
<path d="M2737 2440 c-54 -43 -38 -100 29 -100 35 0 140 35 149 50 10 16 -7
39 -40 54 -46 22 -107 20 -138 -4z"/>
<path d="M2199 2580 c-122 -64 -83 -220 55 -222 57 -1 106 27 129 75 24 47 11
93 -39 137 -41 36 -90 39 -145 10z"/>
<path d="M3349 2586 c-66 -45 -86 -104 -55 -165 16 -30 45 -46 100 -56 43 -8
136 31 159 67 44 67 27 115 -56 154 -66 30 -103 30 -148 0z"/>
<path d="M4159 2587 c-19 -12 -35 -31 -37 -41 -4 -18 1 -19 64 -13 38 4 88 7
112 7 52 0 57 21 10 50 -45 27 -106 26 -149 -3z"/>
<path d="M5605 2591 c-11 -5 -33 -21 -49 -37 -25 -26 -28 -34 -24 -81 5 -62
24 -86 85 -109 59 -23 110 -8 152 44 46 54 43 102 -8 153 -35 35 -44 39 -87
38 -27 0 -58 -4 -69 -8z"/>
<path d="M6369 2449 c-14 -5 -32 -21 -39 -35 -31 -57 63 -87 146 -48 26 13 34
22 34 43 0 15 -5 32 -12 39 -14 14 -92 15 -129 1z"/>
<path d="M3517 1789 c-24 -14 -47 -69 -47 -111 0 -36 31 -95 55 -104 28 -11
83 6 114 35 66 62 26 176 -64 187 -22 2 -48 -1 -58 -7z"/>
<path d="M5230 1853 c0 -27 3 -58 6 -70 9 -33 55 -30 95 5 32 28 32 29 14 56
-20 30 -63 56 -95 56 -17 0 -20 -6 -20 -47z"/>
<path d="M4166 1895 c-22 -23 -20 -38 9 -65 23 -22 25 -22 50 -6 21 14 26 24
23 49 -3 28 -7 32 -34 35 -19 2 -38 -3 -48 -13z"/>
<path d="M4122 1686 c-18 -20 -32 -45 -32 -56 0 -24 46 -60 77 -60 24 0 83 26
83 36 0 3 -15 20 -33 37 -18 18 -39 43 -48 56 l-15 23 -32 -36z"/>
<path d="M2628 1784 c-35 -18 -48 -43 -48 -89 0 -82 57 -128 130 -106 65 19
96 90 66 149 -31 60 -90 78 -148 46z"/>
<path d="M6607 1798 c-9 -7 -21 -25 -26 -40 l-11 -28 90 0 c100 0 111 9 65 55
-27 28 -89 34 -118 13z"/>
<path d="M8316 1778 c-30 -42 -22 -48 64 -48 88 0 99 9 57 48 -33 31 -100 30
-121 0z"/>
<path d="M0 7400 c0 -30 4 -50 11 -50 6 0 46 -25 88 -55 425 -309 629 -454
703 -498 17 -10 67 -49 112 -86 44 -38 122 -94 171 -126 118 -75 220 -145 325
-221 47 -34 101 -71 122 -82 l36 -21 7 36 c5 26 2 40 -12 55 -22 25 -242 184
-411 298 -70 47 -174 119 -232 159 -58 41 -134 95 -170 120 -36 25 -132 93
-215 151 -82 58 -160 112 -172 120 -12 8 -88 63 -170 121 -81 59 -158 112
-170 118 -22 11 -23 10 -23 -39z m615 -419 c-6 -5 -25 10 -25 20 0 5 6 4 14
-3 8 -7 12 -15 11 -17z m45 -15 c0 -3 -4 -8 -10 -11 -5 -3 -10 -1 -10 4 0 6 5
11 10 11 6 0 10 -2 10 -4z m25 -26 c3 -6 -1 -7 -9 -4 -18 7 -21 14 -7 14 6 0
13 -4 16 -10z m159 -105 c11 -8 15 -15 10 -15 -6 0 -19 7 -30 15 -10 8 -14 14
-9 14 6 0 19 -6 29 -14z m79 -53 c3 -4 -5 -7 -17 -7 -14 0 -23 7 -23 18 -2 14
2 15 17 7 10 -6 21 -13 23 -18z m316 -215 c-2 -1 -13 -9 -24 -17 -19 -14 -19
-14 -6 3 7 9 18 17 24 17 6 0 8 -1 6 -3z m51 -37 c8 -5 11 -10 5 -10 -5 0 -17
5 -25 10 -8 5 -10 10 -5 10 6 0 17 -5 25 -10z"/>
<path d="M2828 7373 c7 -3 16 -2 19 1 4 3 -2 6 -13 5 -11 0 -14 -3 -6 -6z"/>
<path d="M0 7267 c0 -43 4 -67 12 -70 7 -2 78 -51 156 -108 79 -57 201 -143
270 -192 70 -48 145 -102 168 -121 23 -19 69 -50 102 -69 62 -34 142 -100 142
-117 0 -5 21 -24 48 -41 26 -18 52 -38 57 -44 19 -22 92 -74 163 -117 79 -48
276 -181 307 -208 20 -17 110 -70 118 -70 3 0 8 23 12 52 8 60 24 43 -163 176
-68 48 -155 111 -195 139 -40 29 -98 70 -131 90 -32 21 -74 48 -93 61 -19 12
-39 20 -44 16 -5 -3 -8 -2 -7 3 6 17 -68 79 -202 168 -90 60 -287 200 -365
260 -44 34 -116 85 -160 115 -44 29 -106 73 -137 97 l-58 44 0 -64z m511 -344
c13 -16 12 -17 -3 -4 -10 7 -18 15 -18 17 0 8 8 3 21 -13z m696 -479 c-3 -3
-12 -4 -19 -1 -8 3 -5 6 6 6 11 1 17 -2 13 -5z"/>
<path d="M3098 4653 c28 -2 76 -2 105 0 28 2 5 3 -53 3 -58 0 -81 -1 -52 -3z"/>
<path d="M6135 4139 c-22 -22 -61 -56 -87 -75 -44 -33 -65 -55 -35 -38 25 15
133 103 156 128 39 42 10 29 -34 -15z"/>
<path d="M3890 4049 c62 -54 238 -167 326 -209 126 -60 115 -48 -30 29 -70 39
-135 76 -145 84 -27 25 -172 127 -179 127 -4 0 9 -14 28 -31z"/>
<path d="M5892 3956 c-77 -53 -90 -66 -35 -35 40 23 114 79 103 78 -3 0 -33
-20 -68 -43z"/>
<path d="M5695 3840 c-3 -6 1 -7 9 -4 18 7 21 14 7 14 -6 0 -13 -4 -16 -10z"/>
<path d="M5542 3783 c-24 -8 -41 -17 -39 -19 7 -7 97 17 103 27 7 13 -14 10
-64 -8z"/>
<path d="M4386 3772 c5 -5 36 -17 69 -26 33 -10 80 -23 105 -31 129 -37 155
-40 410 -40 174 1 265 5 285 13 l30 12 -30 -6 c-16 -3 -108 -8 -203 -11 -260
-8 -378 8 -596 78 -65 21 -86 24 -70 11z"/>
<path d="M5298 3703 c6 -2 18 -2 25 0 6 3 1 5 -13 5 -14 0 -19 -2 -12 -5z"/>
</g>
</svg>
