<?xml version="1.0" standalone="no"?>
<!DOCTYPE svg PUBLIC "-//W3C//DTD SVG 20010904//EN"
 "http://www.w3.org/TR/2001/REC-SVG-20010904/DTD/svg10.dtd">
<svg version="1.0" xmlns="http://www.w3.org/2000/svg"
 width="1024.000000pt" height="1024.000000pt" viewBox="0 0 1024.000000 1024.000000"
 preserveAspectRatio="xMidYMid meet">

<g transform="translate(0.000000,1024.000000) scale(0.100000,-0.100000)"
fill="#000000" stroke="none">
<path d="M0 5120 l0 -5120 5120 0 5120 0 0 5120 0 5120 -5120 0 -5120 0 0
-5120z m2080 5030 c0 -5 -4 -10 -10 -10 -5 0 -10 5 -10 10 0 6 5 10 10 10 6 0
10 -4 10 -10z m3050 0 c0 -5 -4 -10 -10 -10 -5 0 -10 5 -10 10 0 6 5 10 10 10
6 0 10 -4 10 -10z m2471 -13 c-13 -13 -26 -3 -16 12 3 6 11 8 17 5 6 -4 6 -10
-1 -17z m-6321 9 c0 -11 -19 -15 -25 -6 -3 5 1 10 9 10 9 0 16 -2 16 -4z m990
-6 c0 -5 -2 -10 -4 -10 -3 0 -8 5 -11 10 -3 6 -1 10 4 10 6 0 11 -4 11 -10z
m935 0 c3 -5 1 -10 -4 -10 -6 0 -11 5 -11 10 0 6 2 10 4 10 3 0 8 -4 11 -10z
m5275 -180 c0 -5 -2 -10 -4 -10 -3 0 -8 5 -11 10 -3 6 -1 10 4 10 6 0 11 -4
11 -10z m-3798 -192 c-7 -7 -12 -8 -12 -2 0 14 12 26 19 19 2 -3 -1 -11 -7
-17z m178 8 c0 -3 -4 -8 -10 -11 -5 -3 -10 -1 -10 4 0 6 5 11 10 11 6 0 10 -2
10 -4z m-1083 -632 c-3 -3 -12 -4 -19 -1 -8 3 -5 6 6 6 11 1 17 -2 13 -5z
m2298 -4 c3 -5 1 -10 -4 -10 -6 0 -11 5 -11 10 0 6 2 10 4 10 3 0 8 -4 11 -10z
m-922 -17 c-7 -2 -19 -2 -25 0 -7 3 -2 5 12 5 14 0 19 -2 13 -5z m465 -487
c278 -58 535 -150 737 -262 593 -331 1008 -824 1227 -1459 96 -275 131 -503
131 -835 0 -241 -14 -368 -69 -614 -47 -213 -167 -510 -285 -704 -170 -280
-465 -606 -721 -797 -184 -138 -465 -288 -663 -354 -408 -135 -463 -145 -825
-145 -301 -1 -397 10 -646 75 -127 33 -401 140 -519 203 -99 53 -343 210 -450
289 -102 76 -349 324 -447 447 -253 320 -383 592 -492 1025 -51 203 -70 468
-55 750 11 194 24 278 79 493 88 339 220 605 467 940 174 236 408 441 705 621
160 96 218 124 396 193 175 66 324 107 521 143 180 32 176 32 476 29 257 -1
262 -2 433 -38z m-2789 -37 c39 -14 61 -54 61 -109 0 -39 6 -49 93 -140 51
-54 135 -132 187 -174 97 -77 116 -108 72 -114 -24 -4 -25 -3 -290 202 -94 72
-134 96 -165 102 -56 9 -127 77 -127 121 0 42 39 96 80 110 45 15 50 15 89 2z
m4738 -33 c33 -30 37 -38 37 -85 0 -45 -4 -56 -32 -84 -29 -28 -39 -32 -89
-33 l-57 -1 -64 -98 c-69 -106 -150 -198 -195 -222 -26 -13 -30 -13 -41 3 -9
12 -15 14 -20 6 -12 -21 -80 -14 -94 8 -9 14 -9 20 -1 20 7 0 92 80 190 177
l179 177 0 52 c0 47 3 55 35 83 51 44 102 43 152 -3z m361 -31 c16 -14 37 -43
46 -66 16 -39 16 -43 0 -68 -22 -34 -43 -46 -76 -42 -31 3 -75 -18 -103 -49
-11 -13 -51 -48 -90 -78 -38 -30 -154 -141 -257 -246 -162 -165 -190 -189
-205 -180 -30 19 -26 38 18 84 23 25 75 86 116 135 84 101 110 126 271 261
l112 95 0 55 c0 65 10 88 48 108 41 23 86 20 120 -9z m-5404 -31 c10 -4 16
-18 16 -40 0 -41 -26 -46 -56 -13 -15 17 -26 20 -56 15 -54 -9 -47 10 10 28
55 17 65 18 86 10z m5911 -65 c30 -33 35 -46 35 -87 0 -99 -76 -156 -175 -131
l-45 11 -92 -83 c-51 -45 -227 -212 -391 -371 -164 -158 -301 -288 -305 -288
-4 1 -15 17 -24 37 l-17 37 42 35 c23 20 161 151 307 291 146 141 300 289 343
329 l77 74 0 59 c0 52 4 62 33 94 59 65 150 62 212 -7z m-6437 21 c38 -24 72
-75 72 -111 0 -14 -7 -47 -17 -74 l-16 -48 99 -90 c54 -50 179 -170 276 -267
l178 -177 150 -8 c82 -4 152 -10 154 -13 2 -4 -3 -24 -11 -45 l-16 -38 -154 7
-155 7 -92 96 c-51 53 -120 128 -154 167 -33 39 -96 102 -138 140 -43 38 -107
97 -142 132 -51 49 -70 62 -96 62 -104 0 -175 111 -130 205 33 71 123 97 192
55z m570 -129 c50 -26 76 -56 102 -116 16 -39 57 -85 178 -205 198 -195 189
-185 167 -210 -10 -11 -26 -20 -36 -20 -19 0 -92 65 -251 223 -58 59 -111 107
-118 107 -6 0 -23 -11 -38 -25 -40 -37 -82 -41 -138 -15 -100 49 -113 153 -27
231 58 54 99 62 161 30z m5117 -329 c-91 -89 -165 -167 -165 -172 0 -14 -142
-130 -168 -137 -15 -3 -30 0 -39 10 -14 14 -2 29 129 159 197 195 299 285 350
308 88 39 63 0 -107 -168z m683 99 c-7 -20 -167 -200 -259 -291 -139 -138
-522 -505 -536 -513 -7 -5 -18 6 -29 29 l-17 36 204 197 c112 108 260 252 329
320 124 123 198 185 255 215 34 18 58 21 53 7z m-6439 -138 c40 -33 47 -121
15 -185 -8 -15 -14 -29 -14 -31 0 -2 35 -33 78 -68 42 -35 176 -163 298 -285
162 -162 229 -224 252 -229 50 -11 56 -26 30 -79 -12 -25 -26 -46 -31 -46 -5
0 -120 111 -256 248 -281 280 -430 421 -469 441 -64 33 -102 87 -102 147 0 28
8 44 34 70 30 30 40 34 89 34 37 0 62 -6 76 -17z m6541 2 c37 -19 70 -62 70
-92 0 -40 -36 -99 -70 -113 -17 -7 -48 -10 -70 -7 -38 5 -41 3 -112 -72 -40
-42 -193 -199 -340 -348 l-267 -273 -21 48 c-15 34 -18 48 -9 51 7 2 155 147
329 322 174 176 322 319 328 319 8 0 12 20 12 56 0 65 10 88 48 108 35 19 66
20 102 1z m-6243 -190 c272 -284 380 -370 456 -363 32 3 37 1 37 -17 0 -11
-13 -41 -28 -67 l-27 -47 -74 54 c-107 79 -500 457 -538 518 -38 59 -43 97
-14 97 12 0 84 -67 188 -175z m6458 -275 c3 -5 1 -10 -4 -10 -6 0 -11 5 -11
10 0 6 2 10 4 10 3 0 8 -4 11 -10z m-6732 -112 c12 -6 93 -83 179 -170 152
-153 198 -215 198 -265 0 -10 7 -29 16 -41 8 -12 11 -22 7 -22 -14 0 -91 68
-326 288 l-99 91 -44 -6 c-52 -7 -74 7 -74 46 0 67 81 112 143 79z m6419 -27
c39 -43 38 -89 -2 -135 -17 -19 -46 -40 -65 -46 -29 -10 -39 -8 -74 12 l-40
23 -93 -91 c-51 -50 -119 -109 -150 -132 -32 -23 -62 -51 -68 -62 -16 -29 -25
-25 -26 13 0 17 -4 40 -8 50 -10 21 30 61 182 183 54 44 100 91 111 112 38 74
98 114 161 108 34 -3 51 -11 72 -35z m-6530 -319 c-3 -53 19 -57 42 -7 9 19
23 35 30 35 23 0 280 -266 292 -302 l12 -33 126 -3 c119 -2 126 -4 126 -23 0
-11 -5 -29 -10 -40 -10 -18 -23 -19 -168 -19 -171 0 -232 6 -232 24 0 32 23
86 36 86 17 0 -94 142 -130 165 -17 11 -30 12 -56 5 -19 -6 -54 -10 -77 -10
-33 0 -46 5 -62 26 -36 46 -25 105 24 133 37 20 50 9 47 -37z m6538 34 c0 -3
-5 -17 -10 -32 -6 -15 -7 -31 -2 -38 5 -6 12 -28 15 -48 l6 -38 -49 0 c-45 0
-51 -3 -89 -46 -23 -26 -47 -68 -56 -97 -35 -113 -44 -126 -89 -132 -22 -3
-102 -5 -176 -3 l-135 3 0 43 0 43 130 4 c150 4 205 12 205 30 0 18 -28 45
-46 45 -32 0 -8 64 28 74 28 7 107 82 119 113 9 26 44 50 97 69 40 14 52 16
52 10z m-6671 -590 c23 -12 69 -13 292 -6 145 5 303 12 351 15 l87 6 -6 -38
c-3 -21 -12 -43 -19 -49 -9 -7 -128 -13 -336 -18 -287 -6 -330 -9 -385 -27
-70 -23 -97 -17 -114 28 -12 33 -4 57 28 83 30 24 63 26 102 6z m6955 -12 c18
-18 26 -37 26 -60 0 -42 -21 -49 -110 -35 -36 6 -182 11 -325 11 -143 0 -297
3 -342 7 l-83 6 0 43 c0 31 4 44 14 44 8 0 149 -5 314 -11 258 -9 304 -8 333
5 19 8 59 15 90 15 48 1 60 -3 83 -25z m-6262 -259 l-4 -45 -319 0 c-309 0
-320 1 -340 21 -30 30 -21 53 26 60 22 3 175 7 340 8 l300 1 -3 -45z m6181 24
c26 -15 21 -23 -28 -47 -44 -21 -56 -22 -380 -22 l-335 0 0 46 0 46 363 -7
c199 -4 370 -11 380 -16z m-6897 -84 c42 -17 73 -78 74 -142 0 -52 -23 -71
-98 -80 -49 -5 -53 -4 -87 30 -28 28 -35 43 -35 75 0 45 32 100 70 119 32 16
34 16 76 -2z m6981 -15 c36 -22 63 -66 63 -105 0 -15 -14 -40 -34 -63 -32 -34
-38 -37 -88 -36 -172 4 -753 2 -760 -2 -4 -3 -8 17 -8 44 l0 49 72 7 c39 4
182 6 317 5 l245 -3 17 48 c10 26 23 54 29 62 19 21 108 18 147 -6z m-6267
-154 l0 -49 -307 7 c-168 4 -310 9 -315 12 -10 6 -10 45 0 60 12 19 45 21 340
20 l282 0 0 -50z m-287 -178 l297 2 0 -45 0 -45 -282 0 c-257 0 -322 -5 -368
-24 -11 -5 -19 3 -27 25 -12 32 -29 35 -47 6 -8 -12 -6 -21 8 -36 17 -18 17
-19 -3 -26 -24 -7 -69 12 -84 36 -14 23 -2 62 30 94 28 27 29 27 103 19 41 -5
209 -8 373 -6z m6546 -37 c38 -36 41 -74 6 -97 -34 -22 -58 -14 -71 25 -7 22
-14 30 -18 22 -6 -9 -97 -11 -377 -9 l-370 3 2 35 c2 19 4 38 6 43 2 4 181 7
398 7 l393 0 31 -29z m-6219 -225 l0 -34 -67 -8 c-90 -9 -254 2 -265 18 -15
24 -8 47 15 51 12 2 88 5 170 6 l147 1 0 -34z m5666 27 c108 -5 133 -8 110
-16 -21 -7 -25 -12 -15 -18 11 -7 9 -9 -6 -9 -14 0 -16 -3 -7 -9 16 -9 -137
-21 -287 -21 l-103 0 6 32 c3 18 12 36 19 40 15 10 102 10 283 1z m1144 -173
c0 -5 -4 -10 -10 -10 -5 0 -10 5 -10 10 0 6 5 10 10 10 6 0 10 -4 10 -10z
m-1075 -25 c20 -19 25 -34 25 -76 0 -51 1 -54 67 -118 96 -94 113 -118 113
-163 l0 -38 -38 19 c-37 19 -67 49 -140 140 -18 23 -60 59 -93 82 -59 39 -99
88 -99 119 0 9 7 26 16 38 12 18 25 22 70 22 45 0 59 -4 79 -25z m-5973 -2
c39 -35 11 -88 -54 -102 -77 -16 -128 21 -107 78 14 35 26 41 88 41 37 0 60
-5 73 -17z m169 -160 c3 -18 4 -31 0 -30 -3 1 -29 -20 -57 -48 -57 -57 -194
-171 -236 -197 -24 -15 -28 -24 -28 -66 0 -75 -53 -122 -136 -122 -79 0 -124
47 -124 128 0 46 4 58 29 83 25 24 38 29 80 29 27 0 61 -5 75 -11 23 -11 30
-6 108 73 47 47 107 100 134 118 27 18 60 44 72 57 35 35 74 28 83 -14z m5674
-108 c32 -27 89 -78 125 -111 36 -34 77 -64 91 -67 20 -5 31 -19 47 -58 21
-49 22 -51 59 -47 41 3 51 -11 39 -58 -5 -20 -12 -24 -45 -24 -34 0 -45 7 -87
53 -27 28 -100 103 -164 165 -68 67 -107 112 -95 110 12 -2 21 4 23 16 3 12
-1 17 -10 14 -7 -3 -20 3 -28 12 -8 9 -23 19 -32 23 -9 3 -16 15 -15 26 1 23
-3 25 92 -54z m-5471 19 c3 -9 6 -24 6 -35 0 -11 -129 -148 -331 -351 -183
-183 -340 -346 -350 -362 -10 -16 -33 -34 -51 -40 -18 -6 -39 -23 -47 -38 -14
-25 -14 -29 5 -55 12 -15 28 -29 36 -31 21 -4 96 61 340 293 222 210 369 347
413 384 27 23 29 23 42 5 32 -43 32 -43 -372 -430 -306 -293 -346 -324 -417
-324 -64 0 -128 71 -128 141 0 43 40 97 110 148 38 28 70 56 70 61 0 25 634
650 660 650 4 0 11 -7 14 -16z m5294 -131 c81 -82 231 -238 335 -348 104 -110
218 -226 253 -259 70 -63 98 -106 89 -136 -9 -29 -130 -150 -149 -150 -46 0
-67 18 -423 371 -226 224 -313 304 -347 320 -25 11 -46 26 -46 34 0 23 33 85
45 85 16 0 167 -142 475 -445 274 -270 332 -318 355 -294 7 8 14 21 15 29 7
51 -3 67 -87 150 -299 293 -713 719 -713 734 0 26 19 56 36 56 8 0 81 -66 162
-147z m91 126 c13 -11 21 -22 19 -25 -3 -3 -19 6 -34 20 -34 30 -20 35 15 5z
m-5209 -434 c18 -22 -12 -57 -254 -295 -249 -244 -364 -351 -420 -392 -37 -27
-42 -28 -53 -12 -10 13 -9 22 2 43 16 31 530 539 624 618 69 57 82 61 101 38z
m5125 -307 c121 -123 254 -258 294 -301 69 -73 72 -80 57 -95 -16 -16 -19 -16
-51 3 -57 34 -273 236 -414 388 l-134 145 -58 7 c-32 4 -62 4 -68 1 -12 -8
-91 4 -91 14 0 3 17 25 38 47 l37 41 85 -14 85 -14 220 -222z m-5006 103 c10
-6 10 -13 2 -29 -12 -22 -104 -108 -133 -123 -15 -8 -18 -6 -18 19 0 23 14 43
58 86 59 57 67 62 91 47z m-1599 -65 c0 -3 -4 -8 -10 -11 -5 -3 -10 -1 -10 4
0 6 5 11 10 11 6 0 10 -2 10 -4z m1730 -67 c0 -33 -54 -102 -146 -185 -48 -44
-137 -127 -199 -186 -61 -60 -114 -108 -117 -108 -3 0 -9 18 -13 40 -6 36 -3
44 31 86 39 47 250 241 357 327 64 51 87 58 87 26z m4361 -42 c150 -128 336
-323 365 -383 l27 -56 48 4 c57 6 73 -2 65 -30 -12 -37 -56 -72 -92 -72 -30 0
-36 6 -73 69 -31 53 -88 115 -250 272 -189 185 -209 207 -204 232 8 41 32 34
114 -36z m347 -70 c45 -46 82 -89 82 -95 0 -19 -45 -14 -68 7 -23 19 -29 41
-12 41 6 0 10 5 10 10 0 6 -6 10 -13 10 -8 0 -22 9 -32 20 -10 11 -23 20 -30
20 -10 0 -55 52 -55 65 0 3 8 5 18 5 9 0 54 -37 100 -83z m-541 -161 c48 -40
114 -100 146 -134 47 -50 57 -66 57 -96 0 -20 -3 -36 -6 -36 -11 0 -314 293
-314 305 0 10 19 35 27 35 1 0 42 -33 90 -74z m-4001 27 c-27 -52 -117 -142
-211 -213 -89 -67 -94 -72 -85 -96 6 -14 10 -45 10 -69 0 -83 -92 -139 -162
-98 -59 35 -74 129 -29 185 17 20 28 23 98 23 l78 0 3 32 c2 24 20 47 75 100
119 112 165 148 199 154 18 4 34 7 36 8 1 0 -4 -11 -12 -26z m-1161 -129 c30
-8 65 -76 65 -125 0 -81 -59 -139 -141 -139 -36 0 -48 6 -85 44 -43 42 -50 62
-44 121 7 74 111 125 205 99z m6387 -12 c85 -56 100 -145 37 -217 -106 -121
-294 2 -233 154 23 59 55 81 118 81 32 0 61 -7 78 -18z m-5896 -100 c41 -33
56 -120 30 -170 -31 -60 -78 -79 -137 -55 -70 27 -104 105 -74 164 29 56 63
79 114 79 28 0 54 -7 67 -18z m794 -82 c3 -3 33 -26 68 -51 75 -55 180 -146
244 -211 25 -27 51 -48 57 -48 6 0 13 0 16 0 12 -1 190 -94 193 -101 2 -5 8
-9 14 -9 6 0 27 -12 47 -27 19 -16 45 -31 56 -35 11 -3 -102 -6 -251 -7 -233
-1 -273 1 -278 14 -3 8 -12 15 -21 15 -11 0 -15 12 -15 50 0 42 -3 50 -18 50
-25 0 -49 45 -34 62 5 7 11 24 12 38 0 14 2 48 4 75 3 49 2 51 -53 105 -93 92
-168 196 -90 125 24 -22 46 -42 49 -45z m5960 60 c0 -5 -2 -10 -4 -10 -3 0 -8
5 -11 10 -3 6 -1 10 4 10 6 0 11 -4 11 -10z m-1712 -24 c82 -45 80 -177 -3
-212 -51 -21 -81 -17 -119 16 -39 35 -51 72 -41 131 5 31 14 45 39 60 36 22
90 24 124 5z m-658 -147 c0 -18 5 -29 14 -29 15 0 46 -78 46 -117 0 -13 5 -23
11 -23 12 0 5 -31 -19 -78 -12 -23 -22 -32 -34 -28 -10 2 -18 0 -18 -5 0 -5
-5 -9 -11 -9 -16 0 -39 -26 -39 -44 0 -10 9 -16 23 -17 21 0 21 -1 2 -8 -19
-8 -18 -9 5 -13 14 -3 -112 -6 -280 -7 l-305 -1 35 21 c19 12 73 49 120 83 47
33 110 75 141 91 31 17 110 73 175 127 65 53 122 94 126 92 5 -3 8 -18 8 -35z
m-3678 -41 c-15 -15 -26 -4 -18 18 5 13 9 15 18 6 9 -9 9 -15 0 -24z m-164
-176 c3 -20 0 -23 -20 -20 -15 2 -24 11 -26 26 -3 20 0 23 20 20 15 -2 24 -11
26 -26z m4032 7 c0 -5 -4 -9 -10 -9 -5 0 -10 7 -10 16 0 8 5 12 10 9 6 -3 10
-10 10 -16z m150 1 c0 -14 -15 -19 -29 -10 -17 10 -5 31 14 23 8 -3 15 -9 15
-13z m-4016 1 c3 -5 0 -11 -8 -14 -15 -6 -26 1 -26 15 0 11 27 10 34 -1z
m-2549 -201 c3 -5 1 -10 -4 -10 -6 0 -11 5 -11 10 0 6 2 10 4 10 3 0 8 -4 11
-10z m4538 -241 c46 -80 94 -179 159 -333 27 -66 70 -160 95 -209 24 -49 48
-100 53 -113 l10 -24 -90 0 c-55 0 -90 4 -90 10 0 6 -20 45 -45 88 -24 42 -56
109 -70 147 -14 39 -40 102 -57 142 l-31 72 -35 -77 c-49 -110 -68 -162 -75
-202 -6 -29 -5 -32 4 -15 31 55 88 69 149 36 33 -17 78 -76 67 -87 -10 -10
-116 -16 -170 -10 -41 5 -57 12 -59 24 -4 19 -53 -58 -63 -100 -6 -24 -10 -25
-102 -32 -53 -4 -98 -4 -100 -2 -3 3 15 49 40 103 25 54 58 127 72 163 43 103
225 473 242 493 23 25 49 5 96 -74z m-2324 -53 c33 -61 82 -163 109 -226 28
-63 80 -177 116 -253 36 -76 66 -142 66 -147 0 -6 -39 -10 -92 -10 l-93 1 -29
65 c-20 45 -32 62 -40 54 -12 -12 -242 -14 -250 -2 -3 5 11 32 30 60 29 44 39
52 67 53 17 0 43 2 57 3 14 2 35 0 47 -5 l22 -8 -19 47 c-10 26 -34 83 -54
127 -32 74 -35 78 -44 55 -87 -221 -136 -339 -164 -387 l-34 -58 -87 -3 c-48
-1 -87 -1 -87 2 0 13 117 288 170 401 34 72 75 163 91 203 53 132 65 150 101
154 18 2 39 -1 45 -6 7 -4 40 -58 72 -120z m396 128 c15 -6 235 -253 296 -334
15 -19 29 -33 31 -30 2 3 31 46 63 95 33 50 95 127 140 172 75 77 83 82 132
88 l51 7 6 -94 c3 -51 8 -222 12 -380 l6 -288 -80 0 -79 0 -6 128 c-4 70 -7
168 -8 217 0 50 -3 83 -6 75 -9 -23 -50 -76 -147 -192 l-88 -107 -46 67 c-25
37 -66 96 -91 132 l-46 65 -6 -40 c-4 -22 -10 -98 -14 -170 -9 -189 -2 -175
-89 -175 l-73 0 -6 203 c-9 254 -9 530 -1 551 7 17 22 20 49 10z m3448 -12
c17 -19 175 -340 222 -452 15 -36 52 -114 82 -174 30 -59 53 -110 51 -111 -2
-2 -37 -7 -79 -11 l-76 -6 -35 63 c-23 40 -41 62 -49 60 -31 -10 -198 -12
-247 -3 l-53 9 -37 -63 -36 -64 -88 0 c-48 0 -88 2 -88 3 0 6 256 540 331 691
22 43 39 66 53 69 12 2 24 5 27 6 3 0 13 -7 22 -17z m1584 -38 l92 -46 -34
-50 c-19 -28 -35 -56 -35 -64 0 -18 -10 -18 -36 0 -11 8 -46 22 -78 31 -104
30 -186 6 -186 -56 0 -37 21 -50 140 -89 118 -39 173 -70 210 -121 60 -83 49
-182 -26 -248 -120 -106 -297 -108 -467 -6 l-62 38 57 59 58 58 37 -24 c51
-33 147 -60 191 -53 43 7 72 33 72 63 0 33 -24 52 -88 70 -166 46 -232 82
-269 149 -45 79 -22 201 49 260 36 31 101 65 143 76 61 16 136 1 232 -47z
m-6242 -3 c7 -46 -2 -460 -11 -518 l-5 -33 172 0 171 0 -6 -23 c-3 -13 -8 -49
-12 -80 l-7 -57 -232 0 -232 0 -7 46 c-3 26 -6 196 -6 378 l0 331 84 0 84 0 7
-44z m5519 22 c89 -28 166 -125 166 -211 0 -31 -22 -71 -59 -106 -17 -17 -31
-33 -31 -37 0 -3 13 -12 29 -19 39 -16 76 -58 90 -102 26 -80 -36 -174 -148
-226 -53 -25 -67 -27 -238 -30 -101 -2 -194 -1 -208 2 l-25 6 0 128 c0 70 3
239 7 375 l6 248 181 -6 c120 -5 198 -12 230 -22z m1127 9 c-7 -2 -18 1 -23 6
-8 8 -4 9 13 5 13 -4 18 -8 10 -11z m-4246 -7 c118 -31 228 -117 273 -213 22
-48 27 -71 27 -147 0 -76 -4 -98 -26 -145 -47 -100 -145 -175 -282 -215 -40
-12 -97 -16 -197 -17 -78 0 -143 2 -145 4 -2 1 -5 171 -7 376 l-3 372 150 0
c103 0 170 -5 210 -15z m1495 -280 l0 -295 83 -2 c45 -2 120 -3 167 -3 l85 0
-3 -33 c-2 -18 -9 -52 -16 -75 l-12 -42 -237 -3 -237 -2 0 375 0 375 85 0 85
0 0 -295z m3500 -479 c0 -3 -4 -8 -10 -11 -5 -3 -10 -1 -10 4 0 6 5 11 10 11
6 0 10 -2 10 -4z m-4989 -175 c36 -36 36 -51 3 -90 l-26 -31 22 -30 c24 -34
40 -39 40 -12 0 23 19 42 42 42 23 0 25 -52 3 -70 -19 -16 -19 -39 0 -64 20
-26 19 -33 -6 -41 -15 -5 -25 -1 -36 14 l-15 22 -32 -21 c-19 -11 -42 -20 -52
-20 -43 0 -114 71 -114 115 0 10 12 29 27 41 27 21 27 21 9 57 -19 42 -13 62
30 96 37 29 70 26 105 -8z m901 6 c3 -6 10 -53 13 -104 7 -85 10 -96 32 -110
18 -12 31 -14 51 -7 27 9 27 11 32 119 5 109 5 110 30 110 25 0 25 0 28 -105
3 -114 -6 -149 -46 -180 -40 -32 -97 -27 -137 13 -42 42 -55 89 -55 200 0 87
0 88 23 81 12 -4 25 -11 29 -17z m1201 14 c18 -7 34 -32 62 -98 20 -48 41 -92
45 -96 4 -5 22 29 39 75 40 106 45 114 67 110 11 -2 21 -6 23 -8 16 -15 -98
-288 -125 -298 -16 -6 -23 7 -87 154 -42 100 -65 170 -53 170 2 0 16 -4 29 -9z
m1161 -12 c31 -24 38 -76 9 -64 -36 15 -64 17 -78 5 -24 -20 -18 -29 38 -54
75 -33 99 -95 57 -149 -29 -36 -53 -41 -111 -22 -54 18 -69 36 -49 60 10 13
16 13 46 0 78 -32 87 25 11 66 -86 46 -94 71 -46 133 38 48 82 57 123 25z
m-4836 -9 c44 -20 52 -39 27 -60 -13 -10 -24 -11 -56 -1 -34 10 -44 10 -65 -4
-50 -33 -56 -88 -13 -133 18 -20 29 -23 83 -20 55 3 61 1 61 -17 0 -24 -56
-55 -99 -55 -66 0 -146 92 -146 167 0 43 38 94 90 121 54 27 63 27 118 2z
m162 -6 c6 -14 10 -68 10 -120 l0 -94 55 0 55 0 0 -34 0 -34 -77 -4 c-43 -2
-80 -2 -83 0 -7 5 -13 281 -6 298 9 23 36 16 46 -12z m590 -87 c4 -93 8 -111
24 -123 25 -18 36 -18 64 2 20 14 22 23 22 119 0 57 3 106 8 108 4 3 19 3 35
0 27 -5 27 -5 27 -93 0 -115 -7 -145 -42 -180 -57 -57 -127 -49 -175 20 -21
30 -23 45 -23 147 l0 114 28 -3 27 -3 5 -108z m1294 92 c50 -40 23 -80 -39
-58 -47 17 -83 5 -102 -35 -28 -60 12 -136 71 -136 57 0 78 43 26 54 -16 3
-30 12 -30 20 0 26 25 36 74 30 l46 -7 0 -61 0 -61 -43 -17 c-71 -30 -111 -24
-162 23 -83 77 -83 154 2 228 38 34 53 41 88 41 28 0 51 -7 69 -21z m215 11
c47 0 57 -4 87 -34 56 -56 44 -115 -33 -155 -12 -6 -38 -11 -57 -11 l-36 0 0
-50 c0 -46 -2 -50 -24 -50 -13 0 -27 7 -30 16 -3 9 -6 79 -6 156 l0 140 23 -6
c12 -3 46 -6 76 -6z m750 -16 c54 -45 35 -71 -33 -47 -29 10 -42 10 -52 2 -23
-19 -17 -27 39 -55 28 -14 60 -33 70 -42 47 -42 -8 -141 -80 -142 -36 0 -103
35 -103 55 0 19 27 38 35 25 12 -20 55 -31 76 -19 32 17 18 41 -41 74 -85 48
-91 110 -15 157 41 25 68 23 104 -8z m1025 -35 c3 -34 6 -102 6 -150 0 -87 0
-89 -24 -89 -13 0 -27 7 -30 16 -3 9 -6 73 -6 144 0 128 2 137 36 139 6 1 14
-25 18 -60z m286 41 c44 -23 49 -38 21 -64 -18 -17 -22 -17 -43 -2 -71 50
-159 -37 -117 -115 17 -32 64 -48 108 -36 74 20 97 -22 31 -55 -48 -24 -91
-22 -131 5 -105 70 -104 193 1 265 41 27 79 28 130 2z m300 1 c0 -44 -10 -51
-71 -51 -59 0 -59 0 -59 -30 0 -29 1 -30 50 -30 44 0 50 -3 50 -20 0 -23 -19
-33 -67 -34 -23 -1 -35 -7 -39 -20 -9 -27 5 -35 71 -38 59 -3 60 -4 60 -32 l0
-28 -93 -2 -92 -1 0 147 0 147 68 4 c37 2 79 4 95 5 21 2 27 -2 27 -17z
m-4087 -2 c102 -53 123 -170 43 -248 -83 -80 -181 -50 -237 74 -26 56 -24 79
11 118 52 60 130 83 183 56z m645 -9 c72 -44 92 -129 47 -205 -31 -53 -75 -75
-152 -75 l-60 0 -6 114 c-3 62 -3 130 0 150 l6 36 66 0 c48 0 75 -5 99 -20z
m2142 6 c0 -38 -12 -46 -70 -46 -44 0 -59 -4 -64 -16 -14 -38 -7 -44 50 -44
54 0 55 0 52 -27 -3 -26 -7 -28 -53 -33 -42 -4 -50 -8 -53 -27 -3 -19 1 -23
25 -23 15 0 45 -3 66 -6 33 -6 37 -10 37 -35 l0 -29 -90 0 -90 0 0 53 c0 28
-3 96 -7 150 l-6 97 101 0 c81 0 102 -3 102 -14z m232 2 c55 -45 64 -114 19
-159 l-29 -29 34 -42 c19 -24 34 -47 34 -51 0 -5 -14 -7 -32 -5 -24 2 -38 12
-55 38 -33 50 -42 60 -58 60 -11 0 -15 -13 -15 -50 0 -46 -2 -50 -24 -50 -32
0 -36 19 -36 173 l0 127 73 0 c44 0 79 -5 89 -12z m-3924 -130 l-3 -23 -237 0
c-167 0 -240 3 -249 12 -29 29 4 33 247 33 l245 0 -3 -22z m5747 12 c23 -9 25
-13 14 -26 -11 -14 -39 -15 -199 -12 -183 3 -220 10 -220 39 0 13 373 11 405
-1z m-2945 -876 c0 -8 -4 -14 -10 -14 -5 0 -10 9 -10 21 0 11 5 17 10 14 6 -3
10 -13 10 -21z m-630 12 c0 -3 -4 -8 -10 -11 -5 -3 -10 -1 -10 4 0 6 5 11 10
11 6 0 10 -2 10 -4z m830 -6 c0 -5 -4 -10 -10 -10 -5 0 -10 5 -10 10 0 6 5 10
10 10 6 0 10 -4 10 -10z m-373 -6 c-3 -3 -12 -4 -19 -1 -8 3 -5 6 6 6 11 1 17
-2 13 -5z m13 -170 c0 -2 -7 -4 -15 -4 -8 0 -15 4 -15 10 0 5 7 7 15 4 8 -4
15 -8 15 -10z m-820 -184 c0 -5 -5 -10 -11 -10 -5 0 -7 5 -4 10 3 6 8 10 11
10 2 0 4 -4 4 -10z m-1133 -246 c-3 -3 -12 -4 -19 -1 -8 3 -5 6 6 6 11 1 17
-2 13 -5z m1940 -190 c-3 -3 -12 -4 -19 -1 -8 3 -5 6 6 6 11 1 17 -2 13 -5z"/>
<path d="M4865 8499 c-212 -20 -427 -74 -657 -165 -192 -76 -239 -100 -408
-214 -426 -287 -705 -624 -903 -1090 -294 -691 -256 -1484 100 -2125 74 -132
126 -205 249 -351 180 -212 231 -258 556 -501 275 -204 668 -362 1028 -413
159 -22 400 -27 556 -10 102 11 390 81 529 130 125 43 369 166 495 248 243
159 467 371 671 637 217 282 377 667 434 1045 65 424 23 871 -116 1255 -38
105 -157 342 -231 459 -58 91 -205 279 -294 376 -210 227 -598 480 -914 593
-141 51 -368 105 -515 122 -137 16 -439 18 -580 4z m85 -404 c0 -146 -3 -265
-7 -265 -5 0 -25 -4 -45 -9 l-38 -9 0 268 0 269 23 4 c12 2 32 5 45 6 l22 1 0
-265z m-230 -37 l-1 -283 -44 -21 -45 -21 0 298 0 298 38 4 c20 2 40 4 45 5 4
1 7 -125 7 -280z m791 243 c37 -37 40 -93 7 -128 -12 -13 -27 -23 -34 -23 -9
0 -11 -44 -10 -174 0 -96 -2 -178 -7 -182 -4 -4 -20 -3 -35 2 -21 7 -28 18
-33 49 -4 22 -12 54 -19 71 -12 28 -11 35 7 65 12 19 24 57 28 84 4 28 11 58
16 67 7 12 1 24 -21 47 -46 46 -34 118 24 141 35 14 46 11 77 -19z m-275 -6
c71 -54 69 -145 -3 -211 l-45 -42 -1 -102 -2 -102 -39 -4 -39 -3 6 116 c5 115
5 117 -24 168 -45 79 -37 153 19 188 40 24 90 21 128 -8z m606 -72 c3 -53 5
-57 33 -66 140 -45 171 -233 55 -331 -17 -14 -42 -26 -56 -26 l-24 0 0 -120 0
-120 -37 23 -38 24 -3 97 c-3 91 -4 96 -25 96 -32 1 -63 21 -92 60 -79 107
-46 240 73 292 42 19 42 19 42 71 l0 52 35 2 34 3 3 -57z m-1449 -54 c32 -17
77 -60 93 -91 18 -34 18 -119 0 -161 -11 -27 -38 -55 -103 -107 -8 -7 -11 -49
-10 -142 2 -106 -1 -132 -12 -136 -8 -3 -25 -16 -37 -29 -31 -33 -34 -19 -34
155 l0 147 -41 23 c-109 63 -134 220 -47 298 55 50 140 69 191 43z m1977 -239
l5 -55 48 -7 c135 -19 227 -142 227 -302 0 -75 -32 -149 -81 -190 -41 -35
-125 -76 -156 -76 -22 0 -23 -4 -23 -81 l0 -80 -37 3 -38 3 0 74 0 73 -64 23
c-83 30 -107 49 -156 119 l-40 58 0 106 c0 97 3 112 27 159 33 62 95 108 167
125 l51 11 6 49 c6 46 9 49 33 46 24 -3 26 -8 31 -58z m-2459 -41 c158 -48
213 -278 93 -391 -60 -56 -162 -74 -238 -43 -79 33 -146 137 -146 224 0 27 38
114 62 141 22 27 72 58 108 68 48 14 76 14 121 1z m1451 -228 c164 -43 320
-135 466 -275 98 -95 160 -182 202 -285 l26 -65 70 -2 c131 -4 248 -58 339
-155 51 -55 102 -152 113 -219 7 -42 9 -44 75 -71 99 -40 170 -86 238 -154
145 -147 207 -304 216 -550 6 -150 -7 -229 -58 -350 -90 -217 -253 -377 -484
-475 -194 -82 -150 -79 -1290 -86 -1076 -6 -1258 -1 -1410 36 -97 24 -227 80
-297 128 -77 53 -196 171 -243 241 -55 84 -120 243 -136 335 -7 41 -10 122 -7
200 4 117 8 142 40 233 19 56 50 128 69 159 48 81 152 184 230 228 62 34 67
39 73 78 13 79 64 168 140 243 114 112 222 157 365 154 l74 -2 23 68 c75 224
303 450 555 552 159 64 436 79 611 34z m-1841 -80 c42 -42 42 -90 1 -133 -33
-35 -74 -37 -107 -4 -51 51 -44 119 15 148 47 24 57 23 91 -11z m3331 -62 c37
-17 61 -59 66 -114 4 -47 1 -55 -27 -88 -18 -20 -41 -37 -52 -39 -18 -3 -20
-12 -23 -83 -2 -44 -7 -121 -11 -172 -10 -111 -2 -134 63 -184 58 -45 82 -53
151 -50 67 3 84 11 121 63 31 43 39 71 17 63 -8 -4 -13 6 -13 33 -2 50 -28 98
-64 117 -53 27 -86 18 -153 -41 -40 -37 -45 -38 -66 -25 -31 19 36 138 92 164
43 21 109 22 145 3 35 -18 75 -62 97 -105 25 -51 32 -188 11 -228 -16 -31 -80
-90 -123 -112 -13 -6 -23 -21 -23 -32 0 -19 5 -20 53 -15 28 3 94 7 146 8 l94
3 8 -29 c5 -17 7 -32 5 -34 -6 -6 -390 -23 -403 -18 -16 7 -17 48 -2 63 19 19
4 38 -53 66 -65 32 -142 97 -161 136 -12 24 -13 65 -8 223 6 177 5 194 -12
211 -52 52 -46 137 14 191 41 37 71 44 111 25z m-2717 -256 c-4 -10 -11 -33
-17 -50 l-9 -33 -438 0 c-241 0 -465 3 -498 6 l-60 7 24 43 25 44 490 0 c463
0 490 -1 483 -17z m-436 -245 c-12 -13 -27 -36 -34 -52 l-13 -29 -233 -3
c-129 -1 -278 0 -331 3 l-97 6 14 28 c8 15 15 35 15 43 0 8 6 17 13 19 6 3
164 6 350 6 l338 1 -22 -22z m-205 -273 c-7 -19 -14 -44 -14 -55 0 -20 -5 -20
-291 -20 l-290 0 6 23 c23 75 15 71 180 77 83 3 212 7 287 8 l137 2 -15 -35z
m-266 -241 l30 -6 -37 -49 -36 -49 -163 0 -162 0 6 43 c3 23 7 48 10 55 2 9
44 12 162 12 88 0 173 -3 190 -6z m4092 -29 c35 -18 70 -73 70 -110 0 -15 -12
-49 -27 -75 l-27 -48 11 -114 c7 -62 18 -127 25 -145 10 -28 10 -35 -7 -52
-22 -25 -52 -27 -77 -4 -16 14 -18 33 -18 164 l0 148 -27 15 c-51 26 -78 64
-77 106 2 47 24 84 67 110 38 24 49 24 87 5z m-4223 -238 c3 -4 -2 -25 -12
-47 l-18 -40 -115 0 -115 0 7 38 c3 20 6 43 6 51 0 11 22 13 120 9 66 -3 123
-8 127 -11z m-67 -258 l0 -32 -66 6 c-41 3 -72 11 -82 21 -13 13 -13 16 -1 20
8 2 21 7 29 9 8 3 39 6 68 6 52 1 52 1 52 -30z m-17 -159 c54 -43 56 -122 5
-177 -21 -23 -21 -24 -6 -120 9 -54 18 -106 20 -117 5 -27 -25 -42 -59 -30
l-28 10 -1 116 -1 116 -42 40 c-35 33 -41 45 -41 79 0 84 90 132 153 83z
m4318 -30 c23 -13 49 -61 49 -93 0 -32 -36 -77 -63 -77 -11 0 -34 12 -49 27
-37 36 -39 93 -3 128 27 28 37 30 66 15z m-40 -302 c24 -39 21 -99 -8 -130
-13 -15 -26 -19 -51 -14 -44 7 -60 21 -68 61 -16 89 82 154 127 83z m-4101
-223 c98 -50 65 -225 -41 -225 -69 0 -128 74 -115 144 15 79 88 116 156 81z
m3963 -36 c52 -24 65 -126 23 -172 -70 -75 -174 -16 -163 93 8 74 72 110 140
79z m-3736 -271 c80 -73 60 -206 -32 -224 -38 -7 -78 11 -115 51 -20 21 -25
37 -24 76 1 107 100 162 171 97z m3546 -16 c59 -56 60 -151 2 -209 -45 -45
-104 -46 -163 -3 -49 35 -66 81 -50 138 27 101 140 141 211 74z m-486 -87 c64
-19 138 -84 178 -157 27 -48 30 -61 30 -148 0 -85 -3 -100 -27 -141 -32 -54
-81 -100 -141 -131 -50 -26 -178 -31 -239 -10 -52 19 -131 101 -169 177 -29
59 -31 71 -27 137 14 206 196 332 395 273z m-2067 -30 c4 -3 8 -178 8 -389 l1
-384 -125 -7 c-132 -8 -221 -2 -279 18 l-36 13 36 12 35 13 0 75 c0 83 1 84
73 47 38 -19 34 -39 -19 -76 -56 -39 -37 -48 35 -16 59 25 118 85 158 161 25
47 28 63 28 143 -1 107 -23 166 -88 233 -58 60 -79 69 -195 82 -113 12 -159 5
-221 -35 -89 -56 -118 -117 -128 -261 -5 -83 -4 -96 19 -145 30 -63 44 -119
30 -119 -17 0 -84 81 -105 129 -20 42 -22 67 -25 285 l-4 239 397 -6 c218 -4
400 -9 405 -12z m327 -117 c-4 -66 -7 -296 -7 -510 l0 -388 -50 0 -50 0 0 510
0 510 57 0 56 0 -6 -122z m238 10 c0 -60 -1 -298 -3 -530 l-2 -423 -44 -2 -43
-2 -7 392 c-4 216 -4 456 0 535 l7 143 46 -3 46 -3 0 -107z m242 -235 c-4
-190 -7 -436 -7 -545 l0 -198 -45 0 -45 0 0 545 0 545 52 0 51 0 -6 -347z
m237 331 c4 -9 3 -245 0 -525 -7 -507 -7 -509 -28 -509 -12 0 -31 -3 -43 -6
l-23 -6 0 529 0 529 44 2 c32 1 46 -3 50 -14z m246 -466 c0 -266 -3 -493 -6
-505 -5 -19 -13 -23 -50 -23 l-44 0 0 468 c0 257 3 484 6 505 6 36 8 37 50 37
l44 0 0 -482z m238 24 c0 -333 -3 -454 -11 -457 -7 -2 -27 -6 -45 -9 l-33 -6
2 458 c1 251 3 459 4 462 2 3 21 5 43 5 l40 0 0 -453z m-1911 336 c-3 -8 -6
-5 -6 6 -1 11 2 17 5 13 3 -3 4 -12 1 -19z m-56 -4 c15 -9 10 -43 -8 -52 -37
-19 -85 -25 -94 -11 -11 17 -12 63 -1 73 7 8 86 1 103 -10z m109 -127 c13 -7
35 -28 48 -47 20 -30 23 -44 19 -91 -3 -31 -12 -68 -22 -82 -39 -61 -117 -77
-190 -41 -101 49 -104 202 -5 254 40 22 114 25 150 7z m-260 -23 c0 -54 -22
-115 -45 -124 -13 -5 -26 -14 -30 -19 -3 -6 -10 -11 -15 -11 -11 0 0 151 13
168 5 6 25 12 43 12 30 0 34 -3 34 -26z m450 7 c5 -11 10 -34 10 -52 l0 -32
-52 7 c-86 12 -97 40 -29 76 46 24 58 25 71 1z m20 -218 c0 -8 -10 -28 -21
-45 l-22 -30 -28 64 c-16 34 -29 69 -29 75 0 8 20 0 50 -18 28 -17 50 -38 50
-46z m-450 -4 c13 -24 -6 -51 -51 -75 -27 -14 -49 -4 -49 22 0 10 72 71 87 74
1 0 7 -9 13 -21z m118 -162 c2 -44 -1 -67 -8 -67 -6 0 -36 12 -66 26 -68 32
-70 52 -6 87 69 39 76 34 80 -46z m2218 39 c38 -38 43 -69 18 -122 -33 -68
-102 -79 -149 -22 -41 48 -30 122 25 165 29 23 70 15 106 -21z"/>
<path d="M5136 8235 c-21 -22 -20 -58 2 -78 26 -24 49 -21 68 9 16 24 16 27
-3 52 -25 33 -45 38 -67 17z"/>
<path d="M5741 8065 c-72 -61 -60 -155 25 -191 69 -29 154 30 154 106 0 30 -8
48 -31 75 -27 30 -37 35 -74 35 -32 0 -52 -7 -74 -25z"/>
<path d="M4266 8049 c-34 -40 -33 -74 3 -110 52 -51 110 -34 131 41 25 86 -76
138 -134 69z"/>
<path d="M6380 7807 c0 -7 -5 -19 -10 -27 -7 -12 -13 -11 -34 9 -35 33 -80 23
-134 -30 -55 -55 -76 -112 -69 -187 7 -82 28 -117 99 -162 51 -32 66 -37 100
-32 26 3 43 1 48 -7 5 -10 20 -6 57 12 101 51 147 141 124 241 -20 91 -65 144
-153 183 -22 9 -28 9 -28 0z m14 -97 c40 -26 76 -87 76 -129 0 -26 -9 -43 -44
-77 -47 -47 -70 -53 -117 -29 -88 46 -92 183 -6 235 40 25 54 25 91 0z"/>
<path d="M3804 7760 c-34 -13 -54 -50 -54 -98 0 -61 41 -102 100 -102 33 0 48
6 71 29 77 78 -15 212 -117 171z"/>
<path d="M4955 7500 c-140 -25 -317 -124 -438 -245 -88 -88 -143 -184 -187
-325 l-27 -85 -105 -1 c-252 -1 -407 -116 -455 -337 l-17 -78 -57 -30 c-138
-74 -224 -169 -281 -313 -30 -76 -32 -89 -32 -206 0 -92 5 -142 18 -190 78
-271 330 -495 610 -540 183 -29 2258 -17 2383 14 206 51 408 211 493 387 96
203 94 440 -7 631 -70 134 -186 222 -328 251 l-70 14 -12 79 c-21 147 -78 256
-153 294 -55 28 -148 48 -258 56 -73 6 -95 11 -99 23 -73 212 -181 360 -338
462 -169 111 -259 140 -450 144 -77 2 -162 0 -190 -5z m285 -215 c0 -17 -18
-19 -39 -6 -8 5 -11 16 -8 25 5 14 11 15 27 6 11 -6 20 -17 20 -25z m-213 -14
c89 -64 96 -169 16 -244 -32 -30 -86 -44 -128 -33 -37 10 -102 72 -115 112
-20 60 9 142 63 174 49 30 115 27 164 -9z m474 -54 c49 -32 83 -105 74 -157
-14 -81 -109 -151 -180 -131 -81 22 -125 78 -125 158 0 122 132 196 231 130z
m-806 -122 c31 -30 32 -73 4 -109 -60 -77 -170 31 -113 112 22 31 77 30 109
-3z m1077 -323 c24 -3 83 -56 109 -99 22 -35 22 -37 24 -642 2 -658 3 -645
-53 -705 -52 -55 -37 -54 -719 -55 l-631 0 -44 23 c-34 18 -50 36 -75 85 -32
62 -33 65 -32 194 0 73 4 209 8 302 5 94 5 294 0 445 -7 235 -6 282 6 321 16
48 68 106 111 124 17 6 236 10 652 9 345 0 635 -2 644 -2z m422 -83 c50 -39
23 -69 -62 -69 -53 0 -62 8 -62 55 0 27 11 33 61 34 23 1 46 -7 63 -20z
m-2081 -74 c45 -21 77 -72 77 -121 0 -42 -45 -125 -80 -146 -13 -9 -16 -21
-13 -53 4 -30 1 -46 -12 -58 -28 -28 -35 -20 -35 42 0 54 -2 59 -24 65 -32 8
-83 52 -101 87 -60 115 69 241 188 184z m2128 -102 c62 -53 70 -116 23 -180
-48 -63 -117 -64 -175 -1 -24 27 -29 41 -29 81 0 44 4 54 39 88 49 49 93 53
142 12z m430 -328 c69 -36 91 -137 43 -194 -47 -56 -119 -59 -187 -7 -31 24
-42 26 -126 26 -51 0 -100 -4 -110 -9 -10 -6 -74 -7 -149 -4 l-132 6 0 37 0
38 71 7 c39 4 142 4 229 0 l158 -7 16 30 c9 17 32 44 53 61 43 35 86 40 134
16z m-2731 -26 c64 -19 141 -98 165 -168 23 -70 14 -193 -20 -268 -28 -61
-103 -146 -145 -163 -19 -8 -63 -11 -122 -8 -110 5 -157 25 -212 90 -62 72
-89 140 -94 233 -7 133 34 203 155 264 85 42 175 49 273 20z m2350 -367 c68
-67 62 -151 -13 -206 -38 -28 -104 -27 -146 3 -111 80 -59 241 78 241 37 0 49
-6 81 -38z m379 23 c85 -43 109 -143 50 -209 -60 -69 -148 -67 -213 4 -29 32
-36 48 -36 81 0 58 24 97 73 120 51 22 88 24 126 4z m-2543 -300 c71 -29 89
-141 33 -201 -33 -35 -54 -38 -100 -12 -43 24 -69 62 -69 100 0 33 41 101 70
115 31 16 24 16 66 -2z m2352 -81 c29 -8 30 -49 1 -64 -11 -6 -71 -15 -132
-20 -62 -5 -134 -14 -161 -20 -64 -14 -113 1 -123 37 -13 54 59 77 160 53 32
-8 54 -7 92 4 54 15 126 20 163 10z"/>
<path d="M4906 7195 c-38 -39 -27 -86 25 -104 27 -9 33 -8 56 15 19 19 23 31
18 52 -11 49 -66 69 -99 37z"/>
<path d="M5381 7114 c-12 -15 -21 -34 -21 -44 0 -42 72 -66 104 -34 19 18 21
75 4 92 -21 21 -65 14 -87 -14z"/>
<path d="M5649 6639 c-38 -38 -6 -127 54 -148 24 -9 32 -6 59 18 50 45 40 104
-23 137 -39 20 -65 18 -90 -7z"/>
<path d="M4530 6643 c-70 -26 -78 -137 -11 -158 25 -7 74 17 95 47 45 64 -11
138 -84 111z"/>
<path d="M4783 6556 c-5 -8 -52 -61 -107 -119 l-99 -105 2 -318 2 -318 63 -60
c34 -34 85 -86 112 -117 l49 -56 155 9 c85 4 234 5 330 2 l176 -6 102 107 c57
58 107 118 112 131 6 14 10 161 10 328 l0 304 -112 112 -113 113 -337 3 c-273
2 -339 0 -345 -10z m240 -121 c-3 -9 1 -15 11 -15 9 0 16 -2 16 -4 0 -8 -97
-106 -104 -106 -3 0 -11 11 -16 25 -13 35 2 69 46 99 39 26 57 26 47 1z m373
-14 c-10 -15 -98 -71 -113 -71 -24 0 -13 19 30 49 39 28 95 43 83 22z m-536
-34 c0 -20 -56 -94 -80 -107 -12 -6 -28 -9 -36 -6 -13 5 -13 9 0 35 27 52 67
91 92 91 13 0 24 -6 24 -13z m630 -22 c17 -20 13 -26 -56 -82 -47 -39 -64 -49
-77 -41 -9 5 -17 15 -17 21 0 12 118 117 131 117 4 0 12 -7 19 -15z m85 -125
c8 -13 -9 -38 -69 -105 -38 -41 -47 -47 -56 -35 -18 28 -10 48 39 99 49 50 73
61 86 41z m-359 -21 c69 -33 124 -121 124 -196 0 -45 -38 -129 -71 -160 -83
-76 -202 -70 -282 16 -91 97 -88 220 5 309 58 55 149 68 224 31z m-447 -52 c0
6 10 11 21 10 21 -1 29 -17 9 -17 -7 0 -22 -11 -35 -25 -20 -21 -27 -24 -44
-15 -22 12 -25 27 -11 64 15 37 45 38 52 1 4 -16 7 -25 8 -18z m811 -146 c0
-11 -18 -40 -40 -65 -21 -26 -42 -62 -46 -80 -6 -36 -23 -49 -49 -40 -27 11
-16 54 26 102 22 26 48 59 57 74 19 33 52 38 52 9z m-750 -25 c0 -26 -97 -139
-112 -130 -13 8 -10 78 5 96 28 36 107 62 107 34z m709 -224 c7 -12 6 -26 -2
-42 -18 -36 -37 -37 -37 -2 0 58 20 80 39 44z m-599 -12 c0 -12 -23 -42 -52
-71 -61 -58 -96 -63 -112 -17 -10 29 -7 38 16 42 8 1 32 16 54 34 46 38 94 44
94 12z m452 -22 c16 -30 32 -45 56 -52 17 -5 32 -12 32 -16 0 -15 -50 -60 -67
-60 -20 0 -123 98 -123 116 0 15 48 54 66 54 7 0 23 -19 36 -42z m-352 -33 c0
-2 -12 -29 -27 -59 -18 -38 -32 -54 -45 -53 -22 2 -23 15 -1 47 33 51 73 86
73 65z m134 -61 c-16 -13 -38 -23 -48 -24 -18 0 -18 2 4 25 12 13 26 22 30 20
4 -3 14 2 21 11 10 12 14 13 17 4 3 -7 -8 -23 -24 -36z"/>
<path d="M5146 5643 c-6 -14 -5 -15 5 -6 7 7 10 15 7 18 -3 3 -9 -2 -12 -12z"/>
<path d="M5687 5539 c-24 -14 -47 -62 -47 -98 0 -33 30 -61 66 -61 33 0 84 63
84 105 0 52 -55 82 -103 54z"/>
<path d="M4492 5520 c-45 -42 -14 -119 54 -136 31 -8 50 1 77 39 17 22 18 30
7 56 -24 59 -96 80 -138 41z"/>
<path d="M4006 6518 c-21 -29 -20 -41 3 -62 29 -26 73 -17 85 17 13 37 -2 61
-42 65 -22 2 -34 -3 -46 -20z"/>
<path d="M6145 6421 c-9 -28 5 -51 31 -51 30 0 51 35 33 56 -17 20 -56 18 -64
-5z"/>
<path d="M3775 6061 c-115 -32 -175 -97 -175 -190 0 -55 13 -84 61 -136 29
-32 56 -49 88 -58 35 -10 50 -21 62 -45 15 -29 18 -31 30 -15 8 9 38 32 67 50
36 23 66 54 93 95 21 34 39 65 39 70 0 4 12 8 28 9 l27 1 -25 7 c-16 4 -28 17
-33 36 -5 17 -19 50 -30 75 -38 78 -145 125 -232 101z m120 -131 c25 -28 32
-103 12 -134 -36 -55 -145 -59 -172 -6 -18 34 -19 83 -4 111 24 46 131 65 164
29z"/>
<path d="M6179 5729 c-11 -6 -11 -11 -2 -20 12 -12 43 -6 43 10 0 14 -25 20
-41 10z"/>
<path d="M4078 5434 c-11 -22 -10 -28 7 -40 41 -31 69 -3 41 41 -21 32 -33 32
-48 -1z"/>
<path d="M6782 7438 c-33 -33 5 -92 42 -65 25 18 18 71 -9 75 -11 1 -26 -3
-33 -10z"/>
<path d="M7268 6391 c-20 -16 -21 -22 -10 -45 7 -15 20 -26 31 -26 39 0 52 70
16 84 -8 3 -24 -3 -37 -13z"/>
<path d="M2930 5740 c0 -37 24 -50 48 -26 20 20 6 49 -27 54 -18 3 -21 -2 -21
-28z"/>
<path d="M3114 5179 c-14 -15 -16 -24 -8 -37 28 -44 88 -8 64 38 -14 26 -32
25 -56 -1z"/>
<path d="M3324 4875 c-13 -20 -14 -28 -4 -40 24 -29 70 -11 70 27 0 15 -27 38
-44 38 -3 0 -13 -11 -22 -25z"/>
<path d="M6843 4868 c-22 -29 -22 -48 2 -75 23 -27 25 -27 52 -13 50 28 38
100 -16 100 -16 0 -33 -6 -38 -12z"/>
<path d="M6325 4775 c-77 -31 -126 -83 -150 -158 -15 -48 -16 -64 -7 -96 18
-59 68 -120 116 -142 30 -13 48 -29 56 -49 11 -27 15 -29 29 -17 9 8 36 24 61
34 25 11 58 34 74 52 17 17 35 31 41 31 22 0 48 39 61 91 13 50 13 52 -20 117
-40 79 -73 111 -143 140 -28 12 -53 22 -55 22 -2 0 -30 -11 -63 -25z m123 -99
c37 -19 57 -60 57 -117 0 -115 -134 -158 -210 -67 -45 53 -28 143 34 181 32
20 83 22 119 3z"/>
<path d="M2757 8522 c-32 -35 -14 -72 35 -72 38 0 55 33 33 66 -18 29 -46 31
-68 6z"/>
<path d="M7453 8513 c-8 -21 18 -67 40 -71 21 -4 47 15 47 34 0 21 -37 54 -60
54 -11 0 -23 -7 -27 -17z"/>
<path d="M7857 8493 c-11 -10 -8 -26 8 -47 12 -16 17 -17 30 -6 8 7 15 23 15
36 0 18 -5 24 -23 24 -13 0 -27 -3 -30 -7z"/>
<path d="M8287 8382 c-23 -26 -21 -58 5 -76 60 -42 113 9 78 75 -14 25 -61 25
-83 1z"/>
<path d="M1890 8380 c-11 -11 -20 -29 -20 -40 0 -24 34 -60 55 -60 28 0 67 48
60 73 -15 47 -61 61 -95 27z"/>
<path d="M2460 8240 c-29 -29 -25 -64 11 -94 21 -18 42 -26 69 -26 33 0 38 3
43 27 15 80 -71 145 -123 93z"/>
<path d="M1807 7903 c-16 -16 -6 -72 15 -87 34 -24 48 -20 64 19 17 42 17 40
-2 59 -15 16 -65 22 -77 9z"/>
<path d="M8392 7908 c-20 -20 -14 -65 10 -82 19 -13 25 -14 43 -2 23 16 32 61
14 82 -14 17 -51 18 -67 2z"/>
<path d="M8250 7290 c-17 -17 -19 -24 -9 -36 7 -8 24 -14 38 -12 34 4 41 42
12 58 -17 8 -25 6 -41 -10z"/>
<path d="M1617 6082 c-33 -36 -16 -92 28 -92 47 0 63 66 23 94 -28 20 -31 20
-51 -2z"/>
<path d="M8572 6098 c-28 -28 -4 -98 33 -98 15 0 45 37 45 55 0 33 -57 64 -78
43z"/>
<path d="M1884 4896 c-21 -34 -15 -70 13 -74 49 -7 76 32 57 82 -9 25 -51 19
-70 -8z"/>
<path d="M8070 5040 c-9 -6 -10 -10 -3 -10 6 0 15 5 18 10 8 12 4 12 -15 0z"/>
<path d="M2751 3763 c-26 -18 -27 -45 -3 -66 25 -22 45 -21 67 3 37 40 -19 95
-64 63z"/>
<path d="M1912 3903 c-36 -14 -33 -93 4 -107 23 -9 62 18 70 48 12 48 -26 78
-74 59z"/>
<path d="M8293 3888 c-29 -37 -22 -77 17 -98 45 -24 86 39 55 86 -17 26 -56
32 -72 12z"/>
<path d="M2394 3785 c-31 -48 15 -101 62 -70 28 18 31 41 8 73 -20 29 -50 28
-70 -3z"/>
<path d="M3455 3527 c-4 -21 -16 -44 -26 -50 -30 -18 -23 -22 39 -24 56 -1 57
-1 59 28 1 17 -2 27 -7 24 -9 -6 -20 4 -44 40 -13 19 -15 18 -21 -18z"/>
<path d="M7447 3742 c-23 -25 -21 -45 4 -68 19 -17 23 -17 47 -3 33 18 39 44
16 70 -22 24 -46 24 -67 1z"/>
<path d="M6760 3480 c0 -5 5 -10 10 -10 6 0 10 5 10 10 0 6 -4 10 -10 10 -5 0
-10 -4 -10 -10z"/>
<path d="M6805 3460 c3 -5 8 -10 11 -10 2 0 4 5 4 10 0 6 -5 10 -11 10 -5 0
-7 -4 -4 -10z"/>
<path d="M6623 2682 c-33 -70 -64 -138 -68 -152 -7 -24 -6 -23 21 7 23 25 39
32 80 36 28 3 67 2 87 -3 28 -6 37 -5 37 5 0 10 -86 223 -94 232 -1 1 -29 -55
-63 -125z"/>
<path d="M7320 2839 l0 -82 95 5 c104 6 140 21 151 64 9 34 -10 72 -42 84 -14
6 -66 10 -115 10 l-89 0 0 -81z"/>
<path d="M7327 2613 c-4 -3 -7 -35 -7 -70 l0 -64 113 7 c121 7 153 18 163 60
5 18 0 32 -17 50 -21 23 -29 24 -134 24 -61 0 -115 -3 -118 -7z"/>
<path d="M4269 2916 c-2 -2 -3 -101 -1 -219 l3 -215 67 5 c86 6 121 17 172 54
56 41 80 83 80 144 0 80 -18 126 -65 171 -36 35 -53 43 -107 53 -65 11 -141
15 -149 7z"/>
<path d="M4372 2084 c5 -25 35 -41 49 -27 18 18 3 43 -26 43 -19 0 -26 -5 -23
-16z"/>
<path d="M4366 1965 c-9 -9 -16 -20 -16 -25 0 -12 50 -50 66 -50 23 0 16 45
-10 69 -22 20 -25 21 -40 6z"/>
<path d="M5114 2066 c-3 -8 -4 -25 -2 -38 5 -40 88 -34 88 8 0 36 -74 61 -86
30z"/>
<path d="M3295 2050 c-20 -22 -22 -68 -5 -99 14 -27 66 -54 90 -46 56 18 79
107 38 145 -30 27 -98 28 -123 0z"/>
<path d="M3960 1993 l0 -86 41 6 c56 7 72 26 72 82 0 55 -14 71 -70 78 l-43 5
0 -85z"/>
<path d="M6340 2040 c0 -33 3 -40 19 -40 32 0 71 18 71 33 0 22 -34 47 -63 47
-25 0 -27 -3 -27 -40z"/>
</g>
</svg>
