<?xml version="1.0" standalone="no"?>
<!DOCTYPE svg PUBLIC "-//W3C//DTD SVG 20010904//EN"
 "http://www.w3.org/TR/2001/REC-SVG-20010904/DTD/svg10.dtd">
<svg version="1.0" xmlns="http://www.w3.org/2000/svg"
 width="1024.000000pt" height="1024.000000pt" viewBox="0 0 1024.000000 1024.000000"
 preserveAspectRatio="xMidYMid meet">

<g transform="translate(0.000000,1024.000000) scale(0.100000,-0.100000)"
fill="#000000" stroke="none">
<path d="M0 5120 l0 -5120 2305 0 c2027 0 2310 2 2342 15 45 19 62 19 37 0
-17 -13 315 -14 2769 -15 l2787 0 0 5120 0 5120 -5120 0 -5120 0 0 -5120z
m6770 5025 c11 -41 9 -67 -5 -53 -9 9 -23 108 -15 103 4 -3 13 -25 20 -50z
m-509 5 c33 -18 21 -27 -31 -22 -40 4 -51 1 -56 -12 -9 -24 14 -73 48 -101 16
-14 26 -25 21 -25 -28 1 -103 98 -103 134 0 32 78 48 121 26z m149 -130 c-6
-11 -16 -20 -22 -20 -7 0 -7 4 0 13 6 6 14 30 19 52 l8 40 3 -32 c2 -18 -2
-41 -8 -53z m85 50 c10 -11 16 -20 13 -20 -3 0 -13 9 -23 20 -10 11 -16 20
-13 20 3 0 13 -9 23 -20z m-425 -135 c13 -14 21 -25 18 -25 -2 0 -15 11 -28
25 -13 14 -21 25 -18 25 2 0 15 -11 28 -25z m247 19 c-3 -3 -12 -4 -19 -1 -8
3 -5 6 6 6 11 1 17 -2 13 -5z m-196 -71 c13 -16 12 -17 -3 -4 -10 7 -18 15
-18 17 0 8 8 3 21 -13z m-864 -438 c115 -22 220 -78 328 -175 104 -94 189
-157 260 -193 93 -47 273 -116 331 -126 34 -6 167 -10 314 -8 l255 2 63 -26
c152 -65 261 -156 328 -275 53 -95 73 -176 73 -305 1 -193 43 -353 143 -554
88 -176 146 -263 246 -367 125 -130 126 -131 129 -59 2 67 36 218 63 278 39
88 215 242 262 229 13 -3 52 4 87 16 124 40 314 11 557 -87 154 -62 223 -114
291 -217 32 -48 51 -68 66 -68 26 0 107 -39 107 -51 0 -5 -13 -12 -30 -15 -34
-7 -37 -20 -15 -81 38 -108 43 -215 15 -318 -12 -46 -26 -82 -30 -80 -5 3 -6
-4 -3 -15 8 -29 -50 -112 -111 -159 -54 -42 -170 -96 -185 -86 -5 3 -11 -2
-14 -10 -8 -19 -64 -47 -72 -35 -3 5 -38 7 -85 3 -95 -7 -164 5 -322 57 -106
35 -217 93 -218 113 0 13 25 7 50 -13 14 -11 31 -20 38 -20 6 0 12 -6 13 -12
0 -10 2 -10 6 0 2 6 9 12 14 12 6 0 7 -5 3 -12 -5 -8 -2 -9 9 -5 9 3 23 0 31
-8 7 -8 16 -12 19 -9 2 3 31 -5 63 -16 63 -23 88 -28 199 -38 99 -10 125 -5
125 21 0 11 -15 36 -32 55 l-33 34 34 -17 c28 -14 35 -15 43 -3 9 13 7 242 -2
252 -3 3 -42 -4 -85 -16 -67 -17 -89 -19 -135 -10 -31 5 -68 8 -83 5 -15 -3
-34 0 -42 7 -8 7 -22 10 -30 6 -9 -3 -28 2 -42 11 -19 12 -53 18 -132 20 -58
2 -123 5 -143 7 -21 2 -38 1 -38 -3 0 -18 81 -129 123 -170 44 -42 51 -61 23
-61 -31 0 -126 107 -126 143 0 10 -13 37 -29 60 -15 23 -31 52 -35 64 l-7 22
43 -21 c51 -25 140 -29 210 -9 l48 14 -25 28 c-21 25 -23 37 -21 96 4 97 48
233 88 272 48 47 105 65 185 58 38 -3 78 -9 91 -13 19 -5 22 -3 22 19 0 30
-52 67 -204 142 -94 47 -128 75 -92 75 16 0 86 -34 206 -100 l54 -30 32 34
c17 18 36 42 42 52 19 33 23 8 6 -30 -18 -37 -18 -40 18 -138 27 -71 87 -118
178 -136 30 -6 88 -18 129 -27 95 -19 91 -20 91 18 0 17 4 38 9 45 11 19 -107
144 -182 193 -32 21 -89 50 -127 65 -39 15 -70 31 -70 36 0 5 -4 7 -8 4 -4 -2
-27 4 -49 14 -99 44 -329 65 -386 35 -15 -8 -43 -17 -63 -21 -19 -3 -37 -11
-40 -16 -10 -15 -5 -263 5 -290 4 -12 5 -35 1 -49 -4 -15 -4 -32 0 -38 4 -7 6
-23 4 -37 -1 -13 2 -22 6 -19 12 8 33 -33 26 -51 -4 -10 -2 -13 7 -8 8 6 8 3
-1 -9 -15 -17 -7 -61 9 -52 10 7 13 -8 3 -18 -9 -8 -45 47 -72 110 -24 55 -28
78 -13 68 5 -3 13 0 16 5 10 16 -26 52 -43 45 -20 -7 -80 16 -87 33 -8 23 -1
24 44 11 23 -7 44 -10 47 -6 8 8 -7 262 -16 278 -10 16 -38 -1 -93 -56 -73
-73 -117 -199 -123 -348 -2 -54 -6 -102 -9 -107 -3 -5 5 -21 18 -37 70 -86
117 -209 124 -323 13 -211 -82 -410 -274 -573 -114 -97 -192 -204 -286 -392
-117 -234 -156 -359 -157 -495 -1 -196 -55 -348 -164 -467 -77 -84 -127 -116
-246 -155 -107 -35 -199 -40 -445 -24 -117 8 -138 7 -214 -12 -103 -27 -265
-103 -368 -174 -42 -29 -118 -91 -168 -138 -160 -149 -276 -201 -450 -201
-190 1 -303 51 -465 207 -110 105 -184 155 -344 229 -202 93 -183 90 -521 90
-291 0 -302 1 -358 23 -129 53 -208 113 -282 217 -81 113 -104 197 -105 379
l0 119 -66 166 c-64 162 -177 391 -237 481 -17 25 -94 108 -172 185 -125 123
-147 149 -179 217 -67 139 -81 266 -46 404 36 143 68 194 225 354 78 80 155
163 172 185 74 96 197 353 255 530 25 76 31 114 38 245 6 124 13 171 34 235
47 148 159 286 281 347 127 65 229 77 450 52 130 -14 177 -16 232 -7 82 13
231 67 371 134 94 45 115 61 220 164 99 97 131 122 207 160 140 70 250 87 392
60z m-4512 -455 c106 -51 95 -209 -15 -226 -50 -8 -118 13 -152 46 -54 55 -31
152 46 186 43 19 73 17 121 -6z m8956 -10 c35 -11 71 -24 79 -30 13 -9 13 -11
0 -20 -12 -8 -11 -10 8 -10 12 0 30 -8 40 -17 9 -10 26 -18 37 -18 11 0 19 -6
17 -13 -1 -8 1 -11 6 -8 5 3 27 -10 49 -29 90 -76 131 -265 82 -370 -71 -150
-307 -191 -518 -88 -65 31 -157 122 -190 187 -30 61 -46 179 -32 233 22 81
102 163 183 188 64 20 166 18 239 -5z m124 -58 c-3 -3 -11 0 -18 7 -9 10 -8
11 6 5 10 -3 15 -9 12 -12z m-7718 -903 c90 -44 123 -128 81 -209 -44 -85
-156 -114 -248 -64 l-48 26 -84 -61 c-46 -33 -104 -71 -129 -84 -41 -22 -47
-23 -65 -10 -18 14 -18 15 9 36 15 12 76 50 135 83 l107 62 -3 63 c-3 54 0 69
20 99 51 75 143 99 225 59z m-600 -477 c-10 -10 -14 -22 -10 -27 5 -4 2 -5 -4
-1 -12 7 -18 -12 -14 -37 1 -5 -3 -6 -9 -2 -5 3 -15 3 -21 -1 -8 -4 -7 -9 2
-15 10 -6 7 -9 -11 -9 -17 0 -21 -3 -12 -9 16 -10 -87 -107 -157 -148 -25 -14
-57 -34 -70 -45 -27 -20 -46 -24 -35 -6 4 7 3 8 -4 4 -6 -4 -9 -13 -6 -20 6
-15 -22 -29 -38 -19 -6 3 -8 1 -4 -5 7 -11 -24 -36 -89 -71 -22 -12 -56 -31
-74 -42 -26 -16 -31 -17 -21 -4 12 14 11 15 -11 11 -13 -2 -32 -7 -41 -11 -34
-14 -17 5 23 26 23 11 38 15 34 9 -8 -13 44 -3 60 12 6 6 4 7 -7 3 -11 -4 -18
-2 -18 4 0 6 5 11 11 11 6 0 20 11 31 25 11 14 24 23 29 20 5 -4 9 -2 9 4 0 5
35 31 77 58 83 51 221 151 262 189 13 13 29 20 34 17 6 -3 7 -1 4 4 -7 11 83
106 92 98 2 -3 -3 -13 -12 -23z m6548 -113 c11 -17 2 -18 -19 -3 -17 12 -17
14 -4 14 9 0 20 -5 23 -11z m-6293 -61 c-19 -78 -182 -230 -400 -376 -217
-144 -262 -172 -243 -149 12 15 11 17 -13 17 -34 0 -27 8 74 75 41 27 80 55
87 61 7 7 77 55 155 107 101 67 171 123 239 191 53 53 98 96 101 96 4 0 4 -10
0 -22z m6615 -394 c7 -1 20 -10 29 -19 10 -9 34 -27 55 -40 47 -31 62 -51 28
-41 -13 4 -41 12 -63 17 -58 15 -126 65 -126 94 0 23 0 23 33 7 17 -9 38 -17
44 -18z m173 -104 c13 -8 13 -10 -2 -10 -9 0 -20 5 -23 10 -8 13 5 13 25 0z
m-7960 -30 c-14 -11 -29 -20 -35 -20 -5 0 4 9 20 20 38 25 48 25 15 0z m897
-1180 c49 -30 66 -63 60 -116 -6 -55 -37 -91 -85 -100 -44 -9 -102 9 -131 40
-20 22 -23 32 -19 77 5 45 11 58 42 86 42 39 84 43 133 13z m1034 -82 c1 -7 1
-16 0 -20 0 -4 7 -5 17 -2 29 10 -23 -32 -107 -83 -42 -26 -116 -75 -166 -109
-49 -33 -101 -67 -115 -74 -24 -13 -25 -12 -7 7 20 23 23 38 5 27 -10 -6 -10
-4 0 8 9 11 9 17 2 20 -10 3 259 187 325 221 37 20 45 20 46 5z m5994 2 c-3
-5 -11 -10 -17 -10 -6 0 -20 -7 -30 -17 -10 -9 -21 -13 -24 -10 -4 3 9 15 27
26 37 23 54 27 44 11z m-7328 -171 c-2 -12 7 -62 20 -111 25 -96 29 -148 13
-148 -9 0 -15 30 -11 53 1 5 -3 6 -7 3 -5 -3 -7 -16 -5 -28 2 -13 0 -34 -6
-48 -8 -21 -10 -16 -11 35 -1 33 -5 81 -9 107 -4 27 -4 45 1 42 5 -3 6 7 2 23
-9 39 -15 47 -24 33 -8 -13 -60 -3 -60 11 0 9 73 46 92 48 5 1 6 -9 5 -20z
m6973 -103 c0 -2 -7 -7 -16 -10 -8 -3 -12 -2 -9 4 6 10 25 14 25 6z m-7261
-84 c39 -29 50 -85 26 -130 -39 -72 -125 -79 -192 -16 -33 32 -35 37 -30 81 7
69 37 92 113 87 37 -2 67 -10 83 -22z m871 -37 c33 -17 93 -83 116 -126 19
-37 14 -143 -8 -195 -82 -187 -250 -251 -435 -165 -83 39 -99 56 -125 129 -36
101 0 224 85 297 83 71 282 104 367 60z m-560 -139 c-1 -6 -7 -24 -15 -41
l-14 -30 6 33 c3 18 1 32 -4 32 -9 0 -13 -17 -27 -107 -2 -12 -11 -34 -20 -48
-9 -14 -13 -25 -10 -25 4 0 -1 -9 -11 -20 -29 -32 -153 -102 -166 -94 -7 4 -9
3 -6 -3 4 -6 0 -13 -8 -16 -9 -4 -12 -1 -8 9 5 14 3 14 -18 2 -13 -7 -26 -14
-29 -16 -2 -2 1 -6 8 -11 11 -7 -134 -110 -198 -140 -25 -12 -25 -12 2 9 16
12 24 27 21 38 -5 21 10 33 187 142 74 46 150 95 169 109 37 28 71 94 91 179
l12 53 19 -22 c10 -12 19 -27 19 -33z m1086 -341 c35 -15 64 -61 64 -105 0
-33 -52 -83 -86 -82 -50 1 -83 19 -79 42 3 14 -3 22 -19 26 -20 5 -23 12 -22
47 1 35 6 45 35 64 40 27 59 28 107 8z m-972 -4 c9 -15 -320 -232 -341 -225
-13 4 -14 3 -5 -3 10 -7 -10 -25 -75 -68 -48 -32 -95 -63 -103 -69 -13 -10
-13 -9 0 8 13 16 12 20 -3 31 -16 11 -15 14 10 30 21 14 25 15 15 3 -10 -13
-10 -17 3 -22 9 -3 13 -2 10 4 -3 6 -1 10 5 10 7 0 10 6 7 14 -7 17 18 40 33
31 6 -4 9 -2 8 4 -3 10 81 72 239 177 71 47 85 53 107 44 18 -6 26 -6 26 1 0
6 4 8 8 5 5 -3 16 4 25 15 19 21 23 23 31 10z m651 -239 c55 -7 70 -35 36 -66
-32 -29 -52 -16 -72 44 -11 32 -13 49 -6 40 6 -8 26 -17 42 -18z m-1175 -97
c0 -2 -10 -9 -22 -15 -22 -11 -22 -10 -4 4 21 17 26 19 26 11z m805 -31 c70
-33 82 -128 25 -186 -23 -23 -37 -28 -77 -28 -83 0 -132 48 -133 128 0 35 6
49 29 73 24 24 38 29 76 29 26 0 62 -7 80 -16z m-825 -8 c0 -2 -8 -10 -17 -17
-16 -13 -17 -12 -4 4 13 16 21 21 21 13z m365 -6 c-3 -5 -12 -10 -18 -10 -7 0
-6 4 3 10 19 12 23 12 15 0z m8688 -75 c89 -37 147 -119 147 -208 0 -65 -23
-100 -84 -128 -81 -37 -172 -15 -234 55 -94 107 -96 211 -4 270 44 29 120 34
175 11z m-8892 -58 c-6 -8 -8 -17 -4 -21 4 -4 0 -4 -9 -1 -9 4 -18 0 -21 -10
-5 -12 -1 -14 21 -9 23 4 24 4 9 -6 -9 -6 -32 -10 -50 -8 l-32 3 45 32 c50 36
58 39 41 20z m7819 -86 c107 -85 124 -219 35 -277 -58 -38 -178 -12 -248 54
-74 69 -77 173 -8 236 47 43 160 36 221 -13z m824 -150 c16 -18 16 -21 -14
-55 -17 -19 -59 -53 -92 -76 -57 -38 -65 -40 -134 -40 -40 0 -76 5 -79 10 -4
6 -11 8 -16 5 -14 -9 -11 7 6 25 12 13 27 16 59 13 64 -8 104 10 171 76 33 33
65 60 71 60 6 1 19 -8 28 -18z m-5147 -74 c259 -92 422 -268 494 -532 33 -119
33 -329 0 -440 -61 -211 -190 -364 -390 -464 -122 -62 -208 -81 -361 -81 -207
0 -345 48 -492 171 -165 138 -252 297 -279 514 -13 103 3 263 37 365 69 203
245 383 448 457 92 33 170 42 321 39 130 -3 160 -7 222 -29z m3374 -39 c17
-34 62 -132 99 -217 71 -162 209 -472 300 -671 28 -63 80 -187 115 -275 35
-88 72 -180 83 -205 11 -25 23 -55 27 -68 l6 -22 -201 2 -202 3 -58 135 -58
135 -68 3 c-38 1 -174 -1 -302 -5 l-234 -8 -42 -105 c-23 -58 -49 -118 -57
-133 l-14 -28 -208 -2 c-114 -1 -207 -1 -207 1 0 1 18 46 41 100 40 94 52 123
152 352 25 58 96 218 158 355 196 441 299 675 299 683 0 27 30 32 182 32 l158
0 31 -62z m-5461 -411 c0 -255 3 -511 6 -568 l7 -104 398 3 397 2 -1 -191 -2
-191 -587 -3 -587 -4 -3 227 c-2 125 -2 467 0 760 l3 532 185 0 184 0 0 -463z
m3905 448 c93 -24 164 -65 231 -131 102 -102 151 -207 161 -349 7 -104 -8
-181 -56 -281 -43 -91 -110 -165 -184 -204 -26 -14 -47 -29 -47 -34 0 -15 46
-90 155 -256 93 -140 145 -228 145 -245 0 -4 -97 -4 -216 -1 l-216 7 -37 57
c-21 31 -86 135 -145 231 -95 151 -111 172 -130 167 -11 -3 -60 -6 -108 -6
l-87 0 -3 -224 c-2 -123 -5 -226 -8 -229 -3 -2 -87 -2 -187 1 l-183 4 0 748
c0 410 3 750 7 753 3 4 196 7 428 7 345 0 431 -3 480 -15z m2800 -124 c-6 -10
11 -24 34 -27 25 -4 152 -134 144 -147 -3 -4 -11 -3 -19 4 -8 6 -18 9 -21 5
-4 -4 -3 -10 3 -14 6 -4 14 -16 18 -27 5 -14 -2 -10 -25 13 -31 32 -32 33 -13
55 10 12 12 16 4 10 -25 -23 -44 -13 -100 52 -64 75 -69 85 -40 85 12 0 19 -4
15 -9z m-8440 -111 c10 -11 14 -20 9 -20 -5 0 -15 9 -22 20 -7 11 -11 20 -9
20 2 0 12 -9 22 -20z m8296 -34 c5 3 9 0 9 -6 0 -15 -23 -7 -26 8 -1 7 0 8 3
2 2 -5 9 -8 14 -4z m-8 -218 c246 -257 298 -318 290 -346 -3 -12 -9 -19 -14
-16 -5 3 -7 9 -4 14 3 4 -5 10 -18 14 -20 5 -150 139 -404 420 -78 86 -87 105
-46 106 6 0 94 -87 196 -192z m361 145 c-26 -19 -36 -16 -22 6 6 11 18 17 26
13 12 -4 12 -8 -4 -19z m-269 -7 c11 -8 25 -12 32 -9 9 3 13 -4 13 -21 0 -16
6 -26 15 -26 9 0 15 -9 15 -25 0 -14 5 -25 12 -25 6 0 8 -3 4 -7 -6 -6 -52 38
-110 105 -21 25 -10 29 19 8z m-521 -22 c5 -14 4 -15 -9 -4 -17 14 -19 20 -6
20 5 0 12 -7 15 -16z m198 -141 c119 -116 280 -294 272 -302 -3 -3 -9 1 -13 8
-6 10 -10 10 -16 2 -4 -7 1 -23 9 -36 23 -35 4 -31 -22 4 -21 29 -21 30 -2 36
11 4 18 10 15 15 -3 5 -13 6 -22 3 -12 -5 -14 -3 -8 8 7 11 6 12 -7 2 -12 -11
-18 -9 -32 6 -10 11 -15 24 -11 30 3 7 0 8 -9 5 -9 -3 -16 -2 -16 4 0 5 -36
46 -80 91 -44 45 -80 86 -80 91 0 6 -6 10 -14 10 -18 0 -28 27 -13 34 7 3 6 5
-3 5 -29 -2 -40 1 -40 11 0 6 7 10 15 10 9 0 12 6 9 15 -4 8 -15 15 -26 15
-10 0 -17 4 -13 9 3 6 -3 14 -12 20 -10 6 -12 11 -6 11 7 0 63 -48 125 -107z
m488 -35 c-1 -16 -60 48 -60 64 0 6 14 -3 30 -20 17 -18 30 -37 30 -44z m24
-24 c3 -8 2 -12 -4 -9 -6 3 -10 10 -10 16 0 14 7 11 14 -7z m256 -269 c0 -8
-4 -15 -9 -15 -13 0 -22 16 -14 24 11 11 23 6 23 -9z m104 -37 c36 -33 48 -53
53 -82 6 -35 5 -38 -13 -28 -25 13 -124 112 -113 112 5 0 9 9 9 20 0 29 13 25
64 -22z m-134 -162 c0 -11 -19 -15 -25 -6 -3 5 1 10 9 10 9 0 16 -2 16 -4z
m60 -2 c0 -4 -8 -13 -17 -20 -17 -12 -16 -13 5 -14 12 0 22 -4 22 -9 0 -6 -12
-6 -30 1 -36 12 -49 28 -23 28 15 0 16 2 3 10 -12 8 -9 10 13 10 15 0 27 -3
27 -6z m60 -46 c0 -4 -9 -8 -20 -8 -11 0 -20 4 -20 8 0 4 9 8 20 8 11 0 20 -4
20 -8z m-8625 -228 c17 -2 17 -3 -5 -10 -21 -7 -22 -8 -5 -9 32 -2 52 -24 53
-56 0 -40 -11 -56 -18 -26 -7 32 -51 64 -87 63 -15 0 -36 4 -45 9 -13 7 -18 6
-18 -2 0 -7 -3 -9 -7 -5 -4 4 2 15 15 24 20 15 59 20 117 12z m8510 -194 c121
-56 171 -173 119 -277 -16 -33 -88 -69 -135 -69 -42 0 -126 39 -156 71 -71 77
-71 225 -1 271 51 34 108 35 173 4z m-3345 -193 c23 -27 57 -77 75 -113 17
-36 44 -87 58 -114 39 -71 37 -78 -20 -90 -29 -7 -32 -5 -38 23 -3 16 -12 34
-18 39 -14 11 -163 30 -176 22 -5 -3 -11 -21 -13 -40 -3 -31 -6 -35 -35 -38
-45 -4 -43 10 18 148 28 63 57 136 65 163 8 26 21 47 29 47 7 0 32 -21 55 -47z
m-3161 -33 c25 -90 54 -162 61 -148 4 7 19 57 35 111 28 97 28 97 60 97 l33 0
-24 -82 c-44 -155 -79 -251 -96 -262 -24 -14 -40 9 -74 104 -14 41 -29 84 -33
94 -5 14 -16 -8 -39 -82 -23 -70 -39 -105 -53 -113 -25 -13 -44 0 -54 38 -3
15 -22 66 -40 113 -19 48 -37 110 -41 138 l-7 52 31 0 c24 0 31 -5 37 -27 18
-75 57 -193 64 -193 4 0 15 35 25 78 21 88 38 127 63 141 24 13 36 -2 52 -59z
m-884 -69 l7 -129 79 -7 79 -7 0 -34 0 -35 -112 3 -113 3 -3 125 c-2 69 0 144
3 168 5 36 10 42 30 42 23 0 23 -2 30 -129z m462 109 c45 -27 93 -114 93 -168
0 -37 -6 -48 -47 -91 -79 -81 -144 -87 -231 -24 -43 32 -65 77 -66 139 0 63
19 95 82 135 56 35 120 39 169 9z m1517 -122 c37 -78 70 -154 73 -170 5 -26 4
-28 -29 -28 -31 0 -37 4 -49 36 l-14 37 -73 1 -73 1 -10 -37 c-10 -39 -31 -48
-72 -32 -20 7 -11 33 72 207 83 174 86 174 175 -15z m243 100 c21 -24 58 -69
82 -101 24 -32 46 -55 49 -52 3 3 5 48 3 100 l-3 95 30 0 29 0 6 -97 c10 -143
8 -231 -4 -238 -24 -16 -58 10 -124 95 -76 97 -102 118 -90 73 3 -15 3 -60 -1
-100 -6 -72 -7 -73 -35 -73 l-29 0 0 170 0 170 24 0 c15 0 38 -15 63 -42z
m373 -33 c0 -41 4 -75 9 -75 5 0 26 19 48 43 68 73 102 97 139 97 19 0 34 -3
34 -7 0 -3 -27 -34 -60 -69 -33 -34 -60 -68 -60 -75 0 -6 19 -35 43 -63 24
-28 53 -66 66 -83 l22 -33 -46 0 c-43 0 -47 3 -78 46 -60 87 -59 87 -91 74
-28 -10 -28 -12 -21 -65 l6 -55 -35 0 c-33 0 -35 2 -41 43 -3 23 -4 92 -1 152
3 61 5 118 6 128 0 12 8 17 30 17 l30 0 0 -75z m743 -83 c42 -86 77 -163 77
-170 0 -7 -15 -12 -39 -12 -34 0 -39 3 -47 33 l-10 32 -84 0 -85 0 -10 -32
c-8 -30 -13 -33 -47 -33 -21 0 -38 5 -38 10 0 6 36 82 80 170 106 212 101 212
203 2z m971 152 c13 -5 16 -22 16 -83 0 -74 14 -193 25 -223 5 -12 -3 -17 -31
-22 -20 -4 -41 -3 -46 2 -5 5 -12 82 -15 171 -6 158 -6 161 15 161 11 0 27 -3
36 -6z m576 -29 l0 -35 -50 0 -50 0 0 -47 c0 -27 -3 -85 -7 -130 l-6 -83 -34
0 c-28 0 -33 3 -29 18 2 9 8 67 11 129 l7 112 -48 3 c-47 3 -49 4 -52 36 l-3
32 130 0 131 0 0 -35z m199 -2 c13 -36 100 -228 121 -265 14 -25 14 -26 -27
-37 -45 -13 -49 -10 -57 33 -8 40 -19 46 -94 46 -69 0 -79 -6 -84 -45 -3 -27
-7 -30 -45 -33 l-42 -3 11 38 c5 21 39 98 73 171 63 131 64 132 97 132 30 0
35 -4 47 -37z m381 16 c0 -39 -11 -49 -56 -49 l-44 0 0 -130 0 -130 -32 0 -33
0 3 127 3 128 -45 0 c-53 0 -69 13 -61 46 6 24 8 24 135 25 118 1 130 0 130
-17z m453 5 c93 -47 131 -145 90 -231 -22 -47 -94 -93 -145 -93 -115 0 -204
118 -163 216 42 101 138 148 218 108z m276 -32 c25 -27 69 -75 96 -107 l50
-58 -3 102 -3 101 30 0 c30 0 31 -1 31 -47 0 -27 3 -99 7 -160 l6 -113 -34 0
c-31 0 -41 8 -95 73 -34 40 -68 83 -75 95 -8 12 -17 22 -21 22 -5 0 -8 -45 -8
-100 l0 -100 -29 0 c-38 0 -41 13 -41 181 0 178 11 192 89 111z m-4591 18 c69
-42 81 -138 22 -172 -17 -9 -30 -22 -30 -28 0 -6 18 -30 40 -54 44 -48 40 -56
-23 -56 -28 0 -35 6 -57 46 -21 41 -64 74 -96 74 -3 0 -4 -27 -2 -60 l4 -60
-39 0 -38 0 6 153 c4 83 8 158 10 165 3 8 30 12 87 12 65 0 90 -4 116 -20z
m2090 -1 c92 -45 129 -146 80 -219 -46 -67 -100 -89 -220 -90 l-68 0 0 53 c0
28 3 103 7 165 l6 112 75 0 c57 0 87 -5 120 -21z m863 -18 c65 -64 52 -124
-36 -166 -18 -8 -49 -15 -69 -15 -34 0 -36 -2 -36 -31 0 -34 -16 -69 -31 -69
-6 0 -9 30 -7 77 l3 78 53 7 c67 10 92 23 92 49 0 23 -24 34 -102 43 -32 4
-58 10 -58 14 0 4 -3 17 -6 30 -6 21 -5 22 76 22 82 0 82 0 121 -39z m1044
-117 c4 -85 5 -157 3 -159 -1 -2 -18 -5 -36 -6 l-33 -4 -2 163 -2 162 31 0 31
0 8 -156z m-1725 122 c0 -2 -9 -6 -20 -9 -11 -3 -18 -1 -14 4 5 9 34 13 34 5z
m-2582 -158 l-3 -33 -87 -3 -88 -3 0 36 0 35 91 0 90 0 -3 -32z m-2648 -118
l25 -8 -27 -1 c-18 -1 -28 -7 -28 -16 0 -8 -6 -15 -12 -16 -7 0 -4 -4 7 -9 17
-7 16 -9 -10 -9 -75 -2 -218 -103 -244 -174 -22 -58 -14 -99 33 -164 25 -34
50 -64 56 -68 5 -3 8 -11 5 -16 -4 -5 -2 -9 3 -9 5 0 21 -11 36 -25 31 -29
126 -79 126 -68 0 5 5 1 10 -7 6 -9 10 -11 10 -3 0 7 6 11 13 9 6 -3 24 -7 40
-10 53 -12 28 -26 -39 -21 -89 7 -172 45 -228 105 -107 115 -129 230 -68 350
34 65 81 123 116 142 39 21 135 31 176 18z m60 -20 c0 -5 -7 -10 -15 -10 -8 0
-15 5 -15 10 0 6 7 10 15 10 8 0 15 -4 15 -10z m143 -94 c24 -24 51 -60 61
-80 20 -42 11 -72 -11 -35 l-14 24 5 -23 c4 -19 2 -21 -10 -11 -8 6 -14 16
-14 21 0 11 -15 29 -67 80 -38 37 -58 69 -34 53 5 -3 12 -1 16 5 11 18 24 11
68 -34z m-208 -56 c6 -5 20 -10 32 -12 16 -2 20 -7 14 -16 -7 -12 -14 -11 -39
2 -17 9 -48 16 -68 16 -35 0 -37 1 -18 14 18 14 58 12 79 -4z m4089 -22 c3
-17 6 -50 6 -73 0 -23 3 -63 6 -89 l7 -46 74 0 74 0 -3 -27 -3 -28 -103 -5
-102 -5 0 157 c0 148 1 156 19 151 11 -3 21 -17 25 -35z m1376 2 l0 -40 -70 0
-70 0 0 -30 c0 -29 1 -29 63 -32 59 -3 62 -4 62 -28 0 -24 -3 -25 -60 -25 -58
0 -60 -1 -63 -27 -3 -28 -3 -28 61 -28 68 0 77 -6 77 -52 0 -14 -5 -18 -16
-14 -9 3 -53 6 -98 6 l-83 0 1 145 1 145 65 1 c52 1 109 9 128 18 1 0 2 -17 2
-39z m-3704 -15 c-6 -24 -10 -25 -76 -25 l-70 0 0 -35 0 -35 60 0 c57 0 60 -1
60 -25 0 -24 -3 -25 -60 -25 l-60 0 0 -55 c0 -52 -1 -55 -25 -55 l-25 0 0 129
c0 71 -3 136 -6 145 -5 13 9 16 98 18 56 2 105 -1 106 -5 2 -4 1 -19 -2 -32z
m274 27 c42 -22 80 -90 80 -142 0 -74 -69 -140 -148 -140 -52 0 -91 19 -126
60 -38 45 -37 125 1 171 58 68 125 86 193 51z m369 -26 c16 -16 33 -41 36 -56
7 -33 -10 -80 -29 -80 -7 0 -18 -6 -24 -13 -8 -9 -2 -24 24 -57 32 -40 33 -45
17 -51 -35 -14 -49 -9 -68 27 -23 43 -60 74 -88 74 -17 0 -19 -5 -15 -49 5
-46 3 -50 -20 -56 -13 -3 -26 -5 -27 -3 -3 3 -9 287 -6 298 0 3 39 3 85 0 76
-5 88 -8 115 -34z m831 22 c65 -33 93 -79 88 -146 -5 -59 -31 -95 -85 -118
-54 -23 -105 -18 -152 16 -85 62 -92 143 -19 213 66 63 99 70 168 35z m367
-14 c62 -46 80 -135 40 -195 -30 -46 -78 -67 -164 -71 l-73 -4 0 151 0 150 85
-6 c63 -4 92 -10 112 -25z m353 5 c0 -30 -26 -39 -111 -39 -48 0 -49 -1 -49
-30 0 -30 0 -30 58 -30 65 0 86 -9 80 -36 -3 -16 -13 -19 -68 -19 l-65 -1 -3
-32 -3 -33 78 2 78 2 0 -27 0 -27 -102 -2 c-78 -2 -104 1 -108 11 -7 19 -6
157 1 228 l6 59 104 0 104 0 0 -26z m720 2 c0 -26 -3 -29 -46 -35 -26 -3 -60
-6 -75 -6 -22 0 -29 -5 -29 -19 0 -11 -3 -26 -6 -35 -5 -14 4 -16 60 -16 64 0
66 -1 66 -25 0 -24 -2 -25 -65 -25 l-65 0 0 -55 c0 -51 -2 -55 -24 -55 -30 0
-34 21 -28 174 l4 115 97 4 c53 1 99 4 104 5 4 1 7 -11 7 -27z m327 -18 c21
-26 58 -69 83 -96 l45 -48 -3 95 c-4 91 -3 96 16 96 31 0 35 -13 38 -124 5
-141 -1 -176 -31 -176 -18 0 -37 19 -80 80 -49 70 -89 109 -100 98 -2 -2 1
-27 6 -56 6 -29 9 -68 7 -85 -2 -26 -7 -32 -28 -32 l-25 0 -3 148 c-2 141 -2
147 17 147 12 0 36 -20 58 -47z m1045 -52 c4 -118 18 -141 79 -141 57 0 69 24
69 137 0 93 0 93 25 93 l25 0 0 -111 0 -111 -33 -33 c-44 -44 -95 -54 -139
-28 -48 28 -68 69 -75 161 -7 95 0 132 26 132 17 0 19 -10 23 -99z m419 4 c46
-52 85 -95 87 -95 2 0 1 31 -3 69 -8 80 -1 111 24 111 16 0 19 -13 25 -92 9
-136 8 -185 -6 -191 -26 -9 -55 13 -118 92 -36 44 -68 81 -72 81 -5 0 -8 -43
-8 -95 0 -71 -3 -95 -13 -95 -32 0 -37 24 -37 167 0 180 4 182 121 48z m469
44 c25 -28 62 -70 82 -92 l37 -42 1 88 c0 79 2 87 19 87 11 0 22 -4 25 -9 3
-5 8 -68 11 -140 4 -113 3 -132 -11 -138 -18 -7 -56 28 -126 115 -57 71 -73
78 -64 27 4 -19 4 -57 0 -85 -6 -44 -9 -50 -30 -50 l-24 0 0 145 c0 170 6 177
80 94z m490 26 c63 -32 18 -66 -59 -45 -51 13 -74 7 -101 -27 -28 -36 -26 -88
4 -118 49 -49 128 -44 134 8 3 25 1 27 -32 27 -20 0 -36 3 -36 8 1 20 20 30
71 34 l57 4 5 -47 c8 -67 1 -85 -44 -103 -84 -34 -159 -14 -213 57 -36 47 -35
101 3 154 52 71 131 90 211 48z m-4668 -59 l47 -68 46 71 c46 71 76 89 89 55
3 -9 6 -74 6 -145 l0 -129 -25 0 c-24 0 -24 2 -27 91 l-3 92 -35 -52 c-19 -28
-43 -51 -52 -51 -9 0 -26 15 -37 33 -11 18 -29 41 -40 51 -18 17 -19 15 -17
-73 0 -49 -1 -92 -4 -95 -3 -3 -16 -3 -28 1 -21 5 -22 9 -22 150 l0 144 27 -3
c22 -2 39 -19 75 -72z m2062 -62 c3 -74 4 -139 1 -145 -4 -5 -16 -9 -29 -9
-22 0 -23 5 -29 83 -4 45 -7 110 -7 145 0 62 0 62 28 62 l29 0 7 -136z m1116
107 c0 -28 -2 -30 -47 -33 l-48 -3 4 -112 3 -113 -31 0 -31 0 0 115 0 115 -50
0 c-49 0 -50 1 -50 30 l0 30 125 0 125 0 0 -29z m818 -112 l3 -137 -25 -4 -24
-5 -7 133 c-4 73 -4 138 0 144 4 6 17 10 28 8 21 -3 22 -8 25 -139z m-6468 36
c0 -1 -6 -8 -14 -14 -11 -9 -15 -7 -19 8 -3 14 0 17 14 14 11 -3 19 -7 19 -8z
m8462 -35 c14 -17 18 -36 16 -73 -4 -64 -33 -89 -104 -89 -27 0 -56 -4 -66 -9
-23 -12 -23 -5 -1 16 14 15 14 18 2 26 -40 24 -41 26 -34 69 4 25 18 54 32 68
22 21 31 24 80 20 43 -4 61 -10 75 -28z m-3082 -35 c0 -24 -2 -25 -70 -25 -68
0 -70 1 -70 25 0 24 2 25 70 25 68 0 70 -1 70 -25z m-5445 -155 c3 -11 11 -20
16 -20 13 0 11 18 -3 23 -7 2 -9 8 -5 13 4 5 13 2 18 -6 8 -11 12 -12 16 -2 2
6 9 12 14 12 17 0 -21 -47 -60 -74 -37 -26 -91 -35 -91 -16 0 6 -5 10 -11 10
-6 0 -9 -7 -6 -14 4 -10 1 -13 -8 -9 -8 3 -12 9 -9 14 7 12 67 44 77 41 4 -1
7 4 7 11 0 14 19 37 31 37 4 0 11 -9 14 -20z m8011 -186 c-9 -8 -16 -20 -16
-25 0 -6 -5 -7 -11 -4 -6 4 -19 -2 -29 -12 -17 -19 -17 -20 0 -31 18 -11 40
-1 84 40 11 10 24 18 30 18 14 0 6 -7 -104 -87 -110 -80 -136 -96 -98 -59 15
14 32 26 38 26 5 0 10 4 10 9 0 5 9 11 20 14 11 3 20 12 20 21 0 18 -16 21
-25 5 -4 -6 -13 -8 -21 -5 -8 3 -14 1 -14 -4 0 -6 -7 -10 -16 -10 -8 0 -13 -4
-9 -10 3 -5 13 -6 23 -3 13 4 13 2 -3 -10 -11 -8 -28 -13 -39 -11 -11 2 -27
-2 -35 -8 -55 -41 40 43 109 96 80 62 121 86 86 50z m-4566 -105 c0 -5 7 -9
15 -9 8 0 15 -5 15 -11 0 -5 5 -7 12 -3 7 4 1 -7 -12 -26 -36 -51 -223 -189
-555 -410 -55 -37 -121 -85 -147 -107 -26 -23 -84 -66 -130 -97 -46 -32 -112
-78 -148 -103 -36 -26 -59 -40 -53 -31 7 8 9 19 5 23 -4 5 -2 5 4 2 14 -8 57
27 46 37 -4 4 0 6 8 4 8 -2 14 2 13 9 -2 6 7 15 18 18 15 5 19 14 17 33 -3 28
-23 36 -45 19 -7 -5 -13 -7 -13 -4 0 4 62 50 138 104 75 53 157 114 182 135
25 20 80 61 122 90 42 29 105 75 140 103 148 116 246 187 285 206 24 11 45 25
48 29 7 11 35 2 35 -11z m4390 -93 c0 -3 -125 -97 -147 -110 -7 -4 -13 -2 -13
3 0 6 5 11 10 11 6 0 41 23 77 50 64 48 73 54 73 46z m-4143 -48 c13 -12 23
-27 23 -34 0 -7 -48 -45 -107 -85 -227 -153 -331 -225 -422 -291 -89 -65 -121
-82 -105 -56 4 7 3 8 -5 4 -6 -4 -9 -11 -6 -15 6 -10 -28 -41 -78 -71 -21 -12
-46 -31 -55 -40 -20 -21 -209 -150 -219 -150 -4 0 5 12 20 26 15 14 24 30 21
36 -5 7 -1 9 9 5 9 -3 23 0 31 8 7 8 25 17 40 21 14 3 35 17 45 30 10 13 22
24 26 24 12 0 34 27 27 34 -3 4 1 4 10 1 13 -5 16 -1 14 20 -3 19 0 25 11 21
9 -4 13 -1 11 6 -8 24 -35 19 -66 -12 -17 -16 -36 -30 -42 -30 -6 0 -8 -5 -4
-12 5 -7 3 -8 -6 -3 -15 9 15 37 127 115 48 34 73 46 76 38 4 -9 6 -8 7 2 0 8
26 33 57 55 31 22 76 57 100 78 25 20 115 84 201 141 86 58 172 116 191 130
42 31 39 31 68 4z m3938 -35 c-2 -10 -4 -22 -4 -26 -1 -5 -10 -5 -21 -2 -13 4
-22 1 -26 -9 -3 -9 -13 -16 -21 -16 -13 0 -13 -3 -3 -15 11 -13 10 -14 -4 -9
-12 5 -15 2 -10 -10 4 -12 1 -15 -12 -14 -11 2 -20 -1 -21 -6 0 -5 -8 -13 -17
-18 -9 -5 -16 -14 -16 -21 0 -8 3 -9 8 -1 4 6 16 14 26 18 19 6 19 6 4 -11 -9
-10 -32 -26 -50 -36 -24 -13 -27 -14 -11 -2 24 19 20 45 -7 45 -21 0 -43 -23
-32 -35 4 -5 2 -5 -5 -2 -6 4 -35 -9 -64 -28 -45 -30 -84 -47 -67 -30 4 4 351
243 355 244 1 1 0 -7 -2 -16z m35 -37 c0 -2 -8 -10 -17 -17 -16 -13 -17 -12
-4 4 13 16 21 21 21 13z m-85 -61 c-16 -14 -34 -25 -39 -25 -6 0 5 11 24 25
43 32 54 32 15 0z m-3694 -102 c7 -16 15 -31 17 -35 4 -7 -153 -125 -231 -173
-26 -17 -67 -45 -92 -62 -42 -32 -73 -43 -60 -23 3 5 -2 21 -11 35 -9 14 -13
25 -8 23 5 -2 23 9 39 25 17 15 84 66 150 112 66 47 131 94 145 105 32 25 34
25 51 -7z m2388 -120 c48 -31 91 -103 91 -153 0 -27 -65 -170 -78 -170 -2 0
-2 6 1 14 4 10 -4 12 -38 9 -52 -6 -105 10 -146 44 -41 35 -59 74 -59 130 0
125 124 193 229 126z m837 -40 c-27 -21 -43 -39 -37 -41 6 -2 11 -8 11 -13 0
-6 -4 -8 -9 -4 -5 3 -12 1 -16 -4 -3 -6 -12 -8 -19 -5 -7 3 -19 -2 -26 -11 -7
-8 -20 -15 -29 -15 -9 0 -23 -6 -30 -12 -8 -7 -11 -8 -8 -2 4 6 45 37 91 68
47 31 88 60 91 66 3 5 11 10 17 10 6 0 -10 -17 -36 -37z m71 -20 c-22 -25 -87
-63 -69 -41 7 9 9 18 5 20 -4 3 -2 3 5 1 8 -2 25 6 39 17 32 25 41 26 20 3z
m-3109 -106 c-7 -6 -23 -19 -34 -27 -12 -8 -42 -30 -68 -48 -25 -18 -46 -28
-46 -23 0 10 8 18 45 47 l20 16 -20 -7 c-16 -5 -17 -4 -8 6 7 7 27 14 45 16
18 2 39 10 47 18 9 8 19 15 24 15 5 0 2 -6 -5 -13z m-658 -15 c0 -5 -17 -16
-37 -26 -41 -19 -39 -13 4 15 34 21 33 21 33 11z m85 -22 c-3 -5 -12 -10 -18
-10 -7 0 -6 4 3 10 19 12 23 12 15 0z m4095 -44 c0 -2 -8 -10 -17 -17 -16 -13
-17 -12 -4 4 13 16 21 21 21 13z m-4850 -35 c0 -5 -9 -13 -20 -16 -11 -3 -20
-13 -20 -21 0 -8 -9 -14 -20 -14 -11 0 -20 -3 -20 -7 0 -5 -12 -14 -27 -21
-35 -16 -20 -1 48 49 61 43 59 42 59 30z m-454 -69 c-4 -3 -11 0 -16 8 -5 8
-12 11 -17 7 -10 -11 19 -28 36 -22 8 3 18 0 23 -7 8 -10 11 -10 15 0 2 6 9
12 14 12 6 0 23 10 39 22 16 12 32 19 36 16 3 -4 -7 -14 -23 -24 -15 -10 -46
-32 -68 -49 -22 -17 -64 -48 -94 -70 -48 -34 -52 -36 -37 -13 11 17 13 28 7
33 -6 3 -11 16 -11 28 0 18 2 19 10 7 6 -10 10 -11 10 -2 0 6 7 12 15 12 9 0
12 6 9 15 -4 8 1 27 10 40 15 23 18 24 33 10 8 -9 12 -19 9 -23z m4024 -2 c0
-5 -2 -10 -4 -10 -3 0 -8 5 -11 10 -3 6 -1 10 4 10 6 0 11 -4 11 -10z m-4090
-14 c0 -3 -4 -8 -10 -11 -5 -3 -10 -1 -10 4 0 6 5 11 10 11 6 0 10 -2 10 -4z
m413 -78 c-37 -28 -74 -55 -80 -61 -8 -5 -13 -5 -13 0 0 5 12 16 28 25 15 9
39 27 53 40 30 26 60 47 72 47 5 1 -22 -22 -60 -51z m-133 -13 c-7 -8 -18 -15
-24 -15 -6 0 -2 7 8 15 25 19 32 19 16 0z"/>
<path d="M5067 9329 c-106 -21 -202 -78 -331 -196 -101 -93 -194 -152 -344
-215 -251 -107 -227 -102 -562 -103 l-295 0 -68 -32 c-76 -36 -158 -112 -202
-187 -44 -75 -65 -166 -65 -282 0 -185 -58 -380 -191 -646 -79 -157 -149 -253
-294 -403 -64 -66 -132 -142 -151 -170 -66 -96 -90 -230 -63 -357 20 -95 63
-159 203 -301 211 -214 316 -394 438 -751 47 -139 52 -161 59 -281 10 -180 42
-269 127 -354 137 -136 225 -159 522 -133 229 20 381 -10 585 -114 136 -70
209 -122 329 -234 67 -64 127 -111 160 -126 88 -40 172 -57 263 -52 124 7 211
54 373 202 124 114 207 167 444 284 103 51 253 62 471 36 140 -16 194 -13 290
18 127 41 209 115 271 244 45 95 60 174 44 248 -21 103 -131 236 -241 292 -30
15 -49 29 -43 31 6 2 8 17 6 35 l-5 31 55 -6 c31 -3 73 -14 95 -25 50 -26 115
-96 148 -161 14 -28 29 -51 34 -51 5 0 15 26 21 58 36 177 55 237 129 396 69
149 160 275 302 417 133 134 166 178 199 274 37 107 21 258 -38 354 -10 17
-74 89 -143 161 -162 172 -231 269 -334 471 -91 180 -120 267 -130 397 -8 96
-19 97 -56 4 -32 -80 -64 -129 -96 -146 -43 -21 -212 -73 -267 -81 -54 -8 -54
-12 -1 48 14 15 25 31 25 35 0 4 36 25 80 46 64 30 93 52 141 105 33 36 72 91
87 121 24 49 27 66 27 160 0 101 -1 107 -35 170 -69 127 -201 230 -335 260
-23 5 -146 9 -271 9 -254 0 -291 4 -429 56 -183 69 -295 128 -400 212 -218
173 -290 215 -401 233 -67 11 -71 11 -137 -1z m178 -153 c19 -8 57 -37 84 -64
41 -41 51 -59 61 -107 33 -157 -84 -305 -240 -305 -97 0 -170 50 -221 150 -57
114 -7 264 105 316 60 28 157 32 211 10z m-505 -312 c33 -14 46 -27 70 -73 16
-31 43 -76 59 -101 36 -53 39 -90 12 -154 -25 -56 -92 -125 -131 -133 -29 -5
-29 -6 -23 -63 7 -74 -9 -121 -59 -176 l-40 -43 35 -63 c19 -35 42 -84 52
-110 10 -27 24 -48 32 -48 28 0 73 -31 89 -62 12 -23 15 -45 10 -88 -6 -53 -5
-60 28 -106 77 -110 90 -134 75 -149 -8 -8 -26 -17 -41 -20 -23 -6 -33 0 -72
42 -25 26 -56 71 -68 100 -16 40 -27 53 -48 58 -15 3 -40 19 -56 36 -25 26
-28 37 -29 97 -1 61 -5 73 -43 130 -22 35 -48 83 -58 107 -13 34 -26 49 -58
66 -79 40 -117 90 -142 183 -12 44 -11 53 6 86 23 44 80 97 129 117 44 19 101
13 164 -17 47 -22 48 -22 68 -4 36 32 80 103 85 137 11 64 -69 137 -150 137
-23 0 -76 -16 -130 -39 -109 -47 -169 -64 -295 -87 -89 -16 -210 -15 -253 1
-15 6 -38 46 -38 65 0 6 44 10 103 10 136 0 218 19 351 81 214 100 284 116
366 83z m1153 -67 c145 -73 179 -82 349 -93 97 -6 130 -21 112 -51 -22 -36
-54 -44 -148 -38 -147 10 -263 40 -326 85 -70 49 -210 67 -286 35 -113 -47
-123 -116 -36 -247 l24 -37 55 31 c119 67 236 26 312 -110 7 -13 12 -14 24 -4
8 7 39 21 70 31 31 11 85 35 119 54 35 19 73 38 86 42 21 6 22 4 22 -59 0 -57
-3 -67 -22 -80 -26 -16 -220 -45 -266 -40 -29 3 -31 1 -48 -54 -22 -69 -70
-124 -128 -148 -35 -15 -49 -28 -70 -69 -14 -27 -39 -74 -55 -103 -29 -52 -30
-53 -14 -95 28 -76 -2 -153 -70 -178 -22 -8 -38 -24 -51 -52 -24 -50 -98 -125
-133 -133 -26 -7 -73 9 -73 25 0 5 25 45 56 88 66 92 74 110 63 141 -25 65 2
130 64 158 34 16 45 30 92 123 l53 106 -49 53 c-55 60 -71 105 -63 178 l6 52
-34 11 c-72 24 -137 117 -138 196 0 62 84 192 155 237 25 16 45 18 120 16 90
-3 92 -4 228 -71z m-2192 -133 c72 -21 151 -99 169 -164 34 -127 -39 -275
-165 -331 -125 -56 -269 3 -325 133 -48 112 -5 258 94 326 80 54 136 63 227
36z m3061 -12 c108 -47 158 -125 158 -243 0 -133 -61 -218 -183 -254 -149 -44
-321 109 -321 285 0 182 173 289 346 212z m-1565 -217 c3 -178 6 -191 37 -199
49 -12 106 -104 106 -172 0 -31 -26 -101 -51 -136 -12 -17 -37 -37 -55 -44
l-34 -14 0 -181 0 -180 -47 3 -48 3 -3 178 -2 178 -28 10 c-60 23 -121 109
-122 173 0 75 70 188 126 202 l24 6 0 158 c0 173 -1 170 60 167 l35 -2 2 -150z
m-1094 45 c35 -34 71 -58 110 -72 39 -14 63 -29 69 -44 6 -13 15 -21 19 -18
15 9 10 -6 -7 -23 -22 -23 -156 -13 -212 16 -57 29 -72 55 -72 122 0 88 18 91
93 19z m-98 -400 l90 -90 77 0 c90 0 121 -10 166 -53 49 -47 69 -123 51 -195
l-13 -56 119 -113 c66 -63 143 -132 172 -154 28 -22 54 -46 57 -54 3 -8 -10
-30 -29 -51 l-34 -36 -133 125 c-226 212 -221 208 -243 202 -11 -4 -47 -8 -80
-11 -50 -4 -66 -1 -100 18 -87 51 -123 152 -95 267 l12 50 -39 32 c-52 44
-163 158 -163 168 0 9 60 39 80 40 9 1 56 -39 105 -89z m2406 59 l29 -21 -20
-28 c-11 -15 -52 -62 -91 -104 l-71 -76 16 -40 c27 -67 21 -139 -15 -193 -42
-64 -100 -91 -182 -84 -34 3 -71 8 -83 12 -17 5 -50 -22 -190 -158 l-169 -165
-27 26 c-16 14 -28 33 -28 42 0 17 217 235 302 304 43 34 46 40 36 60 -6 11
-12 49 -12 84 0 53 5 68 30 104 39 56 93 82 178 87 l69 3 95 84 c53 46 98 84
100 84 2 0 17 -9 33 -21z m-3033 -83 c29 -19 89 -48 135 -66 84 -32 107 -55
107 -103 0 -18 -5 -19 -56 -13 -67 8 -196 41 -234 61 -33 17 -40 33 -40 94 0
73 10 76 88 27z m263 -376 c39 -11 92 -58 115 -101 8 -16 17 -52 22 -81 l7
-53 54 -8 c30 -4 92 -24 139 -43 l84 -36 31 30 c32 31 46 35 104 33 46 -2 100
-52 116 -110 13 -44 18 -48 100 -91 47 -25 95 -54 106 -64 25 -23 27 -68 5
-90 -14 -14 -19 -14 -52 -1 -20 9 -76 38 -124 66 -84 48 -89 50 -127 38 -73
-22 -122 1 -165 76 -16 27 -32 35 -159 72 l-142 42 -35 -33 c-51 -49 -91 -66
-157 -66 -53 0 -60 -3 -75 -27 -51 -85 -156 -143 -261 -143 -47 0 -61 5 -101
36 -56 43 -117 71 -174 80 -48 8 -59 18 -42 39 23 27 132 19 210 -15 72 -32
136 -38 187 -19 32 12 113 87 113 105 0 7 -11 36 -25 66 -43 92 -29 178 41
245 60 58 125 75 205 53z m3201 -25 c46 -31 86 -97 94 -158 6 -38 2 -56 -25
-113 l-31 -67 36 -44 c70 -85 112 -96 227 -60 67 22 82 23 103 12 l25 -12 -81
-73 -80 -73 -50 7 c-103 14 -188 65 -239 144 -31 49 -32 49 -75 45 -59 -7
-111 12 -162 59 l-43 39 -72 -21 c-39 -12 -108 -29 -152 -39 -77 -16 -81 -19
-92 -50 -23 -70 -87 -97 -164 -70 -28 10 -37 9 -60 -9 -34 -24 -114 -66 -181
-92 l-51 -20 -9 26 c-23 61 -17 71 83 120 110 55 132 74 159 137 13 30 31 53
49 62 41 22 101 19 133 -6 l27 -21 157 40 157 40 10 56 c26 144 189 219 307
141z m-1499 -339 c173 -84 277 -246 280 -441 3 -169 -95 -335 -248 -420 -78
-43 -131 -57 -221 -56 -225 1 -395 125 -464 340 -18 59 -22 87 -18 164 3 84 8
102 44 178 94 194 228 272 459 266 96 -3 117 -6 168 -31z m-2348 -265 c28 -15
63 -47 79 -70 26 -36 30 -51 34 -129 5 -95 -3 -120 -55 -189 -31 -40 -119 -83
-171 -83 -185 0 -309 202 -225 369 63 127 212 172 338 102z m4536 0 c86 -55
121 -116 120 -212 0 -135 -95 -242 -227 -257 -36 -4 -56 1 -110 28 -53 26 -72
42 -102 87 -83 126 -42 291 89 357 77 38 168 37 230 -3z m-1057 -2 c56 -15 94
-47 126 -103 l28 -49 154 4 c216 5 246 5 252 -2 3 -3 7 -28 8 -55 l3 -49 -210
-1 c-209 -1 -209 -1 -224 -25 -45 -72 -124 -128 -182 -129 -38 0 -110 27 -137
53 -13 12 -38 45 -54 74 -26 45 -32 51 -51 44 -12 -5 -109 -12 -214 -16 l-193
-7 0 61 0 61 53 1 c202 3 334 -3 353 -16 20 -13 23 -11 44 35 49 105 138 148
244 119z m-2504 -22 c33 -17 51 -37 74 -80 23 -42 35 -55 46 -50 8 4 104 9
213 11 l197 4 0 -55 0 -54 -102 -7 c-56 -3 -154 -3 -217 0 l-116 6 -20 -37
c-64 -123 -222 -157 -311 -69 -44 45 -74 104 -74 149 0 64 61 158 125 193 37
21 137 14 185 -11z m-366 -137 c4 -5 12 -27 16 -49 5 -31 4 -41 -7 -45 -8 -4
-100 -6 -204 -6 l-189 0 0 34 c0 19 4 45 9 58 l9 23 178 -3 c99 -2 183 -7 188
-12z m2291 -275 c105 -47 128 -53 150 -45 66 25 131 2 170 -59 18 -29 36 -43
72 -56 26 -9 94 -35 149 -56 56 -21 105 -39 109 -39 5 0 22 11 39 24 61 46 95
57 159 55 61 -3 61 -2 91 38 37 49 106 97 164 114 52 15 101 3 184 -47 31 -19
91 -50 132 -69 41 -20 78 -39 81 -45 3 -5 -3 -18 -15 -30 -31 -31 -125 -28
-171 5 -67 48 -134 85 -157 85 -31 0 -75 -24 -122 -67 -32 -28 -38 -38 -30
-53 22 -41 31 -116 20 -166 -23 -102 -93 -163 -188 -164 -89 0 -138 39 -181
146 l-28 69 -74 23 c-41 12 -114 42 -162 67 l-88 44 -34 -20 c-49 -29 -105
-19 -150 28 -19 20 -37 43 -40 52 -4 9 -52 39 -108 66 -114 56 -140 84 -119
129 6 14 14 26 17 26 3 0 61 -25 130 -55z m-1367 33 c7 -7 12 -24 12 -38 0
-22 -10 -32 -52 -55 -29 -16 -77 -36 -107 -46 -48 -14 -57 -21 -62 -46 -21
-102 -139 -148 -213 -83 -26 23 -35 27 -39 16 -8 -20 -140 -96 -217 -124 -36
-13 -67 -23 -69 -22 -3 0 -10 -19 -16 -42 -19 -77 -48 -120 -96 -145 -104 -53
-229 -8 -274 99 -22 55 -20 143 6 184 25 42 20 62 -31 108 -41 37 -92 56 -153
56 -32 0 -45 -7 -82 -45 -62 -62 -117 -89 -174 -82 -42 5 -81 32 -81 57 0 5
24 16 54 24 30 9 98 45 152 81 89 59 103 65 149 65 89 0 142 -25 216 -102 59
-61 70 -68 105 -68 65 0 113 -19 158 -63 l44 -42 29 18 c42 26 175 75 223 83
31 5 44 3 51 -7 6 -10 9 -1 9 26 1 50 31 120 60 135 21 11 48 10 140 -5 27 -4
53 3 120 34 90 42 119 48 138 29z m1442 -483 c10 -3 44 1 76 10 33 8 73 12 91
9 44 -8 128 -85 143 -130 14 -40 9 -104 -10 -151 -13 -30 -12 -33 22 -75 19
-24 68 -79 109 -122 l73 -78 -32 -29 c-18 -16 -38 -29 -45 -29 -6 0 -61 54
-122 119 l-110 118 -34 -9 c-73 -21 -171 22 -210 92 -20 36 -23 51 -18 104 3
33 9 71 12 83 5 16 2 23 -14 28 -12 3 -68 50 -124 103 -56 53 -123 116 -149
139 -25 23 -49 46 -52 52 -4 6 9 28 29 50 l36 39 156 -159 c86 -87 164 -161
173 -164z m-1284 282 l28 -24 -23 -31 c-12 -17 -87 -93 -166 -169 l-145 -138
9 -55 c23 -143 -66 -246 -209 -242 l-65 1 -112 -111 -112 -111 -35 27 c-20 15
-36 32 -36 38 0 5 51 59 112 118 l113 107 -18 49 c-40 113 -6 203 97 256 31
16 52 19 100 15 34 -3 70 -8 81 -12 17 -5 47 21 170 148 83 86 158 156 167
156 9 1 29 -10 44 -22z m261 -183 c8 -21 -6 -49 -66 -128 -35 -46 -50 -74 -45
-85 19 -46 22 -86 9 -116 -15 -36 -63 -75 -93 -75 -14 0 -32 -19 -58 -62 -20
-35 -53 -85 -72 -112 l-35 -50 24 -15 c84 -56 118 -113 119 -197 0 -48 2 -53
38 -78 57 -39 95 -97 142 -215 l19 -50 -69 -76 c-39 -41 -70 -79 -70 -85 0
-41 -172 -55 -261 -20 -61 25 -142 78 -134 90 3 4 32 -1 66 -11 33 -10 80 -19
103 -19 48 0 133 23 188 51 35 18 38 18 48 1 9 -13 10 -2 7 49 -5 73 -32 135
-90 202 l-32 37 -59 -30 c-83 -42 -153 -37 -217 17 -37 32 -79 115 -79 158 1
74 82 173 162 197 24 7 34 14 27 19 -16 10 9 73 68 167 35 57 47 87 54 140 7
56 14 72 39 95 17 15 42 27 55 27 14 0 27 6 29 13 20 63 43 110 68 141 25 30
36 36 69 36 27 0 42 -5 46 -16z m520 -36 c29 -29 61 -72 71 -96 13 -28 31 -49
52 -60 48 -24 69 -59 77 -122 4 -40 20 -79 55 -141 27 -48 50 -100 51 -115 2
-27 0 -29 -38 -29 -35 0 -43 5 -77 50 -21 28 -48 71 -60 98 -18 39 -26 47 -48
47 -15 0 -36 10 -47 23 -38 41 -45 66 -38 131 l6 62 -65 76 c-36 43 -66 82
-66 87 0 11 47 40 65 41 6 0 34 -24 62 -52z m-269 -154 l2 -171 44 -31 c46
-34 83 -94 93 -155 11 -69 -38 -162 -104 -195 l-35 -19 1 -191 2 -192 -51 0
-51 0 1 192 2 192 -35 18 c-19 9 -49 35 -66 55 -69 83 -63 185 15 272 25 28
54 53 64 56 19 6 20 16 20 170 l0 164 33 4 c65 8 62 18 65 -169z m-1404 -242
c7 -11 -40 -55 -79 -75 -16 -8 -48 -17 -70 -20 -22 -4 -33 -4 -25 0 17 7 80
73 80 84 0 14 86 24 94 11z m-276 -60 c2 -7 12 -12 23 -12 10 0 19 -4 19 -9 0
-5 10 -12 23 -14 19 -4 18 -4 -5 -6 -45 -2 -172 -46 -212 -74 -21 -14 -44 -23
-51 -20 -17 6 -45 75 -45 109 0 16 7 28 23 33 33 13 220 7 225 -7z m2285 -133
c79 -22 146 -111 147 -194 0 -61 -41 -139 -90 -171 -70 -47 -187 -41 -230 10
-16 21 -30 20 -30 -1 0 -9 -20 -42 -45 -74 -48 -61 -65 -96 -65 -134 0 -59
186 -124 324 -113 36 3 66 3 66 -1 0 -12 -111 -60 -164 -71 -51 -11 -81 -6
-104 16 -16 16 -92 19 -92 3 0 -21 -20 -3 -52 46 -20 31 -48 57 -70 68 -21 10
-38 25 -38 33 0 46 127 247 171 273 28 15 29 19 29 89 0 110 30 161 125 211
45 24 64 25 118 10z m974 -74 c52 -22 110 -88 127 -146 9 -29 16 -64 16 -79 0
-134 -141 -280 -270 -280 -89 1 -178 68 -222 168 -43 101 -1 243 91 301 89 57
176 69 258 36z m-3073 -5 c59 -23 118 -79 142 -136 22 -52 18 -150 -8 -203
-49 -102 -159 -171 -248 -155 -123 23 -224 144 -224 269 1 181 164 290 338
225z m2479 -152 c49 -27 64 -40 79 -76 26 -58 35 -112 18 -112 -15 0 -213 118
-241 143 -10 10 -19 31 -19 47 0 29 1 30 51 30 38 0 66 -8 112 -32z m-1929 7
c9 -25 -3 -42 -75 -100 -64 -52 -156 -102 -167 -91 -2 3 -1 39 3 81 6 67 10
78 33 93 25 16 86 28 163 31 25 1 39 -4 43 -14z m985 -407 c44 -14 107 -71
134 -122 45 -88 19 -216 -58 -284 -158 -139 -415 -28 -415 180 0 52 35 139 68
170 74 69 165 88 271 56z"/>
<path d="M5023 7035 c-12 -9 -32 -30 -43 -48 l-22 -32 22 25 c11 14 33 35 48
47 31 26 27 31 -5 8z"/>
<path d="M8517 7666 c-12 -17 -13 -26 -4 -35 18 -18 23 -13 25 24 3 41 0 43
-21 11z"/>
<path d="M8985 7540 c3 -5 8 -10 11 -10 2 0 4 5 4 10 0 6 -5 10 -11 10 -5 0
-7 -4 -4 -10z"/>
<path d="M8320 7505 c-43 -20 -68 -42 -86 -78 -19 -35 -55 -178 -48 -189 3 -4
-1 -8 -8 -9 -7 0 -3 -4 10 -9 12 -5 22 -14 22 -20 0 -6 12 -27 26 -46 53 -69
248 -101 359 -58 42 16 54 28 77 69 33 60 34 93 8 170 -27 80 -60 119 -126
151 -70 34 -180 43 -234 19z"/>
<path d="M8705 7412 c-11 -11 49 -139 85 -180 22 -26 55 -67 73 -92 22 -30 43
-47 61 -50 27 -5 28 -5 9 -22 -16 -15 -19 -29 -16 -89 4 -80 -12 -116 -67
-158 -39 -28 -54 -18 -17 12 52 43 65 133 29 207 -16 33 -20 35 -72 36 -94 3
-94 3 -87 -150 6 -165 8 -170 53 -151 27 11 35 11 41 1 5 -8 21 -11 45 -8 21
2 35 8 32 13 -3 5 4 10 15 10 33 2 34 3 66 25 17 12 36 20 43 18 7 -1 9 0 4 2
-9 5 35 107 49 112 4 2 5 10 2 18 -3 8 0 14 5 14 6 0 11 8 11 18 -1 9 7 55 17
101 15 72 16 93 5 157 -15 91 -40 166 -53 162 -7 -3 -41 -53 -43 -65 -1 -1
-23 9 -50 22 -36 18 -77 27 -143 33 -51 4 -95 6 -97 4z"/>
<path d="M8736 7188 c-8 -13 -18 -35 -21 -50 -8 -32 -3 -35 73 -42 63 -5 66 4
20 65 -40 52 -53 57 -72 27z"/>
<path d="M9533 8939 c-77 -14 -148 -63 -181 -124 -26 -49 -21 -150 10 -210 35
-68 124 -149 205 -187 57 -27 78 -32 144 -32 68 0 85 4 146 35 89 44 113 80
113 163 0 86 -40 167 -123 248 -51 50 -76 67 -128 85 -77 26 -130 32 -186 22z
m252 -399 c-3 -5 -12 -10 -18 -10 -7 0 -6 4 3 10 19 12 23 12 15 0z"/>
<path d="M9728 8943 c7 -3 16 -2 19 1 4 3 -2 6 -13 5 -11 0 -14 -3 -6 -6z"/>
<path d="M1010 7155 c-7 -8 -8 -15 -2 -15 5 0 15 7 22 15 7 8 8 15 2 15 -5 0
-15 -7 -22 -15z"/>
<path d="M1190 5229 c0 -5 5 -7 10 -4 6 3 10 8 10 11 0 2 -4 4 -10 4 -5 0 -10
-5 -10 -11z"/>
<path d="M1553 5150 c-48 -11 -119 -57 -148 -94 -14 -19 -34 -58 -45 -87 -16
-45 -19 -49 -20 -25 0 46 -9 25 -13 -32 -3 -38 -1 -52 9 -52 7 0 15 -6 18 -12
5 -12 0 12 -11 52 -2 8 8 -7 23 -35 52 -98 116 -148 216 -169 53 -11 67 -11
91 1 15 7 33 11 40 7 7 -4 9 -4 6 -1 -3 4 12 26 34 49 74 78 93 157 61 251
-21 61 -96 130 -158 146 -50 12 -57 12 -103 1z"/>
<path d="M1170 5056 c0 -2 7 -6 15 -10 8 -3 15 -1 15 4 0 6 -7 10 -15 10 -8 0
-15 -2 -15 -4z"/>
<path d="M2217 4549 c7 -7 15 -10 18 -7 3 3 -2 9 -12 12 -14 6 -15 5 -6 -5z"/>
<path d="M1195 4660 c-3 -5 1 -10 10 -10 9 0 13 -4 10 -10 -3 -5 -2 -10 3 -10
17 0 21 13 7 26 -16 17 -22 17 -30 4z"/>
<path d="M1086 4585 c-11 -8 -15 -15 -9 -15 6 0 16 7 23 15 16 19 11 19 -14 0z"/>
<path d="M1110 4575 c-7 -9 -8 -15 -2 -15 5 0 12 7 16 15 3 8 4 15 2 15 -2 0
-9 -7 -16 -15z"/>
<path d="M872 4415 c-7 -8 -9 -15 -4 -15 5 0 15 7 22 15 16 19 -1 19 -18 0z"/>
<path d="M8580 4040 c-24 -24 -25 -41 -4 -86 21 -44 71 -74 122 -74 50 0 72
20 72 67 0 28 -8 44 -39 74 -34 34 -45 39 -85 39 -33 0 -52 -6 -66 -20z"/>
<path d="M4043 3521 c-110 -37 -202 -133 -237 -245 -27 -85 -19 -231 15 -306
73 -157 256 -258 418 -232 175 29 311 163 341 335 35 196 -76 382 -267 448
-73 25 -198 25 -270 0z"/>
<path d="M7572 3283 c-42 -92 -112 -269 -112 -284 0 -5 74 -9 164 -9 l164 0
-48 123 c-63 163 -107 257 -118 257 -5 0 -27 -39 -50 -87z"/>
<path d="M5720 3367 l0 -175 175 -7 c96 -4 191 -4 212 -1 105 19 170 116 144
214 -14 52 -44 88 -94 115 -38 20 -59 22 -239 25 l-198 4 0 -175z"/>
<path d="M9125 3640 c3 -5 8 -10 11 -10 2 0 4 5 4 10 0 6 -5 10 -11 10 -5 0
-7 -4 -4 -10z"/>
<path d="M9522 2980 c0 -14 2 -19 5 -12 2 6 2 18 0 25 -3 6 -5 1 -5 -13z"/>
<path d="M805 2550 c-3 -5 1 -10 10 -10 9 0 13 5 10 10 -3 6 -8 10 -10 10 -2
0 -7 -4 -10 -10z"/>
<path d="M9303 2300 c-43 -18 -57 -85 -28 -139 21 -42 95 -75 143 -65 20 4 44
7 52 6 8 -1 10 1 3 4 -8 4 -8 12 3 32 18 34 18 44 -2 85 -29 60 -117 100 -171
77z"/>
<path d="M9502 2180 c0 -19 2 -27 5 -17 2 9 2 25 0 35 -3 9 -5 1 -5 -18z"/>
<path d="M9240 2172 c0 -5 3 -12 7 -16 10 -10 11 -46 1 -40 -5 4 -7 12 -4 19
2 7 -2 16 -10 19 -23 9 -16 -11 15 -46 25 -28 31 -31 36 -16 4 11 -2 32 -15
53 -22 35 -30 42 -30 27z"/>
<path d="M9306 2075 c4 -8 7 -15 9 -15 2 0 5 7 9 15 3 9 0 15 -9 15 -9 0 -12
-6 -9 -15z"/>
<path d="M6005 2063 c-11 -26 -21 -51 -23 -55 -2 -4 22 -8 53 -8 54 0 56 1 50
23 -8 24 -47 87 -55 87 -3 0 -14 -21 -25 -47z"/>
<path d="M2329 2101 c-33 -33 -37 -67 -14 -111 33 -64 101 -79 154 -35 38 33
45 56 31 100 -25 77 -115 101 -171 46z"/>
<path d="M3887 2051 c-9 -27 -17 -51 -17 -55 0 -10 78 -7 85 3 6 10 -34 101
-45 101 -3 0 -13 -22 -23 -49z"/>
<path d="M5233 2050 c-16 -37 -18 -50 -9 -50 8 0 28 -3 45 -6 25 -5 31 -3 31
10 0 15 -37 96 -43 96 -1 0 -12 -23 -24 -50z"/>
<path d="M7038 2057 c-25 -59 -24 -63 26 -59 44 4 45 5 35 30 -14 39 -31 72
-38 72 -3 0 -14 -19 -23 -43z"/>
<path d="M7843 2116 c-33 -15 -63 -60 -63 -95 0 -25 54 -79 86 -87 30 -8 80
12 99 40 24 33 19 82 -12 115 -34 37 -68 45 -110 27z"/>
<path d="M3480 2080 c0 -34 4 -41 25 -46 37 -9 93 4 104 25 7 13 6 24 -5 39
-12 18 -25 22 -70 22 l-54 0 0 -40z"/>
<path d="M5583 2029 c3 -50 8 -93 11 -96 13 -13 111 11 133 33 25 25 30 71 12
106 -14 26 -68 48 -120 48 l-42 0 6 -91z"/>
<path d="M2564 1626 c-22 -22 -34 -44 -34 -61 0 -17 12 -39 34 -61 42 -42 82
-45 125 -8 41 34 43 88 5 133 -37 44 -84 43 -130 -3z"/>
<path d="M2922 1608 l3 -43 48 1 c30 0 54 6 64 17 15 15 15 18 -1 41 -14 22
-24 26 -67 26 l-50 0 3 -42z"/>
<path d="M3793 1640 c-60 -36 -70 -90 -25 -134 16 -14 45 -29 65 -33 32 -5 41
-1 72 30 46 46 46 78 1 123 -39 39 -67 43 -113 14z"/>
<path d="M4124 1644 c3 -9 6 -51 6 -95 l0 -79 29 0 c96 0 151 79 101 143 -32
40 -150 67 -136 31z"/>
<path d="M9278 1538 c-15 -28 -18 -69 -5 -85 24 -32 109 -5 120 37 15 56 -87
98 -115 48z"/>
<path d="M4025 570 c-3 -5 -1 -10 4 -10 6 0 11 5 11 10 0 6 -2 10 -4 10 -3 0
-8 -4 -11 -10z"/>
<path d="M3926 512 c-3 -5 13 -9 36 -9 27 0 36 2 27 8 -18 11 -56 12 -63 1z"/>
<path d="M3926 463 c-6 -14 -5 -15 5 -6 7 7 10 15 7 18 -3 3 -9 -2 -12 -12z"/>
<path d="M7022 523 c-12 -10 -22 -25 -23 -33 -8 -71 28 -120 88 -120 60 0 83
22 83 80 0 42 -4 51 -29 69 -36 26 -92 27 -119 4z"/>
<path d="M7930 499 c0 -5 5 -7 10 -4 6 3 10 8 10 11 0 2 -4 4 -10 4 -5 0 -10
-5 -10 -11z"/>
</g>
</svg>
