<?xml version="1.0" standalone="no"?>
<!DOCTYPE svg PUBLIC "-//W3C//DTD SVG 20010904//EN"
 "http://www.w3.org/TR/2001/REC-SVG-20010904/DTD/svg10.dtd">
<svg version="1.0" xmlns="http://www.w3.org/2000/svg"
 width="1024.000000pt" height="1024.000000pt" viewBox="0 0 1024.000000 1024.000000"
 preserveAspectRatio="xMidYMid meet">

<g transform="translate(0.000000,1024.000000) scale(0.100000,-0.100000)"
fill="#000000" stroke="none">
<path d="M0 5120 l0 -5120 4573 0 4572 0 -25 21 c-14 11 -37 26 -52 34 -15 8
-40 27 -55 41 -15 14 -68 55 -118 90 -80 57 -195 143 -280 210 -17 13 -44 34
-62 46 -43 31 -226 179 -293 236 -53 46 -169 133 -270 202 -28 19 -57 40 -63
45 -7 6 -34 26 -62 45 -27 19 -54 40 -60 47 -17 20 -94 55 -105 48 -6 -4 3 21
20 55 32 63 36 91 6 46 -9 -14 -26 -30 -37 -37 -18 -9 -25 -7 -45 14 -12 14
-20 28 -17 31 4 3 -1 6 -10 6 -22 0 -22 -1 8 53 15 27 60 73 110 115 l84 70
35 -16 35 -16 -24 -24 c-25 -24 -41 -59 -32 -68 3 -3 20 13 38 35 18 23 37 41
43 41 6 0 32 -17 57 -37 25 -21 76 -60 113 -88 37 -27 122 -92 189 -144 67
-52 165 -127 217 -167 276 -211 608 -472 616 -486 4 -6 -8 0 -27 14 -19 14
-44 31 -57 38 -22 11 -23 10 -12 -11 17 -30 105 -116 168 -164 81 -60 171
-131 223 -175 26 -22 66 -52 90 -69 24 -16 55 -41 68 -55 l24 -26 329 0 328 0
0 5120 0 5120 -5120 0 -5120 0 0 -5120z m4415 3730 c286 -26 624 -148 871
-316 l97 -65 101 40 c235 93 433 119 675 87 68 -9 130 -20 137 -24 20 -11
-150 -79 -296 -119 -69 -19 -245 -68 -392 -110 l-267 -75 -58 44 c-341 260
-671 369 -1076 355 -291 -9 -528 -81 -745 -227 -265 -178 -429 -457 -434 -739
l-2 -71 -64 -36 c-36 -20 -99 -69 -141 -109 -42 -39 -98 -85 -126 -101 -266
-153 -422 -334 -509 -586 -52 -153 -54 -362 -4 -512 65 -197 219 -401 389
-517 113 -77 293 -147 434 -169 79 -12 110 -25 84 -35 -13 -5 -11 -18 15 -94
17 -48 37 -95 43 -103 7 -8 10 -18 6 -21 -20 -20 -222 6 -365 47 -314 92 -630
350 -772 634 -154 307 -165 686 -27 975 95 199 292 399 511 519 67 37 229 98
259 98 14 0 18 19 29 133 22 256 115 459 291 641 203 209 415 331 702 405 220
57 404 72 634 51z m141 -365 c144 -33 320 -106 439 -183 100 -65 126 -89 104
-96 -28 -9 -277 -76 -377 -101 -56 -14 -182 -48 -279 -76 -98 -28 -227 -63
-288 -79 -178 -46 -287 -76 -515 -140 -118 -33 -253 -70 -298 -81 -46 -11 -95
-24 -108 -29 -21 -8 -24 -7 -24 13 0 30 53 199 85 272 56 127 171 254 314 349
129 86 318 151 511 176 112 15 307 4 436 -25z m2107 -17 c135 -51 353 -209
464 -334 74 -83 155 -200 198 -285 46 -89 101 -251 120 -350 17 -92 20 -284 5
-344 -19 -72 -33 -115 -39 -115 -3 0 -19 30 -35 66 -16 36 -49 94 -72 129 -66
98 -73 117 -104 263 -31 145 -57 225 -98 307 -42 84 -121 197 -182 260 -47 48
-65 76 -90 143 -34 90 -85 172 -127 206 -14 11 -58 38 -97 59 -78 41 -61 40
57 -5z m-174 -64 c94 -27 132 -74 229 -274 46 -96 129 -266 183 -378 54 -112
99 -206 99 -208 0 -3 70 -145 155 -315 139 -276 155 -314 155 -359 0 -59 -26
-116 -68 -152 -19 -16 -106 -50 -238 -93 -115 -37 -294 -96 -399 -131 -104
-34 -210 -68 -235 -74 -25 -7 -79 -25 -120 -41 -129 -49 -318 -115 -490 -169
-91 -29 -206 -67 -257 -86 -51 -19 -96 -34 -101 -34 -4 0 -95 -29 -202 -63
-107 -35 -283 -92 -390 -126 -107 -34 -211 -69 -230 -77 -19 -8 -91 -32 -160
-53 -69 -22 -170 -56 -225 -76 -55 -21 -123 -46 -152 -56 -122 -44 -221 -32
-301 37 -54 46 -77 85 -117 201 -18 54 -52 139 -74 190 -22 50 -56 138 -76
195 -20 56 -58 162 -85 233 -27 72 -67 177 -89 235 -22 58 -63 161 -91 230
-100 242 -150 383 -150 419 0 49 38 103 97 138 26 15 116 46 203 69 414 111
581 157 722 198 84 24 216 61 293 81 77 20 190 52 250 70 105 33 413 119 745
210 330 90 420 115 575 160 88 25 212 61 275 80 128 38 191 43 269 19z m-3569
-1111 c0 -10 19 -61 41 -113 110 -257 164 -396 223 -575 13 -38 33 -89 44
-112 12 -23 45 -111 73 -195 28 -84 68 -193 89 -243 21 -49 62 -148 90 -220
28 -71 68 -157 87 -189 l36 -59 -31 -26 c-36 -30 -127 -143 -148 -183 -8 -16
-18 -28 -23 -28 -15 0 -99 193 -160 366 -33 93 -78 211 -101 263 -23 51 -53
135 -67 185 -14 50 -34 107 -43 126 -10 19 -24 58 -33 85 -8 28 -30 88 -49
135 -20 47 -39 96 -43 110 -11 37 -71 172 -126 282 -60 120 -61 145 -11 201
21 23 61 79 88 124 49 83 64 98 64 66z m-335 -330 c15 -43 41 -107 57 -143 63
-139 181 -482 172 -503 -8 -23 -102 -37 -175 -27 -35 5 -71 8 -79 7 -26 -3
-90 26 -90 41 0 17 -29 41 -49 42 -9 0 -11 -7 -6 -27 4 -16 9 -37 11 -48 2
-11 10 -45 18 -75 12 -47 12 -52 0 -36 -24 34 -55 127 -77 231 -18 89 -19 110
-9 190 12 91 52 227 90 300 22 44 89 125 102 125 4 0 20 -35 35 -77z m5056
-587 c-30 -30 -74 -65 -100 -79 -92 -49 -518 -177 -590 -177 -38 0 -48 6 -91
50 -47 48 -80 117 -80 167 0 56 65 29 138 -57 64 -74 68 -73 482 66 226 76
283 93 289 88 3 -3 -19 -29 -48 -58z m-1066 -48 c7 -29 51 -142 140 -358 l27
-64 -21 -17 -20 -17 22 -6 c12 -3 38 -6 58 -6 90 0 198 -69 238 -153 47 -97
16 -212 -69 -254 -153 -78 -380 63 -356 221 4 23 22 73 42 111 l36 71 -35 50
c-18 28 -60 114 -92 190 -33 77 -67 153 -77 169 -25 42 -23 65 5 65 12 1 36 7
52 15 42 19 43 19 50 -17z m1365 -53 c133 -68 190 -181 145 -289 -17 -41 -79
-85 -130 -93 -47 -7 -125 13 -179 47 -86 55 -132 182 -92 258 50 96 156 128
256 77z m-1932 -177 c43 -77 175 -407 254 -638 31 -89 33 -146 7 -202 -11 -25
-75 -61 -90 -52 -4 2 -10 24 -14 49 -14 96 -37 161 -138 382 -58 125 -121 269
-142 318 -21 50 -47 100 -58 112 -23 25 -24 24 60 43 28 6 60 18 70 25 10 8
19 15 20 15 0 0 14 -24 31 -52z m-290 -330 c66 -134 134 -266 151 -295 l31
-51 -68 -26 c-37 -14 -107 -37 -155 -52 -75 -23 -90 -25 -102 -13 -7 8 -34 68
-60 134 -26 66 -62 147 -80 180 -37 67 -98 245 -93 271 2 11 37 26 111 49 59
18 110 35 114 39 19 19 41 -15 151 -236z m1875 140 c-3 -24 -9 -47 -13 -51 -7
-8 -121 -52 -328 -125 l-104 -37 -24 30 c-40 50 -30 65 66 96 325 105 396 128
402 129 3 0 4 -19 1 -42z m-4603 -44 c12 -36 19 -68 16 -72 -4 -3 -25 4 -49
16 -30 15 -34 20 -15 16 27 -6 27 -6 24 50 -2 31 -2 56 -1 56 1 0 12 -30 25
-66z m2207 -91 c22 -54 57 -134 76 -178 20 -44 39 -103 41 -130 3 -28 14 -73
25 -101 11 -28 29 -89 41 -134 12 -46 45 -137 75 -202 32 -69 49 -120 44 -124
-6 -3 -26 -6 -45 -7 -21 -1 -34 -6 -34 -14 0 -24 -17 -14 -42 25 -13 20 -71
131 -127 245 -57 115 -118 228 -136 252 -19 24 -61 104 -95 177 -34 73 -70
151 -80 173 -22 44 -19 49 45 66 22 5 65 18 95 29 30 10 60 19 65 19 6 1 29
-43 52 -96z m-374 -165 c34 -73 97 -202 139 -286 43 -84 78 -159 78 -166 0 -9
-22 -21 -57 -31 -32 -9 -98 -32 -147 -51 -48 -19 -94 -34 -101 -34 -7 0 -28
46 -49 108 -21 59 -55 145 -76 192 -61 135 -121 310 -107 315 36 11 139 46
187 64 30 11 58 20 63 21 4 0 35 -60 70 -132z m-544 -160 c30 -68 84 -206 121
-308 59 -161 166 -423 205 -500 30 -59 29 -68 -9 -75 -19 -4 -40 -13 -47 -21
-18 -21 -27 -17 -43 19 -8 17 -42 95 -75 172 -59 135 -164 394 -257 635 -25
63 -49 125 -53 136 -8 19 -5 23 29 33 22 6 42 16 45 21 16 26 36 0 84 -112z
m3208 96 c-3 -3 -12 -4 -19 -1 -8 3 -5 6 6 6 11 1 17 -2 13 -5z m874 -23 c84
-32 175 -95 246 -170 108 -113 193 -319 193 -465 -1 -180 -102 -356 -247 -429
-26 -14 -118 -48 -203 -77 -85 -29 -174 -61 -197 -71 l-41 -18 -50 112 c-28
62 -62 139 -75 172 -40 95 -111 251 -167 364 -28 57 -66 144 -85 192 -36 94
-101 225 -116 235 -28 17 9 32 336 139 137 45 142 46 245 42 76 -3 120 -10
161 -26z m-4573 -144 c17 -46 57 -149 90 -228 83 -204 85 -218 20 -234 -40
-10 -40 -10 -178 350 -57 149 -56 138 -13 168 21 14 41 26 45 26 3 1 20 -37
36 -82z m3600 -162 c70 -21 166 -78 225 -134 143 -133 269 -421 252 -573 -13
-124 -85 -268 -174 -351 -154 -144 -391 -162 -600 -44 -68 38 -180 143 -224
210 -73 112 -127 287 -127 417 0 245 130 420 362 485 65 18 209 13 286 -10z
m-3834 -47 c27 -101 -15 -143 -205 -210 -74 -27 -179 -59 -234 -72 -55 -13
-144 -36 -196 -50 -53 -15 -126 -27 -162 -28 l-66 -2 -17 -39 c-39 -85 -133
-147 -224 -147 -92 0 -205 74 -236 155 -34 89 5 197 89 249 127 78 284 20 383
-142 3 -5 326 82 499 135 160 48 285 105 324 147 30 32 37 32 45 4z m2866
-264 c116 -27 204 -103 269 -231 80 -160 57 -343 -58 -475 -50 -57 -107 -86
-266 -139 -71 -23 -132 -44 -134 -46 -2 -1 1 -8 6 -15 6 -7 26 -53 46 -103 20
-49 49 -120 66 -157 17 -37 31 -71 31 -76 0 -5 -21 -18 -47 -30 -138 -60 -163
-70 -167 -64 -2 4 -27 63 -56 132 -28 69 -67 161 -86 205 -50 114 -133 309
-231 540 -47 110 -96 221 -108 246 l-23 45 121 36 c67 20 194 61 282 92 178
62 236 68 355 40z m-2399 -34 c115 -35 209 -142 209 -236 -1 -50 -28 -110 -70
-151 -81 -79 -262 -63 -360 32 l-35 34 -52 -24 c-94 -43 -265 -103 -388 -135
-66 -18 -177 -50 -247 -71 -133 -41 -167 -46 -185 -28 -9 9 -16 -2 -28 -44
-31 -107 -105 -184 -209 -217 -70 -22 -189 13 -242 72 -61 66 -80 159 -50 233
71 169 269 206 430 80 32 -25 62 -45 65 -45 4 0 41 11 82 25 64 22 166 52 494
146 39 11 99 31 135 44 36 13 90 31 121 40 l56 16 7 46 c10 76 42 130 99 168
60 40 81 42 168 15z m1629 -360 c46 -107 96 -220 111 -251 24 -49 79 -177 199
-464 20 -49 54 -125 75 -168 36 -77 40 -107 11 -107 -8 0 -55 -18 -105 -39
l-89 -39 -109 77 c-59 42 -166 114 -238 159 -150 96 -367 245 -415 285 -18 15
-34 26 -36 24 -5 -5 33 -108 92 -244 25 -59 68 -165 94 -234 26 -69 59 -148
74 -176 28 -56 27 -57 -31 -86 -32 -17 -192 -77 -203 -77 -4 0 -12 19 -19 43
-7 23 -50 130 -96 237 -45 107 -113 269 -150 360 -37 91 -96 233 -130 315 -88
212 -88 213 -82 229 3 7 18 17 34 21 15 3 62 20 104 37 l76 30 62 -32 c67 -34
309 -192 651 -427 41 -29 76 -51 77 -49 5 4 -210 492 -260 593 l-46 91 67 21
c37 11 94 34 127 50 33 15 63 26 66 22 3 -3 43 -94 89 -201z m3439 -258 c89
-194 89 -194 63 -246 -12 -25 -33 -53 -48 -62 -33 -22 -121 -30 -168 -14 -49
16 -80 56 -148 195 l-59 119 23 18 c13 10 26 18 30 18 9 0 79 -120 107 -185
30 -68 57 -95 97 -95 37 0 94 42 94 69 0 9 -17 53 -38 97 -21 43 -47 101 -57
128 -18 47 -18 49 0 62 38 28 49 17 104 -104z m-4540 -72 c32 -74 84 -193 115
-265 96 -218 156 -382 165 -451 19 -130 -16 -233 -122 -364 -59 -73 -133 -127
-222 -160 -74 -28 -224 -38 -308 -20 -177 36 -320 172 -390 370 -52 146 -98
269 -174 463 -47 120 -83 221 -80 223 7 8 198 75 227 81 24 4 29 -2 58 -60 33
-69 200 -484 222 -552 51 -159 143 -245 265 -245 51 0 158 53 193 96 30 36 52
93 52 135 0 22 -30 102 -115 309 -66 162 -101 243 -151 352 -30 64 -54 120
-54 125 0 4 37 21 83 37 45 16 98 37 117 47 19 10 41 17 48 16 7 -1 39 -63 71
-137z m4101 -6 c26 -11 51 -31 69 -58 41 -60 43 -73 23 -120 -15 -34 -31 -48
-80 -74 -34 -18 -62 -36 -62 -40 0 -4 11 -24 25 -44 14 -20 25 -41 25 -46 0
-8 -63 -52 -74 -52 -3 0 -46 94 -91 200 -20 47 -50 109 -66 139 -31 57 -28 70
16 72 11 0 43 9 70 19 63 23 94 24 145 4z m-364 -105 c51 -13 54 -24 19 -61
-20 -22 -31 -26 -55 -22 -35 8 -90 -23 -110 -62 -46 -85 24 -204 120 -204 48
0 110 42 110 75 0 35 -15 39 -60 14 -22 -12 -42 -20 -45 -17 -3 3 -6 22 -8 44
l-2 38 60 23 c33 12 67 22 76 22 11 1 25 -21 42 -66 43 -111 43 -116 5 -148
-82 -69 -164 -80 -265 -35 -58 26 -80 45 -104 92 -59 115 -13 253 101 302 43
19 59 19 116 5z m-571 -242 c38 -22 40 -25 40 -72 -1 -28 -3 -59 -5 -69 -4
-14 5 -27 30 -43 l35 -24 6 29 c9 44 17 52 56 52 35 0 36 0 30 -37 -2 -21 -6
-45 -8 -53 -3 -10 13 -23 44 -39 26 -13 47 -29 47 -37 0 -15 -56 -54 -78 -54
-8 0 -22 10 -31 22 l-18 21 -27 -35 c-48 -64 -118 -73 -206 -28 -58 29 -66 76
-27 156 16 36 19 48 9 52 -27 9 -72 55 -72 73 0 26 36 96 52 102 30 12 86 5
123 -16z m-4394 -23 c210 -62 323 -216 322 -440 -1 -84 -26 -150 -75 -196 -30
-28 -31 -31 -18 -56 19 -33 241 -206 352 -274 48 -29 87 -55 87 -58 1 -4 -82
-40 -280 -123 -23 -9 -34 -5 -100 38 -74 49 -230 161 -302 217 -42 33 -35 33
-163 -4 l-82 -23 28 -80 c15 -44 46 -125 69 -180 23 -55 45 -107 47 -116 4
-12 -25 -27 -126 -68 -73 -29 -136 -49 -140 -44 -4 4 -27 62 -50 128 -23 66
-75 206 -116 310 -40 105 -102 271 -138 370 -36 99 -83 219 -104 265 -68 147
-83 126 151 208 348 123 412 141 503 141 46 1 104 -6 135 -15z m3995 -189 c77
-169 89 -208 75 -257 -31 -108 -134 -156 -236 -109 -63 29 -112 94 -194 258
-44 89 -40 105 24 96 27 -4 36 -16 89 -119 62 -120 100 -164 144 -164 37 0 92
40 92 67 0 18 -82 237 -116 310 -6 12 25 22 59 19 12 -1 32 -32 63 -101z
m-483 -109 c67 -29 124 -113 112 -166 -8 -34 -79 -105 -127 -125 -21 -8 -38
-17 -38 -19 0 -2 11 -29 25 -60 14 -31 25 -59 25 -61 0 -6 -57 -35 -69 -35 -5
0 -37 66 -71 148 -34 81 -76 171 -92 200 -17 29 -28 56 -25 59 8 8 199 73 215
73 7 0 27 -6 45 -14z m-352 -148 c45 -13 48 -23 17 -55 -17 -18 -32 -23 -74
-23 -46 0 -59 -5 -90 -32 -20 -18 -43 -48 -51 -66 -13 -32 -12 -38 12 -87 41
-84 107 -112 190 -81 49 19 61 40 46 80 -13 32 -24 32 -63 5 -33 -24 -45 -18
-50 25 -3 29 0 31 82 62 l85 32 11 -42 c7 -22 20 -65 30 -95 l19 -54 -40 -34
c-70 -61 -110 -76 -187 -71 -85 7 -149 43 -195 111 -41 61 -49 113 -29 175 20
58 77 129 120 148 39 17 116 18 167 2z m-648 -200 c47 -24 72 -114 42 -154
-21 -28 -18 -42 15 -59 41 -21 50 -19 50 13 0 34 16 52 47 52 29 0 38 -34 24
-85 -13 -48 -8 -59 40 -80 45 -21 50 -40 14 -57 -19 -9 -29 -8 -50 6 -20 13
-25 14 -25 2 0 -8 -16 -28 -37 -46 -33 -30 -41 -32 -92 -28 -100 7 -165 55
-177 129 -5 29 -1 41 22 68 l28 33 -39 32 c-35 29 -37 35 -31 68 8 45 44 99
76 115 24 12 58 9 93 -9z m-758 -277 c70 -32 131 -113 149 -198 14 -63 -29
-157 -92 -199 -26 -18 -119 -60 -197 -90 -9 -4 -18 8 -26 38 -19 66 -95 262
-124 318 -14 27 -25 56 -25 64 0 17 196 85 245 85 17 1 48 -8 70 -18z m447
-105 c51 -24 108 -58 125 -75 25 -24 37 -30 50 -23 24 12 36 7 116 -46 38 -25
77 -46 87 -47 32 -2 120 -47 113 -58 -3 -6 -1 -7 6 -3 26 16 416 -194 544
-293 33 -26 56 -50 53 -58 -6 -16 43 -43 78 -43 14 0 27 -4 31 -10 3 -5 13 -6
22 -3 11 4 6 -7 -14 -33 -16 -21 -43 -59 -60 -84 -26 -41 -32 -45 -63 -42 -19
2 -52 13 -74 24 -52 27 -279 189 -586 418 -270 203 -292 221 -287 242 4 14 2
18 -9 14 -20 -7 -53 10 -134 70 -36 27 -67 49 -70 49 -3 0 -21 13 -40 28 -34
28 -34 29 -8 23 15 -3 69 -26 120 -50z m-875 -23 c3 -10 29 -72 58 -138 66
-149 71 -172 50 -221 -33 -81 -107 -134 -185 -134 -82 0 -132 48 -180 173 -16
42 -43 103 -60 137 -34 67 -31 80 15 94 18 5 28 -11 85 -135 64 -139 94 -179
132 -179 24 0 56 16 86 43 40 37 35 58 -85 343 -2 7 8 17 24 22 41 15 53 14
60 -5z m927 -112 c-6 -6 -124 110 -124 123 0 6 29 -18 65 -54 35 -35 62 -66
59 -69z m89 -91 c55 -38 134 -106 379 -329 112 -101 247 -218 300 -260 95 -74
116 -101 80 -101 -40 0 -229 160 -537 454 -143 137 -264 253 -269 257 -23 21
9 7 47 -21z m-1498 -28 c93 -46 155 -127 155 -203 0 -117 -93 -226 -208 -245
-56 -9 -169 26 -204 63 -37 40 -58 87 -65 142 -4 39 0 60 22 110 59 131 188
189 300 133z m-565 -339 c29 -84 57 -159 64 -167 9 -12 24 -8 96 24 47 21 88
39 91 39 7 1 39 -73 39 -88 0 -5 -37 -23 -82 -40 -46 -17 -107 -43 -137 -57
-30 -14 -57 -22 -61 -17 -3 4 -26 69 -49 143 -24 74 -58 168 -77 209 -19 41
-34 78 -34 83 0 5 19 18 42 28 32 14 44 16 49 7 4 -7 30 -81 59 -164z m-251
56 c35 -12 38 -24 15 -57 -12 -17 -25 -22 -61 -22 -64 0 -118 -33 -144 -88
-19 -39 -20 -48 -9 -85 34 -113 158 -151 255 -78 l38 28 34 -20 34 -20 -43
-45 c-54 -56 -109 -82 -173 -82 -166 0 -292 181 -226 326 55 120 172 180 280
143z m3504 -95 c43 -22 177 -122 177 -133 0 -4 -27 -32 -60 -61 -34 -29 -87
-83 -119 -120 l-58 -67 -76 56 c-42 31 -80 66 -83 78 -4 16 5 37 33 75 40 56
146 188 151 188 2 0 17 -7 35 -16z m277 -204 c0 -4 -10 -20 -22 -36 l-23 -29
25 18 c14 9 30 20 36 23 15 7 99 -47 244 -156 63 -48 136 -101 163 -119 26
-17 47 -38 47 -46 0 -8 -21 -38 -48 -67 -26 -29 -74 -86 -107 -127 -32 -40
-61 -68 -63 -62 -2 6 -11 11 -20 11 -9 0 -30 13 -47 28 -46 43 -192 147 -313
223 -35 22 -67 50 -72 64 -5 13 -20 27 -34 31 -13 3 -34 17 -47 30 -23 25 -23
25 -4 60 25 46 108 130 150 152 34 17 135 19 135 2z m-593 -120 c2 -8 -4 -24
-12 -35 -12 -15 -19 -17 -32 -9 -24 15 -26 29 -7 48 19 20 48 17 51 -4z m120
-142 c29 -16 53 -33 53 -36 0 -4 -9 -22 -20 -39 -19 -32 -35 -41 -42 -25 -1 4
-31 29 -65 56 -66 52 -77 67 -67 100 14 45 24 46 57 9 17 -19 55 -48 84 -65z
m113 -118 c14 -7 31 -21 38 -32 7 -10 21 -18 31 -18 9 0 28 -10 41 -22 13 -13
45 -36 71 -53 83 -53 317 -234 323 -250 6 -17 -19 -75 -32 -75 -7 0 -164 122
-305 238 -32 26 -74 55 -93 65 -18 9 -41 29 -50 42 -9 14 -22 25 -30 25 -20 0
-84 59 -84 78 0 8 8 24 17 34 17 19 17 19 33 0 8 -11 26 -25 40 -32z m900 -25
c0 -21 -112 -165 -171 -220 -54 -50 -54 -50 -57 -23 -5 40 41 119 112 194 44
46 69 65 80 61 9 -4 16 -2 16 4 0 6 5 7 10 4 6 -3 10 -12 10 -20z m90 -55 l20
-20 -21 -43 c-22 -43 -84 -107 -173 -179 l-49 -39 -25 25 c-22 21 -24 29 -15
49 19 41 144 176 187 202 50 30 51 30 76 5z m-344 -414 c-12 -28 -21 -36 -41
-36 -40 0 -42 27 -4 66 28 29 35 32 47 21 11 -12 11 -20 -2 -51z m63 -65 c-6
-16 -17 -32 -25 -35 -12 -5 -12 -2 -3 17 13 24 30 47 35 47 1 0 -2 -13 -7 -29z
m295 -210 c67 -47 268 -203 438 -339 217 -173 255 -204 293 -236 22 -18 44
-33 49 -34 5 0 12 -4 15 -9 3 -4 32 -25 64 -47 31 -21 57 -41 57 -45 0 -4 -10
-15 -21 -25 -20 -17 -23 -17 -31 -2 -5 9 -13 16 -18 16 -18 0 -240 155 -306
215 -7 5 -46 41 -88 79 -63 57 -203 163 -265 201 -9 6 -19 15 -23 20 -4 6 -11
10 -16 10 -4 0 -30 18 -58 41 -27 23 -74 58 -104 79 -30 21 -87 67 -126 101
-39 35 -74 60 -79 56 -4 -4 0 7 9 25 8 17 20 33 26 35 6 2 36 -19 66 -46 29
-27 83 -70 118 -95z m1417 -408 c13 -16 12 -17 -3 -4 -17 13 -22 21 -14 21 2
0 10 -8 17 -17z m122 -88 c41 -33 74 -61 72 -63 -5 -5 -90 56 -135 98 -60 55
-30 39 63 -35z m327 -252 c0 -8 -37 17 -75 52 -39 35 -39 35 18 -6 31 -23 57
-43 57 -46z"/>
<path d="M6374 8290 c-47 -30 -61 -72 -41 -115 19 -41 80 -75 133 -75 28 0 44
8 71 35 30 30 35 40 29 67 -8 39 -40 76 -83 94 -44 19 -72 17 -109 -6z"/>
<path d="M5850 8070 c-235 -37 -434 -189 -493 -374 -33 -106 -30 -286 7 -411
47 -154 96 -236 210 -350 91 -91 113 -106 216 -158 144 -72 203 -87 360 -94
151 -6 238 10 346 63 148 73 290 228 331 362 26 82 23 242 -6 345 -67 244
-259 449 -519 556 -131 54 -328 81 -452 61z m333 -130 c29 -11 73 -37 97 -57
l42 -37 -5 -58 c-6 -68 -41 -144 -78 -171 -22 -16 -29 -17 -47 -6 -17 11 -20
25 -24 118 -4 88 -9 116 -31 165 -15 32 -27 60 -27 62 0 8 21 3 73 -16z m-226
-33 c46 -50 83 -111 108 -180 21 -57 14 -67 -46 -67 -32 0 -47 11 -158 121
-67 67 -120 127 -118 133 3 10 101 32 153 35 13 1 37 -16 61 -42z m-257 -143
c30 -31 83 -76 118 -101 34 -25 62 -47 62 -51 0 -12 -44 -52 -58 -52 -41 0
-268 96 -321 136 -2 2 2 17 9 34 14 35 84 89 115 90 12 0 43 -23 75 -56z m815
-37 c19 -29 51 -74 70 -101 19 -26 35 -55 35 -63 0 -16 -165 -97 -216 -106
-24 -5 -36 -1 -52 16 -31 34 -29 47 15 115 23 35 54 94 68 133 15 38 31 67 36
63 5 -3 25 -29 44 -57z m-356 -185 c24 -15 59 -49 78 -76 43 -62 46 -128 8
-191 -60 -103 -224 -100 -319 5 -100 111 -56 255 89 291 45 10 95 0 144 -29z
m-569 -32 c47 -13 96 -29 110 -36 14 -7 32 -15 41 -17 22 -7 30 -54 13 -71
-14 -14 -135 -33 -239 -38 l-60 -3 0 85 c1 102 7 125 32 112 10 -6 56 -20 103
-32z m1116 -106 c7 -28 -1 -188 -11 -203 -3 -5 -33 2 -68 15 -77 31 -130 49
-184 64 -38 9 -43 15 -49 46 -8 41 4 53 51 54 17 1 68 12 115 24 117 33 138
33 146 0z m-884 -171 c15 -15 28 -34 28 -43 0 -35 -35 -118 -77 -183 -51 -81
-52 -81 -139 23 -68 82 -117 166 -86 146 14 -8 174 41 201 63 34 26 40 26 73
-6z m635 -42 c40 -10 102 -33 138 -49 70 -33 81 -55 50 -99 -12 -18 -20 -20
-49 -13 -38 8 -155 70 -197 104 -15 12 -34 26 -43 31 -21 12 -12 45 13 45 9 0
49 -9 88 -19z m-67 -164 c140 -124 138 -122 109 -147 -34 -28 -155 -74 -175
-66 -9 4 -14 9 -11 12 3 4 -4 21 -16 38 -28 38 -40 63 -68 141 -12 33 -26 65
-31 72 -7 9 0 16 24 27 18 8 40 15 48 15 8 1 62 -41 120 -92z m-328 33 c17
-34 49 -153 63 -231 7 -36 7 -36 -27 -32 -93 12 -206 36 -226 49 l-23 15 29
34 c17 18 35 51 42 72 7 21 22 60 33 86 19 46 21 48 56 45 30 -2 39 -9 53 -38z"/>
<path d="M4954 7901 c-107 -66 -7 -224 120 -190 100 27 116 147 26 194 -40 21
-109 19 -146 -4z"/>
<path d="M4215 7660 c-96 -22 -184 -54 -285 -105 -106 -53 -242 -190 -292
-295 -59 -123 -70 -166 -75 -290 -8 -193 37 -345 148 -505 109 -158 262 -269
454 -331 248 -79 423 -84 623 -18 139 45 235 105 343 214 139 141 196 297 185
505 -10 210 -73 354 -227 531 -141 160 -311 254 -529 294 -137 24 -238 24
-345 0z m374 -120 c40 -12 107 -39 148 -62 73 -40 75 -42 69 -72 -11 -53 -69
-157 -120 -213 -26 -29 -52 -53 -57 -53 -5 0 -25 10 -44 23 l-34 22 0 95 c0
109 -15 168 -59 234 l-31 46 27 0 c15 0 60 -9 101 -20z m-308 -42 c23 -24 52
-59 64 -78 26 -40 85 -178 85 -197 0 -8 -14 -13 -41 -13 -22 0 -49 -5 -60 -11
-17 -9 -34 1 -116 63 -53 40 -125 99 -159 130 l-63 57 34 21 c40 25 161 68
193 69 13 1 38 -15 63 -41z m-329 -224 c45 -31 99 -69 118 -84 19 -15 51 -35
70 -46 19 -10 37 -20 39 -21 2 -1 -8 -16 -23 -33 -14 -17 -26 -38 -26 -45 0
-7 -7 -21 -16 -29 -13 -13 -34 -15 -132 -11 -179 9 -272 24 -272 44 0 80 111
300 145 287 7 -2 51 -30 97 -62z m1069 -26 c16 -24 50 -83 75 -131 34 -68 44
-100 44 -137 0 -46 -1 -48 -32 -53 -18 -3 -99 -9 -180 -13 l-147 -7 -11 29
c-7 16 -18 42 -27 59 -14 28 -14 30 9 45 50 32 130 116 173 182 25 37 50 68
55 68 5 0 24 -19 41 -42z m-482 -177 c24 -14 58 -46 75 -70 27 -38 31 -51 31
-110 0 -89 -27 -134 -103 -169 -45 -20 -63 -23 -109 -18 -70 8 -99 24 -151 80
-50 54 -62 82 -62 139 0 110 114 195 240 179 19 -2 55 -16 79 -31z m-424 -228
c8 -20 13 -43 10 -52 -9 -30 -209 -227 -242 -239 -28 -9 -34 -8 -57 15 -27 27
-131 229 -142 275 l-6 27 118 4 c66 1 161 4 211 5 l93 2 15 -37z m892 -62
c196 -9 200 -11 172 -84 -50 -128 -145 -262 -177 -250 -17 7 -163 124 -252
202 l-45 40 18 31 c9 18 17 40 17 49 0 28 11 33 60 26 25 -3 118 -9 207 -14z
m-772 -122 c4 -5 28 -20 53 -32 42 -20 47 -26 50 -58 7 -80 -54 -274 -98 -314
-23 -21 -36 -17 -147 46 -115 66 -153 92 -153 104 0 6 35 31 77 55 75 44 93
63 165 169 28 42 42 49 53 30z m398 -105 c29 -31 71 -84 95 -118 24 -33 61
-80 84 -103 l41 -41 -44 -23 c-24 -12 -75 -30 -114 -40 -77 -20 -243 -36 -270
-25 -17 6 -17 8 0 26 24 26 44 143 44 258 1 88 2 92 24 92 12 1 33 7 47 15 14
8 29 14 33 15 5 0 32 -25 60 -56z"/>
<path d="M3294 7448 c-41 -10 -74 -47 -81 -92 -5 -33 -2 -40 36 -76 37 -35 48
-40 89 -40 70 0 131 48 132 104 0 25 -36 82 -58 91 -35 15 -88 21 -118 13z"/>
<path d="M7045 7040 c17 -4 41 -8 55 -9 20 0 22 1 10 9 -8 5 -33 9 -55 9 -39
-1 -39 -2 -10 -9z"/>
<path d="M6977 6999 c-32 -24 -53 -90 -37 -118 16 -31 67 -63 109 -68 32 -4
43 0 74 26 63 56 58 125 -12 161 -51 26 -101 26 -134 -1z"/>
<path d="M5570 6589 c-12 -8 -9 -9 12 -5 32 7 105 -7 122 -24 8 -8 4 -9 -17
-1 -16 6 -51 11 -78 11 -60 0 -92 -26 -109 -90 -13 -48 -2 -72 53 -114 70 -53
153 -42 196 27 30 48 27 94 -6 131 -17 18 -20 24 -8 16 l20 -15 -20 24 c-37
44 -128 66 -165 40z"/>
<path d="M5525 6179 c-27 -10 -37 -17 -21 -14 31 7 97 33 81 33 -5 0 -32 -8
-60 -19z"/>
<path d="M5300 6105 c-32 -18 -5 -19 35 0 23 10 25 13 10 14 -11 0 -31 -6 -45
-14z"/>
<path d="M3847 6040 c-55 -10 -55 -18 1 -12 37 3 61 -1 98 -19 27 -13 54 -25
59 -28 6 -2 4 3 -4 13 -31 37 -94 56 -154 46z"/>
<path d="M5065 6025 l-30 -14 30 6 c17 3 37 9 45 14 27 15 -11 10 -45 -6z"/>
<path d="M3821 5996 c-32 -18 -50 -53 -51 -98 -1 -109 174 -158 231 -64 23 38
25 88 3 121 -30 46 -132 69 -183 41z"/>
<path d="M4570 5870 c-8 -5 -10 -10 -5 -10 6 0 17 5 25 10 8 5 11 10 5 10 -5
0 -17 -5 -25 -10z"/>
<path d="M4311 5789 c-13 -5 -22 -12 -19 -15 3 -3 21 2 39 10 37 16 19 21 -20
5z"/>
<path d="M3745 5710 c8 -13 80 -50 97 -50 7 0 -10 14 -39 30 -56 32 -68 36
-58 20z"/>
<path d="M2864 7066 c-20 -20 -34 -44 -34 -58 0 -26 47 -128 59 -128 4 0 24
17 44 38 l37 38 -14 45 c-18 61 -37 99 -49 99 -5 0 -24 -15 -43 -34z"/>
<path d="M2937 6892 c-44 -45 -45 -59 -12 -129 25 -56 37 -62 71 -38 51 35 51
116 1 178 l-23 27 -37 -38z"/>
<path d="M3020 6673 c-25 -20 -47 -39 -48 -44 -6 -16 57 -139 74 -146 20 -7
74 50 74 77 0 26 -28 114 -42 131 -12 15 -18 13 -58 -18z"/>
<path d="M3097 6449 l-47 -59 20 -37 c25 -48 45 -73 57 -73 5 0 24 15 42 34
38 40 38 66 -2 147 l-22 46 -48 -58z"/>
<path d="M3190 6274 c-19 -13 -39 -33 -46 -45 -22 -41 22 -180 59 -187 9 -2
31 11 48 28 28 27 31 36 27 73 -3 23 -16 67 -29 98 l-24 57 -35 -24z"/>
<path d="M3300 6053 c0 -6 -15 -21 -34 -32 -19 -12 -37 -28 -40 -36 -7 -18 28
-132 49 -163 20 -27 41 -18 81 33 25 33 26 38 14 79 -12 43 -70 142 -70 119z"/>
<path d="M3351 5779 c-39 -48 -38 -60 13 -172 44 -97 75 -117 112 -74 31 37
31 81 -1 154 -27 61 -73 133 -85 133 -4 0 -21 -18 -39 -41z"/>
<path d="M6764 5745 c-47 -20 -69 -52 -69 -100 0 -53 38 -99 96 -117 48 -14
84 -4 122 33 26 26 29 35 24 71 -11 79 -106 141 -173 113z"/>
<path d="M7812 6184 c-54 -38 -48 -109 14 -164 57 -50 138 -40 169 20 21 41
19 64 -11 100 -49 58 -125 77 -172 44z"/>
<path d="M8135 5320 c-31 -5 -212 -58 -222 -64 -1 -1 42 -92 96 -201 53 -110
120 -255 147 -323 36 -91 53 -121 64 -118 71 22 208 79 240 100 99 65 133 175
94 307 -48 162 -144 263 -283 295 -61 15 -75 15 -136 4z"/>
<path d="M7154 4982 c-65 -23 -111 -61 -146 -120 -23 -39 -28 -59 -28 -118 0
-130 60 -275 148 -355 83 -76 103 -84 207 -84 82 0 95 3 145 31 67 38 103 91
126 187 20 80 10 167 -28 244 -35 73 -162 196 -222 216 -63 22 -137 21 -202
-1z"/>
<path d="M7202 4095 c27 -15 129 -34 117 -21 -3 3 -28 10 -55 15 -27 5 -58 12
-69 16 -11 4 -8 -1 7 -10z"/>
<path d="M7340 4070 c-13 -8 -12 -10 3 -10 9 0 17 5 17 10 0 12 -1 12 -20 0z"/>
<path d="M2369 4933 c-50 -31 -73 -98 -49 -143 18 -33 74 -60 125 -60 42 0 52
5 86 39 44 44 48 70 19 119 -35 57 -126 79 -181 45z"/>
<path d="M6285 4672 c-11 -2 -70 -19 -131 -38 -61 -19 -117 -34 -125 -34 -8 0
-20 -4 -28 -9 -11 -7 -11 -12 2 -32 8 -13 41 -87 72 -164 31 -77 59 -142 60
-144 9 -9 259 84 287 107 37 31 67 94 68 140 0 37 -23 97 -48 125 -33 36 -107
60 -157 49z"/>
<path d="M3923 4740 c-18 -10 -40 -31 -49 -45 -34 -53 20 -140 99 -159 38 -9
104 13 128 42 41 53 8 137 -68 168 -44 19 -72 17 -110 -6z"/>
<path d="M2534 4371 c-52 -23 -79 -75 -71 -135 15 -107 170 -137 247 -49 35
40 37 69 9 124 -14 29 -32 46 -62 60 -52 23 -71 23 -123 0z"/>
<path d="M8553 4095 c-20 -8 -33 -21 -33 -32 0 -31 38 -83 60 -83 27 0 77 26
83 42 7 23 -14 65 -39 77 -31 14 -31 14 -71 -4z"/>
<path d="M7630 3775 c-18 -22 -8 -49 23 -59 33 -12 51 6 40 39 -10 35 -42 46
-63 20z"/>
<path d="M7669 3579 c-15 -49 -6 -59 56 -59 37 0 76 14 65 23 -3 2 -26 20 -51
40 -25 20 -49 37 -52 37 -3 0 -12 -18 -18 -41z"/>
<path d="M3170 3553 c-57 -8 -121 -27 -220 -65 -58 -23 -106 -42 -107 -43 -6
-4 95 -276 105 -287 11 -10 285 85 331 115 76 51 101 127 65 203 -26 54 -99
87 -174 77z"/>
<path d="M6748 3412 c-26 -9 -49 -20 -53 -23 -7 -8 45 -109 56 -109 14 0 63
23 82 38 23 20 22 63 -3 90 -24 26 -21 25 -82 4z"/>
<path d="M5757 3082 c-22 -25 -21 -49 2 -62 32 -17 50 -12 57 17 13 49 -28 80
-59 45z"/>
<path d="M5792 2907 c-5 -7 -13 -22 -16 -34 -9 -30 38 -73 80 -73 29 0 86 33
74 43 -3 2 -33 20 -67 40 -46 26 -64 33 -71 24z"/>
<path d="M4930 2786 c-35 -10 -45 -17 -43 -32 2 -26 90 -238 100 -241 4 -2 35
12 68 31 47 26 63 41 74 70 18 48 3 102 -43 151 -37 39 -71 44 -156 21z"/>
<path d="M4015 2431 c-53 -31 -84 -96 -71 -146 9 -37 72 -102 111 -115 70 -23
175 54 175 128 0 113 -124 189 -215 133z"/>
<path d="M8760 686 c0 -2 7 -9 15 -16 13 -11 14 -10 9 4 -5 14 -24 23 -24 12z"/>
<path d="M8800 641 c0 -13 36 -42 43 -34 4 3 7 2 7 -4 0 -13 100 -87 107 -80
8 9 -22 47 -34 43 -14 -6 -45 28 -36 39 5 4 3 5 -3 2 -7 -4 -14 -1 -17 7 -6
15 -67 40 -67 27z"/>
</g>
</svg>
