<?xml version="1.0" standalone="no"?>
<!DOCTYPE svg PUBLIC "-//W3C//DTD SVG 20010904//EN"
 "http://www.w3.org/TR/2001/REC-SVG-20010904/DTD/svg10.dtd">
<svg version="1.0" xmlns="http://www.w3.org/2000/svg"
 width="1024.000000pt" height="1024.000000pt" viewBox="0 0 1024.000000 1024.000000"
 preserveAspectRatio="xMidYMid meet">

<g transform="translate(0.000000,1024.000000) scale(0.100000,-0.100000)"
fill="#000000" stroke="none">
<path d="M0 5120 l0 -5120 5120 0 5120 0 0 5120 0 5120 -5120 0 -5120 0 0
-5120z m3634 3968 c79 -65 98 -165 45 -237 -55 -77 -145 -93 -218 -41 -54 40
-81 85 -81 137 0 105 66 172 170 173 37 0 53 -6 84 -32z m1097 -18 c23 -13 25
-66 4 -94 -9 -11 -15 -42 -15 -70 0 -56 -6 -69 -33 -79 -52 -19 -73 38 -38
107 13 24 18 49 14 70 -10 60 22 90 68 66z m1447 -10 c38 -23 66 -81 58 -116
-4 -13 -17 -40 -31 -60 -25 -37 -25 -38 -25 -266 l0 -229 -37 7 c-21 4 -41 9
-45 11 -5 2 -8 100 -8 217 0 182 -2 215 -16 227 -21 17 -54 84 -54 109 0 50
61 120 104 120 11 0 36 -9 54 -20z m-3088 -69 c34 -34 45 -68 36 -115 -20
-103 -175 -118 -221 -20 -22 47 -13 94 26 134 26 25 38 30 81 30 41 0 54 -5
78 -29z m1232 12 c23 -20 24 -80 1 -105 -21 -23 -34 -23 -67 3 -19 15 -26 30
-26 54 0 58 51 85 92 48z m1592 -9 c19 -18 23 -114 5 -114 -24 0 -79 33 -94
56 -24 37 -16 58 25 65 19 4 38 7 42 8 4 0 14 -6 22 -15z m-3315 -1 l92 -6 -6
-26 c-4 -14 -11 -30 -16 -36 -5 -5 -125 -13 -267 -17 -276 -8 -327 -16 -410
-64 -108 -63 -188 -165 -233 -296 -17 -52 -19 -87 -19 -365 0 -169 -3 -359 -7
-420 l-6 -113 -44 0 -44 0 4 423 c4 467 4 471 74 613 35 74 112 160 187 210
78 53 191 86 321 94 173 10 269 11 374 3z m1516 -38 l0 -40 -147 -3 c-122 -2
-148 0 -148 11 0 8 -3 29 -6 46 l-7 32 154 -3 154 -3 0 -40z m425 25 c27 -27
26 -78 -3 -112 -19 -23 -123 -65 -134 -54 -4 3 30 118 48 164 11 29 61 30 89
2z m578 12 c26 -17 62 -77 62 -103 0 -32 -58 -99 -84 -99 -32 0 -55 20 -65 56
-17 61 0 117 44 142 24 14 26 14 43 4z m2897 -11 c103 -34 171 -75 240 -146
76 -77 120 -150 156 -260 23 -69 23 -76 27 -619 l3 -549 -32 7 c-17 3 -40 6
-50 6 -18 0 -19 19 -19 538 0 593 2 569 -65 701 -33 65 -114 154 -172 188 -91
53 -84 53 -966 53 l-818 0 5 48 c3 26 5 48 5 48 1 1 371 0 824 0 644 -2 831
-5 862 -15z m-2466 -28 c6 -21 11 -43 11 -49 0 -6 27 -14 63 -18 78 -8 152
-43 220 -106 178 -162 162 -421 -37 -601 -45 -41 -113 -75 -176 -88 -30 -7
-58 -17 -61 -23 -6 -9 -36 -3 -111 22 -173 58 -241 131 -278 300 -36 166 -23
254 54 357 50 68 113 112 207 143 65 21 67 23 73 61 8 49 22 50 35 2z m-642
-9 c10 -9 17 -34 17 -57 1 -37 -2 -42 -23 -45 -46 -7 -71 6 -71 37 0 29 33 81
51 81 6 0 18 -7 26 -16z m-519 -135 c6 -35 -41 -66 -129 -83 -46 -9 -109 -23
-139 -31 -30 -8 -65 -15 -78 -15 -62 0 -168 -85 -232 -186 -84 -133 -127 -85
-56 63 53 110 153 181 317 224 46 12 104 28 129 35 63 18 184 14 188 -7z
m2921 -3 c8 -9 42 -15 106 -18 92 -4 99 -6 198 -57 133 -70 205 -126 278 -218
89 -113 139 -227 139 -320 0 -30 -3 -33 -29 -33 -26 0 -30 5 -56 78 -45 126
-84 191 -164 270 -143 143 -274 202 -463 210 -60 2 -108 8 -108 14 0 5 -4 7
-9 4 -5 -4 -47 -13 -93 -22 -237 -44 -427 -224 -509 -481 -22 -69 -25 -73 -52
-73 l-30 0 7 66 c11 109 77 256 149 332 126 133 340 242 476 242 31 0 63 5 71
10 22 14 76 12 89 -4z m-645 -49 c12 -34 -1 -61 -33 -65 -31 -5 -51 15 -51 53
0 40 7 47 44 43 23 -2 33 -10 40 -31z m-3876 -9 c12 -12 22 -30 22 -40 0 -25
-44 -68 -70 -68 -29 0 -70 44 -70 75 0 14 9 34 21 46 25 25 61 19 97 -13z
m3665 21 c48 -25 67 -51 67 -93 -1 -105 -120 -132 -181 -40 -25 38 -24 65 2
98 33 43 73 55 112 35z m-3993 -44 c25 -41 21 -61 -16 -75 -47 -18 -80 39 -49
86 21 33 40 30 65 -11z m5561 25 c52 -14 79 -44 79 -86 0 -44 -37 -84 -79 -84
-66 0 -118 113 -74 162 19 21 25 21 74 8z m-4711 -18 c22 -18 23 -25 26 -213
2 -107 9 -332 15 -500 7 -169 9 -314 6 -323 -4 -11 -18 -16 -42 -16 -20 0 -50
-7 -66 -16 -17 -8 -33 -13 -36 -10 -3 3 -6 241 -7 530 -1 502 0 525 18 545 23
26 56 27 86 3z m1495 -38 c107 -36 229 -143 275 -241 90 -191 52 -409 -98
-558 -60 -61 -245 -147 -312 -147 -28 0 -186 59 -232 86 -108 63 -189 190
-208 325 -22 159 45 344 165 449 52 46 137 91 194 103 51 11 158 2 216 -17z
m-1739 2 c1 0 4 -228 6 -506 l5 -505 -46 -1 c-25 0 -56 -4 -69 -9 l-24 -8 3
514 c1 283 4 517 5 520 3 4 115 0 120 -5z m515 -126 c3 -69 13 -156 22 -195
23 -96 24 -347 2 -365 -8 -7 -15 -26 -15 -43 0 -53 -21 -97 -47 -97 -13 0 -23
5 -23 11 0 5 -4 7 -10 4 -18 -11 -23 50 -17 234 4 105 1 264 -5 367 -6 99 -8
189 -5 198 5 13 17 16 49 14 l43 -3 6 -125z m-1313 111 c11 -6 10 -15 -4 -44
-16 -34 -16 -38 0 -82 21 -53 16 -63 -22 -49 -19 7 -33 7 -44 1 -8 -6 -23 -7
-32 -4 -13 5 -14 11 -6 32 6 15 10 52 10 84 0 32 3 61 7 64 9 10 75 8 91 -2z
m-179 -15 c9 -10 7 -17 -5 -27 -13 -11 -15 -25 -10 -76 6 -62 6 -63 -19 -63
-28 0 -31 9 -38 113 l-5 67 33 0 c18 0 38 -6 44 -14z m5198 -44 c7 -4 16 -25
21 -47 8 -39 8 -39 74 -51 88 -16 143 -42 202 -95 54 -48 107 -148 127 -239
l11 -52 237 3 c130 2 242 -1 249 -5 7 -4 12 -18 12 -31 0 -28 -8 -30 -110 -39
-35 -4 -68 -10 -73 -15 -5 -5 -13 -45 -17 -88 -13 -126 -64 -224 -182 -345
-127 -131 -349 -237 -495 -238 -23 0 -45 -4 -48 -10 -3 -5 -24 -10 -45 -10
-33 0 -40 4 -44 23 -3 12 -7 31 -9 42 -3 14 -5 11 -6 -9 l-1 -29 -60 7 c-224
26 -476 215 -570 429 -10 23 -24 71 -30 107 -22 122 -23 123 -58 132 -39 10
-65 54 -41 69 8 5 100 9 205 9 l190 0 23 79 c12 43 36 101 52 130 51 88 172
162 284 173 26 3 31 8 39 43 4 22 10 46 12 53 4 13 32 16 51 4z m-3249 -44
c18 -18 15 -42 -7 -62 -18 -17 -19 -17 -25 1 -3 10 -4 27 -1 38 2 11 4 23 4
28 1 11 15 9 29 -5z m-1223 -467 l0 -420 -65 -3 c-36 -2 -66 -3 -67 -3 -1 0
-3 191 -5 423 l-3 422 70 0 70 0 0 -419z m5388 381 c26 -23 22 -67 -9 -91 -37
-29 -61 -26 -84 11 -17 28 -17 34 -4 59 25 49 56 55 97 21z m-1777 -7 c22 -34
11 -71 -26 -90 -29 -15 -31 -15 -55 11 -34 36 -31 60 8 84 42 26 53 25 73 -5z
m-4440 -70 c32 -49 -22 -86 -74 -49 -30 21 -30 67 1 81 26 13 51 2 73 -32z
m518 24 c14 -11 26 -29 26 -39 0 -27 -44 -54 -75 -46 -49 12 -57 72 -12 94 30
15 31 15 61 -9z m1477 -124 c54 -19 81 -44 104 -96 15 -33 16 -45 6 -77 -28
-91 -103 -131 -190 -101 -35 12 -91 96 -91 136 0 43 32 104 69 129 42 28 45
29 102 9z m2222 -19 c18 -7 47 -30 66 -49 93 -98 15 -245 -125 -234 -64 4
-105 33 -134 93 -61 124 63 246 193 190z m-3964 -50 c28 -29 25 -52 -10 -78
-30 -23 -59 -18 -89 15 -24 25 -25 45 -3 69 23 26 75 23 102 -6z m311 -289 l0
-283 -67 4 c-38 2 -69 5 -69 6 -1 0 -4 123 -7 273 l-5 272 72 4 c39 1 72 4 74
5 1 1 2 -125 2 -281z m-595 168 c30 -29 31 -49 5 -75 -27 -27 -65 -26 -84 2
-22 31 -20 54 6 78 28 26 44 25 73 -5z m1719 -54 c16 -25 27 -288 27 -640 1
-421 2 -410 -50 -426 l-24 -7 7 228 c4 126 7 360 6 520 -1 160 1 301 5 313 7
22 20 27 29 12z m2247 -60 c32 -32 35 -47 18 -84 -11 -24 -47 -47 -74 -47 -24
0 -65 44 -71 77 -5 26 -1 36 21 57 37 34 70 33 106 -3z m-3641 -115 c0 -68 3
-143 6 -167 l6 -44 -71 0 -71 0 0 106 c0 58 -3 134 -6 168 l-7 61 72 0 71 0 0
-124z m3092 97 c24 -22 23 -36 -8 -72 -31 -38 -53 -39 -93 -5 -38 32 -39 56
-4 84 31 24 74 22 105 -7z m-1224 -38 c16 -35 15 -74 -2 -81 -13 -5 -84 37
-97 58 -4 6 -9 2 -13 -10 -9 -26 -30 -34 -61 -22 -32 12 -32 35 0 56 22 14 30
15 49 4 19 -10 29 -9 52 4 41 22 59 20 72 -9z m1402 -1 c13 -14 13 -17 -4 -30
-27 -20 -69 -18 -97 5 -21 16 -22 21 -9 36 11 13 23 15 55 10 22 -3 47 -13 55
-21z m-1715 -33 c15 -47 49 -85 115 -131 29 -21 31 -54 3 -58 -48 -7 -161 79
-188 142 -16 38 -2 83 28 89 12 2 23 5 24 6 1 0 9 -21 18 -48z m2346 -24 c3
-20 5 -115 4 -210 l-3 -172 -41 -3 -41 -3 0 216 0 216 37 -3 c35 -3 38 -6 44
-41z m233 -19 c20 -28 20 -51 1 -88 -21 -40 -54 -49 -77 -20 -26 32 -23 76 7
105 30 31 49 32 69 3z m-4394 -97 l0 -109 -47 14 c-27 8 -58 12 -70 9 -23 -5
-23 -4 -23 89 0 66 4 96 13 99 6 3 38 6 70 6 l57 1 0 -109z m6188 73 c27 -19
28 -55 2 -79 -26 -24 -65 -13 -84 24 -13 25 -13 31 0 50 18 25 51 27 82 5z
m-2493 -59 c42 -41 31 -91 -27 -129 -32 -21 -60 -15 -88 21 -64 82 42 182 115
108z m-567 -7 c15 -15 16 -64 1 -73 -15 -10 -19 -3 -25 44 -5 42 2 51 24 29z
m290 -31 c26 -24 29 -63 6 -95 -21 -30 -58 -28 -83 4 -28 35 -26 69 4 100 26
26 34 25 73 -9z m527 8 c31 -30 32 -73 4 -109 -28 -35 -80 -36 -114 -1 -33 33
-32 70 4 106 36 36 73 37 106 4z m-1861 -6 c14 -11 31 -29 36 -39 15 -27 -17
-60 -68 -70 -37 -6 -45 -4 -67 18 -31 30 -32 58 -3 89 27 29 67 30 102 2z
m263 -45 c9 -23 -13 -40 -32 -24 -8 7 -15 19 -15 26 0 19 39 18 47 -2z m649
-46 c15 -24 11 -271 -6 -364 -19 -104 -22 -109 -140 -220 -180 -169 -343 -249
-599 -294 -39 -7 -246 -13 -533 -15 l-469 -3 3 46 3 46 437 -2 c475 -4 542 2
713 55 109 34 243 106 302 162 66 64 88 126 87 251 0 83 -4 102 -27 147 -34
65 -69 85 -164 91 -99 6 -157 -11 -208 -62 -60 -60 -88 -126 -89 -211 -1 -83
20 -175 40 -175 13 0 16 10 49 140 28 112 93 182 182 196 52 8 88 -12 109 -61
51 -123 -52 -300 -187 -325 -52 -10 -52 11 1 46 43 29 112 113 129 157 16 42
13 82 -7 107 -17 21 -20 22 -49 7 -16 -9 -44 -32 -60 -51 -32 -35 -73 -131
-73 -167 0 -68 -84 -134 -230 -183 -117 -38 -178 -43 -231 -16 -88 45 -100 73
-46 114 49 38 73 34 82 -11 11 -58 22 -73 55 -73 35 0 70 31 70 63 0 47 14 52
69 22 70 -39 80 -27 51 57 -17 48 -22 86 -23 158 0 84 3 101 27 149 36 69 110
149 161 172 52 23 147 33 229 24 59 -6 69 -11 105 -47 22 -22 52 -64 67 -93
25 -52 26 -61 24 -202 -3 -216 -6 -211 46 -103 43 87 47 104 57 212 14 146 7
168 -53 168 -27 0 -43 5 -47 15 -16 43 119 112 143 73z m1489 -11 c28 -43 29
-82 4 -132 -26 -52 -61 -85 -91 -85 -28 0 -64 44 -78 96 -31 108 -8 144 91
144 50 0 61 -3 74 -23z m1689 -17 c47 -56 47 -152 -1 -190 -54 -43 -143 -12
-162 57 -15 52 -14 89 4 123 18 34 27 38 87 39 40 1 50 -3 72 -29z m-6234 -55
c59 -30 79 -128 40 -192 -30 -50 -87 -55 -147 -16 -68 45 -59 167 15 207 35
19 56 20 92 1z m316 -19 c29 -29 34 -41 34 -80 0 -90 -36 -136 -107 -136 -37
0 -89 43 -103 85 -16 47 -5 88 35 130 45 49 93 49 141 1z m237 16 c44 -30 56
-53 57 -109 0 -61 -32 -107 -81 -118 -38 -9 -106 33 -115 71 -13 52 3 107 40
141 41 38 60 40 99 15z m318 -21 c32 -32 39 -46 39 -78 0 -92 -122 -161 -177
-100 -47 51 -56 112 -25 160 47 70 105 77 163 18z m292 -11 c20 -22 37 -49 37
-60 0 -37 -37 -97 -70 -110 -41 -17 -117 -8 -142 18 -18 18 -19 24 -8 78 17
84 64 129 120 118 14 -2 42 -22 63 -44z m386 25 c40 -34 55 -82 42 -133 -13
-48 -35 -68 -81 -77 -68 -12 -170 67 -170 131 0 39 93 103 152 104 14 0 40
-11 57 -25z m2236 -20 c30 -29 31 -40 5 -88 -15 -27 -20 -56 -20 -112 0 -68 2
-75 20 -75 22 0 25 -16 10 -54 l-9 -25 -331 -1 -330 0 0 38 c0 21 5 43 11 49
7 7 14 56 16 110 6 126 8 132 34 98 20 -24 21 -34 15 -121 l-7 -94 70 0 71 0
0 85 c0 72 -3 88 -20 105 -39 39 -16 109 32 97 38 -10 45 -40 38 -167 -4 -63
-4 -118 -1 -121 3 -3 33 -3 65 -1 l59 4 -5 129 c-5 106 -3 133 9 144 19 20 29
19 46 -5 11 -16 13 -48 9 -145 l-5 -126 74 3 74 3 3 83 c2 62 -1 88 -13 104
-21 31 -19 64 5 88 26 26 46 25 75 -5z m-1838 -7 c41 -38 20 -108 -33 -108
-48 0 -71 73 -34 110 26 26 38 25 67 -2z m267 3 c7 -11 -50 -89 -76 -105 -27
-17 -52 5 -56 47 -2 27 2 39 20 51 24 17 103 22 112 7z m2474 -63 c20 -20 15
-76 -8 -88 -28 -15 -60 4 -60 36 0 53 38 82 68 52z m1294 -5 c22 -20 23 -51 1
-75 -21 -23 -32 -23 -60 4 -27 25 -29 45 -6 70 20 22 41 23 65 1z m-6232 -78
c10 -21 16 -72 18 -168 l4 -138 -49 3 -48 3 3 155 c1 85 5 161 7 168 8 23 49
9 65 -23z m4502 23 c57 -17 133 -88 154 -145 28 -73 25 -176 -8 -239 -52 -99
-140 -158 -234 -158 -85 1 -145 26 -195 82 -58 65 -79 115 -79 188 0 128 48
211 154 264 47 23 145 27 208 8z m-2922 -105 c14 -9 28 -21 32 -27 10 -15 -3
-339 -15 -353 -20 -26 -45 -13 -68 35 -22 44 -23 57 -20 197 1 83 5 153 8 158
7 12 37 8 63 -10z m855 -21 c6 -40 -7 -92 -25 -92 -5 0 -19 18 -30 40 -12 23
-32 45 -45 50 -14 5 -25 16 -25 25 0 12 13 15 59 15 l59 0 7 -38z m-1094 -82
c3 -58 4 -108 2 -112 -2 -5 -23 -8 -45 -8 l-41 0 7 46 c3 26 6 71 6 100 0 56
19 88 49 82 13 -3 17 -22 22 -108z m5402 96 c87 -37 122 -137 79 -223 -70
-135 -217 -133 -286 4 -36 71 -3 182 64 215 42 21 99 23 143 4z m-5684 -12 c2
-2 6 -84 9 -183 l5 -180 -28 -11 c-54 -21 -55 -17 -55 194 l0 196 33 -7 c17
-3 34 -7 36 -9z m1168 -30 c31 -28 29 -38 -10 -68 -44 -34 -60 -33 -92 5 -34
41 -29 69 14 91 37 18 37 19 88 -28z m-1969 -124 c4 -191 -1 -222 -31 -218
-42 6 -52 49 -49 213 2 82 6 153 9 158 3 4 19 7 36 5 l32 -3 3 -155z m507 -95
c1 -259 -8 -340 -37 -359 -41 -25 -43 0 -33 382 l7 233 31 -3 32 -3 0 -250z
m-240 228 c9 -25 -6 -564 -17 -585 -13 -27 -37 -22 -45 10 -8 30 -9 84 -5 390
l2 202 29 0 c18 0 31 -6 36 -17z m1270 -177 c0 -185 -5 -205 -39 -171 -13 14
-16 43 -16 179 0 89 3 166 7 170 4 4 16 6 28 4 19 -3 20 -9 20 -182z m4633
112 l-3 -43 -825 0 -825 0 -3 43 -3 42 831 0 831 0 -3 -42z m-2613 -71 c3 -12
2 -103 -2 -202 l-8 -180 -27 -3 c-27 -3 -28 -2 -23 40 2 24 7 112 10 197 3 85
8 158 11 162 10 17 34 9 39 -14z m-181 -3 c8 -21 6 -253 -3 -284 -4 -15 -15
-26 -29 -28 -22 -3 -22 -3 -22 156 0 87 3 162 7 165 12 13 41 7 47 -9z m-207
-87 c6 -64 -8 -114 -28 -102 -5 4 -9 42 -9 85 0 133 25 145 37 17z m3951 81
c17 -17 15 -45 -4 -52 -9 -3 -119 -6 -245 -6 l-229 0 0 23 c0 45 11 47 245 47
159 0 224 -3 233 -12z m166 6 c22 -8 20 -41 -3 -54 -52 -27 -140 0 -111 34 15
19 85 31 114 20z m-3525 -161 c-2 -206 -9 -267 -30 -271 -23 -4 -29 43 -29
251 l0 177 30 0 31 0 -2 -157z m1734 56 c126 -25 273 -82 396 -152 102 -59
243 -175 267 -221 16 -28 15 -29 -38 -83 -150 -154 -424 -304 -637 -349 -86
-18 -304 -18 -406 0 -172 31 -391 132 -554 255 -88 67 -151 133 -151 159 0 32
142 156 270 235 118 72 307 144 440 166 106 17 304 13 413 -10z m448 -1 c10
-18 8 -24 -11 -40 -24 -19 -56 -11 -67 18 -17 44 55 65 78 22z m-1346 -23 c0
-37 -24 -44 -62 -19 l-27 17 24 19 c35 28 65 20 65 -17z m1546 25 c16 0 28
-43 17 -62 -10 -21 -48 -24 -66 -6 -7 7 -12 24 -12 39 0 28 15 41 38 33 8 -2
18 -4 23 -4z m-6370 -47 c35 -18 61 -40 73 -62 39 -68 16 -179 -47 -225 -37
-27 -145 -28 -194 -2 -72 37 -94 149 -47 236 45 83 119 101 215 53z m1360 -6
c42 -28 79 -91 79 -135 0 -46 -35 -109 -73 -132 -21 -13 -50 -20 -86 -20 -48
0 -57 3 -91 38 -35 35 -60 91 -60 135 0 28 37 93 66 116 38 30 119 29 165 -2z
m5947 -124 l3 -33 -203 -1 c-112 0 -321 -3 -466 -5 -285 -5 -282 -5 -268 50
l6 24 462 -2 463 -1 3 -32z m216 31 c9 -3 16 -16 16 -29 0 -28 -17 -35 -80
-35 -64 0 -80 7 -80 35 0 20 6 24 38 28 67 7 90 7 106 1z m-7189 -34 c22 -8
26 -15 23 -42 l-3 -33 -92 -3 -93 -3 0 30 c0 56 7 61 75 61 35 0 76 -4 90 -10z
m717 -30 c12 -58 8 -60 -94 -59 -130 0 -174 9 -170 34 3 16 1 18 -9 8 -18 -18
-29 -16 -29 6 0 10 8 22 18 26 21 9 172 23 232 21 42 -1 45 -3 52 -36z m-412
0 c0 -28 -2 -30 -39 -30 -32 0 -40 4 -44 22 -7 27 7 38 51 38 29 0 32 -3 32
-30z m3540 -10 c16 -16 20 -33 20 -85 0 -70 -20 -105 -60 -105 -30 0 -42 34
-37 110 6 96 33 124 77 80z m244 -36 c8 -60 8 -188 -1 -331 -6 -109 -7 -113
-29 -113 -49 0 -54 8 -54 84 0 39 3 142 7 229 6 149 8 159 27 167 37 15 43 11
50 -36z m-779 -144 c209 -53 398 -162 425 -246 24 -70 -12 -69 -118 4 -95 64
-211 117 -327 148 -87 23 -120 27 -255 27 -175 1 -259 -10 -439 -59 -147 -40
-197 -59 -346 -131 -60 -29 -113 -53 -117 -53 -13 0 -9 60 6 88 22 41 76 79
189 132 181 85 454 132 722 125 115 -3 163 -10 260 -35z m-3360 14 c8 -4 23
-20 31 -37 15 -28 15 -32 -4 -56 -25 -33 -61 -38 -95 -11 -35 27 -34 45 2 81
31 30 39 33 66 23z m641 -19 c29 -29 26 -56 -12 -95 l-24 -25 -38 20 c-47 25
-53 60 -18 98 31 34 60 34 92 2z m182 9 c36 -25 45 -50 28 -83 -18 -34 -45
-43 -78 -27 -32 16 -36 64 -8 99 25 31 28 32 58 11z m6117 7 c102 -6 119 -15
96 -49 -7 -12 -303 -23 -726 -26 l-80 -1 -3 28 c-7 59 -19 57 310 56 167 -1
348 -4 403 -8z m-6707 -33 c14 -23 14 -31 3 -51 -28 -53 -85 -56 -111 -7 -36
68 68 124 108 58z m206 10 c22 -32 20 -55 -9 -83 -29 -30 -58 -32 -85 -5 -26
26 -25 51 1 84 26 33 71 35 93 4z m6790 16 c24 -9 19 -41 -6 -48 -13 -3 -39
-6 -59 -6 -29 0 -38 4 -42 22 -4 13 -1 26 6 30 14 9 79 10 101 2z m-6200 -30
c11 -28 6 -100 -7 -118 -7 -10 -22 -17 -33 -15 -21 5 -30 57 -19 116 5 26 11
33 29 33 13 0 27 -7 30 -16z m761 -23 c61 -28 105 -70 131 -126 38 -81 28
-144 -36 -225 -39 -49 -85 -70 -152 -70 -101 1 -172 54 -204 153 -14 45 -15
61 -4 112 10 51 19 67 59 105 69 68 134 84 206 51z m-2089 -544 c1 -621 1
-619 95 -907 152 -463 284 -740 521 -1090 248 -366 625 -810 803 -942 153
-115 268 -157 448 -165 l117 -6 0 134 c0 74 4 150 9 169 4 19 6 41 4 48 -7 19
-106 15 -164 -8 -47 -19 -53 -19 -75 -5 -32 21 -30 32 10 69 37 35 82 52 168
62 l57 7 3 76 c3 73 4 76 31 85 38 14 47 -2 47 -90 0 -79 4 -84 76 -84 54 0
132 -29 153 -57 47 -59 8 -83 -97 -59 -39 9 -85 16 -101 16 l-31 0 0 -180 c0
-138 3 -182 13 -186 22 -8 229 24 297 46 88 30 203 89 275 142 77 57 191 174
258 265 133 179 469 657 583 828 40 61 117 172 171 247 54 76 118 170 143 210
68 111 218 327 268 385 41 49 132 117 211 158 53 27 200 76 261 86 34 6 401 7
952 3 811 -6 898 -9 902 -23 2 -9 7 -29 10 -44 l7 -28 -823 8 c-453 4 -859 7
-903 7 -170 -3 -350 -72 -495 -190 -120 -98 -138 -118 -207 -235 -102 -172
-402 -615 -722 -1067 -58 -81 -118 -167 -135 -192 -68 -102 -232 -314 -289
-373 -137 -141 -329 -255 -512 -304 -94 -25 -113 -27 -325 -27 -181 0 -238 3
-293 17 -202 51 -397 175 -570 364 -466 509 -832 1046 -998 1461 -141 351
-205 544 -229 690 -19 111 -20 155 -18 658 2 296 7 545 11 552 5 6 25 12 45
12 l37 0 1 -543z m1562 390 c41 -38 22 -97 -32 -97 -64 0 -107 60 -73 102 25
33 65 31 105 -5z m-624 -8 c32 -38 33 -53 1 -84 -31 -32 -78 -33 -99 -3 -23
32 -20 58 11 90 34 36 55 35 87 -3z m-605 -8 c49 -69 -46 -141 -98 -75 -28 36
-26 58 5 83 37 29 69 27 93 -8z m200 3 c26 -34 27 -58 0 -85 -30 -30 -89 -23
-107 13 -11 23 -10 32 2 57 26 48 73 55 105 15z m198 4 c28 -26 30 -61 3 -88
-26 -26 -68 -25 -97 2 -30 28 -29 53 2 83 30 31 62 32 92 3z m394 11 c41 -21
44 -86 5 -111 -42 -29 -103 11 -91 59 13 55 45 74 86 52z m223 -20 c24 -28 25
-32 11 -58 -15 -30 -33 -41 -69 -41 -46 0 -59 45 -31 100 21 40 55 40 89 -1z
m5971 -18 c24 -5 30 -12 30 -31 l0 -25 -227 -7 c-125 -4 -323 -4 -440 0 -205
7 -213 8 -210 27 8 46 3 45 421 44 218 -1 410 -4 426 -8z m217 -14 c4 -6 8
-15 8 -20 0 -15 -55 -28 -93 -22 -32 6 -38 11 -35 28 5 35 99 46 120 14z
m-2842 -7 c11 -11 20 -27 20 -36 0 -20 -53 -74 -73 -74 -25 0 -67 40 -67 65 0
28 43 65 76 65 13 0 33 -9 44 -20z m1702 -5 c9 -21 8 -32 -5 -60 -19 -41 -48
-46 -71 -13 -21 29 -20 40 5 72 26 33 56 34 71 1z m-208 -68 c8 -12 5 -23 -10
-44 -27 -36 -46 -35 -59 1 -8 24 -6 31 14 47 27 22 40 21 55 -4z m-2871 -2
c166 -25 332 -93 483 -196 97 -67 119 -92 105 -117 -29 -54 -201 -177 -323
-229 -168 -73 -390 -108 -533 -84 -113 19 -232 59 -347 117 -60 30 -135 60
-167 68 -33 8 -64 17 -70 21 -23 14 -11 63 27 112 132 166 313 265 562 308
101 17 148 17 263 0z m1577 0 c16 -19 -1 -65 -24 -65 -18 0 -46 27 -46 44 0
33 48 47 70 21z m-417 -85 l50 -50 -6 -61 c-6 -68 -40 -122 -92 -148 -70 -34
-163 46 -173 148 -5 59 19 107 71 140 55 36 93 28 150 -29z m-4144 4 c12 -15
21 -32 21 -39 0 -25 -41 -65 -68 -65 -30 0 -72 36 -72 62 0 27 45 68 74 68 15
0 33 -11 45 -26z m200 0 c26 -33 26 -45 1 -76 -28 -37 -67 -41 -97 -12 -31 31
-30 67 3 93 36 28 68 26 93 -5z m189 10 c41 -28 45 -49 16 -83 -18 -21 -35
-31 -54 -31 -38 0 -84 53 -70 80 13 24 50 50 70 50 9 0 26 -7 38 -16z m225
-16 c26 -35 16 -73 -24 -93 -36 -19 -61 -13 -89 22 -26 33 -25 35 6 73 33 39
77 39 107 -2z m181 18 c59 -24 56 -80 -4 -111 -35 -18 -71 -6 -90 30 -10 18
-9 28 4 53 23 44 40 49 90 28z m221 -11 c31 -30 32 -58 3 -85 -30 -28 -70 -25
-101 6 -25 25 -26 28 -12 55 28 53 72 63 110 24z m208 -3 c15 -15 27 -32 27
-37 0 -5 -12 -22 -27 -37 -40 -41 -83 -36 -108 13 -14 26 -13 30 11 58 32 39
62 39 97 3z m188 -49 c16 -27 39 -77 49 -113 41 -138 50 -229 50 -530 0 -159
-3 -295 -6 -304 -8 -22 -73 -33 -85 -15 -5 8 -9 152 -9 321 0 328 -8 419 -46
538 -23 74 -30 130 -17 143 16 16 36 4 64 -40z m634 20 c-3 -16 -18 -55 -32
-88 -61 -146 -64 -175 -66 -579 -2 -387 -6 -421 -45 -414 -24 5 -30 74 -31
414 -1 241 1 293 14 310 9 12 15 43 15 84 1 129 79 300 137 300 12 0 14 -7 8
-27z m4981 -50 c8 -9 14 -27 12 -42 l-3 -26 -310 -4 c-170 -1 -795 -5 -1388
-7 l-1078 -4 3 43 3 42 960 5 c1833 10 1784 10 1801 -7z m-3195 -3 c11 -6 19
-21 19 -35 0 -28 -26 -45 -69 -45 -30 0 -31 1 -31 45 0 44 1 45 31 45 17 0 39
-5 50 -10z m-2094 -66 c10 -26 -11 -49 -43 -49 -25 0 -29 4 -32 33 -3 31 -2
32 33 32 24 0 38 -5 42 -16z m-1756 -27 c20 -15 39 -51 39 -72 0 -24 -46 -65
-74 -65 -29 0 -66 42 -66 75 0 24 51 75 73 75 7 0 19 -6 28 -13z m620 -16 c16
-16 29 -39 29 -51 0 -29 -44 -70 -75 -70 -28 0 -75 43 -75 67 0 18 63 83 80
83 6 0 25 -13 41 -29z m-426 13 c16 -6 45 -54 45 -74 0 -17 -51 -60 -70 -60
-29 0 -70 39 -70 66 0 27 40 74 64 74 8 0 22 -3 31 -6z m226 -15 c28 -28 22
-76 -13 -102 -24 -18 -30 -18 -58 -7 -52 22 -63 60 -29 104 25 32 70 35 100 5z
m403 0 c14 -11 26 -31 26 -43 0 -34 -37 -76 -66 -76 -56 0 -84 75 -44 118 26
28 50 28 84 1z m210 0 c45 -35 25 -101 -35 -114 -24 -5 -36 -2 -55 16 -31 29
-30 50 2 88 30 36 51 39 88 10z m203 -1 c32 -36 35 -46 22 -70 -27 -51 -69
-61 -106 -26 -30 28 -29 63 2 93 30 31 56 32 82 3z m2613 -73 c21 -13 2 -115
-22 -115 -4 0 -5 -24 -2 -52 6 -58 -23 -166 -77 -286 -35 -77 -131 -180 -244
-261 -93 -66 -110 -74 -225 -101 -69 -16 -120 -20 -267 -20 -177 0 -182 1
-197 22 -9 12 -16 32 -16 44 0 21 2 22 168 22 140 -1 177 3 232 19 242 76 343
145 464 318 71 101 136 240 136 287 -1 22 -1 22 -23 -5 -12 -16 -44 -51 -70
-79 -26 -28 -60 -76 -75 -106 -56 -115 -228 -235 -427 -298 -88 -28 -95 -29
-320 -29 -229 0 -230 0 -285 27 -30 15 -79 34 -108 43 -55 18 -182 106 -241
168 -19 20 -48 39 -65 43 -57 12 -71 40 -39 76 24 27 45 22 94 -21 24 -21 89
-68 144 -104 55 -37 116 -78 135 -91 50 -36 162 -57 330 -63 211 -8 365 18
491 82 97 50 258 196 296 270 9 17 35 60 59 96 24 37 44 70 44 74 0 4 9 20 20
35 18 25 24 27 50 20 16 -5 34 -11 40 -15z m1147 -30 c32 -32 35 -39 30 -78
-7 -52 -52 -97 -98 -97 -46 0 -89 50 -89 102 0 49 13 73 48 92 43 24 71 19
109 -19z m934 25 c38 -21 62 -97 45 -148 -7 -21 -58 -52 -86 -52 -5 0 -28 16
-50 36 -44 40 -50 66 -25 114 27 52 73 72 116 50z m468 -187 l1 -141 -42 5
c-24 3 -45 8 -48 12 -3 3 -4 74 -2 158 l4 152 36 3 c47 4 49 -4 51 -189z
m-2017 176 c34 -15 61 -57 60 -93 -2 -76 -120 -116 -187 -62 l-29 24 19 35
c26 48 80 107 99 107 8 0 25 -5 38 -11z m287 -5 c24 -18 51 -71 51 -102 0 -31
-48 -72 -85 -72 -25 0 -40 8 -64 35 -41 47 -40 78 3 121 38 38 60 42 95 18z
m655 -15 c37 -44 36 -101 -3 -140 -48 -47 -102 -38 -141 26 -42 69 0 145 80
145 30 0 44 -6 64 -31z m313 11 c62 -37 53 -138 -15 -167 -43 -18 -79 -6 -111
37 -67 92 28 190 126 130z m-3887 -8 c29 -24 21 -64 -16 -89 -26 -17 -27 -16
-50 11 -28 32 -30 53 -7 78 21 23 45 23 73 0z m2364 -34 c3 -13 6 -87 6 -165
0 -78 3 -144 8 -146 19 -10 143 20 165 41 32 30 63 28 98 -7 38 -38 37 -71 -2
-116 -39 -44 -66 -44 -109 0 -22 22 -47 37 -69 40 -20 3 -47 8 -61 10 -23 3
-28 -2 -48 -53 -26 -69 -76 -132 -104 -132 -17 0 -19 5 -15 33 3 17 12 57 21
87 9 30 23 132 31 227 8 94 18 179 21 187 10 25 51 20 58 -6z m2060 -47 c23
-26 17 -52 -16 -70 -40 -23 -82 -5 -86 35 -2 24 2 33 20 42 35 16 63 14 82 -7z
m-6160 -22 c14 -17 26 -36 26 -43 0 -21 -51 -66 -73 -66 -23 0 -77 47 -77 66
0 23 51 74 75 74 14 0 34 -13 49 -31z m201 6 c14 -13 25 -33 25 -45 0 -31 -44
-70 -80 -70 -23 0 -35 7 -49 31 -23 38 -13 72 28 94 37 20 49 18 76 -10z m215
-13 c25 -32 25 -34 -6 -71 -32 -39 -62 -39 -98 -2 -32 33 -29 59 9 89 31 24
69 18 95 -16z m200 8 c26 -26 25 -62 -2 -87 -36 -33 -67 -34 -98 -1 -24 26
-26 56 -4 86 20 29 76 30 104 2z m209 -6 c27 -35 26 -45 -7 -77 -36 -34 -65
-34 -97 0 -30 34 -31 43 -4 77 15 19 30 26 54 26 24 0 39 -7 54 -26z m200 0
c29 -36 26 -58 -9 -88 -33 -27 -51 -26 -87 7 -28 25 -29 61 -3 87 29 29 74 26
99 -6z m208 4 c30 -28 29 -48 -5 -81 -38 -36 -75 -35 -101 2 -26 36 -26 42 0
75 26 33 73 35 106 4z m3409 -190 c47 -42 55 -65 37 -108 -33 -81 -89 -95
-142 -35 -36 41 -41 86 -14 125 40 59 68 63 119 18z m337 0 c34 -46 39 -65 27
-107 -12 -46 -36 -69 -78 -77 -28 -6 -37 -1 -72 34 -54 54 -53 98 3 160 14 15
32 22 58 22 31 0 42 -6 62 -32z m336 1 c38 -38 41 -87 9 -136 -42 -60 -97 -63
-150 -7 -36 39 -43 75 -24 112 36 70 113 84 165 31z m327 -3 c38 -38 44 -77
19 -126 -16 -32 -61 -60 -94 -60 -25 0 -87 62 -95 96 -8 30 18 89 48 109 37
26 84 19 122 -19z m298 28 c9 -3 25 -21 37 -40 20 -33 22 -34 90 -34 63 0 69
-2 69 -20 0 -30 -26 -35 -81 -17 l-49 15 -15 -31 c-18 -41 -35 -61 -63 -76
-53 -28 -142 38 -142 104 0 52 50 105 100 105 21 0 45 -3 54 -6z m-4248 -39
c12 -65 -1 -507 -16 -538 -11 -22 -11 -33 -2 -48 16 -26 15 -94 -2 -127 -8
-15 -25 -37 -39 -50 l-25 -23 -16 22 c-9 13 -16 39 -16 59 1 47 33 116 59 125
24 7 24 6 10 76 -11 56 -13 473 -3 515 10 38 42 31 50 -11z m-1709 3 c30 -28
29 -59 -3 -92 -33 -32 -39 -32 -69 -1 -44 44 -22 102 44 114 3 1 15 -9 28 -21z
m403 12 c13 -8 14 -47 11 -279 -3 -267 -3 -269 18 -281 32 -16 61 -69 61 -109
0 -26 -41 -120 -53 -121 -1 0 -20 -7 -42 -15 -30 -11 -34 -14 -16 -15 l24 0
-5 -112 c-3 -62 -2 -124 2 -138 9 -35 -7 -87 -30 -100 -15 -8 -28 -7 -48 2
-39 19 -38 67 1 86 l29 14 -7 136 c-6 111 -11 142 -28 171 -32 53 -30 141 3
176 23 25 25 34 26 138 2 119 -12 357 -22 394 -4 14 1 28 15 42 23 23 38 26
61 11z m-205 -20 c15 -16 16 -24 5 -52 -7 -19 -15 -125 -19 -253 -7 -200 -6
-221 9 -235 67 -58 68 -158 2 -232 -18 -21 -78 -24 -117 -6 -31 14 -61 61 -70
110 -10 51 17 93 78 121 26 12 45 27 43 34 -8 19 -9 510 -2 522 11 18 51 13
71 -9z m430 0 c16 -18 17 -27 9 -58 -6 -23 -7 -85 -3 -157 4 -66 8 -166 8
-222 1 -92 3 -102 21 -108 11 -3 35 -25 55 -47 57 -67 46 -146 -25 -183 -92
-47 -189 26 -177 134 4 32 12 52 31 68 l26 22 0 216 c0 196 -2 219 -20 255
-24 48 -25 58 -3 82 21 24 55 23 78 -2z m210 0 c16 -18 17 -24 5 -63 -10 -29
-13 -84 -11 -180 3 -148 -2 -167 -45 -167 -33 0 -36 22 -26 170 7 112 6 130
-11 168 -17 40 -17 45 -3 68 20 30 65 32 91 4z m182 -253 l1 -269 34 -16 c47
-24 74 -92 59 -150 -7 -23 -22 -54 -35 -69 -20 -23 -32 -28 -70 -27 -75 2
-121 45 -132 125 -5 36 -1 50 18 79 13 19 34 40 47 46 l23 12 -1 204 c-1 111
-4 234 -7 271 l-7 68 34 -3 34 -3 2 -268z m213 248 c20 -22 21 -27 10 -54 -7
-17 -19 -36 -27 -43 -13 -11 -20 -7 -45 22 -34 41 -33 69 2 87 33 17 33 17 60
-12z m5207 -94 c92 -42 122 -173 58 -256 -51 -68 -161 -93 -230 -53 -53 31
-94 106 -95 170 0 39 6 54 32 84 18 21 46 46 63 56 39 24 118 23 172 -1z
m-4184 -131 c26 -38 58 -77 72 -86 48 -31 16 -104 -39 -90 -55 14 -126 124
-126 197 0 75 35 67 93 -21z m287 -166 c7 -19 10 -37 8 -40 -3 -2 -29 -17 -58
-32 -64 -32 -89 -64 -101 -127 -12 -63 15 -115 78 -156 54 -34 63 -35 127 -13
34 12 56 28 77 57 51 70 34 146 -53 234 -44 45 -50 54 -38 68 15 18 60 13 98
-12 42 -26 80 -99 87 -169 7 -60 5 -70 -25 -130 -25 -51 -42 -72 -77 -94 -50
-32 -114 -46 -167 -36 -46 9 -131 81 -156 132 -40 80 -24 192 36 263 29 33
121 91 145 91 4 0 13 -16 19 -36z m1170 26 c33 -18 42 -46 26 -79 -24 -45 -72
-55 -106 -21 -16 16 -18 24 -9 50 6 17 23 37 38 45 32 17 28 17 51 5z m-2200
-145 c0 -51 -15 -85 -65 -150 -44 -58 -59 -106 -50 -161 12 -81 70 -123 127
-93 16 9 25 6 47 -14 78 -73 146 -84 258 -41 38 14 90 29 117 32 60 8 83 35
95 111 12 76 0 114 -53 171 -65 69 -60 100 14 100 78 0 158 -184 130 -299 -15
-61 -70 -136 -120 -161 -22 -11 -61 -23 -87 -26 -27 -4 -74 -18 -105 -31 l-57
-25 2 -66 2 -65 -34 -9 c-18 -5 -36 -7 -39 -4 -3 3 -7 39 -10 80 -4 73 -5 74
-36 80 -17 4 -48 18 -68 31 -26 18 -51 25 -84 25 -59 0 -107 23 -144 70 -42
53 -52 85 -51 164 0 78 26 143 84 211 18 22 43 57 56 78 16 26 30 37 47 37 22
0 24 -4 24 -45z m4659 19 c26 -33 26 -46 2 -68 -29 -27 -63 -17 -86 26 -16 30
-17 39 -6 52 21 25 66 20 90 -10z m-515 -6 c23 -33 20 -56 -13 -89 -36 -36
-45 -36 -76 -3 -29 31 -33 75 -9 98 24 24 80 20 98 -6z m-716 -10 c28 -31 36
-70 22 -113 -13 -40 -35 -55 -79 -55 -23 0 -34 8 -50 34 -31 49 -27 82 13 122
40 40 64 43 94 12z m1457 -968 l0 -965 -28 -80 c-50 -142 -123 -228 -254 -302
-141 -78 43 -72 -2048 -74 -1026 0 -1869 1 -1872 5 -9 9 26 56 56 74 27 16
150 17 1865 20 1775 2 1838 3 1886 21 128 49 208 125 262 249 l33 77 3 967 c2
907 3 967 20 971 9 3 31 4 47 4 l30 -2 0 -965z m-1977 935 c174 -41 330 -161
402 -309 144 -294 71 -581 -197 -772 -121 -87 -285 -121 -427 -90 -198 44
-352 170 -443 362 -31 66 -36 85 -40 176 -6 129 13 225 63 326 70 138 254 284
395 311 70 14 178 12 247 -4z m-1840 -28 c29 -27 28 -58 -3 -91 -30 -32 -45
-33 -79 -1 -35 33 -34 67 5 99 32 27 39 26 77 -7z m930 -3 c34 -24 45 -50 31
-76 -27 -52 -86 -65 -113 -26 -22 31 -20 52 10 87 29 35 40 37 72 15z m1894
-25 c48 -25 85 -74 114 -155 28 -75 30 -134 9 -195 -35 -99 -111 -159 -212
-167 -261 -21 -377 362 -152 504 74 46 165 51 241 13z m581 7 c78 -34 147
-141 155 -243 8 -91 -67 -215 -153 -254 -45 -21 -147 -25 -192 -8 -81 30 -153
152 -153 259 0 91 45 180 114 227 44 30 55 33 122 33 42 0 89 -6 107 -14z
m-2885 -22 c46 -32 13 -94 -50 -94 -39 0 -72 34 -58 60 13 24 49 50 70 50 9 0
26 -7 38 -16z m221 -11 c19 -23 20 -29 8 -47 -8 -12 -33 -27 -57 -35 -41 -13
-44 -13 -62 9 -39 48 -8 100 58 100 23 0 39 -8 53 -27z m-418 -2 c23 -19 23
-21 9 -47 -23 -42 -48 -53 -66 -30 -18 26 -18 61 2 80 20 21 27 20 55 -3z
m-3218 -111 c5 -25 9 -409 10 -855 l3 -810 26 -72 c27 -76 101 -180 160 -225
45 -34 124 -73 178 -89 34 -9 167 -12 535 -11 270 1 502 -1 516 -4 35 -7 72
-70 49 -84 -9 -6 -221 -10 -525 -10 -567 0 -578 1 -713 66 -139 67 -274 234
-314 389 -10 39 -12 229 -9 895 2 465 5 849 8 853 3 4 19 7 36 5 29 -3 32 -7
40 -48z m3201 -96 c33 -33 33 -68 1 -99 -33 -34 -61 -32 -85 8 -26 41 -25 65
2 94 28 30 49 29 82 -3z m215 16 c10 -5 24 -23 31 -40 11 -28 11 -34 -7 -58
-11 -15 -32 -31 -48 -37 -24 -8 -30 -6 -56 23 -35 39 -36 61 -4 96 25 27 54
33 84 16z m224 -18 c34 -35 34 -56 1 -87 -33 -30 -67 -32 -94 -5 -29 29 -26
74 6 99 36 28 55 26 87 -7z m-2678 -32 c4 -12 4 -38 0 -59 -5 -29 -1 -48 14
-77 25 -47 27 -81 4 -106 -53 -59 -120 29 -78 102 8 14 14 48 15 77 0 28 3 58
6 67 9 23 31 20 39 -4z m-499 -76 c4 -44 3 -74 -6 -92 -11 -26 -12 -26 -26 -7
-15 20 -18 84 -8 148 10 56 31 30 40 -49z m2554 35 c0 -23 -37 -49 -70 -49
-52 0 -71 55 -22 66 15 3 36 9 47 13 24 10 45 -4 45 -30z m-1710 -134 c0 -7 4
-15 10 -17 5 -1 11 -36 12 -76 2 -55 -1 -75 -12 -82 -25 -16 -30 0 -30 101 0
64 4 98 10 94 6 -3 10 -12 10 -20z m1913 -37 c22 -29 17 -58 -16 -88 -29 -27
-62 -25 -86 6 -33 42 -23 97 22 113 29 11 57 0 80 -31z m181 32 c14 -5 33 -21
42 -35 15 -22 15 -29 3 -51 -7 -14 -26 -32 -42 -41 -25 -13 -31 -13 -52 1 -62
41 -51 109 22 135 1 1 13 -3 27 -9z m213 -12 c31 -29 29 -50 -7 -76 -36 -27
-45 -27 -70 -2 -25 25 -25 41 1 74 25 32 45 33 76 4z m-620 -10 c13 -12 23
-31 23 -43 0 -26 -49 -75 -75 -75 -28 0 -65 40 -65 70 0 65 69 93 117 48z
m3474 -48 c35 -19 20 -70 -22 -70 -17 0 -31 51 -18 66 14 17 15 17 40 4z
m-487 -25 c37 -34 38 -65 3 -102 -27 -30 -58 -29 -97 4 -27 22 -31 31 -26 57
14 66 71 86 120 41z m-550 -26 c31 -37 32 -49 5 -83 -26 -33 -53 -33 -84 -1
-30 29 -32 68 -5 95 28 28 54 25 84 -11z m968 -94 c42 -28 78 -96 78 -146 0
-45 -37 -108 -79 -136 -25 -17 -48 -23 -89 -23 -53 0 -57 2 -109 53 -50 51
-53 56 -53 106 0 29 6 64 14 79 45 86 161 119 238 67z m-3198 -26 c33 -26 35
-73 4 -106 -28 -30 -62 -29 -87 3 -28 35 -26 69 4 99 29 30 45 31 79 4z m211
-4 c34 -33 32 -67 -6 -99 -17 -14 -34 -26 -39 -26 -14 0 -60 61 -60 80 0 18
53 70 71 70 6 0 21 -11 34 -25z m-410 -11 c14 -15 25 -30 25 -34 0 -12 -41
-60 -60 -70 -26 -14 -80 32 -80 68 0 61 71 83 115 36z m894 -10 c27 -34 27
-68 -1 -94 -26 -24 -46 -25 -74 -2 -33 26 -47 59 -34 82 24 45 79 52 109 14z
m-1949 -12 c76 -35 84 -35 165 -3 87 35 136 38 197 14 43 -17 204 -112 310
-185 33 -22 78 -42 105 -47 53 -10 73 -31 73 -76 0 -43 -16 -55 -71 -55 -45 0
-49 -2 -84 -51 -87 -121 -179 -197 -294 -240 -63 -23 -327 -45 -347 -28 -6 5
-38 6 -71 3 -73 -8 -205 17 -278 52 -66 31 -163 119 -222 201 l-46 65 -43 -6
c-52 -7 -74 10 -74 58 0 46 18 63 75 70 33 4 65 17 95 38 99 71 228 154 290
186 56 30 72 33 120 30 30 -3 75 -14 100 -26z m3804 -39 c3 -21 6 -54 6 -74 0
-34 3 -37 48 -54 26 -9 66 -28 89 -41 54 -31 63 -30 98 6 16 17 34 29 40 28 5
-2 36 -31 69 -65 l58 -62 -21 -36 -21 -36 41 -87 c22 -48 45 -97 51 -110 14
-27 46 -37 99 -28 l40 6 -3 -117 -3 -118 -65 -5 -65 -5 -48 -90 c-40 -72 -47
-93 -38 -107 6 -10 16 -27 23 -38 10 -16 9 -24 -8 -47 -34 -45 -136 -129 -141
-116 -3 7 -13 23 -23 35 l-17 22 -91 -42 c-50 -23 -95 -42 -100 -42 -12 0 -22
-35 -22 -82 l0 -37 -52 -3 c-29 -2 -79 -1 -110 0 -56 4 -58 5 -58 32 0 69 -10
87 -59 105 -25 10 -72 29 -104 43 l-58 25 -32 -31 -33 -32 -50 53 c-80 83 -79
81 -54 124 l21 39 -43 89 -43 90 -60 5 -60 5 -7 40 c-10 61 -9 164 2 186 9 15
22 19 65 19 l55 0 56 111 55 111 -25 27 c-14 15 -26 30 -26 32 0 3 17 23 38
45 21 21 47 52 59 67 l22 29 38 -31 c21 -17 45 -31 54 -31 9 0 36 15 59 34 24
19 63 40 86 46 41 12 41 12 50 73 11 72 15 74 135 76 l76 1 7 -37z m-5516 -39
c27 -19 44 -57 36 -79 -8 -19 -56 -45 -83 -45 -28 0 -55 43 -46 72 9 27 44 68
60 68 6 0 21 -7 33 -16z m2971 -130 c26 -33 27 -65 3 -94 -36 -45 -111 -14
-112 46 0 31 37 74 65 74 14 0 32 -11 44 -26z m688 -18 c13 -15 37 -26 66 -30
71 -11 105 -40 139 -123 16 -40 43 -86 58 -103 15 -16 27 -30 27 -31 -1 0 -15
-3 -32 -5 -16 -3 -31 -7 -33 -9 -2 -2 -5 -25 -6 -52 -4 -58 -23 -103 -51 -118
-14 -7 -19 -18 -17 -37 3 -23 -2 -30 -25 -39 -15 -5 -48 -9 -73 -7 -43 2 -45
1 -50 -27 -6 -34 -33 -41 -38 -9 -2 15 -11 20 -37 21 -53 2 -110 33 -109 61 0
14 -5 22 -16 22 -24 0 -60 82 -60 139 l0 49 -39 -5 c-23 -3 -41 -1 -45 6 -4 7
1 11 13 11 38 0 50 12 71 73 36 107 51 130 110 164 30 18 64 33 76 33 14 0 25
8 29 20 8 26 17 25 42 -4z m2582 -110 c34 -36 25 -76 -21 -101 l-37 -20 -25
24 c-33 31 -33 65 -1 96 30 31 55 32 84 1z m-6268 -22 c5 -15 5 -34 -1 -49 -8
-20 -16 -25 -45 -25 -34 0 -35 1 -35 39 0 65 59 91 81 35z m178 -11 c17 -61
16 -64 -39 -62 l-50 2 0 42 c0 50 4 55 46 55 30 0 34 -4 43 -37z m3966 -147
c21 -32 16 -80 -8 -84 -10 -2 -29 -1 -43 2 -20 5 -24 13 -24 44 0 62 45 85 75
38z m277 -89 c3 -49 8 -90 10 -92 2 -1 38 2 81 7 95 11 109 7 105 -29 l-3 -28
-92 4 c-73 2 -93 0 -94 -10 -1 -8 0 -43 1 -78 1 -44 -2 -66 -12 -72 -19 -12
-24 -11 -43 7 -13 13 -15 29 -9 85 l7 69 -46 0 c-62 0 -93 -14 -101 -44 -6
-26 -31 -56 -47 -56 -12 0 -11 76 2 124 l11 38 71 -6 c40 -4 81 -10 91 -13 18
-5 19 -1 13 84 -4 50 -3 93 0 97 4 4 16 6 28 4 18 -3 21 -13 27 -91z m-4268
47 c11 -4 16 -19 16 -44 0 -43 -21 -57 -66 -46 -18 5 -24 13 -24 35 0 47 33
71 74 55z m185 -8 c7 -8 11 -30 9 -48 -2 -26 -8 -34 -26 -36 -13 -2 -30 2 -38
8 -14 13 -20 71 -7 83 11 12 50 7 62 -7z m-339 -31 c0 -28 -5 -38 -24 -47 -37
-16 -56 -4 -56 35 0 42 5 47 47 47 31 0 33 -2 33 -35z m3274 -26 c30 -36 31
-40 11 -79 -19 -36 -51 -39 -89 -9 -17 13 -26 30 -26 49 0 19 9 36 26 49 36
28 48 27 78 -10z m-3106 -171 c-3 -42 -4 -43 -40 -46 l-38 -3 0 40 c0 42 8 49
53 50 27 1 28 -1 25 -41z m-170 -10 l3 -38 -45 0 c-40 0 -46 3 -46 21 0 40 19
60 53 57 29 -3 32 -6 35 -40z m319 34 c7 -4 16 -23 19 -41 l7 -32 -39 3 c-37
3 -39 5 -42 41 -3 33 -1 37 20 37 13 0 29 -4 35 -8z m205 -9 c33 -30 16 -73
-29 -73 -24 0 -43 26 -43 59 0 32 42 41 72 14z m2847 -126 c11 -23 40 -98 65
-167 24 -69 58 -156 74 -195 17 -38 28 -73 26 -77 -3 -5 -24 -8 -47 -8 -41 0
-43 1 -59 48 l-17 47 -91 -3 -91 -3 -19 -45 c-19 -44 -20 -44 -70 -44 -57 0
-62 9 -31 62 29 49 147 327 161 376 7 29 18 46 33 51 32 12 44 4 66 -42z
m-2969 -19 c56 -17 87 -45 115 -103 78 -158 -17 -331 -187 -343 -124 -9 -203
28 -267 125 -25 37 -31 57 -31 97 1 85 54 176 124 213 61 32 164 37 246 11z
m3490 -54 c0 -55 -3 -65 -15 -60 -8 3 -15 1 -15 -5 0 -6 -4 -7 -10 -4 -5 3
-10 35 -10 71 0 62 1 64 25 64 24 0 25 -2 25 -66z m-186 29 c10 -48 19 -327
12 -366 -7 -36 -8 -37 -50 -37 l-43 0 -6 107 c-9 138 -9 308 0 316 3 4 23 7
44 7 32 0 37 -3 43 -27z m-3729 -38 c0 -43 -22 -58 -50 -35 -32 27 -10 84 30
78 16 -2 20 -11 20 -43z m3003 36 c8 -5 12 -21 10 -37 -3 -25 -7 -29 -33 -29
-24 0 -31 5 -33 23 -7 46 20 66 56 43z m1740 -3 c16 -16 15 -23 -3 -42 -10
-10 -26 -13 -43 -10 -23 4 -36 -4 -86 -56 -42 -42 -67 -60 -85 -60 -78 -1 -94
-39 -41 -100 46 -54 37 -70 -38 -70 -60 0 -67 10 -48 62 10 25 16 60 14 79 -3
33 -5 34 -43 33 -22 0 -54 -4 -71 -8 -43 -11 -64 12 -64 70 l0 44 49 0 c41 0
56 -5 91 -35 50 -42 78 -44 111 -9 32 34 71 54 108 54 17 0 38 8 48 19 38 39
79 51 101 29z m1520 -4 c44 -31 45 -79 3 -111 -24 -19 -45 -15 -75 12 -33 31
-35 77 -4 99 28 20 48 20 76 0z m-5513 -50 c25 -27 42 -85 30 -103 -10 -17
-66 -13 -87 6 -25 22 -25 98 0 112 25 15 30 14 57 -15z m4076 -155 c44 -47 43
-110 -2 -151 -38 -36 -70 -35 -113 2 -42 38 -53 78 -32 119 35 67 100 81 147
30z m1340 2 c23 -24 29 -38 29 -75 0 -36 -5 -48 -26 -65 -15 -12 -35 -21 -46
-21 -24 0 -64 43 -70 74 -9 44 34 116 68 116 9 0 29 -13 45 -29z m-3245 -35
c42 -42 43 -69 5 -107 -33 -33 -50 -35 -91 -14 -35 18 -50 43 -50 82 0 78 76
99 136 39z m1391 -28 c32 -30 29 -38 -9 -27 -38 10 -53 23 -44 38 11 17 27 13
53 -11z m-3547 -28 c14 -26 6 -51 -25 -80 -32 -30 -51 -21 -65 30 -14 51 -2
70 46 70 23 0 37 -6 44 -20z m3230 1 c58 -9 70 -17 70 -46 0 -29 -12 -33 -120
-37 l-85 -3 -3 29 c-2 15 -1 40 3 53 6 24 9 25 48 18 23 -4 62 -11 87 -14z
m-3430 -586 l0 -55 -115 0 -115 0 0 -50 0 -50 99 0 c55 0 102 -3 104 -7 2 -5
2 -25 -1 -46 l-4 -38 -97 2 -96 2 -3 -52 -3 -51 103 0 c151 0 161 -6 142 -77
-6 -23 -9 -23 -169 -23 -139 0 -164 2 -169 16 -3 9 -6 119 -6 245 l0 229 163
3 c89 1 163 4 165 5 1 1 2 -23 2 -53z m1138 -307 c35 -43 118 -47 160 -7 21
19 22 29 22 163 0 79 3 158 6 175 6 29 9 31 49 31 l43 0 7 -106 c4 -58 5 -141
3 -185 -4 -69 -9 -85 -35 -122 -47 -64 -102 -89 -185 -85 -57 3 -73 8 -105 34
-68 55 -72 70 -80 272 l-6 181 49 3 49 3 5 -171 c3 -118 9 -176 18 -186z
m1737 283 c33 -34 77 -92 98 -128 35 -61 61 -92 78 -93 4 0 4 66 1 146 l-5
145 39 -3 39 -3 12 -80 c14 -93 17 -256 6 -335 l-8 -55 -46 -3 c-45 -3 -46 -3
-84 55 -21 32 -66 95 -99 141 l-61 83 -3 -141 -3 -140 -44 0 -45 0 0 103 c-1
120 -16 345 -25 368 -5 13 1 15 42 9 42 -5 55 -13 108 -69z m362 67 c45 -11
47 -13 83 -92 45 -96 80 -197 80 -228 l0 -22 21 20 c11 11 46 90 79 175 l58
154 48 -3 c26 -1 49 -4 52 -7 6 -6 -91 -270 -140 -382 l-40 -92 -44 -7 c-24
-3 -50 -4 -57 -1 -13 5 -85 173 -102 237 -4 14 -27 71 -51 127 -41 95 -52 133
-38 133 3 0 26 -5 51 -12z m1505 2 c40 -12 92 -50 109 -82 23 -43 -48 -74 -87
-37 -52 49 -201 12 -151 -38 7 -7 46 -22 86 -33 124 -35 169 -69 178 -138 7
-51 -22 -102 -79 -139 -78 -52 -238 -28 -284 42 -32 49 11 84 66 55 39 -21
122 -31 158 -19 29 10 33 14 30 42 -3 30 -6 33 -63 45 -87 19 -132 41 -165 79
-43 48 -47 78 -20 129 43 82 131 119 222 94z m-5142 -50 l0 -50 -70 0 c-38 0
-71 -1 -72 -2 0 -2 -4 -88 -7 -193 l-6 -190 -45 0 -45 0 0 188 0 187 -36 0
c-20 0 -57 3 -83 6 l-46 7 0 48 0 49 205 0 205 0 0 -50z m640 -25 c35 -41 66
-75 69 -75 3 0 26 34 50 75 l45 75 58 0 58 0 -46 -77 c-25 -43 -56 -91 -68
-108 -36 -49 -37 -51 -14 -80 33 -43 118 -187 118 -201 0 -15 -80 -34 -96 -22
-6 4 -32 44 -58 88 -30 51 -52 77 -60 74 -8 -3 -39 -41 -71 -85 l-57 -79 -54
0 c-65 0 -64 5 11 100 28 36 66 84 83 107 l32 41 -68 92 c-38 50 -76 105 -86
121 l-17 29 54 0 54 0 63 -75z m715 35 c4 -21 4 -44 0 -50 -3 -5 -37 -10 -76
-10 l-69 0 0 -167 c0 -213 0 -213 -56 -213 l-44 0 0 184 0 185 -81 7 -81 7 6
30 c3 16 6 38 6 48 0 18 11 19 194 19 l194 0 7 -40z m821 -25 c86 -202 154
-383 152 -400 -2 -16 -12 -21 -50 -23 l-46 -3 -17 51 -17 51 -96 -3 -96 -3
-12 -40 c-11 -39 -11 -40 -62 -43 -40 -2 -52 0 -52 12 0 21 96 308 132 394
l30 73 55 -3 54 -3 25 -60z m288 55 l26 -10 0 -180 0 -180 105 0 c104 0 105 0
105 -24 0 -13 3 -38 6 -55 l7 -31 -162 0 -161 0 0 229 c0 126 3 236 6 245 7
18 31 20 68 6z m564 1 c10 -6 12 -58 10 -239 -2 -256 2 -242 -70 -242 l-28 0
0 245 0 245 38 0 c20 0 43 -4 50 -9z m1400 -42 c3 -46 3 -47 -33 -53 -20 -4
-67 -4 -105 0 l-68 6 -4 -54 -3 -54 83 4 c49 3 88 0 93 -5 6 -6 7 -26 4 -47
l-7 -36 -89 0 -89 0 0 -45 0 -45 68 0 c136 0 154 -10 144 -78 l-4 -32 -154 0
-154 0 0 184 c0 100 3 210 6 242 l6 59 152 0 151 0 3 -46z m1016 -173 c4 -124
5 -234 1 -245 -5 -17 -15 -21 -51 -21 l-44 0 0 239 0 240 23 4 c69 13 63 31
71 -217z m429 194 c79 -53 115 -148 103 -268 -8 -77 -25 -113 -68 -145 -105
-79 -286 -50 -357 57 -24 36 -26 49 -26 135 1 132 26 180 120 230 58 31 176
26 228 -9z m293 -17 c55 -68 85 -108 130 -183 l39 -65 6 100 c4 55 7 121 8
148 1 47 1 47 36 47 l35 0 2 -67 c3 -101 1 -127 -11 -131 -7 -2 -5 -9 4 -19
11 -11 15 -40 15 -123 0 -60 3 -115 6 -124 7 -19 -17 -30 -49 -22 -22 5 -94
89 -189 220 l-43 58 -6 -113 c-4 -63 -7 -126 -8 -141 -1 -26 -4 -28 -44 -28
l-44 0 -7 115 c-3 63 -3 173 0 245 l7 130 37 0 c32 0 42 -7 76 -47z m-1391 17
c41 -25 65 -75 65 -133 0 -60 -14 -94 -54 -132 l-33 -31 48 -74 c26 -41 45
-78 43 -82 -3 -4 -27 -8 -54 -8 -47 0 -49 1 -75 48 -15 26 -35 55 -44 66 -20
23 -71 49 -79 41 -4 -4 -7 -39 -7 -78 l0 -72 -31 -3 c-61 -6 -64 4 -64 254 l0
224 126 0 c110 0 131 -3 159 -20z m433 -625 c10 -152 -24 -231 -103 -242 -35
-4 -45 0 -78 29 -38 33 -39 34 -44 119 -7 103 0 139 26 139 15 0 19 -11 25
-61 3 -34 6 -81 6 -104 0 -46 10 -55 59 -55 43 0 51 17 51 101 0 91 12 132 38
127 13 -2 18 -15 20 -53z m-5391 31 c1 -1 0 -12 -4 -24 -5 -20 -11 -22 -79
-22 l-74 0 0 -35 0 -35 66 0 c62 0 65 -1 62 -22 -3 -21 -9 -23 -65 -26 l-63
-3 0 -49 c0 -47 -2 -50 -25 -50 l-25 0 0 103 c0 56 -3 118 -6 138 l-6 36 108
-5 c60 -2 110 -5 111 -6z m280 -12 c71 -54 92 -127 53 -189 -30 -49 -67 -69
-125 -69 -64 0 -106 28 -129 84 -22 54 -20 78 7 123 48 79 130 100 194 51z
m341 4 c28 -14 52 -57 52 -92 0 -25 -17 -48 -48 -65 -15 -8 -13 -14 16 -50 17
-22 32 -42 32 -45 0 -3 -15 -6 -34 -6 -26 0 -36 5 -41 20 -8 25 -57 60 -84 60
-18 0 -21 -6 -21 -40 0 -36 -2 -40 -25 -40 l-25 0 0 138 0 137 77 -3 c43 -1
89 -8 101 -14z m931 2 c59 -29 81 -64 81 -123 0 -45 -4 -53 -42 -92 -73 -71
-164 -68 -222 7 -38 51 -42 88 -16 142 12 25 33 55 47 66 33 26 102 26 152 0z
m342 -6 c49 -25 79 -71 79 -120 0 -38 -6 -51 -39 -87 l-40 -42 -83 -3 -83 -4
-1 142 0 142 70 -7 c39 -4 83 -13 97 -21z m503 -5 c3 -17 6 -67 6 -110 l0 -79
75 0 75 0 0 -36 0 -36 -102 4 -103 3 -3 143 -3 142 24 0 c19 0 26 -7 31 -31z
m1550 -81 c4 -61 9 -122 12 -134 5 -19 1 -24 -20 -30 -15 -3 -30 -4 -33 -1 -3
4 -8 67 -11 142 l-5 135 25 0 c25 0 25 -1 32 -112z m324 -25 c-4 -173 -9 -177
-105 -62 l-68 81 -3 -81 c-2 -71 -5 -81 -21 -81 -27 0 -31 18 -31 151 0 111 1
119 19 119 18 0 97 -83 143 -150 17 -24 17 -23 17 68 1 92 1 92 26 92 l26 0
-3 -137z m322 123 c0 -40 -11 -46 -86 -46 l-74 0 0 -30 0 -30 65 0 c63 0 65
-1 65 -25 0 -22 -4 -25 -34 -25 -61 0 -96 -11 -96 -31 0 -22 28 -31 88 -28 46
3 47 3 47 -26 0 -26 -4 -30 -27 -29 -16 0 -57 1 -93 2 l-65 2 0 140 0 140 105
0 c84 0 105 -3 105 -14z m492 -6 c0 -11 1 -26 2 -32 1 -9 -12 -12 -41 -10
l-42 3 -3 -108 -3 -108 -31 -3 -31 -3 5 105 5 105 -44 3 c-42 3 -44 5 -47 36
l-3 32 115 0 c109 0 116 -1 118 -20z m520 -59 c35 -44 66 -80 71 -80 4 -1 7
35 7 79 0 79 0 80 25 80 l25 0 0 -139 c0 -103 -3 -140 -12 -144 -22 -7 -58 24
-98 83 -65 96 -70 96 -70 1 l0 -81 -30 0 -30 0 2 133 c0 72 3 135 5 140 13 24
48 0 105 -72z m288 -61 l0 -140 -25 0 -25 0 0 124 c0 138 4 156 31 156 18 0
19 -9 19 -140z m218 53 c78 -91 80 -91 80 19 0 58 1 63 21 63 21 0 22 -4 24
-135 3 -181 -6 -183 -141 -25 l-43 50 3 -85 c3 -85 3 -85 -22 -85 l-25 0 -3
143 c-2 136 -2 143 16 140 11 -2 51 -40 90 -85z m440 67 c37 -23 40 -35 11
-50 -15 -9 -33 -8 -70 1 -46 12 -50 11 -74 -11 -34 -32 -35 -97 -1 -129 33
-31 99 -27 104 7 3 17 -2 22 -18 22 -27 0 -37 27 -18 47 12 11 27 13 62 8 44
-7 46 -9 46 -40 0 -46 -38 -97 -84 -113 -51 -16 -102 -2 -144 41 -63 65 -59
129 13 196 39 36 50 41 92 41 30 0 60 -7 81 -20z m-5498 -47 c19 -29 41 -55
47 -57 8 -3 22 12 34 37 30 60 48 77 81 77 l28 0 0 -97 c0 -54 -3 -115 -6
-135 -6 -32 -11 -38 -32 -38 -25 0 -25 0 -20 80 3 44 4 80 3 80 -1 0 -16 -22
-33 -50 -17 -27 -38 -50 -47 -50 -8 0 -31 23 -51 50 -20 28 -38 50 -40 50 -3
0 -2 -34 2 -75 l7 -75 -32 0 -31 0 0 131 0 130 27 -3 c20 -2 37 -17 63 -55z
m1190 32 c0 -24 -2 -25 -65 -25 -49 0 -67 -4 -71 -15 -11 -28 16 -45 72 -45
51 0 54 -1 54 -25 0 -24 -3 -25 -60 -25 l-60 0 0 -30 0 -30 70 0 c54 0 70 -3
70 -14 0 -8 3 -22 6 -31 6 -14 -5 -16 -95 -14 l-101 2 0 123 c0 67 -3 129 -6
138 -5 14 6 16 90 16 96 0 96 0 96 -25z m704 10 c10 -28 -3 -35 -70 -35 l-64
0 0 -29 c0 -28 2 -29 60 -36 50 -6 60 -10 60 -26 0 -23 -37 -34 -87 -26 l-36
6 7 -54 6 -55 -29 0 -30 0 -3 131 c-2 72 -2 132 -1 133 1 1 42 3 91 4 75 3 90
0 96 -13z m160 -66 c3 -34 6 -89 6 -121 0 -59 0 -59 -27 -56 l-28 3 -3 114
c-3 132 0 146 26 132 14 -8 21 -26 26 -72z m686 56 c0 -23 -3 -25 -49 -25 -55
0 -66 -9 -57 -46 6 -21 12 -24 56 -24 27 0 52 -5 56 -12 11 -17 -26 -38 -68
-38 l-38 0 0 -55 c0 -46 -3 -55 -17 -55 -34 0 -38 15 -38 148 l0 132 77 0 c77
0 78 0 78 -25z m-540 -5 c0 -15 96 -110 111 -110 7 0 21 8 31 17 14 13 21 14
30 5 17 -17 -1 -60 -35 -85 l-27 -21 -43 42 c-23 23 -46 42 -50 42 -4 0 -7
-29 -7 -65 0 -36 -3 -65 -6 -65 -3 0 -15 5 -26 11 -20 11 -20 16 -13 117 3 59
9 110 11 114 7 12 24 10 24 -2z m1557 -106 c10 -27 -25 -44 -88 -44 -49 0 -59
3 -64 20 -10 33 3 40 76 40 55 0 71 -3 76 -16z m-119 -294 c4 -112 -10 -168
-48 -205 -34 -32 -99 -44 -136 -24 -49 26 -72 84 -75 189 -3 130 -3 130 25
130 21 0 24 -6 30 -52 3 -29 6 -79 6 -110 0 -76 21 -100 75 -88 21 5 41 12 45
17 5 4 10 57 12 116 3 111 11 131 48 124 12 -2 16 -22 18 -97z m-3712 12 c46
-81 50 -81 92 3 40 80 89 98 104 37 5 -17 7 -89 6 -160 l-3 -127 -27 -3 -27
-3 -3 106 -3 107 -42 -66 c-23 -36 -47 -66 -53 -66 -6 0 -27 26 -48 58 l-37
57 -3 -92 -3 -93 -29 0 -29 0 -3 153 c-2 83 -2 155 -1 158 1 3 17 6 35 5 29
-1 36 -8 74 -74z m514 58 c53 -27 83 -72 88 -134 3 -43 -1 -58 -24 -93 -51
-77 -142 -105 -209 -63 -39 24 -59 53 -74 105 -17 61 0 105 60 159 59 53 95
59 159 26z m750 2 c0 -4 3 -17 6 -29 6 -20 2 -22 -75 -29 -81 -7 -81 -7 -81
-35 0 -29 0 -29 66 -29 l65 0 -3 -27 c-3 -27 -6 -28 -65 -31 l-63 -3 0 -34 0
-35 75 0 75 0 0 -30 0 -30 -104 0 -104 0 -7 79 c-4 44 -4 117 0 163 l7 83 104
-3 c57 -2 104 -6 104 -10z m762 -7 c16 -36 2 -46 -75 -52 -56 -5 -66 -9 -71
-27 -10 -39 -7 -42 52 -41 54 0 57 -1 60 -27 3 -22 -2 -27 -25 -32 -15 -4 -43
-2 -60 3 l-33 10 0 -64 c0 -70 -6 -79 -45 -69 l-26 6 3 152 3 151 95 6 c52 3
98 6 103 7 4 1 13 -9 19 -23z m507 7 c15 -28 18 -305 3 -310 -32 -10 -61 13
-117 93 -33 46 -63 85 -67 85 -5 0 -8 -40 -8 -90 0 -88 0 -90 -24 -90 -22 0
-24 5 -31 74 -3 41 -3 111 1 156 10 124 31 120 133 -25 l56 -80 3 90 c1 50 4
96 7 103 6 18 33 15 44 -6z m329 9 c8 -5 12 -21 10 -37 -3 -29 -3 -29 -81 -32
l-78 -3 3 -31 3 -32 63 3 62 2 0 -30 c0 -30 0 -30 -62 -33 -60 -3 -63 -4 -66
-30 l-3 -28 80 0 81 0 0 -35 0 -35 -104 0 c-85 0 -105 3 -110 16 -3 9 -6 80
-6 159 l0 144 93 4 c50 1 94 4 97 5 3 1 11 -2 18 -7z m510 -19 c6 -9 12 -24
12 -34 0 -15 -9 -18 -56 -18 l-56 0 7 -120 7 -119 -26 -7 c-15 -3 -29 -4 -32
-2 -2 3 -7 58 -11 122 l-6 116 -44 0 -43 0 0 38 c0 21 3 42 7 46 4 4 57 4 118
1 83 -5 113 -11 123 -23z m500 10 c9 -9 46 -53 82 -96 l65 -79 3 97 c3 93 3
96 26 96 21 0 24 -5 29 -67 10 -100 8 -251 -2 -257 -21 -13 -62 16 -100 71
-22 32 -54 74 -70 93 l-30 35 6 -71 c8 -95 0 -124 -32 -124 l-25 0 0 153 c0
175 5 192 48 149z m608 -24 c22 -24 55 -65 74 -91 40 -57 48 -49 49 50 1 49 5
64 19 72 38 20 42 3 35 -158 l-6 -152 -26 3 c-20 2 -40 24 -90 96 -35 51 -66
91 -68 89 -2 -3 -7 -46 -11 -98 -7 -92 -8 -94 -32 -94 l-25 0 -3 150 c-1 82 0
155 2 162 10 25 44 13 82 -29z m482 28 c40 -21 68 -54 51 -60 -29 -10 -45 -10
-81 3 -92 31 -152 -87 -82 -160 33 -35 68 -46 89 -29 23 19 18 39 -10 46 -28
7 -32 30 -12 58 11 15 17 16 35 7 11 -6 32 -11 46 -11 22 0 26 -4 26 -30 0
-73 -55 -140 -115 -140 -37 0 -92 38 -130 89 -51 71 -21 166 70 222 36 22 76
24 113 5z m-4069 -25 c33 -24 61 -86 61 -134 0 -38 -34 -97 -75 -129 -24 -19
-44 -24 -107 -27 l-78 -3 0 162 0 163 85 -6 c63 -4 93 -11 114 -26z m531 -28
c0 -32 3 -88 7 -125 l6 -68 78 0 79 0 0 -35 0 -35 -115 0 -114 0 -3 156 c-2
86 -1 158 1 160 2 2 17 4 33 4 27 0 28 -1 28 -57z m752 -80 c6 -172 4 -185
-31 -181 l-26 3 -3 145 c-1 79 0 150 2 157 3 7 16 13 29 13 24 0 24 0 29 -137z
m2098 -23 l0 -160 -25 0 c-18 0 -28 7 -35 26 -11 28 -14 277 -3 287 3 4 19 7
35 7 l28 0 0 -160z m-4687 27 c31 -2 32 -7 16 -65 -9 -33 -14 -40 -25 -31 -7
6 -30 9 -51 7 -37 -3 -38 -3 -43 38 -9 60 -4 67 39 59 20 -3 48 -7 64 -8z
m3488 -29 c5 -7 9 -21 9 -30 0 -16 -10 -18 -75 -18 l-75 0 0 28 c0 16 3 32 8
36 11 13 124 -1 133 -16z m-3707 -23 c3 -11 1 -24 -4 -29 -5 -5 -129 -9 -277
-9 -246 -1 -268 1 -271 17 -9 44 5 46 284 43 253 -2 263 -3 268 -22z m6195 10
c17 -10 13 -42 -6 -47 -10 -2 -107 -2 -215 0 l-198 4 0 23 c0 14 7 25 17 27
31 6 391 0 402 -7z"/>
<path d="M3489 9019 c-38 -41 -39 -86 -1 -121 42 -41 73 -44 110 -13 52 44 39
121 -25 154 -34 18 -53 13 -84 -20z"/>
<path d="M6100 8981 c-7 -15 -5 -25 9 -42 16 -20 21 -21 35 -10 20 17 20 35 0
55 -20 21 -31 20 -44 -3z"/>
<path d="M2978 8939 c-24 -13 -23 -44 2 -69 26 -26 36 -25 65 5 29 28 31 38 9
59 -18 18 -51 20 -76 5z"/>
<path d="M5455 8805 c-27 -8 -54 -14 -58 -15 -4 0 -29 -20 -56 -45 -66 -62
-115 -168 -116 -250 0 -49 7 -75 40 -143 57 -122 126 -174 257 -192 72 -10
163 13 220 57 46 35 124 151 139 206 25 94 -17 231 -93 304 -73 71 -232 108
-333 78z m-35 -113 c0 -5 -13 -27 -29 -49 -55 -76 -66 -136 -45 -243 4 -19 3
-22 -7 -13 -17 17 -25 79 -21 185 2 51 6 61 37 93 33 33 65 46 65 27z m355
-38 c36 -36 50 -79 50 -154 0 -157 -80 -246 -247 -275 -72 -13 -218 62 -218
112 0 11 4 11 23 -1 39 -26 169 -76 196 -76 33 0 121 41 142 66 53 62 69 200
32 271 -30 58 -16 95 22 57z m-147 -50 c70 -49 69 -181 -2 -228 -14 -9 -45
-16 -70 -16 -56 0 -110 42 -127 100 -15 50 -5 86 36 127 29 29 39 33 87 33 32
0 62 -6 76 -16z"/>
<path d="M5518 8538 c-50 -18 -47 -68 5 -94 28 -15 32 -15 56 4 63 46 15 118
-61 90z"/>
<path d="M6404 8706 c-10 -26 1 -51 24 -54 23 -4 29 17 16 52 -8 20 -33 21
-40 2z"/>
<path d="M8000 8675 c0 -8 5 -15 10 -15 6 0 10 7 10 15 0 8 -4 15 -10 15 -5 0
-10 -7 -10 -15z"/>
<path d="M4543 8600 c-93 -49 -155 -110 -202 -202 -33 -66 -33 -67 -29 -185 5
-153 29 -201 140 -285 54 -41 169 -82 201 -72 11 3 29 1 42 -6 18 -10 34 -6
101 21 63 26 93 47 145 99 85 84 103 133 104 275 0 89 -3 107 -28 160 -51 110
-147 187 -274 220 -86 23 -114 19 -200 -25z m141 -46 c3 -9 9 -39 12 -68 5
-45 4 -54 -11 -60 -10 -4 -23 -2 -29 4 -10 10 -11 115 0 131 8 14 21 11 28 -7z
m77 -195 c15 -11 35 -39 45 -64 16 -38 23 -45 39 -40 58 16 111 17 124 1 11
-13 11 -19 0 -32 -11 -13 -26 -15 -74 -11 l-61 4 -22 -48 c-26 -56 -73 -89
-125 -89 -53 0 -116 52 -137 114 -14 44 -17 47 -30 31 -12 -14 -25 -16 -69
-12 -64 7 -75 15 -55 42 12 16 26 20 65 19 27 0 54 -5 60 -11 8 -8 17 0 33 30
16 32 35 49 75 69 58 30 86 29 132 -3z m-64 -361 c5 -45 -9 -98 -27 -98 -11 0
-14 142 -3 153 12 13 25 -11 30 -55z"/>
<path d="M4637 8287 c-10 -6 -20 -28 -23 -47 -5 -29 -1 -40 21 -63 34 -34 68
-34 100 -2 29 28 31 45 10 84 -21 42 -72 55 -108 28z"/>
<path d="M7180 8425 c-78 -22 -99 -34 -149 -80 -96 -90 -119 -219 -67 -380 24
-74 29 -82 73 -112 99 -65 132 -76 223 -77 79 -1 91 2 168 38 132 63 192 150
192 282 0 92 -22 152 -76 213 -97 108 -238 153 -364 116z m77 -212 c41 -94 86
-240 79 -258 -10 -26 -39 -13 -48 23 -8 31 -10 32 -63 32 -51 0 -55 -2 -55
-24 0 -26 -16 -36 -57 -36 -23 0 -25 3 -19 31 3 17 17 58 32 92 14 34 35 87
46 117 36 99 49 102 85 23z m183 -70 c0 -65 3 -135 7 -156 6 -38 5 -39 -23
-35 -36 4 -42 24 -43 155 -1 115 9 153 39 153 19 0 20 -6 20 -117z"/>
<path d="M7200 8121 c-18 -35 -12 -51 20 -51 21 0 30 5 30 16 0 21 -18 54 -30
54 -5 0 -14 -9 -20 -19z"/>
<path d="M6686 8063 c-97 -3 -108 -6 -103 -21 3 -9 16 -56 30 -104 56 -205
230 -369 474 -447 l115 -38 8 23 c9 22 38 44 59 44 6 0 14 -12 17 -26 7 -26 8
-26 68 -20 80 8 195 40 254 70 117 60 258 215 316 348 28 64 50 153 41 168 -4
6 -53 10 -124 10 l-119 0 -6 -43 c-9 -56 -45 -133 -96 -202 -57 -77 -140 -129
-238 -151 -42 -9 -81 -23 -85 -30 -4 -8 -16 -18 -27 -24 -16 -8 -21 -5 -32 17
-16 31 -22 35 -115 63 -40 12 -100 41 -135 64 -51 33 -69 52 -94 102 -18 34
-37 93 -44 133 -11 64 -14 71 -33 69 -12 -1 -71 -4 -131 -5z"/>
<path d="M3912 8243 c-7 -3 -19 -18 -28 -35 -20 -40 -4 -81 38 -99 27 -11 36
-10 67 7 30 16 37 25 39 55 3 30 -2 41 -24 58 -25 20 -63 26 -92 14z"/>
<path d="M6086 8208 c-22 -32 -20 -52 10 -88 22 -25 33 -31 61 -28 68 6 84 91
23 123 -41 21 -76 19 -94 -7z"/>
<path d="M6391 7593 c-10 -23 -9 -29 7 -46 39 -39 93 13 56 54 -24 27 -49 24
-63 -8z"/>
<path d="M8101 7586 c-16 -19 -11 -46 12 -60 22 -14 38 7 35 44 -3 29 -29 38
-47 16z"/>
<path d="M1880 7505 c-7 -8 -10 -25 -6 -39 11 -45 71 -45 82 0 8 30 -11 54
-41 54 -12 0 -28 -7 -35 -15z"/>
<path d="M2176 7514 c-37 -36 0 -108 43 -85 33 18 39 61 11 83 -27 22 -34 22
-54 2z"/>
<path d="M2430 7506 c-18 -23 -8 -59 23 -76 26 -14 29 -14 43 4 17 24 18 58 2
74 -16 16 -53 15 -68 -2z"/>
<path d="M2726 7514 c-9 -8 -16 -24 -16 -34 0 -18 24 -50 38 -50 4 0 18 7 30
16 27 19 29 60 3 74 -27 14 -37 13 -55 -6z"/>
<path d="M3005 7504 c-9 -9 -15 -28 -13 -43 3 -22 8 -26 40 -29 30 -3 40 1 53
22 33 50 -36 94 -80 50z"/>
<path d="M3415 7510 c-24 -26 -13 -68 20 -76 46 -12 81 42 49 77 -22 24 -46
24 -69 -1z"/>
<path d="M6082 7358 c-123 -21 -184 -126 -148 -249 26 -91 91 -139 187 -139
88 0 171 61 185 136 11 58 -2 142 -28 180 -38 56 -120 86 -196 72z m102 -129
c57 -67 20 -159 -63 -159 -50 0 -91 43 -91 95 0 51 42 95 90 95 30 0 44 -6 64
-31z"/>
<path d="M8335 7225 c-31 -30 -33 -82 -4 -119 25 -32 66 -34 102 -6 33 26 41
63 22 100 -28 54 -80 66 -120 25z"/>
<path d="M5702 6820 c0 -14 2 -19 5 -12 2 6 2 18 0 25 -3 6 -5 1 -5 -13z"/>
<path d="M7100 6960 c-201 -25 -429 -127 -593 -263 l-60 -51 44 -39 c123 -108
258 -187 395 -230 155 -49 235 -60 388 -54 167 6 280 34 423 102 154 75 335
207 319 233 -11 18 -149 118 -206 150 -66 37 -264 115 -346 137 -69 19 -271
27 -364 15z m396 -75 c40 -26 78 -118 82 -200 5 -90 -19 -148 -88 -215 -168
-163 -486 -106 -556 101 -25 75 -23 180 4 242 27 61 66 79 160 75 l66 -3 -51
-39 c-58 -44 -91 -96 -99 -157 -5 -36 -1 -54 23 -98 41 -77 96 -114 178 -119
113 -7 206 41 251 129 34 69 31 105 -15 177 -42 65 -63 82 -125 103 l-39 14
29 7 c48 11 152 2 180 -17z m-214 -105 c41 -12 78 -55 78 -90 0 -51 -61 -110
-113 -110 -33 0 -90 40 -101 71 -12 36 0 76 34 110 31 32 46 34 102 19z"/>
<path d="M1615 6913 c-24 -23 -37 -62 -29 -87 20 -67 89 -86 143 -40 41 34 42
75 2 115 -34 34 -89 40 -116 12z"/>
<path d="M2970 6910 c-30 -30 -27 -83 6 -109 41 -32 80 -28 104 12 25 41 25
58 -1 91 -26 33 -79 36 -109 6z"/>
<path d="M3693 6500 c-33 -20 -59 -59 -63 -95 -6 -50 2 -70 40 -107 48 -45 94
-50 148 -18 89 55 75 184 -25 226 -43 19 -62 18 -100 -6z"/>
<path d="M4830 6223 c-191 -31 -365 -108 -478 -212 -30 -28 -35 -51 -12 -51 5
0 28 -13 52 -29 60 -39 257 -141 275 -141 8 0 -4 22 -32 57 -63 77 -77 107
-83 179 -4 56 -3 63 17 74 12 6 32 10 44 8 19 -3 23 -12 29 -60 10 -77 30
-114 91 -169 48 -43 51 -48 40 -72 -12 -25 -11 -26 45 -38 72 -15 169 0 192
30 65 86 85 118 106 168 13 32 24 77 24 99 0 39 2 42 34 48 55 10 66 1 66 -58
0 -59 -23 -113 -81 -198 l-40 -59 28 7 c57 14 131 45 189 80 75 45 164 112
164 123 0 15 -200 124 -289 157 -116 44 -297 71 -381 57z m-10 -130 c14 -28
38 -54 55 -63 17 -8 32 -18 33 -22 2 -5 12 -8 23 -8 14 0 19 -7 19 -26 0 -14
4 -23 9 -20 5 4 7 -3 4 -15 -4 -14 -9 -17 -16 -10 -6 6 -33 11 -59 11 -64 0
-102 21 -133 73 -29 51 -32 83 -8 109 26 29 46 21 73 -29z m206 26 c20 -22 23
-87 5 -124 -5 -11 -12 -32 -15 -47 -4 -16 -11 -28 -17 -28 -8 0 -7 5 1 15 10
13 9 19 -6 36 -18 20 -22 36 -25 102 -1 34 14 67 31 67 4 0 15 -9 26 -21z
m-96 -278 c0 -10 -25 -21 -48 -21 -15 1 -14 3 2 15 22 17 46 20 46 6z"/>
<path d="M6077 6162 c-10 -10 -17 -35 -17 -55 0 -71 85 -88 110 -22 24 64 -50
125 -93 77z"/>
<path d="M6370 5869 c0 -5 5 -7 10 -4 6 3 10 8 10 11 0 2 -4 4 -10 4 -5 0 -10
-5 -10 -11z"/>
<path d="M7284 5886 c-7 -20 2 -46 16 -46 13 0 13 47 0 55 -6 3 -13 -1 -16 -9z"/>
<path d="M6620 5575 c0 -8 2 -15 4 -15 2 0 11 -3 19 -6 12 -4 14 0 10 15 -6
24 -33 29 -33 6z"/>
<path d="M7280 5570 c-11 -7 -12 -12 -3 -21 14 -14 46 -4 41 13 -6 16 -20 19
-38 8z"/>
<path d="M7925 5576 c-16 -11 -16 -14 -1 -29 20 -19 46 -12 46 13 0 23 -24 32
-45 16z"/>
<path d="M2397 4982 c-35 -38 -11 -91 40 -92 23 0 53 34 53 61 0 21 -32 49
-57 49 -11 0 -27 -8 -36 -18z"/>
<path d="M2138 4984 c-47 -25 -31 -94 21 -94 34 0 61 27 61 61 0 47 -33 60
-82 33z"/>
<path d="M2623 4988 c-17 -22 -21 -42 -12 -65 7 -18 16 -23 47 -23 43 0 62 14
62 45 0 43 -72 75 -97 43z"/>
<path d="M3003 5000 c-47 -19 -18 -100 35 -100 23 0 52 34 52 61 0 32 -50 54
-87 39z"/>
<path d="M8323 5428 c-29 -33 -35 -67 -16 -105 17 -36 57 -63 93 -63 12 0 35
13 51 29 41 41 39 83 -5 127 -42 42 -91 46 -123 12z"/>
<path d="M6902 5028 c3 -7 15 -15 27 -16 16 -3 22 1 19 10 -3 7 -15 15 -27 16
-16 3 -22 -1 -19 -10z"/>
<path d="M6241 4975 c-104 -23 -147 -44 -222 -110 -90 -80 -131 -137 -160
-227 -87 -272 82 -569 366 -643 165 -42 330 4 464 131 83 78 124 151 147 264
16 80 16 89 0 161 -50 223 -176 360 -386 418 -85 24 -120 25 -209 6z m67 -159
c6 -54 -5 -74 -48 -86 -21 -6 -58 -25 -81 -43 -87 -66 -112 -178 -65 -296 31
-79 59 -109 141 -148 53 -25 60 -32 60 -58 0 -29 -1 -30 -43 -28 -60 3 -163
53 -194 94 -36 47 -64 107 -72 151 -6 30 -3 41 13 55 20 17 20 17 0 31 -18 12
-20 21 -15 56 9 52 57 157 96 206 35 44 142 102 180 98 19 -2 26 -10 28 -32z
m205 -24 c97 -52 167 -160 167 -257 0 -24 -6 -35 -25 -43 -24 -11 -35 -32 -16
-32 19 0 41 -32 41 -61 0 -17 -12 -55 -26 -85 -34 -73 -101 -125 -188 -149
-68 -19 -92 -16 -103 11 -10 28 9 45 77 70 74 26 98 51 142 142 26 53 30 71
24 110 -14 100 -76 186 -168 233 -55 28 -58 31 -58 65 l0 37 42 -7 c23 -4 64
-19 91 -34z m-81 -219 c59 -64 65 -123 18 -177 -77 -87 -190 -61 -219 51 -13
49 -3 84 37 126 22 23 34 27 82 27 48 0 60 -4 82 -27z"/>
<path d="M6340 4523 c-41 -14 -54 -75 -19 -93 16 -9 28 -9 50 1 25 10 30 17
27 42 -3 32 -33 58 -58 50z"/>
<path d="M7291 4893 c-25 -31 -32 -54 -34 -119 l-2 -49 80 -5 c72 -4 80 -7 83
-26 3 -18 -3 -22 -46 -27 -26 -3 -66 -3 -89 0 -51 7 -62 -9 -29 -42 22 -21 34
-25 89 -25 50 0 68 4 81 19 16 18 16 26 -3 141 -13 79 -26 129 -37 141 -25 28
-68 24 -93 -8z"/>
<path d="M7877 4912 c-14 -15 -17 -41 -17 -140 0 -136 8 -169 44 -178 35 -8
82 17 77 41 -3 11 -5 78 -5 148 -1 102 -4 130 -16 137 -24 16 -66 11 -83 -8z"/>
<path d="M8000 4277 c-51 -26 -61 -93 -18 -129 47 -40 128 -5 128 56 0 55 -62
97 -110 73z"/>
<path d="M3487 4186 c-80 -42 -307 -176 -307 -181 0 -2 217 -4 483 -4 266 1
529 -2 585 -6 121 -9 130 1 42 45 -33 17 -115 64 -182 105 -67 41 -132 75
-143 75 -12 0 -50 -14 -86 -31 -90 -44 -131 -47 -210 -14 -115 47 -113 47
-182 11z"/>
<path d="M4030 3899 c-118 -4 -345 -4 -504 -1 l-288 5 13 -22 c26 -43 164
-138 215 -149 27 -6 148 -13 270 -16 235 -6 288 0 375 44 66 34 185 153 147
148 -7 -1 -110 -5 -228 -9z"/>
<path d="M7351 4193 l-33 -4 6 -59 7 -58 -43 -7 c-24 -4 -87 -27 -140 -52 -68
-31 -108 -44 -130 -41 -30 3 -33 1 -30 -22 1 -14 -11 -63 -29 -110 -44 -120
-59 -170 -59 -196 0 -23 -1 -24 -76 -17 l-75 6 3 -59 c3 -53 6 -59 29 -68 14
-5 43 -6 63 -2 l37 7 -6 43 c-8 49 -2 56 38 49 34 -7 37 -45 5 -67 -21 -15
-22 -19 -10 -72 6 -30 23 -81 37 -111 14 -31 25 -74 25 -97 0 -23 7 -52 16
-64 13 -19 21 -21 54 -16 31 5 48 1 92 -24 29 -16 76 -37 103 -47 66 -24 77
-36 84 -87 6 -40 8 -43 36 -43 27 0 30 4 36 38 3 21 10 42 15 47 5 4 58 30
117 55 134 59 154 74 138 103 -16 31 -13 52 8 52 26 0 42 -22 31 -40 -13 -21
-12 -57 2 -66 19 -12 58 46 58 88 0 21 11 61 23 90 13 30 32 76 41 105 l17 51
53 6 c69 9 83 21 91 77 6 43 5 47 -17 52 -12 4 -51 7 -84 7 l-61 0 -6 43 c-3
23 -20 85 -37 137 -27 80 -30 100 -22 128 19 62 -5 80 -55 38 -15 -12 -35 -21
-43 -19 -8 2 -68 29 -132 60 l-117 57 -3 55 c-3 58 -5 60 -57 54z m27 -175
c19 -19 14 -56 -8 -63 -26 -8 -40 1 -40 29 0 21 16 46 30 46 3 0 11 -5 18 -12z
m-297 -121 c19 -12 35 -33 37 -45 3 -19 -1 -22 -27 -22 -32 0 -71 38 -71 71 0
25 20 24 61 -4z m619 8 c0 -28 -31 -65 -56 -65 -28 0 -37 13 -29 41 11 33 85
54 85 24z m-184 -46 c32 -19 68 -38 78 -44 11 -5 35 -41 55 -79 34 -65 36 -74
36 -165 -1 -83 -4 -103 -27 -151 -22 -44 -40 -63 -90 -97 -141 -93 -247 -96
-390 -11 -79 47 -88 58 -117 147 -25 75 -28 183 -7 232 25 59 75 119 130 154
71 45 107 55 197 51 65 -2 84 -7 135 -37z m328 -255 c28 -11 17 -74 -13 -74
-24 0 -46 47 -30 66 13 16 20 17 43 8z m-770 -320 c31 -12 6 -63 -31 -64 -16
0 -17 42 -1 58 14 14 12 14 32 6z m304 -109 c17 -37 15 -63 -6 -74 -26 -14
-42 5 -42 49 0 56 28 70 48 25z"/>
<path d="M7298 3800 c-114 -34 -181 -150 -158 -271 16 -84 40 -120 98 -152
104 -57 215 -44 289 32 69 71 89 150 62 242 -34 112 -174 184 -291 149z m128
-119 c34 -21 64 -75 64 -116 0 -32 -14 -61 -48 -97 -21 -23 -34 -28 -75 -28
-26 0 -57 5 -68 10 -44 24 -64 124 -36 180 16 32 73 70 106 70 14 0 40 -9 57
-19z"/>
<path d="M5545 3921 c-83 -44 -120 -144 -80 -221 20 -38 80 -79 128 -87 40 -6
41 -10 22 -55 -4 -11 -3 -18 4 -18 6 0 14 12 17 28 4 15 27 45 53 68 25 23 52
57 59 77 12 33 11 42 -15 104 -21 51 -39 75 -71 100 -24 18 -49 32 -55 32 -7
-1 -34 -13 -62 -28z"/>
<path d="M5240 3249 c0 -8 -9 -34 -20 -57 -33 -68 -28 -79 31 -84 28 -1 52 -2
53 0 2 1 -7 24 -20 50 -13 26 -24 54 -24 62 0 8 -5 22 -10 30 -9 13 -10 13
-10 -1z"/>
<path d="M2178 3280 c-50 -15 -110 -55 -124 -82 -8 -15 -14 -44 -14 -64 0 -31
7 -45 44 -80 55 -53 101 -68 173 -59 91 11 132 66 133 176 0 88 -104 142 -212
109z m-3 -140 c-5 -8 -11 -8 -17 -2 -6 6 -7 16 -3 22 5 8 11 8 17 2 6 -6 7
-16 3 -22z"/>
<path d="M6653 3063 c-21 -7 -15 -33 7 -33 11 0 20 6 20 14 0 18 -11 25 -27
19z"/>
<path d="M4143 2293 c-12 -32 -25 -66 -29 -75 -5 -16 1 -18 50 -18 56 0 56 0
50 28 -11 52 -36 122 -42 122 -4 0 -17 -26 -29 -57z"/>
<path d="M7754 2371 c-50 -31 -67 -108 -43 -194 13 -48 57 -77 118 -77 36 0
49 6 77 34 32 32 34 38 34 100 0 103 -28 141 -112 152 -32 4 -51 0 -74 -15z"/>
<path d="M6657 2329 c3 -35 7 -66 9 -68 9 -10 115 -3 129 9 20 17 20 84 -1
101 -9 7 -44 15 -79 17 l-63 4 5 -63z"/>
<path d="M2042 1804 c-52 -36 -48 -104 7 -137 40 -23 64 -21 100 9 38 31 41
78 10 118 -24 31 -81 36 -117 10z"/>
<path d="M2380 1780 c0 -34 3 -39 28 -44 46 -10 87 6 90 37 4 30 -2 33 -70 40
l-48 5 0 -38z"/>
<path d="M3306 1789 c-31 -37 -33 -72 -6 -99 50 -50 117 -45 145 11 20 38 19
62 -6 93 -16 21 -29 26 -64 26 -36 0 -48 -5 -69 -31z"/>
<path d="M3668 1734 l4 -86 36 7 c72 13 102 52 88 111 -7 28 -57 54 -103 54
l-28 0 3 -86z"/>
<path d="M3249 1431 c-40 -40 -40 -88 0 -130 50 -53 125 -35 152 36 13 35 2
69 -33 98 -40 34 -82 33 -119 -4z"/>
<path d="M3620 1366 l0 -96 30 0 c37 0 85 23 94 45 3 9 6 34 6 54 0 43 -20 66
-65 76 -16 4 -38 9 -47 12 -16 4 -18 -5 -18 -91z"/>
</g>
</svg>
